<?xml version="1.0" ?><!-- Uploaded to: SVG Repo, www.svgrepo.com, Generator: SVG Repo Mixer Tools -->
<svg width="800px" height="800px" viewBox="0 0 24 24" fill="none" xmlns="http://www.w3.org/2000/svg"><path d="M15 8V6C15 4.89543 14.1046 4 13 4H11C9.89543 4 9 4.89543 9 6V8M15 8H19C20.1046 8 21 8.89543 21 10V13M15 8H9M9 8H5C3.89543 8 3 8.89543 3 10V13M3 13V18C3 19.1046 3.89543 20 5 20H19C20.1046 20 21 19.1046 21 18V13M3 13H10M21 13H14M14 13V11H10V13M14 13V15H10V13" stroke="#000000" stroke-linecap="round" stroke-linejoin="round" stroke-width="2"/></svg>