<?xml version="1.0" encoding="UTF-8"?>
<svg version="1.1" xmlns="http://www.w3.org/2000/svg" width="372" height="372">
<path d="M0 0 C5.74706538 3.96821181 9.57885136 8.35035582 11.19921875 15.26171875 C11.81619234 20.40693889 11.72893739 25.51101344 11.6875 30.6875 C11.68298828 31.75742188 11.67847656 32.82734375 11.67382812 33.9296875 C11.66209749 36.55734986 11.64568228 39.18489538 11.625 41.8125 C12.69028931 41.78893433 12.69028931 41.78893433 13.77709961 41.76489258 C17.0388166 41.7019886 20.30040537 41.66333463 23.5625 41.625 C25.23795898 41.58729492 25.23795898 41.58729492 26.94726562 41.54882812 C33.49502389 41.49122321 39.73970669 41.62686738 45.625 44.8125 C48 47.8125 48 47.8125 49.625 50.8125 C50.429375 51.555 50.429375 51.555 51.25 52.3125 C55.66442414 57.12823542 54.88611733 64.16471037 54.8203125 70.2421875 C54.81606766 71.727686 54.81606766 71.727686 54.81173706 73.24319458 C54.8005847 76.39142176 54.77548907 79.53935949 54.75 82.6875 C54.73996382 84.82812088 54.73083908 86.96874624 54.72265625 89.109375 C54.70066158 94.34384797 54.66723333 99.5781533 54.625 104.8125 C55.73125732 104.9475293 56.83751465 105.08255859 57.97729492 105.22167969 C61.79215816 105.83957468 63.15607342 106.49845946 65.9375 109.0625 C66.59363281 109.64515625 67.24976563 110.2278125 67.92578125 110.828125 C71.56819943 115.08179956 71.91472 119.42039629 72.109375 124.87890625 C72.14553925 125.89101418 72.14553925 125.89101418 72.18243408 126.92356873 C72.23057145 128.34969491 72.27399696 129.77598703 72.31298828 131.20239258 C72.37413682 133.34475805 72.45751556 135.48543686 72.54296875 137.62695312 C73.31956057 160.37409937 73.31956057 160.37409937 66.625 167.8125 C62.61367013 171.03900446 59.65696911 172.10466033 54.625 172.8125 C54.63610306 173.45428192 54.64720612 174.09606384 54.65864563 174.7572937 C54.76978701 181.47379555 54.84489372 188.19003359 54.8996582 194.90722656 C54.92470793 197.40961326 54.95875742 199.91192748 55.00219727 202.4140625 C55.06326661 206.02362007 55.09130674 209.63220519 55.11328125 213.2421875 C55.13908768 214.34988495 55.1648941 215.4575824 55.19148254 216.59884644 C55.1944001 224.79047582 53.49844823 231.51913581 47.89839172 237.72628784 C41.37467697 243.9942211 33.79980416 245.26181238 25.10572815 245.1867218 C24.17827646 245.19069621 23.25082476 245.19467061 22.29526848 245.19876546 C19.20393003 245.20834922 16.11305374 245.19659393 13.02172852 245.18481445 C10.79872467 245.18724372 8.57572191 245.19096435 6.35272217 245.19587708 C0.3258658 245.20527166 -5.70082775 245.19587224 -11.72767138 245.18254495 C-18.04021394 245.17121497 -24.35274866 245.17533919 -30.66529846 245.17729187 C-41.26655609 245.17817442 -51.86775687 245.16717429 -62.46899414 245.14868164 C-73.36289401 245.12968361 -84.25671951 245.12259337 -95.15063477 245.12817383 C-108.29620164 245.13488784 -121.44173272 245.13157196 -134.58729744 245.11907005 C-139.6010302 245.1144315 -144.61474277 245.11354701 -149.6284771 245.1156559 C-155.53577374 245.11754298 -161.44297528 245.10940252 -167.35025024 245.0935955 C-169.51536223 245.08936187 -171.68048389 245.08849589 -173.84559822 245.09128571 C-176.80675049 245.09452169 -179.76762117 245.08538992 -182.72874451 245.07319641 C-184.00610361 245.0788654 -184.00610361 245.0788654 -185.30926794 245.08464891 C-190.65855971 245.04583161 -196.37794276 244.89924645 -201.375 242.8125 C-201.705 241.8225 -202.035 240.8325 -202.375 239.8125 C-203.29732422 239.38710938 -203.29732422 239.38710938 -204.23828125 238.953125 C-207.18044488 237.38253674 -208.01025959 235.4834254 -209.5625 232.5625 C-210.07167969 231.62921875 -210.58085937 230.6959375 -211.10546875 229.734375 C-212.41204102 226.72724867 -212.97679795 224.05568779 -213.375 220.8125 C-214.035 220.8125 -214.695 220.8125 -215.375 220.8125 C-215.375 220.1525 -215.375 219.4925 -215.375 218.8125 C-214.715 218.8125 -214.055 218.8125 -213.375 218.8125 C-213.375 216.8325 -213.375 214.8525 -213.375 212.8125 C-214.035 212.8125 -214.695 212.8125 -215.375 212.8125 C-215.375 212.1525 -215.375 211.4925 -215.375 210.8125 C-214.715 210.8125 -214.055 210.8125 -213.375 210.8125 C-213.375 208.8325 -213.375 206.8525 -213.375 204.8125 C-214.035 204.8125 -214.695 204.8125 -215.375 204.8125 C-215.375 204.1525 -215.375 203.4925 -215.375 202.8125 C-214.715 202.8125 -214.055 202.8125 -213.375 202.8125 C-213.375 198.1925 -213.375 193.5725 -213.375 188.8125 C-214.035 188.8125 -214.695 188.8125 -215.375 188.8125 C-215.375 188.1525 -215.375 187.4925 -215.375 186.8125 C-214.715 186.8125 -214.055 186.8125 -213.375 186.8125 C-213.375 184.8325 -213.375 182.8525 -213.375 180.8125 C-214.035 180.8125 -214.695 180.8125 -215.375 180.8125 C-214.70833333 178.14583333 -214.04166667 175.47916667 -213.375 172.8125 C-214.035 172.8125 -214.695 172.8125 -215.375 172.8125 C-215.375 172.1525 -215.375 171.4925 -215.375 170.8125 C-214.715 170.8125 -214.055 170.8125 -213.375 170.8125 C-213.375 168.8325 -213.375 166.8525 -213.375 164.8125 C-214.035 164.8125 -214.695 164.8125 -215.375 164.8125 C-215.375 164.1525 -215.375 163.4925 -215.375 162.8125 C-214.715 162.8125 -214.055 162.8125 -213.375 162.8125 C-213.375 160.8325 -213.375 158.8525 -213.375 156.8125 C-214.035 156.8125 -214.695 156.8125 -215.375 156.8125 C-215.375 156.1525 -215.375 155.4925 -215.375 154.8125 C-214.715 154.8125 -214.055 154.8125 -213.375 154.8125 C-213.375 150.1925 -213.375 145.5725 -213.375 140.8125 C-214.035 140.8125 -214.695 140.8125 -215.375 140.8125 C-215.375 140.1525 -215.375 139.4925 -215.375 138.8125 C-214.715 138.8125 -214.055 138.8125 -213.375 138.8125 C-213.375 136.8325 -213.375 134.8525 -213.375 132.8125 C-214.035 132.8125 -214.695 132.8125 -215.375 132.8125 C-215.045 131.8225 -214.715 130.8325 -214.375 129.8125 C-214.02679959 128.14887583 -213.69095508 126.48254829 -213.375 124.8125 C-214.035 124.8125 -214.695 124.8125 -215.375 124.8125 C-215.375 124.1525 -215.375 123.4925 -215.375 122.8125 C-214.715 122.8125 -214.055 122.8125 -213.375 122.8125 C-213.375 120.8325 -213.375 118.8525 -213.375 116.8125 C-214.035 116.8125 -214.695 116.8125 -215.375 116.8125 C-215.375 116.1525 -215.375 115.4925 -215.375 114.8125 C-214.715 114.8125 -214.055 114.8125 -213.375 114.8125 C-213.375 112.8325 -213.375 110.8525 -213.375 108.8125 C-214.035 108.8125 -214.695 108.8125 -215.375 108.8125 C-215.375 107.8225 -215.375 106.8325 -215.375 105.8125 C-214.715 105.8125 -214.055 105.8125 -213.375 105.8125 C-213.375 104.1625 -213.375 102.5125 -213.375 100.8125 C-214.035 100.8125 -214.695 100.8125 -215.375 100.8125 C-215.375 97.47916667 -215.375 94.14583333 -215.375 90.8125 C-214.715 90.8125 -214.055 90.8125 -213.375 90.8125 C-213.375 86.1925 -213.375 81.5725 -213.375 76.8125 C-214.035 76.8125 -214.695 76.8125 -215.375 76.8125 C-215.375 76.1525 -215.375 75.4925 -215.375 74.8125 C-214.715 74.8125 -214.055 74.8125 -213.375 74.8125 C-213.375 72.8325 -213.375 70.8525 -213.375 68.8125 C-214.035 68.4825 -214.695 68.1525 -215.375 67.8125 C-214.715 67.8125 -214.055 67.8125 -213.375 67.8125 C-213.4678125 66.018125 -213.4678125 66.018125 -213.5625 64.1875 C-213.5844759 60.04870515 -212.39920381 57.43919849 -210.375 53.8125 C-210.375 52.8225 -210.375 51.8325 -210.375 50.8125 C-209.735625 50.565 -209.09625 50.3175 -208.4375 50.0625 C-206.18196091 49.00966567 -206.18196091 49.00966567 -205.74609375 46.734375 C-205.62363281 46.10015625 -205.50117188 45.4659375 -205.375 44.8125 C-202.56329551 44.05941998 -199.75067401 43.31005673 -196.9375 42.5625 C-196.17373047 42.35753906 -195.40996094 42.15257812 -194.62304688 41.94140625 C-182.17970984 38.64317234 -169.60163392 35.86151954 -157.06097412 32.9614563 C-133.04979584 27.4083595 -109.06525241 21.74718169 -85.15869141 15.75732422 C-80.53224948 14.60205707 -75.8926276 13.51047266 -71.24902344 12.42675781 C-67.38413261 11.5235587 -63.5231291 10.60801987 -59.66796875 9.6640625 C-58.90669678 9.47956543 -58.1454248 9.29506836 -57.36108398 9.10498047 C-55.90506627 8.75174634 -54.45008206 8.39421561 -52.99633789 8.03173828 C-49.38408756 7.16122146 -46.09345653 6.61072329 -42.375 6.8125 C-42.375 6.1525 -42.375 5.4925 -42.375 4.8125 C-41.43140625 4.70035156 -40.4878125 4.58820312 -39.515625 4.47265625 C-35.5490328 3.90756636 -31.72754073 2.93997826 -27.84985352 1.9453125 C-8.50252288 -2.99162842 -8.50252288 -2.99162842 0 0 Z M-15.08447266 12.81542969 C-16.02573502 13.03740524 -16.96699738 13.2593808 -17.93678284 13.48808289 C-18.96053513 13.73435928 -19.98428741 13.98063568 -21.0390625 14.234375 C-22.65946693 14.61859367 -22.65946693 14.61859367 -24.31260681 15.01057434 C-27.87614403 15.85677614 -31.4380884 16.70948356 -35 17.5625 C-37.47119891 18.15127043 -39.94247257 18.73972723 -42.41381836 19.32788086 C-47.52149866 20.5444317 -52.62844935 21.7639847 -57.73486328 22.98583984 C-63.88153606 24.45639775 -70.02974873 25.92036525 -76.17871094 27.38131714 C-80.69324793 28.45446364 -85.2070549 29.53065444 -89.72064209 30.60778809 C-91.84222169 31.11377908 -93.96400302 31.61892506 -96.08599854 32.12316895 C-107.25861237 34.78029744 -118.37489668 37.5040828 -129.375 40.8125 C-129.375 41.1425 -129.375 41.4725 -129.375 41.8125 C-87.135 41.8125 -44.895 41.8125 -1.375 41.8125 C0.59723373 21.1277309 0.59723373 21.1277309 -4.375 13.8125 C-5.365 12.8225 -5.365 12.8225 -6.375 11.8125 C-9.66900939 11.8125 -11.94742486 12.06799268 -15.08447266 12.81542969 Z M-198.6875 60.0625 C-202.87328234 66.88377492 -201.52350628 76.15113374 -201.52026367 83.88256836 C-201.52325915 85.30902697 -201.52666258 86.73548478 -201.53044128 88.16194153 C-201.53924443 92.02144957 -201.5416178 95.88093542 -201.54225707 99.74045253 C-201.5429695 102.15487252 -201.54510743 104.56928692 -201.54775429 106.98370552 C-201.55699446 115.41549155 -201.56109071 123.84726181 -201.56030273 132.27905273 C-201.55970182 140.1253666 -201.57025977 147.97161175 -201.5860464 155.81790823 C-201.59913954 162.5671664 -201.60448591 169.31640216 -201.60384732 176.06567293 C-201.60359292 180.09114379 -201.60641229 184.11655349 -201.61702538 188.14201164 C-201.62673665 191.92840657 -201.62676487 195.71468223 -201.61950874 199.50108147 C-201.61846677 200.8861407 -201.62080271 202.27120748 -201.6268692 203.65625381 C-201.9502868 216.07402245 -201.9502868 216.07402245 -197.125 227.1875 C-191.89546523 232.17932865 -186.22900287 232.10435816 -179.38648987 232.07319641 C-178.49200431 232.07702196 -177.59751876 232.08084751 -176.67592758 232.08478898 C-173.68436362 232.09509207 -170.69299255 232.09113193 -167.70141602 232.0871582 C-165.55427879 232.09150614 -163.40714313 232.09668956 -161.26000977 232.10264587 C-155.43155106 232.11603776 -149.60315719 232.11661436 -143.7746861 232.11408257 C-138.90876682 232.11301307 -134.04286067 232.11789567 -129.1769442 232.122688 C-117.69794956 232.13378368 -106.21898764 232.13422013 -94.73999023 232.12817383 C-82.89751778 232.12213202 -71.05516407 232.13445024 -59.21271187 232.1557439 C-49.04440508 232.1733551 -38.87613611 232.17936204 -28.70781463 232.17610615 C-22.63505222 232.17429251 -16.56237454 232.17693773 -10.48962593 232.19082069 C-4.77932444 232.20338663 0.93079178 232.20146649 6.64109039 232.18840981 C8.73609288 232.18604186 10.83110836 232.18878649 12.92609596 232.19703293 C15.78744806 232.20748338 18.64817653 232.19941322 21.50950623 232.1867218 C22.33714129 232.19409609 23.16477636 232.20147037 24.01749128 232.20906812 C29.28677864 232.15994988 32.94892061 231.29255354 37.625 228.8125 C45.83737131 220.16789863 42.74115889 202.80123613 42.6875 191.625 C42.68247456 189.79622518 42.6779135 187.96744903 42.67382812 186.13867188 C42.66290619 181.69658105 42.64569923 177.25455559 42.625 172.8125 C41.85571671 172.80885437 41.08643341 172.80520874 40.2938385 172.80145264 C33.0118722 172.76344336 25.73041022 172.70644578 18.44876957 172.62859726 C14.70598263 172.58923974 10.96342683 172.55699445 7.22045898 172.54150391 C3.60211968 172.52625909 -0.01558371 172.49167789 -3.63363838 172.44419098 C-5.00773118 172.4294571 -6.38191482 172.42146361 -7.75608635 172.42061615 C-17.82434096 172.40817262 -26.11542732 171.44678689 -33.6875 164.3125 C-34.30238281 163.7453125 -34.91726562 163.178125 -35.55078125 162.59375 C-36.15277344 162.0059375 -36.75476563 161.418125 -37.375 160.8125 C-38.07496094 160.19503906 -38.77492187 159.57757813 -39.49609375 158.94140625 C-44.48006305 153.29428926 -44.91350945 143.79556284 -44.65234375 136.53515625 C-43.71753451 127.35822607 -40.99082148 120.36458525 -34.375 113.8125 C-20.09207776 102.23712302 -2.00339897 104.67617384 15.375 104.75 C17.44010308 104.75502498 19.50520735 104.75958612 21.5703125 104.76367188 C26.5885713 104.77459857 31.60677235 104.79180825 36.625 104.8125 C36.625 104.1525 36.625 103.4925 36.625 102.8125 C39.595 103.3075 39.595 103.3075 42.625 103.8125 C42.6748443 99.1351879 42.71092757 94.45803416 42.73486328 89.78051758 C42.74485321 88.19292504 42.7584498 86.60535057 42.77587891 85.01782227 C43.56189617 70.57921128 43.56189617 70.57921128 38.1875 57.8125 C33.65656809 54.2761629 29.3376036 54.66648435 23.83866882 54.67205811 C22.47522574 54.66760142 22.47522574 54.66760142 21.08423835 54.6630547 C18.02579486 54.65435432 14.96739045 54.65285833 11.90893555 54.65136719 C9.7212109 54.64673998 7.53348706 54.64171545 5.34576416 54.63632202 C-0.60675025 54.62318704 -6.55925338 54.61675097 -12.51178002 54.61231136 C-16.22871761 54.60938254 -19.94565209 54.6052781 -23.66258812 54.60080719 C-35.95473878 54.5863432 -48.24688095 54.57701513 -60.53903935 54.57294068 C-61.20186681 54.57271791 -61.86469428 54.57249514 -62.54760742 54.57226562 C-63.21124415 54.5720442 -63.87488088 54.57182277 -64.55862781 54.57159463 C-75.31148177 54.56764676 -86.06426795 54.55019297 -96.81709573 54.5269061 C-107.85744422 54.5031896 -118.89775699 54.49098808 -129.93813103 54.48956418 C-136.13666864 54.48851489 -142.33511067 54.48258072 -148.53362465 54.46474457 C-154.36370477 54.44829522 -160.19361714 54.44609318 -166.02371216 54.45488358 C-168.16428768 54.45565562 -170.3048721 54.45128931 -172.44542503 54.44142532 C-175.36639028 54.42875381 -178.28675709 54.43455667 -181.2077179 54.44500732 C-182.05587596 54.43695092 -182.90403402 54.42889452 -183.77789384 54.42059398 C-189.91241557 54.47196757 -194.15483142 55.65233598 -198.6875 60.0625 Z M-214.375 95.8125 C-213.375 97.8125 -213.375 97.8125 -213.375 97.8125 Z M-24.375 121.8125 C-24.375 122.8025 -24.375 123.7925 -24.375 124.8125 C-24.98859375 124.90660156 -25.6021875 125.00070313 -26.234375 125.09765625 C-28.91066412 125.99138054 -29.36602693 126.76702533 -30.625 129.25 C-33.07215202 134.647276 -33.37391699 140.10429016 -31.83203125 145.828125 C-29.2658255 152.34997387 -25.75330253 155.98244935 -19.59289551 158.95544434 C-16.05225073 160.3236466 -12.71831535 160.48033125 -8.953125 160.546875 C-8.14466125 160.57497253 -7.33619751 160.60307007 -6.50323486 160.63201904 C-3.79384061 160.71645462 -1.08532987 160.7677998 1.625 160.8125 C2.60186768 160.83175537 3.57873535 160.85101074 4.58520508 160.87084961 C10.92663385 160.98883675 17.26641496 161.04125652 23.60888672 161.05273438 C26.91267522 161.06261265 30.2158831 161.09384728 33.51953125 161.125 C35.64322555 161.13151722 37.76692419 161.13677269 39.890625 161.140625 C40.86670715 161.1529718 41.84278931 161.1653186 42.84844971 161.17803955 C48.5023586 161.15957932 52.72805568 160.76943166 57.625 157.8125 C58.87644158 155.74256155 58.87644158 155.74256155 59.046875 153.29296875 C59.16611328 152.40528809 59.28535156 151.51760742 59.40820312 150.60302734 C59.75817822 146.09828035 59.91443025 141.64304936 59.875 137.125 C59.88273437 136.22716797 59.89046875 135.32933594 59.8984375 134.40429688 C59.88342479 129.28120792 59.82722233 124.52549779 57.625 119.8125 C51.01365311 115.7177032 43.77084089 116.37566982 36.22265625 116.4140625 C34.8169286 116.41203806 33.41120199 116.40912355 32.00547791 116.40536499 C29.06775861 116.40095754 26.13031413 116.40732028 23.19262695 116.42138672 C19.44588061 116.4384622 15.69977989 116.42863833 11.95305729 116.41066933 C9.05235523 116.39977489 6.15180358 116.40330384 3.25109673 116.4110527 C1.87053792 116.41303994 0.48996501 116.41064789 -0.89057732 116.40361404 C-9.91681913 116.36771449 -16.71238485 116.7040899 -24.375 121.8125 Z " fill="#4E4C49" transform="translate(263.375,55.1875)"/>
<path d="M0 0 C-1.96644019 1.31096013 -3.94536548 2.60342478 -5.9375 3.875 C-10.87818569 7.30323089 -13.81563077 10.34229198 -16 16 C-16.48512542 20.30175476 -16.48921651 24.59213353 -16.51171875 28.91796875 C-16.52892745 30.25271108 -16.54732434 31.58743853 -16.56680298 32.92214966 C-16.61584473 36.57663995 -16.64552143 40.23105181 -16.67056656 43.88577652 C-16.69327624 46.97265128 -16.72499463 50.05941075 -16.75625515 53.14620876 C-16.84105977 61.62165332 -16.89956427 70.09713066 -16.94815731 78.57285213 C-16.98808811 85.41748214 -17.04147634 92.26193959 -17.09863281 99.10644531 C-17.18398517 109.47085022 -17.24202054 119.83519375 -17.28408813 130.19985962 C-17.30112082 134.26634271 -17.32681686 138.33263241 -17.35971069 142.39901733 C-17.3979552 147.23196964 -17.4159961 152.06460275 -17.41913986 156.89770126 C-17.42350464 158.68240276 -17.4346855 160.46710301 -17.45329666 162.2517128 C-17.76058788 177.45458268 -17.76058788 177.45458268 -10.75 190.5 C-9.88375 191.2425 -9.88375 191.2425 -9 192 C-9 192.66 -9 193.32 -9 194 C-8.278125 194.28875 -7.55625 194.5775 -6.8125 194.875 C-4 196 -4 196 -1.89620495 197.05317783 C2.1494002 198.37575987 5.92098142 198.28601011 10.15177917 198.27415466 C11.07596203 198.27939134 12.00014488 198.28462802 12.95233327 198.29002339 C16.0505413 198.30503046 19.14858428 198.3057287 22.24682617 198.30639648 C24.4677661 198.31401757 26.68870339 198.32244498 28.90963745 198.33161926 C34.94494938 198.35357819 40.98021064 198.36236525 47.015558 198.36744571 C50.7871503 198.37108813 54.55872931 198.37732766 58.33031654 198.3844471 C68.78151059 198.40390365 79.23269668 198.42041593 89.68390942 198.42332363 C90.35236594 198.4235112 91.02082247 198.42369877 91.70953526 198.42389202 C93.0645506 198.42425827 94.41956594 198.42462196 95.77458128 198.42498314 C96.78347189 198.42525735 96.78347189 198.42525735 97.81274414 198.42553711 C98.82287255 198.42580793 98.82287255 198.42580793 99.8534076 198.42608423 C110.75868621 198.42962386 121.66376712 198.45663397 132.5689772 198.494035 C143.77665289 198.53216435 154.98423386 198.55104086 166.19198591 198.55178314 C172.48011242 198.55257583 178.7679839 198.56131078 185.05605125 198.58978081 C190.97326654 198.615972 196.89001558 198.6181603 202.80726242 198.60212517 C204.97519129 198.60031145 207.14314703 198.60699431 209.31101799 198.62294388 C224.55946716 199.23176418 224.55946716 199.23176418 238 193 C242.37663041 188.30347522 244.10351886 183.96603719 244.20532227 177.6105957 C244.22526749 176.50968094 244.24521271 175.40876617 244.26576233 174.27449036 C244.28247482 173.08691635 244.29918732 171.89934235 244.31640625 170.67578125 C244.3475779 168.85097481 244.3475779 168.85097481 244.37937927 166.98930359 C244.44484717 163.09709404 244.50374715 159.20481615 244.5625 155.3125 C244.60568782 152.67642518 244.6493022 150.04035731 244.69335938 147.40429688 C244.80052578 140.93627049 244.90229745 134.46817589 245 128 C245.68707031 127.73735352 246.37414062 127.47470703 247.08203125 127.20410156 C247.98308594 126.8531543 248.88414062 126.50220703 249.8125 126.140625 C250.70582031 125.79547852 251.59914063 125.45033203 252.51953125 125.09472656 C255.91588505 123.59578459 257.81583804 122.00322269 260 119 C262.22802139 111.56900039 262.33855901 104.44488483 262.31567383 96.73681641 C262.31250715 94.5050396 262.33605253 92.27458304 262.36132812 90.04296875 C262.39780884 81.78014486 262.30917863 74.70921574 257.375 67.6875 C253.89181497 65.21260537 250.08448443 64.15203407 246 63 C248 61 248 61 251.125 60.9375 C256.13952675 61.81004868 259.77071632 65.22879055 263 69 C264.9983939 73.05347017 265.32421777 76.57528196 265.484375 81.06640625 C265.52053925 82.07851418 265.52053925 82.07851418 265.55743408 83.11106873 C265.60557145 84.53719491 265.64899696 85.96348703 265.68798828 87.38989258 C265.74913682 89.53225805 265.83251556 91.67293686 265.91796875 93.81445312 C266.69456057 116.56159937 266.69456057 116.56159937 260 124 C255.98867013 127.22650446 253.03196911 128.29216033 248 129 C248.01110306 129.64178192 248.02220612 130.28356384 248.03364563 130.9447937 C248.14478701 137.66129555 248.21989372 144.37753359 248.2746582 151.09472656 C248.29970793 153.59711326 248.33375742 156.09942748 248.37719727 158.6015625 C248.43826661 162.21112007 248.46630674 165.81970519 248.48828125 169.4296875 C248.51408768 170.53738495 248.5398941 171.6450824 248.56648254 172.78634644 C248.5694001 180.97797582 246.87344823 187.70663581 241.27339172 193.91378784 C234.74967697 200.1817211 227.17480416 201.44931238 218.48072815 201.3742218 C217.55327646 201.37819621 216.62582476 201.38217061 215.67026848 201.38626546 C212.57893003 201.39584922 209.48805374 201.38409393 206.39672852 201.37231445 C204.17372467 201.37474372 201.95072191 201.37846435 199.72772217 201.38337708 C193.7008658 201.39277166 187.67417225 201.38337224 181.64732862 201.37004495 C175.33478606 201.35871497 169.02225134 201.36283919 162.70970154 201.36479187 C152.10844391 201.36567442 141.50724313 201.35467429 130.90600586 201.33618164 C120.01210599 201.31718361 109.11828049 201.31009337 98.22436523 201.31567383 C85.07879836 201.32238784 71.93326728 201.31907196 58.78770256 201.30657005 C53.7739698 201.3019315 48.76025723 201.30104701 43.7465229 201.3031559 C37.83922626 201.30504298 31.93202472 201.29690252 26.02474976 201.2810955 C23.85963777 201.27686187 21.69451611 201.27599589 19.52940178 201.27878571 C16.56824951 201.28202169 13.60737883 201.27288992 10.64625549 201.26069641 C9.36889639 201.2663654 9.36889639 201.2663654 8.06573206 201.27214891 C2.71644029 201.23333161 -3.00294276 201.08674645 -8 199 C-8.33 198.01 -8.66 197.02 -9 196 C-9.92232422 195.57460938 -9.92232422 195.57460938 -10.86328125 195.140625 C-13.80544488 193.57003674 -14.63525959 191.6709254 -16.1875 188.75 C-16.69667969 187.81671875 -17.20585938 186.8834375 -17.73046875 185.921875 C-19.03704102 182.91474867 -19.60179795 180.24318779 -20 177 C-20.66 177 -21.32 177 -22 177 C-22 176.34 -22 175.68 -22 175 C-21.34 175 -20.68 175 -20 175 C-20 173.02 -20 171.04 -20 169 C-20.66 169 -21.32 169 -22 169 C-22 168.34 -22 167.68 -22 167 C-21.34 167 -20.68 167 -20 167 C-20 165.02 -20 163.04 -20 161 C-20.66 161 -21.32 161 -22 161 C-22 160.34 -22 159.68 -22 159 C-21.34 159 -20.68 159 -20 159 C-20 154.38 -20 149.76 -20 145 C-20.66 145 -21.32 145 -22 145 C-22 144.34 -22 143.68 -22 143 C-21.34 143 -20.68 143 -20 143 C-20 141.02 -20 139.04 -20 137 C-20.66 137 -21.32 137 -22 137 C-21.33333333 134.33333333 -20.66666667 131.66666667 -20 129 C-20.66 129 -21.32 129 -22 129 C-22 128.34 -22 127.68 -22 127 C-21.34 127 -20.68 127 -20 127 C-20 125.02 -20 123.04 -20 121 C-20.66 121 -21.32 121 -22 121 C-22 120.34 -22 119.68 -22 119 C-21.34 119 -20.68 119 -20 119 C-20 117.02 -20 115.04 -20 113 C-20.66 113 -21.32 113 -22 113 C-22 112.34 -22 111.68 -22 111 C-21.34 111 -20.68 111 -20 111 C-20 106.38 -20 101.76 -20 97 C-20.66 97 -21.32 97 -22 97 C-22 96.34 -22 95.68 -22 95 C-21.34 95 -20.68 95 -20 95 C-20 93.02 -20 91.04 -20 89 C-20.66 89 -21.32 89 -22 89 C-21.67 88.01 -21.34 87.02 -21 86 C-20.65179959 84.33637583 -20.31595508 82.67004829 -20 81 C-20.66 81 -21.32 81 -22 81 C-22 80.34 -22 79.68 -22 79 C-21.34 79 -20.68 79 -20 79 C-20 77.02 -20 75.04 -20 73 C-20.66 73 -21.32 73 -22 73 C-22 72.34 -22 71.68 -22 71 C-21.34 71 -20.68 71 -20 71 C-20 69.02 -20 67.04 -20 65 C-20.66 65 -21.32 65 -22 65 C-22 64.01 -22 63.02 -22 62 C-21.34 62 -20.68 62 -20 62 C-20 60.35 -20 58.7 -20 57 C-20.66 57 -21.32 57 -22 57 C-22 53.66666667 -22 50.33333333 -22 47 C-21.34 47 -20.68 47 -20 47 C-20 42.38 -20 37.76 -20 33 C-20.66 33 -21.32 33 -22 33 C-22 32.34 -22 31.68 -22 31 C-21.34 31 -20.68 31 -20 31 C-20 29.02 -20 27.04 -20 25 C-20.66 24.67 -21.32 24.34 -22 24 C-21.34 24 -20.68 24 -20 24 C-20.0928125 22.205625 -20.0928125 22.205625 -20.1875 20.375 C-20.2094759 16.23620515 -19.02420381 13.62669849 -17 10 C-17 9.01 -17 8.02 -17 7 C-16.360625 6.7525 -15.72125 6.505 -15.0625 6.25 C-12.81258459 5.18437567 -12.81258459 5.18437567 -12.25 2.875 C-12.1675 2.25625 -12.085 1.6375 -12 1 C-7.58774263 -0.47075246 -4.51718381 -1.36884358 0 0 Z M-21 52 C-20 54 -20 54 -20 54 Z " fill="#21201D" transform="translate(70,99)"/>
<path d="M0 0 C3 6 3 6 3 33 C-42.87 33 -88.74 33 -136 33 C-136 32.01 -136 31.02 -136 30 C-131.15267842 26.76845228 -125.53964399 25.87584825 -119.9375 24.4375 C-118.74705078 24.12103516 -117.55660156 23.80457031 -116.33007812 23.47851562 C-109.55278469 21.72364745 -102.99574929 20.40346548 -96 20 C-96 20.66 -96 21.32 -96 22 C-105.24 24.31 -114.48 26.62 -124 29 C-82.75 29.33 -41.5 29.66 1 30 C0.67 28.35 0.34 26.7 0 25 C-0.04360395 23.58400215 -0.04167511 22.16580444 0.0078125 20.75 C0.03294922 19.58984375 0.03294922 19.58984375 0.05859375 18.40625 C0.10287105 16.8018489 0.15495808 15.19764435 0.21484375 13.59375 C0.29980551 8.95947217 0.26507424 5.61843726 -3 2 C-7.08057432 0.71005808 -10.01005355 1.23499341 -14.10546875 2.28515625 C-15.25337891 2.56810547 -16.40128906 2.85105469 -17.58398438 3.14257812 C-19.99826623 3.75890699 -22.41232688 4.37610302 -24.82617188 4.99414062 C-26.54223633 5.41663086 -26.54223633 5.41663086 -28.29296875 5.84765625 C-29.3399292 6.11586182 -30.38688965 6.38406738 -31.46557617 6.66040039 C-32.30193604 6.77246826 -33.1382959 6.88453613 -34 7 C-34.99 6.01 -34.99 6.01 -36 5 C-29.98364994 3.09096585 -23.91173478 1.37249839 -17.8125 -0.25 C-17.14798828 -0.43723633 -16.48347656 -0.62447266 -15.79882812 -0.81738281 C-10.08377678 -2.30148006 -5.55184133 -1.85061378 0 0 Z " fill="#383634" transform="translate(261,67)"/>
<path d="M0 0 C28.68891506 -0.06843931 57.37782049 -0.12152981 86.06680111 -0.15319599 C89.45387665 -0.1569481 92.84095204 -0.16083107 96.22802734 -0.16479492 C96.90233242 -0.16558185 97.5766375 -0.16636878 98.27137606 -0.16717956 C109.18931102 -0.18023311 120.10719859 -0.20388667 131.02510543 -0.23145839 C142.22807294 -0.25951401 153.43101677 -0.27595204 164.63402116 -0.28226548 C170.92650844 -0.2861801 177.21888823 -0.29539532 183.51134109 -0.31719017 C189.43247672 -0.33753299 195.35346043 -0.3438382 201.27462769 -0.33932304 C203.4490682 -0.34014923 205.62351372 -0.34612788 207.79792404 -0.35761642 C210.76501622 -0.37252581 213.73153364 -0.36895905 216.69863892 -0.36076355 C217.56051618 -0.36950207 218.42239345 -0.3782406 219.31038821 -0.38724393 C225.38949391 -0.34180891 229.52962982 0.87273679 234.25 4.9375 C237.11751292 8.3170688 238.25315062 10.9643949 238.22705078 15.40136719 C238.22682419 16.6922525 238.22682419 16.6922525 238.22659302 18.00921631 C238.21627045 18.92914368 238.20594788 19.84907104 238.1953125 20.796875 C238.1924826 21.74564514 238.18965271 22.69441528 238.18673706 23.67193604 C238.17555448 26.69808639 238.1504533 29.7239393 238.125 32.75 C238.11496772 34.80338114 238.1058423 36.85676692 238.09765625 38.91015625 C238.07562141 43.94021854 238.04110462 48.97005886 238 54 C235.36 54 232.72 54 230 54 C230 52.68 230 51.36 230 50 C232.97 50.495 232.97 50.495 236 51 C235.67 38.46 235.34 25.92 235 13 C234.01 12.505 234.01 12.505 233 12 C233 10.68 233 9.36 233 8 C230.73413495 5.26533528 229.3985407 4.1328469 226 3 C223.04157378 2.90787723 220.10713789 2.87412925 217.14878845 2.88647461 C216.23292058 2.88632575 215.31705271 2.88617689 214.37343127 2.88602352 C211.29181846 2.8867203 208.21026461 2.89457289 205.12866211 2.90234375 C202.92459649 2.90426204 200.72053044 2.90572626 198.51646423 2.9067688 C193.76431921 2.90993455 189.01219186 2.9162102 184.26005363 2.92483521 C176.7527619 2.93832326 169.2454761 2.94424435 161.73817444 2.94897461 C151.21891901 2.95631195 140.69966967 2.96642917 130.18041992 2.97949219 C129.51274334 2.98032 128.84506675 2.98114781 128.15715755 2.98200071 C123.41727157 2.98790175 118.67738577 2.99393586 113.9375 3 C108.52140311 3.00692859 103.10530615 3.01379577 97.68920898 3.02050781 C97.02204095 3.02133594 96.35487292 3.02216407 95.66748767 3.02301729 C84.5548435 3.03668942 73.44219844 3.04641446 62.32954794 3.05341816 C54.85952075 3.05841536 47.3895204 3.06829691 39.91950405 3.08184814 C35.28142268 3.0892823 30.64334508 3.09261828 26.00525856 3.0948143 C23.84687961 3.09669399 21.6885014 3.10031001 19.53012848 3.10574722 C16.59481069 3.11291157 13.65955288 3.11400329 10.72422791 3.11352539 C9.86052753 3.11712035 8.99682715 3.12071531 8.10695404 3.12441921 C2.22818568 3.11409284 2.22818568 3.11409284 0 2 C0 1.34 0 0.68 0 0 Z " fill="#2E2B29" transform="translate(70,108)"/>
<path d="M0 0 C3.15641172 1.94772014 4.23261124 3.89421024 5.4375 7.375 C6.5786179 12.2176191 6.70265012 16.14874977 4.375 20.625 C0.95102859 24.55004039 -1.21784394 25.81859186 -6.375 26.375 C-7.51195312 26.42914063 -7.51195312 26.42914063 -8.671875 26.484375 C-10.70480737 26.50580934 -10.70480737 26.50580934 -12.625 27.625 C-17.15263003 23.09736997 -20.99976086 19.1784939 -21.3125 12.5 C-21.08696421 9.16309551 -20.5682369 6.88187323 -18.5625 4.1875 C-12.59099521 -1.02168503 -7.38573537 -2.80148583 0 0 Z " fill="#504D4A" transform="translate(263.625,181.375)"/>
<path d="M0 0 C0.89459569 -0.00226556 1.78919137 -0.00453111 2.71089602 -0.00686532 C5.72650706 -0.0132258 8.7420734 -0.01237465 11.75769043 -0.0115509 C13.91234903 -0.01454108 16.06700708 -0.01794328 18.22166443 -0.02172852 C24.08719856 -0.03058621 29.95271812 -0.03290735 35.81825829 -0.0335443 C40.70681237 -0.0344918 45.59536303 -0.03816819 50.48391581 -0.0417164 C62.01153645 -0.04986737 73.53914927 -0.05230001 85.06677246 -0.05158997 C96.97853404 -0.05098872 108.8902504 -0.06154841 120.80200052 -0.07733363 C131.01260546 -0.0903849 141.22319558 -0.09577489 151.4338088 -0.09513456 C157.53943055 -0.09487889 163.64501213 -0.09776758 169.75062561 -0.10831261 C175.48954835 -0.11795331 181.22839216 -0.11810063 186.96731758 -0.11079597 C189.07893043 -0.10974515 191.19054809 -0.11214223 193.30215263 -0.11815643 C196.17410452 -0.12580932 199.04577922 -0.12127646 201.91772461 -0.11352539 C202.76265236 -0.11866895 203.60758012 -0.12381252 204.47811174 -0.12911195 C210.23059095 -0.09455859 210.23059095 -0.09455859 212.4588623 2.13371277 C209.19509118 3.76559833 205.59369657 3.27407105 202.0071106 3.26742554 C201.12209315 3.26969109 200.2370757 3.27195665 199.32523954 3.27429086 C196.34193538 3.28065123 193.35867642 3.27980019 190.37536621 3.27897644 C188.24365683 3.28196667 186.11194799 3.28536888 183.98023987 3.28915405 C178.17655292 3.2980123 172.3728807 3.30033294 166.56918764 3.30096984 C161.73052863 3.3019175 156.89187307 3.30559416 152.05321538 3.30914193 C140.64057769 3.31729349 129.22794789 3.31972554 117.81530762 3.3190155 C106.02855381 3.31841458 94.24184575 3.32896778 82.45510352 3.34475917 C72.34807577 3.3578194 62.24106301 3.36320004 52.13402689 3.36256009 C46.09205734 3.36230465 40.05012843 3.36518121 34.00816727 3.37573814 C28.32669237 3.3853936 22.64529715 3.38551589 16.9638195 3.37822151 C14.87562253 3.37717247 12.78742065 3.37955738 10.6992321 3.38558197 C7.85425372 3.39325986 5.00955338 3.38868503 2.1645813 3.38095093 C1.33326112 3.38609449 0.50194095 3.39123805 -0.35457075 3.39653748 C-4.21356482 3.37326698 -7.27613452 3.34167177 -10.5411377 1.13371277 C-7.25582472 -0.50894372 -3.61088528 -0.00661811 0 0 Z " fill="#191817" transform="translate(83.5411376953125,286.8662872314453)"/>
<path d="M0 0 C0.66 0.33 1.32 0.66 2 1 C0.09570312 3.39257812 0.09570312 3.39257812 -1.80859375 5.78515625 C-5.43598117 12.52852894 -4.14837366 21.65484316 -4.14526367 29.07006836 C-4.14825915 30.49652697 -4.15166258 31.92298478 -4.15544128 33.34944153 C-4.16424443 37.20894957 -4.1666178 41.06843542 -4.16725707 44.92795253 C-4.1679695 47.34237252 -4.17010743 49.75678692 -4.17275429 52.17120552 C-4.18199446 60.60299155 -4.18609071 69.03476181 -4.18530273 77.46655273 C-4.18470182 85.3128666 -4.19525977 93.15911175 -4.2110464 101.00540823 C-4.22413954 107.7546664 -4.22948591 114.50390216 -4.22884732 121.25317293 C-4.22859292 125.27864379 -4.23141229 129.30405349 -4.24202538 133.32951164 C-4.25173665 137.11590657 -4.25176487 140.90218223 -4.24450874 144.68858147 C-4.24346677 146.0736407 -4.24580271 147.45870748 -4.2518692 148.84375381 C-4.44600596 160.85025388 -4.44600596 160.85025388 -0.25 171.875 C2.36486485 174.34459458 4.53962018 175.13490504 8 176 C5 178 5 178 2.5625 177.875 C-1.6231643 176.44574878 -3.40082133 174.02576484 -5.5929575 170.27293396 C-7.14169097 166.67041138 -7.37944314 164.22502976 -7.38768005 160.32055664 C-7.39306559 159.67446221 -7.39845113 159.02836779 -7.40399987 158.36269474 C-7.41823401 156.21165117 -7.41118749 154.06122696 -7.40405273 151.91015625 C-7.40975865 150.36237089 -7.41672378 148.81458973 -7.42485046 147.26681519 C-7.44277107 143.07262566 -7.44161577 138.87864546 -7.43590808 134.68442917 C-7.43281511 131.18036553 -7.43890978 127.67634204 -7.44494683 124.17228413 C-7.45898638 115.90551213 -7.45743507 107.6388435 -7.44604492 99.37207031 C-7.43455967 90.84797916 -7.44864742 82.3242025 -7.4754414 73.80015278 C-7.49760044 66.47598462 -7.50423546 59.15191517 -7.49836498 51.82771587 C-7.49499523 47.45571548 -7.49741181 43.08391674 -7.51461601 38.71194458 C-7.53008677 34.60123955 -7.52612846 30.4910005 -7.50731087 26.38031387 C-7.50362554 24.8734763 -7.50673189 23.36660418 -7.51719666 21.85979843 C-7.5304133 19.7991444 -7.51885629 17.74003172 -7.50120544 15.67944336 C-7.50099616 14.5276207 -7.50078688 13.37579803 -7.50057125 12.18907166 C-6.70041691 7.09139667 -3.78270908 3.40443817 0 0 Z " fill="#131312" transform="translate(67,110)"/>
<path d="M0 0 C1.59037894 0.0042585 3.18076412 0.00657962 4.77114868 0.00706482 C8.0845406 0.01319555 11.39724722 0.03573615 14.71044922 0.0715332 C18.95401565 0.11702554 23.19696803 0.13157312 27.44075584 0.13527012 C30.71617661 0.13969816 33.99146916 0.15499743 37.26683426 0.17414665 C38.83210832 0.18301017 40.39739593 0.18974921 41.96268845 0.19430733 C44.14511908 0.20335781 46.32699689 0.22574878 48.50927734 0.25219727 C50.369319 0.26815697 50.369319 0.26815697 52.26693726 0.28443909 C55.23065624 0.54261673 56.92169128 0.99995853 59.4140625 2.55859375 C59.4140625 3.21859375 59.4140625 3.87859375 59.4140625 4.55859375 C60.0740625 4.55859375 60.7340625 4.55859375 61.4140625 4.55859375 C63.31485914 8.57394443 63.64977057 11.74855966 63.609375 16.171875 C63.60292969 17.41904297 63.59648437 18.66621094 63.58984375 19.95117188 C63.56470703 21.8915332 63.56470703 21.8915332 63.5390625 23.87109375 C63.53003906 25.18400391 63.52101563 26.49691406 63.51171875 27.84960938 C63.48818047 31.08612288 63.4552977 34.32226524 63.4140625 37.55859375 C62.7540625 37.55859375 62.0940625 37.55859375 61.4140625 37.55859375 C59.41622552 30.13805639 59.26924985 23.01790189 59.44140625 15.390625 C59.41457692 11.63068628 59.03253094 8.2550214 58.4140625 4.55859375 C51.42711632 1.91944557 44.35547935 2.24930158 36.9765625 2.2578125 C35.56843948 2.25391926 34.16031763 2.24958331 32.75219727 2.24482727 C29.81034526 2.23739305 26.86861334 2.23763642 23.92675781 2.24291992 C20.17097672 2.24871871 16.41568811 2.23176057 12.6599884 2.20857525 C9.75505741 2.19379286 6.85024393 2.19297216 3.94528198 2.19608498 C2.56109642 2.19557428 1.17690385 2.19038417 -0.20724487 2.18027306 C-10.30730948 2.09061052 -10.30730948 2.09061052 -19.5859375 5.55859375 C-20.5759375 5.88859375 -21.5659375 6.21859375 -22.5859375 6.55859375 C-22.9159375 7.54859375 -23.2459375 8.53859375 -23.5859375 9.55859375 C-24.2046875 9.80609375 -24.8234375 10.05359375 -25.4609375 10.30859375 C-28.1004589 11.8612534 -28.97474512 13.60599847 -30.046875 16.43359375 C-31.79784161 23.33595489 -30.93822712 29.36975138 -27.5859375 35.55859375 C-26.9259375 36.21859375 -26.2659375 36.87859375 -25.5859375 37.55859375 C-25.1734375 38.03296875 -24.7609375 38.50734375 -24.3359375 38.99609375 C-21.99933448 41.08234644 -19.41076033 42.2403431 -16.5859375 43.55859375 C-17.2459375 44.21859375 -17.9059375 44.87859375 -18.5859375 45.55859375 C-22.59391533 45.44726103 -25.19638885 43.78347709 -28.1640625 41.15234375 C-33.22806021 35.47621444 -34.95660968 28.36126274 -34.87109375 20.93359375 C-34.39300328 16.95168957 -32.69531644 13.91442389 -30.5859375 10.55859375 C-30.0496875 9.67171875 -29.5134375 8.78484375 -28.9609375 7.87109375 C-20.62053229 -0.24982711 -10.91124181 -0.14687965 0 0 Z " fill="#121211" transform="translate(262.5859375,170.44140625)"/>
<path d="M0 0 C-2.51428422 1.67618948 -4.68059986 2.77988088 -7.4375 3.9375 C-10.64596906 5.32818383 -13.25928282 6.80742626 -16 9 C-16.66 9 -17.32 9 -18 9 C-19.43354394 11.82208874 -20.77561305 14.6706742 -22.0625 17.5625 C-22.40410156 18.32691406 -22.74570313 19.09132812 -23.09765625 19.87890625 C-26.43024056 27.71264338 -26.28206451 37.773919 -23.1875 45.6875 C-22.09803831 48.1043518 -20.97427158 50.03371099 -19.36328125 52.14453125 C-18 54 -18 54 -18 56 C-17.443125 56.27714844 -16.88625 56.55429688 -16.3125 56.83984375 C-14.72499827 57.63627621 -13.1418596 58.44144722 -11.5625 59.25390625 C-10.716875 59.68574219 -9.87125 60.11757812 -9 60.5625 C-8.154375 60.99691406 -7.30875 61.43132812 -6.4375 61.87890625 C-2.24877621 63.80545069 1.36083387 64.13765932 5.96191406 64.20532227 C7.16285706 64.22526749 8.36380005 64.24521271 9.60113525 64.26576233 C10.89291687 64.28247482 12.18469849 64.29918732 13.515625 64.31640625 C14.85512921 64.33698963 16.19462713 64.35798646 17.53411865 64.37937927 C21.05215341 64.43445709 24.5702454 64.48392906 28.08837891 64.53222656 C31.68136655 64.58254624 35.27427258 64.63812638 38.8671875 64.69335938 C45.91139544 64.80126198 52.95565024 64.90039578 60 65 C60 78.53 60 92.06 60 106 C59.34 105.67 58.68 105.34 58 105 C58.33 92.13 58.66 79.26 59 66 C52.33490234 66.06960937 52.33490234 66.06960937 45.53515625 66.140625 C41.97204282 66.16638407 38.40895602 66.18806271 34.84580231 66.20700073 C31.09549496 66.22804457 27.34555457 66.25612271 23.59545898 66.30175781 C19.97739001 66.34550624 16.35967486 66.36919746 12.74136162 66.37950897 C11.36715571 66.38684881 9.9929672 66.40118084 8.61891365 66.42292023 C-0.72392198 66.56473712 -7.78959867 65.83835704 -15.41796875 60.21875 C-16.00191406 59.6515625 -16.58585938 59.084375 -17.1875 58.5 C-20.2987908 55.60070096 -23.39651035 53.25218103 -27 51 C-26.01 50.505 -26.01 50.505 -25 50 C-25.20496094 49.46890625 -25.40992188 48.9378125 -25.62109375 48.390625 C-25.89050781 47.68421875 -26.15992188 46.9778125 -26.4375 46.25 C-26.70433594 45.55390625 -26.97117188 44.8578125 -27.24609375 44.140625 C-30.48331073 34.94894157 -29.74016795 24.95252968 -26 16 C-20.32953583 6.47422024 -11.48227296 -2.20812941 0 0 Z " fill="#131210" transform="translate(247,162)"/>
<path d="M0 0 C1.93709638 3.25753924 2.23715445 5.65609928 2.1953125 9.421875 C2.18886719 10.44667969 2.18242187 11.47148438 2.17578125 12.52734375 C2.15902344 13.59082031 2.14226562 14.65429688 2.125 15.75 C2.11597656 16.82894531 2.10695313 17.90789062 2.09765625 19.01953125 C2.07411305 21.67991278 2.04122799 24.33984336 2 27 C2.71019287 26.98428955 3.42038574 26.9685791 4.15209961 26.95239258 C7.4138166 26.8894886 10.67540537 26.85083463 13.9375 26.8125 C15.05447266 26.78736328 16.17144531 26.76222656 17.32226562 26.73632812 C23.87002389 26.67872321 30.11470669 26.81436738 36 30 C38.375 33 38.375 33 40 36 C40.53625 36.495 41.0725 36.99 41.625 37.5 C46.03942414 42.31573542 45.26111733 49.35221037 45.1953125 55.4296875 C45.1924826 56.42001984 45.18965271 57.41035217 45.18673706 58.43069458 C45.1755847 61.57892176 45.15048907 64.72685949 45.125 67.875 C45.11496382 70.01562088 45.10583908 72.15624624 45.09765625 74.296875 C45.07566158 79.53134797 45.04223333 84.7656533 45 90 C44.01 90 43.02 90 42 90 C41.99413376 89.44956024 41.98826752 88.89912048 41.98222351 88.33200073 C41.91815397 82.58883811 41.83369976 76.84622884 41.73754883 71.10351562 C41.70435062 68.9619884 41.67630286 66.82037476 41.65356445 64.67871094 C41.61992496 61.59532946 41.56760346 58.51273631 41.51171875 55.4296875 C41.50532883 54.47633514 41.4989389 53.52298279 41.49235535 52.54074097 C41.37548951 47.22425194 40.77798142 43.68001858 38 39 C38 38.34 38 37.68 38 37 C37.34 37 36.68 37 36 37 C36 36.34 36 35.68 36 35 C35.443125 34.731875 34.88625 34.46375 34.3125 34.1875 C32 33 32 33 29.4375 31.4375 C25.55876555 29.15004122 22.66112765 28.87989275 18.23828125 28.90234375 C16.56088867 28.90717773 16.56088867 28.90717773 14.84960938 28.91210938 C13.68236328 28.92048828 12.51511719 28.92886719 11.3125 28.9375 C10.13365234 28.94201172 8.95480469 28.94652344 7.74023438 28.95117188 C4.82677211 28.96296727 1.91341137 28.9794273 -1 29 C-1.02465881 25.03069011 -1.04284023 21.06140966 -1.05493164 17.09204102 C-1.05997057 15.74079614 -1.06680177 14.38955674 -1.07543945 13.03833008 C-1.08752419 11.09979566 -1.09269828 9.161222 -1.09765625 7.22265625 C-1.10289307 6.05484619 -1.10812988 4.88703613 -1.11352539 3.68383789 C-1 1 -1 1 0 0 Z " fill="#2A2926" transform="translate(273,70)"/>
<path d="M0 0 C-1.96644019 1.31096013 -3.94536548 2.60342478 -5.9375 3.875 C-10.91449269 7.3284235 -13.61358121 10.40066938 -16 16 C-16.46668327 19.46969819 -16.46668327 19.46969819 -16.43237305 23.19873047 C-16.4425647 23.89211014 -16.45275635 24.58548981 -16.46325684 25.29988098 C-16.49324676 27.57240017 -16.50263084 29.8444969 -16.51171875 32.1171875 C-16.52857591 33.70046372 -16.54672755 35.28372664 -16.56611633 36.86697388 C-16.61351019 41.01957035 -16.64338794 45.17211289 -16.66955566 49.32489014 C-16.69941498 53.56826424 -16.74592679 57.81145273 -16.79101562 62.0546875 C-16.87692787 70.36970023 -16.94432656 78.68473007 -17 87 C-17.33 87 -17.66 87 -18 87 C-18.33 84.69 -18.66 82.38 -19 80 C-20.485 80.495 -20.485 80.495 -22 81 C-22 80.34 -22 79.68 -22 79 C-21.34 79 -20.68 79 -20 79 C-20 77.02 -20 75.04 -20 73 C-20.66 73 -21.32 73 -22 73 C-22 72.34 -22 71.68 -22 71 C-21.34 71 -20.68 71 -20 71 C-20 69.02 -20 67.04 -20 65 C-20.66 65 -21.32 65 -22 65 C-22 64.01 -22 63.02 -22 62 C-21.34 62 -20.68 62 -20 62 C-20 60.35 -20 58.7 -20 57 C-20.66 57 -21.32 57 -22 57 C-22 53.66666667 -22 50.33333333 -22 47 C-21.34 47 -20.68 47 -20 47 C-20 42.38 -20 37.76 -20 33 C-20.66 33 -21.32 33 -22 33 C-22 32.34 -22 31.68 -22 31 C-21.34 31 -20.68 31 -20 31 C-20 29.02 -20 27.04 -20 25 C-20.66 24.67 -21.32 24.34 -22 24 C-21.34 24 -20.68 24 -20 24 C-20.0928125 22.205625 -20.0928125 22.205625 -20.1875 20.375 C-20.2094759 16.23620515 -19.02420381 13.62669849 -17 10 C-17 9.01 -17 8.02 -17 7 C-16.360625 6.7525 -15.72125 6.505 -15.0625 6.25 C-12.81258459 5.18437567 -12.81258459 5.18437567 -12.25 2.875 C-12.1675 2.25625 -12.085 1.6375 -12 1 C-7.58774263 -0.47075246 -4.51718381 -1.36884358 0 0 Z M-21 52 C-20 54 -20 54 -20 54 Z " fill="#3E3D39" transform="translate(70,99)"/>
<path d="M0 0 C1.17159668 -0.00014603 2.34319336 -0.00029205 3.55029297 -0.0004425 C7.40268845 0.00025126 11.2550349 0.0080185 15.10742188 0.01586914 C17.78641848 0.01773523 20.4654124 0.01920746 23.14440918 0.02015686 C29.46235969 0.02325618 35.78029275 0.0314506 42.09823561 0.04150635 C49.29537971 0.05271107 56.49252467 0.05818889 63.68967533 0.06320179 C78.48518307 0.07363447 93.28067717 0.09120666 108.07617188 0.11352539 C108.07617188 1.10352539 108.07617188 2.09352539 108.07617188 3.11352539 C65.83617187 3.11352539 23.59617187 3.11352539 -19.92382812 3.11352539 C-19.92382812 2.45352539 -19.92382812 1.79352539 -19.92382812 1.11352539 C-13.25135588 0.10303862 -6.74169397 -0.02216927 0 0 Z " fill="#121110" transform="translate(154.923828125,95.886474609375)"/>
<path d="M0 0 C5.01452675 0.87254868 8.64571632 4.29129055 11.875 8.0625 C13.8733939 12.11597017 14.19921777 15.63778196 14.359375 20.12890625 C14.3834845 20.80364487 14.40759399 21.47838348 14.43243408 22.17356873 C14.48057145 23.59969491 14.52399696 25.02598703 14.56298828 26.45239258 C14.62413682 28.59475805 14.70751556 30.73543686 14.79296875 32.87695312 C15.56956057 55.62409937 15.56956057 55.62409937 8.875 63.0625 C4.55299484 66.53889546 2.58387263 67.11102123 -3.125 68.0625 C-3.125 83.9025 -3.125 99.7425 -3.125 116.0625 C-3.455 116.0625 -3.785 116.0625 -4.125 116.0625 C-4.455 99.8925 -4.785 83.7225 -5.125 67.0625 C-1.825 65.4125 1.475 63.7625 4.875 62.0625 C9.19710159 58.92897635 9.92124747 55.10891423 10.875 50.0625 C11.21761327 45.30915961 11.20481687 40.56290082 11.19067383 35.79931641 C11.18750715 33.5675396 11.21105253 31.33708304 11.23632812 29.10546875 C11.27280884 20.84264486 11.18417863 13.77171574 6.25 6.75 C2.76681497 4.27510537 -1.04051557 3.21453407 -5.125 2.0625 C-3.125 0.0625 -3.125 0.0625 0 0 Z " fill="#181715" transform="translate(321.125,159.9375)"/>
<path d="M0 0 C3.15641172 1.94772014 4.23261124 3.89421024 5.4375 7.375 C6.5786179 12.2176191 6.70265012 16.14874977 4.375 20.625 C0.95102859 24.55004039 -1.21784394 25.81859186 -6.375 26.375 C-7.51195312 26.42914063 -7.51195312 26.42914063 -8.671875 26.484375 C-10.70480737 26.50580934 -10.70480737 26.50580934 -12.625 27.625 C-17.15263003 23.09736997 -20.99976086 19.1784939 -21.3125 12.5 C-21.08696421 9.16309551 -20.5682369 6.88187323 -18.5625 4.1875 C-12.59099521 -1.02168503 -7.38573537 -2.80148583 0 0 Z M-16.625 5.625 C-19.19573939 9.05265252 -19.05537452 12.46471296 -18.625 16.625 C-16.3662063 20.86528619 -16.3662063 20.86528619 -12.625 23.625 C-7.41828939 24.27007919 -3.80790165 24.5423523 0.4375 21.25 C3.55594974 17.02500357 3.51221061 14.9075 2.890625 9.8203125 C2.18174364 6.80219642 0.85162481 5.42618168 -1.625 3.625 C-6.70524891 1.08487555 -12.38343071 2.13194294 -16.625 5.625 Z " fill="#21201D" transform="translate(263.625,181.375)"/>
<path d="M0 0 C2.58340384 -0.02703562 5.16652308 -0.04685611 7.75 -0.0625 C8.47960937 -0.07087891 9.20921875 -0.07925781 9.9609375 -0.08789062 C13.48670558 -0.10391684 16.61034916 0.04707287 20 1 C20 3.31 20 5.62 20 8 C16.58173253 9.70913373 12.76645237 9.18458479 9 9.1875 C8.16726563 9.19974609 7.33453125 9.21199219 6.4765625 9.22460938 C5.28160156 9.22750977 5.28160156 9.22750977 4.0625 9.23046875 C3.33160156 9.23457764 2.60070312 9.23868652 1.84765625 9.24291992 C0 9 0 9 -2 7 C-1.34 7 -0.68 7 0 7 C0 4.69 0 2.38 0 0 Z " fill="#37302C" transform="translate(266,115)"/>
<path d="M0 0 C1.31871094 0.00386719 2.63742188 0.00773437 3.99609375 0.01171875 C7.18279782 0.28047692 8.97784137 0.50195942 11.5625 2.3125 C12.375 4.3125 12.375 4.3125 12.5625 6.3125 C12.2325 6.9725 11.9025 7.6325 11.5625 8.3125 C7.25435156 9.32881395 3.09858185 9.42001104 -1.3125 9.375 C-2.46492188 9.36597656 -3.61734375 9.35695313 -4.8046875 9.34765625 C-5.67351562 9.33605469 -6.54234375 9.32445313 -7.4375 9.3125 C-8.4275 7.3325 -9.4175 5.3525 -10.4375 3.3125 C-7.74593121 -0.53695121 -4.28454384 -0.1026976 0 0 Z " fill="#373632" transform="translate(81.4375,114.6875)"/>
<path d="M0 0 C1.051875 0.2475 1.051875 0.2475 2.125 0.5 C5.63967038 1.11124702 8.49048328 0.56402947 12 0 C13.66628955 -0.03545297 15.33409803 -0.05048188 17 0 C18.20628008 2.33214148 19.1654738 4.49642139 20 7 C16.3440606 9.43729293 14.47299212 9.26838474 10.125 9.25 C8.91070312 9.25515625 7.69640625 9.2603125 6.4453125 9.265625 C3.17555789 9.01353508 0.93480445 8.40602799 -2 7 C-1.125 1.125 -1.125 1.125 0 0 Z " fill="#3F3A34" transform="translate(157,115)"/>
<path d="M0 0 C-0.99 0.495 -0.99 0.495 -2 1 C-1.67 2.98 -1.34 4.96 -1 7 C-16.74487472 7.3690205 -16.74487472 7.3690205 -24 5 C-23.00449135 2.3754772 -22.06036546 1.04971273 -19.875 -0.75 C-13.32773521 -3.59663687 -6.63469771 -1.72010681 0 0 Z " fill="#1B1918" transform="translate(150,117)"/>
<path d="M0 0 C10.88028169 -0.57042254 10.88028169 -0.57042254 15 3 C15 3.66 15 4.32 15 5 C15.99 5.33 16.98 5.66 18 6 C10.54380411 9.97663781 3.15391869 9.82506483 -5 8 C-5.38218767 6.34385343 -5.71395102 4.67542976 -6 3 C-5 2 -5 2 -2.4375 1.9375 C-1.2309375 1.9684375 -1.2309375 1.9684375 0 2 C0 1.34 0 0.68 0 0 Z " fill="#36352E" transform="translate(106,115)"/>
<path d="M0 0 C0.88353149 -0.00095673 1.76706299 -0.00191345 2.67736816 -0.00289917 C4.53637768 -0.0035765 6.39538962 -0.00175354 8.25439453 0.00244141 C11.08501545 0.00779598 13.91547771 0.00248118 16.74609375 -0.00390625 C18.55989618 -0.00324539 20.37369851 -0.00196406 22.1875 0 C23.02623657 -0.00202423 23.86497314 -0.00404846 24.72912598 -0.00613403 C29.45494155 0.01253966 33.93235758 0.34575312 38.59375 1.1328125 C38.59375 1.7928125 38.59375 2.4528125 38.59375 3.1328125 C27.88206071 3.95565832 17.17564389 4.26258092 6.43460083 4.31005859 C5.0467826 4.3168647 3.6589767 4.32708834 2.27120972 4.34082031 C0.2902495 4.35886384 -1.6908336 4.36130008 -3.671875 4.36328125 C-5.40099121 4.36944458 -5.40099121 4.36944458 -7.16503906 4.37573242 C-10.53981549 4.12280213 -13.25547821 3.33687022 -16.40625 2.1328125 C-16.40625 1.8028125 -16.40625 1.4728125 -16.40625 1.1328125 C-10.89556479 0.20235308 -5.5828121 -0.01347372 0 0 Z " fill="#3A2E2D" transform="translate(260.40625,158.8671875)"/>
<path d="M0 0 C0.66 0 1.32 0 2 0 C2.33 1.32 2.66 2.64 3 4 C2.34 4 1.68 4 1 4 C1 4.99 1 5.98 1 7 C-14.48837209 9.00775194 -14.48837209 9.00775194 -19 6 C-18.8125 3.625 -18.8125 3.625 -18 1 C-12.840658 -2.38581819 -5.71083249 -1.5092052 0 0 Z " fill="#222118" transform="translate(202,116)"/>
<path d="M0 0 C0.33 0 0.66 0 1 0 C1 19.14 1 38.28 1 58 C0.34 58 -0.32 58 -1 58 C-1 56.68 -1 55.36 -1 54 C-1.66 54 -2.32 54 -3 54 C-3 53.34 -3 52.68 -3 52 C-2.34 52 -1.68 52 -1 52 C-1 50.02 -1 48.04 -1 46 C-1.66 46 -2.32 46 -3 46 C-3 45.01 -3 44.02 -3 43 C-2.34 43 -1.68 43 -1 43 C-1 41.35 -1 39.7 -1 38 C-1.66 38 -2.32 38 -3 38 C-3 34.66666667 -3 31.33333333 -3 28 C-2.34 28 -1.68 28 -1 28 C-1 23.38 -1 18.76 -1 14 C-1.66 14 -2.32 14 -3 14 C-3 13.34 -3 12.68 -3 12 C-2.34 12 -1.68 12 -1 12 C-1 10.02 -1 8.04 -1 6 C-1.66 5.67 -2.32 5.34 -3 5 C-2.34 5 -1.68 5 -1 5 C-0.67 3.35 -0.34 1.7 0 0 Z M-2 33 C-1 35 -1 35 -1 35 Z " fill="#2C2A26" transform="translate(51,118)"/>
<path d="M0 0 C0.66 0 1.32 0 2 0 C2 0.66 2 1.32 2 2 C2.59167969 1.83242187 3.18335938 1.66484375 3.79296875 1.4921875 C7.49162723 0.5388628 10.21647981 -0.16323337 14 0.625 C16 2 16 2 16.875 4 C17 6 17 6 16 8 C9.09356601 9.23329178 1.30244635 10.59125884 -5 7 C-4.34 6.67 -3.68 6.34 -3 6 C-2.34786708 3.97536745 -2.34786708 3.97536745 -2 2 C-1.34 2 -0.68 2 0 2 C0 1.34 0 0.68 0 0 Z " fill="#262520" transform="translate(242,115)"/>
<path d="M0 0 C1.4375 2.0625 1.4375 2.0625 2 4 C-1 6 -1 6 -4 6 C-4 6.66 -4 7.32 -4 8 C-4.66 8 -5.32 8 -6 8 C-6 7.34 -6 6.68 -6 6 C-6.79664063 6.02320313 -7.59328125 6.04640625 -8.4140625 6.0703125 C-18.93848858 6.24956063 -18.93848858 6.24956063 -24 4 C-24 3.34 -24 2.68 -24 2 C-22.68 2.33 -21.36 2.66 -20 3 C-20 2.01 -20 1.02 -20 0 C-5.05617978 -1.46067416 -5.05617978 -1.46067416 0 0 Z " fill="#383530" transform="translate(148,274)"/>
<path d="M0 0 C5.94 0.66 11.88 1.32 18 2 C18 3.65 18 5.3 18 7 C11.29197657 9.385075 5.05740011 9 -2 9 C-2.33 7.02 -2.66 5.04 -3 3 C-2.01 2.67 -1.02 2.34 0 2 C0 1.34 0 0.68 0 0 Z " fill="#3F3D39" transform="translate(75,272)"/>
<path d="M0 0 C0.75732422 0.04833984 1.51464844 0.09667969 2.29492188 0.14648438 C3.08060547 0.20255859 3.86628906 0.25863281 4.67578125 0.31640625 C5.47306641 0.36861328 6.27035156 0.42082031 7.09179688 0.47460938 C9.05764647 0.60409647 11.0230179 0.74080666 12.98828125 0.87890625 C13.03100225 2.5450253 13.02891957 4.2127351 12.98828125 5.87890625 C11.98828125 6.87890625 11.98828125 6.87890625 8.828125 6.9765625 C6.89646484 6.95916016 6.89646484 6.95916016 4.92578125 6.94140625 C3.63542969 6.93238281 2.34507812 6.92335938 1.015625 6.9140625 C0.01660156 6.90246094 -0.98242188 6.89085937 -2.01171875 6.87890625 C-2.01171875 7.53890625 -2.01171875 8.19890625 -2.01171875 8.87890625 C-2.67171875 8.87890625 -3.33171875 8.87890625 -4.01171875 8.87890625 C-4.01171875 8.21890625 -4.01171875 7.55890625 -4.01171875 6.87890625 C-5.00171875 6.54890625 -5.99171875 6.21890625 -7.01171875 5.87890625 C-7.01171875 5.21890625 -7.01171875 4.55890625 -7.01171875 3.87890625 C-8.00171875 3.54890625 -8.99171875 3.21890625 -10.01171875 2.87890625 C-9.02171875 2.87890625 -8.03171875 2.87890625 -7.01171875 2.87890625 C-7.01171875 2.21890625 -7.01171875 1.55890625 -7.01171875 0.87890625 C-4.18726283 -0.06257906 -2.87000257 -0.1942107 0 0 Z " fill="#45433D" transform="translate(273.01171875,273.12109375)"/>
<path d="M0 0 C3.53741529 5.16182278 3.36378265 9.87234965 3.1875 15.875 C3.16719727 17.19371094 3.16719727 17.19371094 3.14648438 18.5390625 C3.11136623 20.69297552 3.05756694 22.84657004 3 25 C2.34 25 1.68 25 1 25 C0.94392578 23.13794922 0.94392578 23.13794922 0.88671875 21.23828125 C0.8210405 19.59632489 0.7545938 17.95439913 0.6875 16.3125 C0.65366211 15.08756836 0.65366211 15.08756836 0.61914062 13.83789062 C0.41319526 9.21348114 0.21927684 5.60303169 -3 2 C-7.0808332 0.71093944 -10.01004545 1.23499133 -14.10546875 2.28515625 C-15.82733398 2.70958008 -15.82733398 2.70958008 -17.58398438 3.14257812 C-19.99826623 3.75890699 -22.41232688 4.37610302 -24.82617188 4.99414062 C-26.54223633 5.41663086 -26.54223633 5.41663086 -28.29296875 5.84765625 C-29.3399292 6.11586182 -30.38688965 6.38406738 -31.46557617 6.66040039 C-32.30193604 6.77246826 -33.1382959 6.88453613 -34 7 C-34.66 6.34 -35.32 5.68 -36 5 C-29.98364994 3.09096585 -23.91173478 1.37249839 -17.8125 -0.25 C-17.14798828 -0.43723633 -16.48347656 -0.62447266 -15.79882812 -0.81738281 C-10.08377678 -2.30148006 -5.55184133 -1.85061378 0 0 Z " fill="#2A2926" transform="translate(261,67)"/>
<path d="M0 0 C1.46184058 0.22860058 2.91955419 0.48370392 4.375 0.75 C5.59316406 0.95882812 5.59316406 0.95882812 6.8359375 1.171875 C9 2 9 2 10.2890625 4.078125 C10.52367187 4.71234375 10.75828125 5.3465625 11 6 C8.19939266 8.80060734 6.09466645 8.47179338 2.1875 8.75 C0.35251953 8.89695312 0.35251953 8.89695312 -1.51953125 9.046875 C-4.92525819 9.00100662 -6.97873617 8.49624494 -10 7 C-9.67 5.35 -9.34 3.7 -9 2 C-6.03 2 -3.06 2 0 2 C0 1.34 0 0.68 0 0 Z " fill="#2E2C23" transform="translate(221,115)"/>
<path d="M0 0 C-0.875 3.875 -0.875 3.875 -2 5 C-4.46498814 5.2647362 -6.90290535 5.46877097 -9.375 5.625 C-10.06078125 5.6765625 -10.7465625 5.728125 -11.453125 5.78125 C-14.65003406 5.99271869 -16.92940579 6.0235314 -20 5 C-20.75 3.0625 -20.75 3.0625 -21 1 C-20.67 0.34 -20.34 -0.32 -20 -1 C-13.80598049 -2.63000513 -5.43740654 -3.62493769 0 0 Z " fill="#43413A" transform="translate(259,275)"/>
<path d="M0 0 C0.66 0 1.32 0 2 0 C2 0.66 2 1.32 2 2 C5.63 2 9.26 2 13 2 C13 3.65 13 5.3 13 7 C10.31834932 9.68165068 3.60426676 8.9364487 0 9 C-2.55530194 8.58402061 -4.57345794 7.93752761 -7 7 C-7 5.35 -7 3.7 -7 2 C-3.86650268 0.95550089 -3.01031744 1.06576355 0 2 C0 1.34 0 0.68 0 0 Z " fill="#464440" transform="translate(107,272)"/>
<path d="M0 0 C0.928125 -0.01224609 1.85625 -0.02449219 2.8125 -0.03710938 C3.699375 -0.03904297 4.58625 -0.04097656 5.5 -0.04296875 C6.3146875 -0.04707764 7.129375 -0.05118652 7.96875 -0.05541992 C10 0.1875 10 0.1875 12 2.1875 C11.0234375 4.1640625 11.0234375 4.1640625 9 6.1875 C6.06351279 6.54035691 3.54802224 6.65631321 0.625 6.5625 C-0.50808594 6.56056641 -0.50808594 6.56056641 -1.6640625 6.55859375 C-5.86954059 6.49242364 -9.16458567 6.0975669 -13 4.1875 C-12.67 3.1975 -12.34 2.2075 -12 1.1875 C-8.34657606 -0.63921197 -4.02160841 0.00279278 0 0 Z " fill="#373330" transform="translate(193,273.8125)"/>
<path d="M0 0 C1.18613892 0.00785522 1.18613892 0.00785522 2.39624023 0.01586914 C3.67724609 0.02070313 3.67724609 0.02070313 4.98413086 0.02563477 C5.88196289 0.03401367 6.77979492 0.04239258 7.70483398 0.05102539 C8.6065332 0.05553711 9.50823242 0.06004883 10.43725586 0.06469727 C12.67234712 0.07652315 14.90730835 0.09300319 17.14233398 0.11352539 C17.47233398 1.43352539 17.80233398 2.75352539 18.14233398 4.11352539 C13.61968649 7.12862372 8.29738018 7.66537976 2.93139648 6.72680664 C1.31258705 6.26098597 -0.27761633 5.6974568 -1.85766602 5.11352539 C-2.42016602 3.17602539 -2.42016602 3.17602539 -2.85766602 1.11352539 C-1.85766602 0.11352539 -1.85766602 0.11352539 0 0 Z " fill="#46433F" transform="translate(157.857666015625,273.886474609375)"/>
<path d="M0 0 C0.83265381 0.00523682 1.66530762 0.01047363 2.52319336 0.01586914 C3.42231445 0.0190918 4.32143555 0.02231445 5.24780273 0.02563477 C6.66609375 0.03820312 6.66609375 0.03820312 8.11303711 0.05102539 C9.06243164 0.05553711 10.01182617 0.06004883 10.98999023 0.06469727 C13.34356776 0.07652429 15.69702188 0.09300514 18.05053711 0.11352539 C18.05053711 1.76352539 18.05053711 3.41352539 18.05053711 5.11352539 C14.74058998 6.76849895 11.0593071 6.21436874 7.42553711 6.17602539 C6.62374023 6.17151367 5.82194336 6.16700195 4.99584961 6.16235352 C3.01404705 6.15055707 1.03228278 6.13262144 -0.94946289 6.11352539 C-1.60946289 4.46352539 -2.26946289 2.81352539 -2.94946289 1.11352539 C-1.94946289 0.11352539 -1.94946289 0.11352539 0 0 Z " fill="#33302D" transform="translate(212.949462890625,273.886474609375)"/>
<path d="M0 0 C5.75 0.875 5.75 0.875 8 2 C8 2.66 8 3.32 8 4 C8.66 4 9.32 4 10 4 C11.90079664 8.01535068 12.23570807 11.18996591 12.1953125 15.61328125 C12.18564453 17.4840332 12.18564453 17.4840332 12.17578125 19.39257812 C12.15902344 20.68615234 12.14226562 21.97972656 12.125 23.3125 C12.11597656 24.62541016 12.10695313 25.93832031 12.09765625 27.29101562 C12.07411797 30.52752913 12.0412352 33.76367149 12 37 C11.34 37 10.68 37 10 37 C8.00216302 29.57946264 7.85518735 22.45930814 8.02734375 14.83203125 C8.00051442 11.07209253 7.61846844 7.69642765 7 4 C4.69 3.34 2.38 2.68 0 2 C0 1.34 0 0.68 0 0 Z " fill="#3D362A" transform="translate(314,171)"/>
<path d="M0 0 C-4.90926184 3.27284122 -10.73214955 4.19487295 -16.40380859 5.6237793 C-18.60028791 6.18122827 -20.79006645 6.76099717 -22.98046875 7.34179688 C-30.2427099 9.21156458 -36.51535317 10.58943624 -44 9 C-44 8.67 -44 8.34 -44 8 C-37.87643096 6.45710746 -31.74156158 4.97558265 -25.59057617 3.54614258 C-22.12439489 2.73976486 -18.66815639 1.91566784 -15.21875 1.0390625 C-14.0946875 0.75804688 -12.970625 0.47703125 -11.8125 0.1875 C-10.82894531 -0.06644531 -9.84539062 -0.32039063 -8.83203125 -0.58203125 C-5.64513525 -1.05237314 -3.13217151 -0.68211735 0 0 Z " fill="#23221F" transform="translate(218,64)"/>
<path d="M0 0 C0.99 0.495 0.99 0.495 2 1 C2.33 18.49 2.66 35.98 3 54 C2.34 54 1.68 54 1 54 C0.00706191 51.02118573 -0.12119785 49.08512761 -0.11352539 45.9777832 C-0.11344986 44.95695145 -0.11337433 43.93611969 -0.11329651 42.88435364 C-0.10813522 41.78427475 -0.10297394 40.68419586 -0.09765625 39.55078125 C-0.0962413 38.4230278 -0.09482635 37.29527435 -0.09336853 36.13334656 C-0.0877647 32.52637088 -0.07521153 28.91945696 -0.0625 25.3125 C-0.05748549 22.86914152 -0.0529225 20.42578207 -0.04882812 17.98242188 C-0.03779403 11.98826013 -0.02105215 5.99413448 0 0 Z " fill="#363431" transform="translate(315,227)"/>
<path d="M0 0 C0 14.19 0 28.38 0 43 C-2.64 43 -5.28 43 -8 43 C-8 41.68 -8 40.36 -8 39 C-6.02 39.33 -4.04 39.66 -2 40 C-2.33 27.46 -2.66 14.92 -3 2 C-3.66 1.67 -4.32 1.34 -5 1 C-1.125 0 -1.125 0 0 0 Z " fill="#22211E" transform="translate(308,119)"/>
<path d="M0 0 C1.93709638 3.25753924 2.23715445 5.65609928 2.1953125 9.421875 C2.18886719 10.44667969 2.18242187 11.47148438 2.17578125 12.52734375 C2.15902344 13.59082031 2.14226562 14.65429688 2.125 15.75 C2.11597656 16.82894531 2.10695313 17.90789062 2.09765625 19.01953125 C2.0741142 21.67978249 2.03824397 24.33991949 2 27 C9.26 27.33 16.52 27.66 24 28 C24 28.33 24 28.66 24 29 C15.75 29 7.5 29 -1 29 C-1.02291487 25.0306345 -1.04284015 21.0614368 -1.05493164 17.09204102 C-1.05997057 15.74079614 -1.06680177 14.38955674 -1.07543945 13.03833008 C-1.08752419 11.09979566 -1.09269828 9.161222 -1.09765625 7.22265625 C-1.10289307 6.05484619 -1.10812988 4.88703613 -1.11352539 3.68383789 C-1 1 -1 1 0 0 Z " fill="#322E2B" transform="translate(273,70)"/>
<path d="M0 0 C-2.51428422 1.67618948 -4.68059986 2.77988088 -7.4375 3.9375 C-10.64596906 5.32818383 -13.25928282 6.80742626 -16 9 C-16.66 9 -17.32 9 -18 9 C-18.41378906 9.82757813 -18.41378906 9.82757813 -18.8359375 10.671875 C-20.890625 14.78125 -22.9453125 18.890625 -25 23 C-25.99 22.67 -26.98 22.34 -28 22 C-24.48463837 12.21711862 -18.57024611 4.50328925 -9.1875 -0.26953125 C-5.75218478 -1.41668115 -3.45457566 -0.95552093 0 0 Z " fill="#22201E" transform="translate(247,162)"/>
<path d="M0 0 C4.00449687 2.76500974 6.93001183 5.77001774 9.625 9.8125 C9.25 12.5 9.25 12.5 8.625 14.8125 C6.625 11.8125 6.625 11.8125 4.9375 8.8125 C2.23245487 5.30325227 -0.15594295 3.83062711 -4.375 2.8125 C-7.2273128 2.47740311 -10.05306463 2.25331546 -12.921875 2.12109375 C-15.375 1.8125 -15.375 1.8125 -18.375 -0.1875 C-12.3734269 -1.93443677 -5.89616837 -2.07457776 0 0 Z " fill="#24231F" transform="translate(263.375,55.1875)"/>
<path d="M0 0 C0 0.66 0 1.32 0 2 C-3.89569412 2.98012808 -7.79178184 3.95867445 -11.68823242 4.93579102 C-13.01223339 5.26804428 -14.33612821 5.60072084 -15.65991211 5.93383789 C-17.56856411 6.41405158 -19.47763732 6.89259013 -21.38671875 7.37109375 C-23.10701294 7.8031311 -23.10701294 7.8031311 -24.86206055 8.24389648 C-26.80808316 8.71280118 -28.76217639 9.15079692 -30.72583008 9.53930664 C-33.14967217 9.98234777 -33.14967217 9.98234777 -36 11 C-38.1875 10.0625 -38.1875 10.0625 -40 9 C-35.83837894 7.87533051 -31.6757616 6.75444749 -27.51220703 5.63696289 C-26.09786915 5.25680102 -24.68380179 4.87563117 -23.27001953 4.4934082 C-21.23020711 3.94212698 -19.18942835 3.39455625 -17.1484375 2.84765625 C-15.92302246 2.51773682 -14.69760742 2.18781738 -13.43505859 1.84790039 C-8.85969041 0.71852912 -4.71879426 0 0 0 Z " fill="#282724" transform="translate(165,87)"/>
<path d="M0 0 C-3.45445134 3.45445134 -8.45645307 3.6759815 -13.125 4.6875 C-14.1459375 4.92533203 -15.166875 5.16316406 -16.21875 5.40820312 C-22.2116239 6.72155145 -26.96796143 7.19338893 -33 6 C-33 5.67 -33 5.34 -33 5 C-28.81736658 3.95849242 -24.62831621 2.94553099 -20.4375 1.9375 C-19.25607422 1.64294922 -18.07464844 1.34839844 -16.85742188 1.04492188 C-5.99662341 -1.54098252 -5.99662341 -1.54098252 0 0 Z " fill="#23211F" transform="translate(177,74)"/>
<path d="M0 0 C-4.13777565 2.7585171 -8.38994612 3.53332494 -13.1875 4.6875 C-14.56905273 5.04424805 -14.56905273 5.04424805 -15.97851562 5.40820312 C-21.73950216 6.80245182 -26.17120337 7.13014271 -32 6 C-27.29345787 3.44251102 -22.311607 2.49926601 -17.125 1.3125 C-16.14402344 1.07466797 -15.16304687 0.83683594 -14.15234375 0.59179688 C-9.12960018 -0.56390863 -5.09331733 -1.42440231 0 0 Z " fill="#2A2825" transform="translate(100,92)"/>
<path d="M0 0 C-4.1525932 2.76839546 -8.43425174 3.53447978 -13.25 4.6875 C-14.64412109 5.04424805 -14.64412109 5.04424805 -16.06640625 5.40820312 C-21.45772596 6.70837287 -25.57300707 7.23681469 -31 6 C-31 5.67 -31 5.34 -31 5 C-29.35 5 -27.7 5 -26 5 C-26 4.34 -26 3.68 -26 3 C-24.63875 2.8453125 -24.63875 2.8453125 -23.25 2.6875 C-19.73732302 2.20914765 -16.41600488 1.31483049 -13 0.375 C-8.17900947 -0.8786998 -4.81568741 -1.20392185 0 0 Z " fill="#201F1D" transform="translate(247,57)"/>
<path d="M0 0 C3.875 1.75 3.875 1.75 5 4 C4.34 4.66 3.68 5.32 3 6 C6.96 6.33 10.92 6.66 15 7 C15 6.01 15 5.02 15 4 C12.36 4 9.72 4 7 4 C9 2 9 2 10.9453125 1.8046875 C12.96354167 1.86979167 14.98177083 1.93489583 17 2 C17.042721 3.66611905 17.04063832 5.33382885 17 7 C15.15170059 8.84829941 12.24305571 8.47229228 9.75 8.6875 C8.04070312 8.84798828 8.04070312 8.84798828 6.296875 9.01171875 C2.96833986 8.99988746 0.96031993 8.45233741 -2 7 C-1.125 1.125 -1.125 1.125 0 0 Z " fill="#23221E" transform="translate(157,115)"/>
<path d="M0 0 C-1.96644019 1.31096013 -3.94536548 2.60342478 -5.9375 3.875 C-11.28707114 7.58694732 -13.95774721 11.35010197 -17 17 C-17.99 16.67 -18.98 16.34 -20 16 C-19.505 15.071875 -19.01 14.14375 -18.5 13.1875 C-16.78710148 10.13472484 -16.78710148 10.13472484 -17 7 C-16.360625 6.7525 -15.72125 6.505 -15.0625 6.25 C-12.81258459 5.18437567 -12.81258459 5.18437567 -12.25 2.875 C-12.1675 2.25625 -12.085 1.6375 -12 1 C-7.58774263 -0.47075246 -4.51718381 -1.36884358 0 0 Z " fill="#2B2A28" transform="translate(70,99)"/>
<path d="M0 0 C0.99 0.33 1.98 0.66 3 1 C3 1.66 3 2.32 3 3 C0.36 2.67 -2.28 2.34 -5 2 C-5 2.66 -5 3.32 -5 4 C-3.329375 3.9690625 -3.329375 3.9690625 -1.625 3.9375 C2 4 2 4 4 5 C4 5.66 4 6.32 4 7 C-0.29 7 -4.58 7 -9 7 C-9.33 5.02 -9.66 3.04 -10 1 C-6.85658007 -0.57170996 -3.44228549 -0.23175783 0 0 Z " fill="#3D3B36" transform="translate(141,115)"/>
<path d="M0 0 C5.07941107 0.90513614 8.63690173 4.20256553 11.875 8.0625 C13.01458602 10.48705133 13.43854845 12.38923425 13.875 15.0625 C12.885 15.7225 11.895 16.3825 10.875 17.0625 C10.4625 15.825 10.05 14.5875 9.625 13.3125 C8.23352408 9.69338602 7.11402691 7.36391385 3.875 5.0625 C0.9215874 3.8821569 -2.06502713 2.92556927 -5.125 2.0625 C-3.125 0.0625 -3.125 0.0625 0 0 Z " fill="#1C1A18" transform="translate(321.125,159.9375)"/>
<path d="M0 0 C0.33 0 0.66 0 1 0 C1.02529271 7.08413941 1.04284261 14.16826723 1.05493164 21.25244141 C1.05996974 23.66390417 1.06680034 26.07536386 1.07543945 28.48681641 C1.08752787 31.94694779 1.09323344 35.4070389 1.09765625 38.8671875 C1.10281754 39.95055389 1.10797882 41.03392029 1.11329651 42.15011597 C1.11337204 43.1510025 1.11344757 44.15188904 1.11352539 45.18310547 C1.115746 46.06690887 1.11796661 46.95071228 1.12025452 47.86129761 C1 50 1 50 0 52 C-0.99 51.67 -1.98 51.34 -3 51 C-2.67 47.7 -2.34 44.4 -2 41 C-1.34 41 -0.68 41 0 41 C0 27.47 0 13.94 0 0 Z " fill="#312E2B" transform="translate(307,227)"/>
<path d="M0 0 C-0.33 0.66 -0.66 1.32 -1 2 C-5.05027972 3.33051274 -9.20980139 4.26431963 -13.35571289 5.25146484 C-15.42919382 5.74801088 -17.49661572 6.26567334 -19.56445312 6.78515625 C-20.87468605 7.10286007 -22.18522404 7.41930891 -23.49609375 7.734375 C-24.69419678 8.02538086 -25.8922998 8.31638672 -27.12670898 8.61621094 C-28.07489502 8.74286133 -29.02308105 8.86951172 -30 9 C-30.66 8.34 -31.32 7.68 -32 7 C-24.76754311 4.42573568 -17.48853521 2.66411893 -10 1 C-8.91912109 0.71189453 -8.91912109 0.71189453 -7.81640625 0.41796875 C-5.20499014 -0.18293775 -2.66740099 -0.06062275 0 0 Z " fill="#332C29" transform="translate(224,73)"/>
<path d="M0 0 C2.25 2.6875 2.25 2.6875 2.25 4.6875 C3.0853125 5.10322266 3.0853125 5.10322266 3.9375 5.52734375 C5.52500173 6.32377621 7.1081404 7.12894722 8.6875 7.94140625 C9.533125 8.37324219 10.37875 8.80507812 11.25 9.25 C12.095625 9.68441406 12.94125 10.11882812 13.8125 10.56640625 C15.97486392 11.56095504 17.92750386 12.20902279 20.25 12.6875 C20.25 13.3475 20.25 14.0075 20.25 14.6875 C11.20884193 14.1104048 4.84504245 9.76729531 -1.2421875 3.26953125 C-2.92756688 1.50119278 -4.73107522 0.06036885 -6.75 -1.3125 C-3.4148903 -2.91829356 -2.92497458 -2.45963772 0 0 Z " fill="#242320" transform="translate(226.75,213.3125)"/>
<path d="M0 0 C0.99 0.33 1.98 0.66 3 1 C5.73865287 1.07051114 8.45027588 1.09357765 11.1875 1.0625 C12.31188477 1.05573242 12.31188477 1.05573242 13.45898438 1.04882812 C15.30602383 1.03706354 17.15302213 1.01912865 19 1 C19 1.99 19 2.98 19 4 C16.7722603 4.22307542 14.54268636 4.42788178 12.3125 4.625 C10.45044922 4.79902344 10.45044922 4.79902344 8.55078125 4.9765625 C5.07119831 4.99953004 3.07515279 4.54051631 0 3 C0 2.01 0 1.02 0 0 Z " fill="#262620" transform="translate(211,119)"/>
<path d="M0 0 C1.41655793 -0.0272415 2.83327045 -0.04650467 4.25 -0.0625 C5.43335938 -0.07990234 5.43335938 -0.07990234 6.640625 -0.09765625 C8.9130998 -0.00359686 10.81428988 0.40686926 13 1 C13.66 1 14.32 1 15 1 C15.33 2.32 15.66 3.64 16 5 C15.34 5 14.68 5 14 5 C14 5.99 14 6.98 14 8 C11.69 8 9.38 8 7 8 C8.32 7.67 9.64 7.34 11 7 C10.67 6.34 10.34 5.68 10 5 C7.64400765 4.53248212 7.64400765 4.53248212 4.9375 4.375 C4.01839844 4.30023438 3.09929687 4.22546875 2.15234375 4.1484375 C1.44207031 4.09945312 0.73179687 4.05046875 0 4 C0.99 3.67 1.98 3.34 3 3 C3 2.34 3 1.68 3 1 C2.01 0.67 1.02 0.34 0 0 Z " fill="#1D1C18" transform="translate(189,115)"/>
<path d="M0 0 C1.32 0.33 2.64 0.66 4 1 C5.27657127 6.68654474 4.88032755 9.91142133 2 15 C-0.1875 17.5 -0.1875 17.5 -3 19 C-5.82893993 19.02103301 -8.1994391 18.56960561 -11 18 C-11 17.67 -11 17.34 -11 17 C-10.38511719 16.91363281 -9.77023438 16.82726562 -9.13671875 16.73828125 C-4.03489571 15.87863693 -4.03489571 15.87863693 0.125 13 C1.4211322 8.55611818 0.72830401 4.51899476 0 0 Z " fill="#292725" transform="translate(265,188)"/>
<path d="M0 0 C4.145697 -0.0879568 8.29115012 -0.14071153 12.4375 -0.1875 C13.60216797 -0.21263672 14.76683594 -0.23777344 15.96679688 -0.26367188 C29.83389568 -0.38085863 29.83389568 -0.38085863 35 3 C35.73217773 5.10864258 35.73217773 5.10864258 36 7 C32.02712922 6.43244703 29.3546267 5.17597408 26 3 C23.42788678 1.71394339 21.43093034 1.78956059 18.5546875 1.68359375 C17.47832031 1.64169922 16.40195312 1.59980469 15.29296875 1.55664062 C13.60107422 1.49766602 13.60107422 1.49766602 11.875 1.4375 C10.73933594 1.39431641 9.60367187 1.35113281 8.43359375 1.30664062 C5.62252232 1.2003396 2.81136055 1.09830595 0 1 C0 0.67 0 0.34 0 0 Z " fill="#15100F" transform="translate(274,97)"/>
<path d="M0 0 C3.32302186 1.56377499 5.56184007 3.21353151 8 6 C8 6.66 8 7.32 8 8 C12.3039919 9.74849671 16.64750591 11.3770361 21 13 C21 13.66 21 14.32 21 15 C15.06 14.01 15.06 14.01 9 13 C8.67 12.01 8.34 11.02 8 10 C7.36578125 9.69320313 6.7315625 9.38640625 6.078125 9.0703125 C3.46891942 7.72647354 2.94242769 6.5153756 1.75 3.875 C1.41484375 3.15054687 1.0796875 2.42609375 0.734375 1.6796875 C0.49203125 1.12539063 0.2496875 0.57109375 0 0 Z " fill="#262421" transform="translate(53,285)"/>
<path d="M0 0 C0 0.66 0 1.32 0 2 C-8.58 2 -17.16 2 -26 2 C-18.60363679 -2.9309088 -8.40608872 -0.77723438 0 0 Z " fill="#25201F" transform="translate(299,160)"/>
<path d="M0 0 C0.66 0 1.32 0 2 0 C1.6850374 2.93965096 1.01428279 3.98550403 -1.09375 6.125 C-4.76074356 8.4908023 -6.99004809 8.41158699 -11.3125 8.25 C-12.56675781 8.21390625 -13.82101562 8.1778125 -15.11328125 8.140625 C-16.06589844 8.09421875 -17.01851563 8.0478125 -18 8 C-18 7.01 -18 6.02 -18 5 C-17.35933594 5.02320313 -16.71867187 5.04640625 -16.05859375 5.0703125 C-10.63399694 5.18349336 -6.06258356 5.04657633 -1 3 C-0.67 2.01 -0.34 1.02 0 0 Z " fill="#26201E" transform="translate(322,210)"/>
<path d="M0 0 C2 3 2 3 1.875 5.3125 C-0.41758193 12.35400166 -5.12095924 15.97599637 -11 20 C-11.66 19.34 -12.32 18.68 -13 18 C-12.46890625 17.6596875 -11.9378125 17.319375 -11.390625 16.96875 C-4.79404137 12.44262692 -1.77612904 7.75978708 0 0 Z " fill="#262421" transform="translate(315,278)"/>
<path d="M0 0 C-1 2 -1 2 -3.10131836 2.71777344 C-6.04428129 3.40727211 -8.98766905 4.09038758 -11.9375 4.75 C-13.47954102 5.11931641 -13.47954102 5.11931641 -15.05273438 5.49609375 C-16.52516602 5.83060547 -16.52516602 5.83060547 -18.02734375 6.171875 C-19.38460571 6.4827002 -19.38460571 6.4827002 -20.76928711 6.79980469 C-21.50542236 6.86586914 -22.24155762 6.93193359 -23 7 C-23.66 6.34 -24.32 5.68 -25 5 C-21.08500911 3.29783005 -17.23315495 2.27162289 -13.0625 1.375 C-11.87785156 1.11460938 -10.69320312 0.85421875 -9.47265625 0.5859375 C-6.23230706 0.03919692 -3.27702169 -0.1100679 0 0 Z " fill="#2B2926" transform="translate(191,81)"/>
<path d="M0 0 C0.69738281 0.00902344 1.39476562 0.01804687 2.11328125 0.02734375 C3.82566958 0.05080112 5.53788004 0.08666896 7.25 0.125 C5.27 1.115 5.27 1.115 3.25 2.125 C4.57 2.785 5.89 3.445 7.25 4.125 C4.45807795 4.17880578 1.6671859 4.21857669 -1.125 4.25 C-1.9190625 4.26675781 -2.713125 4.28351563 -3.53125 4.30078125 C-5.60492015 4.31835473 -7.67883241 4.22835168 -9.75 4.125 C-10.41 3.465 -11.07 2.805 -11.75 2.125 C-8.00764681 -0.32489101 -4.30774581 -0.10586143 0 0 Z " fill="#49483F" transform="translate(275.75,119.875)"/>
<path d="M0 0 C6.27 0 12.54 0 19 0 C19.33 1.32 19.66 2.64 20 4 C18.68 4 17.36 4 16 4 C16 3.67 16 3.34 16 3 C10.39 2.67 4.78 2.34 -1 2 C-0.67 1.34 -0.34 0.68 0 0 Z " fill="#181614" transform="translate(156,274)"/>
<path d="M0 0 C3.63 0 7.26 0 11 0 C11 1.65 11 3.3 11 5 C7.78658631 6.60670684 4.37041032 5.82510855 0.875 5.5625 C-0.25615234 5.48418945 -0.25615234 5.48418945 -1.41015625 5.40429688 C-3.2737937 5.27454996 -5.13694996 5.13792512 -7 5 C-7 4.67 -7 4.34 -7 4 C-1.72 4 3.56 4 9 4 C9 3.34 9 2.68 9 2 C5.7 2 2.4 2 -1 2 C-0.67 1.34 -0.34 0.68 0 0 Z " fill="#191715" transform="translate(109,274)"/>
<path d="M0 0 C-0.598125 0.268125 -1.19625 0.53625 -1.8125 0.8125 C-4.04267613 1.88022403 -4.04267613 1.88022403 -5.5625 3.625 C-7 5 -7 5 -10 5 C-10.33 5.99 -10.66 6.98 -11 8 C-12.65 8.33 -14.3 8.66 -16 9 C-15.63108098 6.37843912 -15.32833246 5.2731196 -13.2578125 3.55078125 C-12.55398437 3.14214844 -11.85015625 2.73351562 -11.125 2.3125 C-10.42632812 1.89613281 -9.72765625 1.47976562 -9.0078125 1.05078125 C-5.5608699 -0.75316342 -3.67054561 -1.13913485 0 0 Z " fill="#2B2926" transform="translate(250,172)"/>
<path d="M0 0 C1.32 0.33 2.64 0.66 4 1 C5.125 4.75 5.125 4.75 4 7 C1.67843403 7.40729228 -0.6568787 7.74438677 -3 8 C-3 7.34 -3 6.68 -3 6 C-1.68 6 -0.36 6 1 6 C1 5.01 1 4.02 1 3 C-3.29 3 -7.58 3 -12 3 C-8.33134759 0.55423173 -6.32799657 0.76392746 -2 1 C-1.34 1.33 -0.68 1.66 0 2 C0 1.34 0 0.68 0 0 Z " fill="#1B1A18" transform="translate(89,116)"/>
<path d="M0 0 C2.51937803 3.33447092 2.88237506 5.68787605 3.125 9.8125 C1.20389725 8.07435942 0.01066434 6.60461698 -1.25 4.3125 C-3.2454029 1.24264938 -4.49591759 0.25040741 -7.875 -1.1875 C-11.20069622 -1.71287839 -14.51462676 -1.9982751 -17.875 -2.1875 C-17.875 -2.5175 -17.875 -2.8475 -17.875 -3.1875 C-10.9188407 -4.40787882 -5.90097365 -4.48987126 0 0 Z " fill="#312D29" transform="translate(303.875,112.1875)"/>
<path d="M0 0 C-3.28681489 0.89397807 -6.57995297 1.76190446 -9.875 2.625 C-10.81214844 2.88023438 -11.74929687 3.13546875 -12.71484375 3.3984375 C-13.61074219 3.63046875 -14.50664062 3.8625 -15.4296875 4.1015625 C-16.25710449 4.32150879 -17.08452148 4.54145508 -17.93701172 4.76806641 C-18.61779785 4.84460449 -19.29858398 4.92114258 -20 5 C-20.66 4.34 -21.32 3.68 -22 3 C-18.67314301 1.97740052 -15.33834715 0.98438441 -12 0 C-11.23945313 -0.23589844 -10.47890625 -0.47179687 -9.6953125 -0.71484375 C-5.59086421 -1.89971279 -3.6668356 -2.15648702 0 0 Z " fill="#2B2A26" transform="translate(247,69)"/>
<path d="M0 0 C0.75732422 0.04833984 1.51464844 0.09667969 2.29492188 0.14648438 C3.08060547 0.20255859 3.86628906 0.25863281 4.67578125 0.31640625 C5.47306641 0.36861328 6.27035156 0.42082031 7.09179688 0.47460938 C9.05764647 0.60409647 11.0230179 0.74080666 12.98828125 0.87890625 C12.65828125 2.19890625 12.32828125 3.51890625 11.98828125 4.87890625 C11.65828125 4.21890625 11.32828125 3.55890625 10.98828125 2.87890625 C9.85648437 2.90210938 8.7246875 2.9253125 7.55859375 2.94921875 C6.0768295 2.96797526 4.59505813 2.98617559 3.11328125 3.00390625 C2.36691406 3.02066406 1.62054688 3.03742188 0.8515625 3.0546875 C-1.10366336 3.07230215 -3.05913896 2.98210814 -5.01171875 2.87890625 C-5.67171875 2.21890625 -6.33171875 1.55890625 -7.01171875 0.87890625 C-4.18726283 -0.06257906 -2.87000257 -0.1942107 0 0 Z " fill="#141411" transform="translate(273.01171875,273.12109375)"/>
<path d="M0 0 C5.94 0.66 11.88 1.32 18 2 C16 4 16 4 14.02880859 4.22705078 C13.24328613 4.21657715 12.45776367 4.20610352 11.6484375 4.1953125 C10.37226562 4.18564453 10.37226562 4.18564453 9.0703125 4.17578125 C7.73613281 4.15064453 7.73613281 4.15064453 6.375 4.125 C5.02921875 4.11146484 5.02921875 4.11146484 3.65625 4.09765625 C1.43723414 4.0740497 -0.78125077 4.0411231 -3 4 C-2.67 3.34 -2.34 2.68 -2 2 C-1.34 2 -0.68 2 0 2 C0 1.34 0 0.68 0 0 Z " fill="#1E1E10" transform="translate(75,272)"/>
<path d="M0 0 C0.66 0.33 1.32 0.66 2 1 C1.195625 2.010625 0.39125 3.02125 -0.4375 4.0625 C-3.10547019 7.75545309 -3.72410871 10.49377556 -4 15 C-4.66 15 -5.32 15 -6 15 C-6.33 15.99 -6.66 16.98 -7 18 C-7.50220958 11.72238025 -7.20069234 8.0408308 -3 3 C-1.25 1.125 -1.25 1.125 0 0 Z " fill="#232220" transform="translate(67,110)"/>
<path d="M0 0 C0.99 0.33 1.98 0.66 3 1 C2.67 2.32 2.34 3.64 2 5 C-1.96 4.67 -5.92 4.34 -10 4 C-10.33 3.01 -10.66 2.02 -11 1 C-7.37 1 -3.74 1 0 1 C0 0.67 0 0.34 0 0 Z " fill="#373530" transform="translate(256,118)"/>
<path d="M0 0 C1.77049689 -0.05410687 3.54146849 -0.09284119 5.3125 -0.125 C6.29863281 -0.14820313 7.28476563 -0.17140625 8.30078125 -0.1953125 C11 0 11 0 14 2 C14 2.99 14 3.98 14 5 C13.34 5 12.68 5 12 5 C12 4.34 12 3.68 12 3 C7.05 3 2.1 3 -3 3 C-2.01 2.67 -1.02 2.34 0 2 C0 1.34 0 0.68 0 0 Z " fill="#262422" transform="translate(245,273)"/>
<path d="M0 0 C0.66 0.66 1.32 1.32 2 2 C1.505 2.928125 1.01 3.85625 0.5 4.8125 C-1.659445 9.73968438 -1.25765646 14.72281389 -1 20 C-1.66 20 -2.32 20 -3 20 C-4.7610915 6.02612175 -4.7610915 6.02612175 -2.0625 2.125 C-1.0415625 1.073125 -1.0415625 1.073125 0 0 Z " fill="#1D1C1A" transform="translate(233,180)"/>
<path d="M0 0 C0.33 0 0.66 0 1 0 C1 6.27 1 12.54 1 19 C0.34 19 -0.32 19 -1 19 C-1.33 13.39 -1.66 7.78 -2 2 C-1.34 2 -0.68 2 0 2 C0 1.34 0 0.68 0 0 Z " fill="#28211F" transform="translate(263,73)"/>
<path d="M0 0 C0.99 0 1.98 0 3 0 C3.598125 0.78375 4.19625 1.5675 4.8125 2.375 C7.35869311 5.43043173 9.20328252 6.05082063 13 7 C10 9 10 9 7.5625 8.875 C4.44017222 7.80883929 3.05236293 6.56545366 1 4 C0.25 1.75 0.25 1.75 0 0 Z " fill="#1E1D1B" transform="translate(62,279)"/>
<path d="M0 0 C4.21878192 -0.19622241 7.17010894 0.19769832 11 2 C7.76085771 4.15942819 6.75140267 4.27232978 3 4.25 C2.13375 4.25515625 1.2675 4.2603125 0.375 4.265625 C-2 4 -2 4 -5 2 C-3.35 2 -1.7 2 0 2 C0 1.34 0 0.68 0 0 Z " fill="#1A1917" transform="translate(106,115)"/>
<path d="M0 0 C4.95 0 9.9 0 15 0 C15 0.99 15 1.98 15 3 C14.43152344 2.98839844 13.86304687 2.97679688 13.27734375 2.96484375 C8.39329516 2.90776806 3.81496035 3.18043228 -1 4 C-0.67 2.68 -0.34 1.36 0 0 Z " fill="#3D3C2A" transform="translate(74,115)"/>
<path d="M0 0 C1.8125 1.5 1.8125 1.5 3 3 C2.67 3.66 2.34 4.32 2 5 C-1.96 4.67 -5.92 4.34 -10 4 C-7.27483587 -0.08774619 -4.72174698 -0.4721747 0 0 Z " fill="#1E1C1A" transform="translate(255,115)"/>
<path d="M0 0 C2.9375 0.8125 2.9375 0.8125 6 2 C6.33 2.99 6.66 3.98 7 5 C7.99 5.33 8.98 5.66 10 6 C6.25 7.125 6.25 7.125 4 6 C2.29636178 5.77377919 0.58671299 5.59111527 -1.125 5.4375 C-2.03507812 5.35371094 -2.94515625 5.26992187 -3.8828125 5.18359375 C-4.58148438 5.12300781 -5.28015625 5.06242187 -6 5 C-6 4.67 -6 4.34 -6 4 C-4.02 3.67 -2.04 3.34 0 3 C0 2.01 0 1.02 0 0 Z " fill="#282724" transform="translate(114,115)"/>
<path d="M0 0 C1.50433594 0.01353516 1.50433594 0.01353516 3.0390625 0.02734375 C3.80992187 0.03894531 4.58078125 0.05054688 5.375 0.0625 C5.705 1.0525 6.035 2.0425 6.375 3.0625 C0.765 3.0625 -4.845 3.0625 -10.625 3.0625 C-6.58365069 0.36826713 -4.81510472 -0.05598959 0 0 Z " fill="#33241F" transform="translate(293.625,214.9375)"/>
<path d="M0 0 C3.01217112 0.64449607 5.51655836 1.65022182 8.25 3.0625 C8.95640625 3.42472656 9.6628125 3.78695312 10.390625 4.16015625 C10.92171875 4.43730469 11.4528125 4.71445313 12 5 C11.34 5.66 10.68 6.32 10 7 C5.62768671 6.76365874 3.13456443 4.95544646 0 2 C0 1.34 0 0.68 0 0 Z " fill="#211E1C" transform="translate(234,209)"/>
<path d="M0 0 C0.66 0 1.32 0 2 0 C2.33 1.65 2.66 3.3 3 5 C5.64 5 8.28 5 11 5 C9 7 9 7 6.94140625 7.01171875 C6.15636719 6.90472656 5.37132812 6.79773438 4.5625 6.6875 C3.38880859 6.53861328 3.38880859 6.53861328 2.19140625 6.38671875 C0 6 0 6 -3 5 C-1.125 1.125 -1.125 1.125 0 0 Z " fill="#20201D" transform="translate(129,117)"/>
<path d="M0 0 C-0.90372911 2.78649808 -1.7391517 4.72051967 -3.75 6.875 C-6.8104489 8.40522445 -8.75160284 7.81209929 -12 7 C-11.443125 6.773125 -10.88625 6.54625 -10.3125 6.3125 C-7.77784543 5.01533035 -7.77784543 5.01533035 -5.4375 2.375 C-3 0 -3 0 0 0 Z " fill="#262320" transform="translate(306,280)"/>
<path d="M0 0 C4.46839215 -0.21278058 7.82262526 0.40861915 12 2 C12 2.33 12 2.66 12 3 C5.07 3 -1.86 3 -9 3 C-9 2.67 -9 2.34 -9 2 C-6.03 2 -3.06 2 0 2 C0 1.34 0 0.68 0 0 Z " fill="#292220" transform="translate(270,215)"/>
<path d="M0 0 C0.33 0 0.66 0 1 0 C1 5.94 1 11.88 1 18 C0.67 18 0.34 18 0 18 C-2.91176471 5.82352941 -2.91176471 5.82352941 0 0 Z " fill="#2A1D1B" transform="translate(324,190)"/>
<path d="M0 0 C1.98 0 3.96 0 6 0 C6 0.66 6 1.32 6 2 C7.32 2.33 8.64 2.66 10 3 C10 3.66 10 4.32 10 5 C6.7 5 3.4 5 0 5 C0 3.35 0 1.7 0 0 Z " fill="#4C4B3F" transform="translate(186,116)"/>
<path d="M0 0 C0.66 0.99 1.32 1.98 2 3 C-2.39042858 6.42453429 -5.2902045 8.58221009 -11 9 C-11 8.34 -11 7.68 -11 7 C-10.18595703 6.61908203 -10.18595703 6.61908203 -9.35546875 6.23046875 C-8.64003906 5.88628906 -7.92460937 5.54210937 -7.1875 5.1875 C-6.47980469 4.85105469 -5.77210938 4.51460937 -5.04296875 4.16796875 C-2.98870965 2.99354529 -1.58383722 1.74371984 0 0 Z " fill="#2B2925" transform="translate(329,219)"/>
<path d="M0 0 C-2.94266089 1.96177393 -4.12432473 2.36742347 -7.5 2.75 C-8.66015625 2.89695312 -8.66015625 2.89695312 -9.84375 3.046875 C-12 3 -12 3 -15 1 C-9.42567486 -0.66251802 -5.6932495 -1.18609365 0 0 Z " fill="#24201E" transform="translate(135,84)"/>
<path d="M0 0 C1.916588 -0.02712153 3.8332873 -0.04645097 5.75 -0.0625 C7.35101563 -0.07990234 7.35101563 -0.07990234 8.984375 -0.09765625 C11.53368501 -0.01510087 13.57933591 0.25382442 16 1 C16 1.66 16 2.32 16 3 C14.08404032 3.08133791 12.16708068 3.13934367 10.25 3.1875 C8.64898437 3.23970703 8.64898437 3.23970703 7.015625 3.29296875 C3.69972145 2.97082786 2.40983327 2.22851086 0 0 Z " fill="#211E1D" transform="translate(270,115)"/>
<path d="M0 0 C-3.66830909 2.44553939 -6.63377915 2.95607424 -11 3 C-13.5 2.0625 -13.5 2.0625 -15 1 C-9.42567486 -0.66251802 -5.6932495 -1.18609365 0 0 Z " fill="#21201E" transform="translate(122,87)"/>
<path d="M0 0 C1.32 0.33 2.64 0.66 4 1 C2.94124926 4.40312738 1.99097846 7.01353231 0 10 C-0.99 9.67 -1.98 9.34 -3 9 C-2.505 8.071875 -2.01 7.14375 -1.5 6.1875 C0.21289852 3.13472484 0.21289852 3.13472484 0 0 Z " fill="#2D2C29" transform="translate(53,106)"/>
<path d="M0 0 C-2.79526798 1.86351199 -3.84045627 2.34308907 -7 2.75 C-7.680625 2.84796875 -8.36125 2.9459375 -9.0625 3.046875 C-11 3 -11 3 -14 1 C-8.83430559 -0.79217969 -5.48946087 -1.12029814 0 0 Z " fill="#25231F" transform="translate(147,81)"/>
<path d="M0 0 C0.99 0.33 1.98 0.66 3 1 C5.39490986 1.06970052 7.79167691 1.08448003 10.1875 1.0625 C11.45980469 1.05347656 12.73210937 1.04445313 14.04296875 1.03515625 C15.01878906 1.02355469 15.99460938 1.01195313 17 1 C17 1.33 17 1.66 17 2 C11.72 2.66 6.44 3.32 1 4 C0.67 2.68 0.34 1.36 0 0 Z " fill="#3E3C36" transform="translate(211,119)"/>
<path d="M0 0 C0.66 0.66 1.32 1.32 2 2 C1.38125 3.0725 0.7625 4.145 0.125 5.25 C-1.3323679 7.79780984 -2.72924491 10.35259355 -4 13 C-4.49230769 5.73846154 -4.49230769 5.73846154 -2 2 C-1.34 1.34 -0.68 0.68 0 0 Z " fill="#1D1B1A" transform="translate(247,184)"/>
<path d="M0 0 C0.91007812 0.00902344 1.82015625 0.01804688 2.7578125 0.02734375 C3.45648438 0.03894531 4.15515625 0.05054688 4.875 0.0625 C4.875 0.7225 4.875 1.3825 4.875 2.0625 C1.245 2.7225 -2.385 3.3825 -6.125 4.0625 C-6.455 3.0725 -6.785 2.0825 -7.125 1.0625 C-4.60024538 -0.19987731 -2.81299534 -0.03606404 0 0 Z " fill="#2C2A26" transform="translate(255.125,181.9375)"/>
<path d="M0 0 C-0.99 0.495 -0.99 0.495 -2 1 C-2 1.66 -2 2.32 -2 3 C-3.41623216 3.05447047 -4.83308191 3.09300508 -6.25 3.125 C-7.03890625 3.14820313 -7.8278125 3.17140625 -8.640625 3.1953125 C-11.20731941 2.9828378 -12.7916067 2.28654105 -15 1 C-9.91913204 0.15318867 -5.15171623 -0.09038099 0 0 Z " fill="#241B19" transform="translate(259,159)"/>
<path d="M0 0 C0.33 1.32 0.66 2.64 1 4 C-2.54674003 5.18224668 -4.97522995 4.89329634 -8.6875 4.5625 C-9.86699219 4.46066406 -11.04648437 4.35882813 -12.26171875 4.25390625 C-13.16535156 4.17011719 -14.06898438 4.08632812 -15 4 C-15 3.67 -15 3.34 -15 3 C-14.00097656 2.86722656 -13.00195312 2.73445313 -11.97265625 2.59765625 C-10.68230469 2.42105469 -9.39195312 2.24445313 -8.0625 2.0625 C-6.77472656 1.88847656 -5.48695313 1.71445313 -4.16015625 1.53515625 C-1.14533687 1.33837577 -1.14533687 1.33837577 0 0 Z " fill="#282922" transform="translate(285,119)"/>
<path d="M0 0 C2.97 0 5.94 0 9 0 C9 0.99 9 1.98 9 3 C6.04335481 4.4783226 3.25770263 4.06032783 0 4 C0.99 3.67 1.98 3.34 3 3 C3 2.34 3 1.68 3 1 C2.01 0.67 1.02 0.34 0 0 Z " fill="#343423" transform="translate(189,115)"/>
<path d="M0 0 C-2.90092502 1.93395001 -3.89674737 2.30131941 -7.1875 2.625 C-8.445625 2.74875 -9.70375 2.8725 -11 3 C-10.67 2.01 -10.34 1.02 -10 0 C-6.58729758 -1.51675663 -3.55830874 -0.72783588 0 0 Z " fill="#281E1B" transform="translate(218,64)"/>
<path d="M0 0 C1.32 0.33 2.64 0.66 4 1 C4 1.66 4 2.32 4 3 C2.68 3 1.36 3 0 3 C0 3.66 0 4.32 0 5 C-4.455 4.01 -4.455 4.01 -9 3 C-9 2.67 -9 2.34 -9 2 C-6.03 2 -3.06 2 0 2 C0 1.34 0 0.68 0 0 Z " fill="#302F2B" transform="translate(196,119)"/>
<path d="M0 0 C4.455 0.99 4.455 0.99 9 2 C8.67 2.66 8.34 3.32 8 4 C5.03 4 2.06 4 -1 4 C-0.67 2.68 -0.34 1.36 0 0 Z " fill="#191817" transform="translate(221,115)"/>
<path d="M0 0 C0.99 0 1.98 0 3 0 C3 2.64 3 5.28 3 8 C-0.96 8 -4.92 8 -9 8 C-9 7.67 -9 7.34 -9 7 C-5.37 7 -1.74 7 2 7 C1.34 5.68 0.68 4.36 0 3 C0 2.01 0 1.02 0 0 Z " fill="#403F36" transform="translate(261,92)"/>
<path d="M0 0 C0.99 0 1.98 0 3 0 C3.66 2.31 4.32 4.62 5 7 C4.01 7.66 3.02 8.32 2 9 C1.34 6.03 0.68 3.06 0 0 Z " fill="#282723" transform="translate(330,168)"/>
<path d="M0 0 C-3.49592778 2.33061852 -5.84130536 2.70295038 -10 3 C-10.99 2.34 -11.98 1.68 -13 1 C-8.20862412 -0.6290678 -4.94367454 -1.20577428 0 0 Z " fill="#1B1A17" transform="translate(100,92)"/>
<path d="M0 0 C1.258125 -0.020625 2.51625 -0.04125 3.8125 -0.0625 C4.52019531 -0.07410156 5.22789062 -0.08570312 5.95703125 -0.09765625 C8 0 8 0 11 1 C11 1.66 11 2.32 11 3 C7.37 3 3.74 3 0 3 C0 2.01 0 1.02 0 0 Z " fill="#4D492F" transform="translate(133,115)"/>
<path d="M0 0 C0 0.66 0 1.32 0 2 C-1.1446875 2.2165625 -1.1446875 2.2165625 -2.3125 2.4375 C-5.08172908 2.9632594 -5.08172908 2.9632594 -8 4 C-10.1875 3.0625 -10.1875 3.0625 -12 2 C-7.8803623 0.70756464 -4.33168317 -0.26252625 0 0 Z " fill="#262321" transform="translate(137,94)"/>
<path d="M0 0 C0.66 0 1.32 0 2 0 C2 0.66 2 1.32 2 2 C2.99 1.67 3.98 1.34 5 1 C5 1.66 5 2.32 5 3 C7.31 3 9.62 3 12 3 C12 3.33 12 3.66 12 4 C8.37 4.33 4.74 4.66 1 5 C0.67 3.35 0.34 1.7 0 0 Z " fill="#2F2D2A" transform="translate(131,116)"/>
<path d="M0 0 C-3.99560608 2.83022097 -7.42737323 1.76210446 -12 1 C-8.00439392 -1.83022097 -4.57262677 -0.76210446 0 0 Z " fill="#1D1C19" transform="translate(80,97)"/>
<path d="M0 0 C0.99 0 1.98 0 3 0 C3.66 1.98 4.32 3.96 5 6 C4.34 6 3.68 6 3 6 C2.67 6.99 2.34 7.98 2 9 C1.34 6.03 0.68 3.06 0 0 Z " fill="#201F1C" transform="translate(313,110)"/>
<path d="M0 0 C1.32 0 2.64 0 4 0 C4.33 0.99 4.66 1.98 5 3 C3.1875 4.5625 3.1875 4.5625 1 6 C0.01 5.67 -0.98 5.34 -2 5 C-1.34 4.01 -0.68 3.02 0 2 C0 1.34 0 0.68 0 0 Z " fill="#1F1E1B" transform="translate(57,101)"/>
<path d="M0 0 C0.66 0 1.32 0 2 0 C2.33 2.31 2.66 4.62 3 7 C2.01 7 1.02 7 0 7 C-0.38133299 5.0085944 -0.71325582 3.00720923 -1 1 C-0.67 0.67 -0.34 0.34 0 0 Z " fill="#2E2C28" transform="translate(61,272)"/>
<path d="M0 0 C0.99 0.33 1.98 0.66 3 1 C3 2.65 3 4.3 3 6 C2.34 6 1.68 6 1 6 C0.67 6.99 0.34 7.98 0 9 C0 6.03 0 3.06 0 0 Z " fill="#33312F" transform="translate(60,119)"/>
<path d="M0 0 C-3.3 0.66 -6.6 1.32 -10 2 C-10 1.34 -10 0.68 -10 0 C-4.5 -2.25 -4.5 -2.25 0 0 Z " fill="#35332F" transform="translate(247,69)"/>
<path d="M0 0 C0.99 0 1.98 0 3 0 C2.67 4.95 2.34 9.9 2 15 C1.67 15 1.34 15 1 15 C0.67 10.05 0.34 5.1 0 0 Z " fill="#373531" transform="translate(219,185)"/>
<path d="M0 0 C1 3 1 3 0.0625 5.1875 C-0.4634375 6.0846875 -0.4634375 6.0846875 -1 7 C-1.99 6.67 -2.98 6.34 -4 6 C-2.25 1.125 -2.25 1.125 0 0 Z " fill="#282826" transform="translate(223,178)"/>
<path d="M0 0 C0.78375 0.04125 1.5675 0.0825 2.375 0.125 C2.705 1.445 3.035 2.765 3.375 4.125 C0.735 3.465 -1.905 2.805 -4.625 2.125 C-2.625 0.125 -2.625 0.125 0 0 Z " fill="#22211D" transform="translate(320.625,159.875)"/>
<path d="M0 0 C2.31 0.33 4.62 0.66 7 1 C6.67 1.66 6.34 2.32 6 3 C3.03 3 0.06 3 -3 3 C-2.01 2.67 -1.02 2.34 0 2 C0 1.34 0 0.68 0 0 Z " fill="#141412" transform="translate(245,273)"/>
<path d="M0 0 C-2.64 0.99 -5.28 1.98 -8 3 C-8.66 2.34 -9.32 1.68 -10 1 C-5.8922935 -0.58706842 -4.40767604 -1.10191901 0 0 Z " fill="#2A2522" transform="translate(202,79)"/>
<path d="M0 0 C0 0.66 0 1.32 0 2 C-6.75 1.25 -6.75 1.25 -9 -1 C-5.79937313 -2.60031344 -3.27728194 -1.03173691 0 0 Z " fill="#2C2A29" transform="translate(247,226)"/>
<path d="M0 0 C-2.91708924 1.98362069 -4.12380904 1.9876191 -7.75 1.625 C-8.8225 1.41875 -9.895 1.2125 -11 1 C-6.8204355 -1.78637633 -4.85331323 -0.79562512 0 0 Z " fill="#4C3B3B" transform="translate(308,216)"/>
<path d="M0 0 C0.66 0 1.32 0 2 0 C2.33 2.64 2.66 5.28 3 8 C2.01 7.67 1.02 7.34 0 7 C0 4.69 0 2.38 0 0 Z " fill="#464038" transform="translate(322,203)"/>
<path d="M0 0 C0.66 0.66 1.32 1.32 2 2 C1.01 1.67 0.02 1.34 -1 1 C-0.67 0.67 -0.34 0.34 0 0 Z " fill="#262626" transform="translate(53,288)"/>
<path d="M0 0 C4 1 4 1 4 1 Z " fill="#333333" transform="translate(277,281)"/>
<path d="M0 0 C4 1 4 1 4 1 Z " fill="#2A2A2A" transform="translate(75,281)"/>
<path d="M0 0 C3 1 3 1 3 1 Z " fill="#444444" transform="translate(131,281)"/>
<path d="M0 0 C0.66 0.66 1.32 1.32 2 2 C1.34 2 0.68 2 0 2 C0 1.34 0 0.68 0 0 Z " fill="#272727" transform="translate(257,69)"/>
<path d="M0 0 C2 1 2 1 2 1 Z " fill="#222222" transform="translate(369,369)"/>
<path d="M0 0 C2 1 2 1 2 1 Z " fill="#333333" transform="translate(369,365)"/>
<path d="M0 0 C2 1 2 1 2 1 Z " fill="#333333" transform="translate(369,361)"/>
<path d="M0 0 C2 1 2 1 2 1 Z " fill="#333333" transform="translate(369,357)"/>
<path d="M0 0 C2 1 2 1 2 1 Z " fill="#333333" transform="translate(369,353)"/>
<path d="M0 0 C2 1 2 1 2 1 Z " fill="#333333" transform="translate(369,349)"/>
<path d="M0 0 C2 1 2 1 2 1 Z " fill="#333333" transform="translate(369,345)"/>
<path d="M0 0 C2 1 2 1 2 1 Z " fill="#333333" transform="translate(369,329)"/>
<path d="M0 0 C2 1 2 1 2 1 Z " fill="#333333" transform="translate(148,325)"/>
<path d="M0 0 C2 1 2 1 2 1 Z " fill="#333333" transform="translate(369,321)"/>
<path d="M0 0 C2 1 2 1 2 1 Z " fill="#333333" transform="translate(369,317)"/>
<path d="M0 0 C2 1 2 1 2 1 Z " fill="#333333" transform="translate(148,317)"/>
<path d="M0 0 C2 1 2 1 2 1 Z " fill="#222222" transform="translate(369,313)"/>
<path d="M0 0 C2 1 2 1 2 1 Z " fill="#333333" transform="translate(369,309)"/>
<path d="M0 0 C2 1 2 1 2 1 Z " fill="#333333" transform="translate(78,301)"/>
<path d="M0 0 C2 1 2 1 2 1 Z " fill="#333333" transform="translate(58,295)"/>
<path d="M0 0 C2 1 2 1 2 1 Z " fill="#333333" transform="translate(238,283)"/>
<path d="M0 0 C2 1 2 1 2 1 Z " fill="#333333" transform="translate(172,283)"/>
<path d="M0 0 C2 1 2 1 2 1 Z " fill="#333333" transform="translate(116,283)"/>
<path d="M0 0 C2 1 2 1 2 1 Z " fill="#333333" transform="translate(369,281)"/>
<path d="M0 0 C2 1 2 1 2 1 Z " fill="#333333" transform="translate(273,281)"/>
<path d="M0 0 C2 1 2 1 2 1 Z " fill="#222222" transform="translate(172,281)"/>
<path d="M0 0 C2 1 2 1 2 1 Z " fill="#333333" transform="translate(165,281)"/>
<path d="M0 0 C2 1 2 1 2 1 Z " fill="#333333" transform="translate(157,281)"/>
<path d="M0 0 C2 1 2 1 2 1 Z " fill="#333333" transform="translate(101,281)"/>
<path d="M0 0 C2 1 2 1 2 1 Z " fill="#333333" transform="translate(69,281)"/>
<path d="M0 0 C2 1 2 1 2 1 Z " fill="#222222" transform="translate(236,280)"/>
<path d="M0 0 C2 1 2 1 2 1 Z " fill="#333333" transform="translate(91,280)"/>
<path d="M0 0 C2 1 2 1 2 1 Z " fill="#333333" transform="translate(203,279)"/>
<path d="M0 0 C2 1 2 1 2 1 Z " fill="#222222" transform="translate(180,279)"/>
<path d="M0 0 C2 1 2 1 2 1 Z " fill="#333333" transform="translate(70,279)"/>
<path d="M0 0 C2 1 2 1 2 1 Z " fill="#333333" transform="translate(369,277)"/>
<path d="M0 0 C2 1 2 1 2 1 Z " fill="#333333" transform="translate(260,277)"/>
<path d="M0 0 C2 1 2 1 2 1 Z " fill="#333333" transform="translate(68,276)"/>
<path d="M0 0 C2 1 2 1 2 1 Z " fill="#333333" transform="translate(369,273)"/>
<path d="M0 0 C2 1 2 1 2 1 Z " fill="#333333" transform="translate(256,272)"/>
<path d="M0 0 C2 1 2 1 2 1 Z " fill="#333333" transform="translate(145,272)"/>
<path d="M0 0 C2 1 2 1 2 1 Z " fill="#333333" transform="translate(244,269)"/>
<path d="M0 0 C2 1 2 1 2 1 Z " fill="#333333" transform="translate(74,268)"/>
<path d="M0 0 C2 1 2 1 2 1 Z " fill="#222222" transform="translate(369,265)"/>
<path d="M0 0 C2 1 2 1 2 1 Z " fill="#333333" transform="translate(369,257)"/>
<path d="M0 0 C2 1 2 1 2 1 Z " fill="#222222" transform="translate(369,249)"/>
<path d="M0 0 C2 1 2 1 2 1 Z " fill="#333333" transform="translate(369,233)"/>
<path d="M0 0 C2 1 2 1 2 1 Z " fill="#333333" transform="translate(273,229)"/>
<path d="M0 0 C2 1 2 1 2 1 Z " fill="#333333" transform="translate(148,229)"/>
<path d="M0 0 C2 1 2 1 2 1 Z " fill="#222222" transform="translate(369,225)"/>
<path d="M0 0 C2 1 2 1 2 1 Z " fill="#333333" transform="translate(369,221)"/>
<path d="M0 0 C2 1 2 1 2 1 Z " fill="#333333" transform="translate(369,205)"/>
<path d="M0 0 C2 1 2 1 2 1 Z " fill="#333333" transform="translate(245,205)"/>
<path d="M0 0 C2 1 2 1 2 1 Z " fill="#333333" transform="translate(369,201)"/>
<path d="M0 0 C2 1 2 1 2 1 Z " fill="#222222" transform="translate(148,197)"/>
<path d="M0 0 C2 1 2 1 2 1 Z " fill="#333333" transform="translate(369,193)"/>
<path d="M0 0 C2 1 2 1 2 1 Z " fill="#333333" transform="translate(369,185)"/>
<path d="M0 0 C2 1 2 1 2 1 Z " fill="#333333" transform="translate(369,177)"/>
<path d="M0 0 C2 1 2 1 2 1 Z " fill="#333333" transform="translate(317,176)"/>
<path d="M0 0 C2 1 2 1 2 1 Z " fill="#333333" transform="translate(270,173)"/>
<path d="M0 0 C2 1 2 1 2 1 Z " fill="#333333" transform="translate(369,169)"/>
<path d="M0 0 C2 1 2 1 2 1 Z " fill="#333333" transform="translate(369,157)"/>
<path d="M0 0 C2 1 2 1 2 1 Z " fill="#333333" transform="translate(369,153)"/>
<path d="M0 0 C2 1 2 1 2 1 Z " fill="#333333" transform="translate(369,149)"/>
<path d="M0 0 C2 1 2 1 2 1 Z " fill="#333333" transform="translate(369,137)"/>
<path d="M0 0 C2 1 2 1 2 1 Z " fill="#333333" transform="translate(369,129)"/>
<path d="M0 0 C2 1 2 1 2 1 Z " fill="#333333" transform="translate(369,125)"/>
<path d="M0 0 C2 1 2 1 2 1 Z " fill="#333333" transform="translate(178,122)"/>
<path d="M0 0 C2 1 2 1 2 1 Z " fill="#333333" transform="translate(369,121)"/>
<path d="M0 0 C2 1 2 1 2 1 Z " fill="#333333" transform="translate(124,118)"/>
<path d="M0 0 C2 1 2 1 2 1 Z " fill="#333333" transform="translate(209,117)"/>
<path d="M0 0 C2 1 2 1 2 1 Z " fill="#222222" transform="translate(236,116)"/>
<path d="M0 0 C2 1 2 1 2 1 Z " fill="#222222" transform="translate(124,116)"/>
<path d="M0 0 C2 1 2 1 2 1 Z " fill="#222222" transform="translate(78,111)"/>
<path d="M0 0 C2 1 2 1 2 1 Z " fill="#333333" transform="translate(369,105)"/>
<path d="M0 0 C2 1 2 1 2 1 Z " fill="#333333" transform="translate(52,101)"/>
<path d="M0 0 C2 1 2 1 2 1 Z " fill="#222222" transform="translate(299,95)"/>
<path d="M0 0 C2 1 2 1 2 1 Z " fill="#333333" transform="translate(77,92)"/>
<path d="M0 0 C2 1 2 1 2 1 Z " fill="#333333" transform="translate(369,89)"/>
<path d="M0 0 C2 1 2 1 2 1 Z " fill="#222222" transform="translate(179,86)"/>
<path d="M0 0 C2 1 2 1 2 1 Z " fill="#333333" transform="translate(211,78)"/>
<path d="M0 0 C2 1 2 1 2 1 Z " fill="#333333" transform="translate(151,76)"/>
<path d="M0 0 C2 1 2 1 2 1 Z " fill="#333333" transform="translate(369,73)"/>
<path d="M0 0 C2 1 2 1 2 1 Z " fill="#333333" transform="translate(148,69)"/>
<path d="M0 0 C2 1 2 1 2 1 Z " fill="#3D3333" transform="translate(369,65)"/>
<path d="M0 0 C2 1 2 1 2 1 Z " fill="#333333" transform="translate(369,61)"/>
<path d="M0 0 C2 1 2 1 2 1 Z " fill="#333333" transform="translate(369,57)"/>
<path d="M0 0 C2 1 2 1 2 1 Z " fill="#333333" transform="translate(369,53)"/>
<path d="M0 0 C2 1 2 1 2 1 Z " fill="#333333" transform="translate(369,49)"/>
<path d="M0 0 C2 1 2 1 2 1 Z " fill="#3D3333" transform="translate(369,41)"/>
<path d="M0 0 C2 1 2 1 2 1 Z " fill="#333333" transform="translate(369,33)"/>
<path d="M0 0 C2 1 2 1 2 1 Z " fill="#442222" transform="translate(369,29)"/>
<path d="M0 0 C2 1 2 1 2 1 Z " fill="#333333" transform="translate(148,21)"/>
<path d="M0 0 C2 1 2 1 2 1 Z " fill="#3D3333" transform="translate(369,1)"/>
<path d="M0 0 C2 1 2 1 2 1 Z " fill="#222222" transform="translate(251,1)"/>
<path d="" fill="#000000" transform="translate(0,0)"/>
<path d="" fill="#000000" transform="translate(0,0)"/>
<path d="" fill="#000000" transform="translate(0,0)"/>
<path d="" fill="#000000" transform="translate(0,0)"/>
<path d="" fill="#000000" transform="translate(0,0)"/>
<path d="" fill="#000000" transform="translate(0,0)"/>
<path d="" fill="#000000" transform="translate(0,0)"/>
<path d="" fill="#000000" transform="translate(0,0)"/>
<path d="" fill="#000000" transform="translate(0,0)"/>
<path d="" fill="#000000" transform="translate(0,0)"/>
<path d="" fill="#000000" transform="translate(0,0)"/>
<path d="" fill="#000000" transform="translate(0,0)"/>
<path d="" fill="#000000" transform="translate(0,0)"/>
<path d="" fill="#000000" transform="translate(0,0)"/>
</svg>
