<?xml version="1.0" encoding="UTF-8"?>
<svg version="1.1" xmlns="http://www.w3.org/2000/svg" width="374" height="374">
<path d="M0 0 C0.99 0.495 0.99 0.495 2 1 C2 1.33 2 1.66 2 2 C2.78503906 2.04898437 3.57007813 2.09796875 4.37890625 2.1484375 C10.20150211 2.56280629 15.40766313 3.24554137 21 5 C23.32914823 5.36141955 25.66253478 5.69699525 28 6 C29.66934283 6.31966139 31.3373217 6.64731066 33 7 C33 7.66 33 8.32 33 9 C33.99 8.67 34.98 8.34 36 8 C36 8.66 36 9.32 36 10 C39.66675793 11.12247692 42.92649385 11.99142428 46.75 12.4375 C50.03239046 13.00560604 51.06376564 13.38038881 53 16 C53.66 15.34 54.32 14.68 55 14 C55.61875 14.969375 56.2375 15.93875 56.875 16.9375 C58.65678846 20.02835362 58.65678846 20.02835362 61 21 C61.33 20.34 61.66 19.68 62 19 C64.0245738 20.93254772 65.42105792 22.63158688 67 25 C67.99 25.33 68.98 25.66 70 26 C70 26.66 70 27.32 70 28 C72.21122408 29.14656064 74.329931 30.11509221 76.6875 30.9375 C77.450625 31.288125 78.21375 31.63875 79 32 C79.33 32.99 79.66 33.98 80 35 C80.721875 35.4125 81.44375 35.825 82.1875 36.25 C85.41214315 38.25644463 87.31715753 40.5364978 89.66796875 43.4765625 C90.94364001 45.12972374 90.94364001 45.12972374 93 46 C93.474375 46.825 93.94875 47.65 94.4375 48.5 C95.81319541 51.29155483 95.81319541 51.29155483 99 52 C99.71293 53.64740797 100.37287506 55.31805573 101 57 C102.06024795 58.61307246 103.16735047 60.19604986 104.3125 61.75 C107.59398422 66.32210982 110.38926558 71.01915184 113 76 C113.66 76 114.32 76 115 76 C115.103125 76.763125 115.20625 77.52625 115.3125 78.3125 C115.7520119 81.01556765 115.7520119 81.01556765 117.5 82.4375 C119 84 119 84 119.3828125 86.48046875 C120.20105914 91.14654609 121.80400813 95.41598325 123.375 99.875 C129.21604771 117.07109181 130.79709701 133.94565714 132 152 C132.99 152 133.98 152 135 152 C135.33 152.99 135.66 153.98 136 155 C136.763125 155.020625 137.52625 155.04125 138.3125 155.0625 C141 156 141 156 142.75 159.4375 C143.1625 160.613125 143.575 161.78875 144 163 C144.33 163.66 144.66 164.32 145 165 C146.09977053 182.84873483 143.5815742 199.63894659 136.953125 216.25 C135.78168046 219.14482404 135.78168046 219.14482404 136 223 C135.34 223 134.68 223 134 223 C133.59910156 223.81082031 133.19820313 224.62164062 132.78515625 225.45703125 C127.96429622 234.84732323 122.59329911 243.59573077 114 250 C113.34 250.99 112.68 251.98 112 253 C110.68 253 109.36 253 108 253 C107.83636963 253.67514648 107.67273926 254.35029297 107.50415039 255.04589844 C105.77340817 261.81841908 103.48693731 267.96779009 100.4375 274.25 C100.00348877 275.15314941 99.56947754 276.05629883 99.12231445 276.98681641 C94.74157575 285.88388622 89.42476071 293.8719511 83.63134766 301.89550781 C81.12186286 305.32689976 81.12186286 305.32689976 79 309 C78.154375 309.61875 77.30875 310.2375 76.4375 310.875 C75.633125 311.57625 74.82875 312.2775 74 313 C74 314.32 74 315.64 74 317 C73.34 317 72.68 317 72 317 C72.33128906 317.56847656 72.66257812 318.13695312 73.00390625 318.72265625 C74.12415539 321.28385331 74.11471878 322.67016066 73.9375 325.4375 C73.79287519 332.14447573 74.82734581 338.60179231 75.84545898 345.21069336 C76.24438789 347.8053114 76.62783414 350.40141094 77 353 C77.13414307 353.91942383 77.26828613 354.83884766 77.40649414 355.78613281 C77.51985107 356.6778418 77.63320801 357.56955078 77.75 358.48828125 C77.85699219 359.29177002 77.96398437 360.09525879 78.07421875 360.9230957 C78 363 78 363 75.5625 365.625 C73 367 73 367 70.6875 366.5 C67.42068705 364.67666254 66.74249726 362.90868461 65.625 359.41015625 C63.76657686 352.24361203 62.72058734 345.40443559 63 338 C62.34 337.67 61.68 337.34 61 337 C61 335.35 61 333.7 61 332 C60.01 331.67 59.02 331.34 58 331 C58.33 330.34 58.66 329.68 59 329 C59.66 329.33 60.32 329.66 61 330 C60.67 328.68 60.34 327.36 60 326 C57.30274481 327.88807863 55.86783571 329.19824644 54 332 C51.75 333.39453125 51.75 333.39453125 49 334.8125 C45.33195366 336.73182657 41.83696087 338.73366479 38.375 341 C30.88067146 345.57383336 21.69830112 348.9509088 13.05078125 350.54296875 C12.37402344 350.69378906 11.69726562 350.84460938 11 351 C10.67 351.66 10.34 352.32 10 353 C8.906875 352.79375 7.81375 352.5875 6.6875 352.375 C2.9161599 351.59653475 2.9161599 351.59653475 0 354 C-0.598125 353.360625 -1.19625 352.72125 -1.8125 352.0625 C-3.90810337 349.79689611 -3.90810337 349.79689611 -7 349 C-9.11054453 349.57433388 -9.11054453 349.57433388 -11.3125 350.5 C-15.25689666 351.92436546 -17.87389841 352.16377224 -22 351 C-22.33 351.66 -22.66 352.32 -23 353 C-23.33 352.34 -23.66 351.68 -24 351 C-26.5600847 350.0255733 -29.07258734 349.1717493 -31.6875 348.375 C-32.39583984 348.14554687 -33.10417969 347.91609375 -33.83398438 347.6796875 C-38.01167609 346.38356154 -41.57509353 345.73520245 -46 346 C-45.67 345.01 -45.34 344.02 -45 343 C-46.1446875 342.690625 -46.1446875 342.690625 -47.3125 342.375 C-53.28730529 340.1471065 -59.6443445 337.40705162 -64.1484375 332.8046875 C-65.9271281 330.65100803 -65.9271281 330.65100803 -69 331 C-70.37868281 329.37064759 -71.71274093 327.70250393 -73 326 C-73.66 325.67 -74.32 325.34 -75 325 C-75.02578125 325.99515625 -75.0515625 326.9903125 -75.078125 328.015625 C-75.38195811 336.37306108 -76.21665152 344.52457223 -77.75 352.75 C-77.89469727 353.5946582 -78.03939453 354.43931641 -78.18847656 355.30957031 C-79.27270508 360.74823579 -80.68004618 363.48109722 -85 367 C-87.375 366.375 -87.375 366.375 -90 365 C-92.72578337 360.25950718 -91.70489909 356.57841924 -90.515625 351.546875 C-89.79000548 347.96275433 -89.86497335 344.64571961 -90 341 C-89.67 341 -89.34 341 -89 341 C-88.35504555 336.03615411 -87.76242019 331.07156344 -87.23583984 326.09375 C-87.04523291 324.40157085 -86.80555374 322.71496383 -86.55078125 321.03125 C-85.97555552 315.22241317 -87.76420225 312.44210855 -91.375 307.875 C-93.71052461 305.10948365 -93.71052461 305.10948365 -96 303 C-96.66 303 -97.32 303 -98 303 C-101.01704885 299.8000997 -102.49890042 297.38462134 -103 293 C-103.99 292.67 -104.98 292.34 -106 292 C-105.67 291.34 -105.34 290.68 -105 290 C-105.70835035 288.18586868 -105.70835035 288.18586868 -106.87890625 286.2109375 C-107.30236328 285.44168945 -107.72582031 284.67244141 -108.16210938 283.87988281 C-108.85530273 282.63996582 -108.85530273 282.63996582 -109.5625 281.375 C-113.00724556 275.11204282 -115.81972002 269.05182512 -118 262.25 C-120.50749842 254.75481955 -124.25992972 251.79527617 -131 248 C-132.38298418 246.8891192 -133.74073401 245.74556215 -135.0625 244.5625 C-137.47590875 241.89043854 -137.47590875 241.89043854 -139 242 C-139.226875 241.195625 -139.45375 240.39125 -139.6875 239.5625 C-141.33631588 235.08714261 -143.60544412 231.11278682 -146 227 C-146.66 227 -147.32 227 -148 227 C-148.33 226.01 -148.66 225.02 -149 224 C-148.34 224 -147.68 224 -147 224 C-147.45439453 223.03126953 -147.45439453 223.03126953 -147.91796875 222.04296875 C-156.34285634 203.09345236 -159.74317165 182.6849442 -159 162 C-158.01 161.67 -157.02 161.34 -156 161 C-155.34 160.01 -154.68 159.02 -154 158 C-153.34 158 -152.68 158 -152 158 C-152 157.34 -152 156.68 -152 156 C-149.09399739 154.74335022 -147.20395416 154 -144 154 C-144.01740234 152.06060547 -144.01740234 152.06060547 -144.03515625 150.08203125 C-144.20076813 123.62489668 -144.20076813 123.62489668 -140.37109375 111.90234375 C-140.05849609 110.93619141 -139.74589844 109.97003906 -139.42382812 108.97460938 C-138.76475535 106.94518726 -138.10328512 104.91654222 -137.43945312 102.88867188 C-137.12814453 101.92380859 -136.81683594 100.95894531 -136.49609375 99.96484375 C-136.20919678 99.0843335 -135.9222998 98.20382324 -135.62670898 97.29663086 C-134.86837188 94.91440443 -134.86837188 94.91440443 -135 92 C-134.34 92 -133.68 92 -133 92 C-132.690625 90.845 -132.38125 89.69 -132.0625 88.5 C-130.17483106 82.71670056 -127.11429101 77.63198591 -124.04907227 72.41015625 C-121.79757828 68.93872288 -121.79757828 68.93872288 -121 65 C-120.34 64.34 -119.68 63.68 -119 63 C-118.67 62.01 -118.34 61.02 -118 60 C-117.34 60 -116.68 60 -116 60 C-114.49457477 58.31993856 -114.49457477 58.31993856 -112.9375 56.125 C-109.55615573 51.64012078 -105.9144156 47.49133631 -102.11328125 43.359375 C-100.64781772 41.72325675 -99.24310969 40.03146073 -97.890625 38.30078125 C-95.81921119 35.77999048 -93.78760354 34.64397132 -91 33 C-90.525625 32.34 -90.05125 31.68 -89.5625 31 C-87.45287303 28.29967748 -85.11874883 27.32712716 -82 26 C-81.34 26 -80.68 26 -80 26 C-80 25.34 -80 24.68 -80 24 C-77.75243216 22.84917315 -75.50218252 21.70423142 -73.25 20.5625 C-72.29867187 20.07426758 -72.29867187 20.07426758 -71.328125 19.57617188 C-68.2317865 18.01187586 -65.35145085 16.83786271 -62 16 C-61.67 15.34 -61.34 14.68 -61 14 C-59.2578125 13.1484375 -59.2578125 13.1484375 -57.125 12.375 C-56.42632812 12.11460938 -55.72765625 11.85421875 -55.0078125 11.5859375 C-53 11 -53 11 -50 11 C-49.34 9.68 -48.68 8.36 -48 7 C-47.443125 7.185625 -46.88625 7.37125 -46.3125 7.5625 C-43.600867 8.07551165 -41.65628961 7.6640724 -39 7 C-39 6.34 -39 5.68 -39 5 C-35 5 -31 5 -27 5 C-26.67 4.34 -26.34 3.68 -26 3 C-23.453125 2.48046875 -23.453125 2.48046875 -20.25 2.1875 C-18.67992187 2.02314453 -18.67992187 2.02314453 -17.078125 1.85546875 C-13.50733133 2.02313292 -11.77067902 2.76806413 -9 5 C-9 5.99 -9 6.98 -9 8 C-5.83884224 6.63016497 -5.0072908 6.0109362 -3 3 C-2.01 3 -1.02 3 0 3 C0 2.01 0 1.02 0 0 Z M-158 164 C-157 166 -157 166 -157 166 Z " fill="#F8F4EF" transform="translate(189,2)"/>
<path d="M0 0 C0.99 0.495 0.99 0.495 2 1 C2 1.33 2 1.66 2 2 C2.78503906 2.04898437 3.57007813 2.09796875 4.37890625 2.1484375 C10.20150211 2.56280629 15.40766313 3.24554137 21 5 C23.32914823 5.36141955 25.66253478 5.69699525 28 6 C29.66934283 6.31966139 31.3373217 6.64731066 33 7 C33 7.66 33 8.32 33 9 C33.99 8.67 34.98 8.34 36 8 C36 8.66 36 9.32 36 10 C39.66675793 11.12247692 42.92649385 11.99142428 46.75 12.4375 C50.03239046 13.00560604 51.06376564 13.38038881 53 16 C53.66 15.34 54.32 14.68 55 14 C55.61875 14.969375 56.2375 15.93875 56.875 16.9375 C58.65678846 20.02835362 58.65678846 20.02835362 61 21 C61.33 20.34 61.66 19.68 62 19 C64.0245738 20.93254772 65.42105792 22.63158688 67 25 C67.99 25.33 68.98 25.66 70 26 C70 26.66 70 27.32 70 28 C72.21122408 29.14656064 74.329931 30.11509221 76.6875 30.9375 C77.450625 31.288125 78.21375 31.63875 79 32 C79.33 32.99 79.66 33.98 80 35 C80.721875 35.4125 81.44375 35.825 82.1875 36.25 C85.41214315 38.25644463 87.31715753 40.5364978 89.66796875 43.4765625 C90.94364001 45.12972374 90.94364001 45.12972374 93 46 C93.474375 46.825 93.94875 47.65 94.4375 48.5 C95.81319541 51.29155483 95.81319541 51.29155483 99 52 C99.71293 53.64740797 100.37287506 55.31805573 101 57 C102.06024795 58.61307246 103.16735047 60.19604986 104.3125 61.75 C107.59398422 66.32210982 110.38926558 71.01915184 113 76 C113.66 76 114.32 76 115 76 C115.103125 76.763125 115.20625 77.52625 115.3125 78.3125 C115.7520119 81.01556765 115.7520119 81.01556765 117.5 82.4375 C119 84 119 84 119.3828125 86.48046875 C120.20105914 91.14654609 121.80400813 95.41598325 123.375 99.875 C129.21604771 117.07109181 130.79709701 133.94565714 132 152 C132.99 152 133.98 152 135 152 C135.33 152.99 135.66 153.98 136 155 C136.763125 155.020625 137.52625 155.04125 138.3125 155.0625 C141 156 141 156 142.75 159.4375 C143.1625 160.613125 143.575 161.78875 144 163 C144.33 163.66 144.66 164.32 145 165 C146.09977053 182.84873483 143.5815742 199.63894659 136.953125 216.25 C135.78168046 219.14482404 135.78168046 219.14482404 136 223 C135.34 223 134.68 223 134 223 C133.59910156 223.81082031 133.19820313 224.62164062 132.78515625 225.45703125 C127.96429622 234.84732323 122.59329911 243.59573077 114 250 C113.34 250.99 112.68 251.98 112 253 C110.68 253 109.36 253 108 253 C107.83636963 253.67514648 107.67273926 254.35029297 107.50415039 255.04589844 C105.77340817 261.81841908 103.48693731 267.96779009 100.4375 274.25 C100.00348877 275.15314941 99.56947754 276.05629883 99.12231445 276.98681641 C94.74157575 285.88388622 89.42476071 293.8719511 83.63134766 301.89550781 C81.12186286 305.32689976 81.12186286 305.32689976 79 309 C78.154375 309.61875 77.30875 310.2375 76.4375 310.875 C75.633125 311.57625 74.82875 312.2775 74 313 C74 314.32 74 315.64 74 317 C73.34 317 72.68 317 72 317 C72.33128906 317.56847656 72.66257812 318.13695312 73.00390625 318.72265625 C74.12415539 321.28385331 74.11471878 322.67016066 73.9375 325.4375 C73.79287519 332.14447573 74.82734581 338.60179231 75.84545898 345.21069336 C76.24438789 347.8053114 76.62783414 350.40141094 77 353 C77.13414307 353.91942383 77.26828613 354.83884766 77.40649414 355.78613281 C77.51985107 356.6778418 77.63320801 357.56955078 77.75 358.48828125 C77.85699219 359.29177002 77.96398437 360.09525879 78.07421875 360.9230957 C78 363 78 363 75.5625 365.625 C73 367 73 367 70.6875 366.5 C67.42068705 364.67666254 66.74249726 362.90868461 65.625 359.41015625 C63.76657686 352.24361203 62.72058734 345.40443559 63 338 C62.34 337.67 61.68 337.34 61 337 C61 335.35 61 333.7 61 332 C60.01 331.67 59.02 331.34 58 331 C58.33 330.34 58.66 329.68 59 329 C59.66 329.33 60.32 329.66 61 330 C60.67 328.68 60.34 327.36 60 326 C57.30274481 327.88807863 55.86783571 329.19824644 54 332 C51.75 333.39453125 51.75 333.39453125 49 334.8125 C45.33195366 336.73182657 41.83696087 338.73366479 38.375 341 C30.88067146 345.57383336 21.69830112 348.9509088 13.05078125 350.54296875 C12.37402344 350.69378906 11.69726562 350.84460938 11 351 C10.67 351.66 10.34 352.32 10 353 C8.906875 352.79375 7.81375 352.5875 6.6875 352.375 C2.9161599 351.59653475 2.9161599 351.59653475 0 354 C-0.598125 353.360625 -1.19625 352.72125 -1.8125 352.0625 C-3.90810337 349.79689611 -3.90810337 349.79689611 -7 349 C-9.11054453 349.57433388 -9.11054453 349.57433388 -11.3125 350.5 C-15.25689666 351.92436546 -17.87389841 352.16377224 -22 351 C-22.33 351.66 -22.66 352.32 -23 353 C-23.33 352.34 -23.66 351.68 -24 351 C-26.5600847 350.0255733 -29.07258734 349.1717493 -31.6875 348.375 C-32.39583984 348.14554687 -33.10417969 347.91609375 -33.83398438 347.6796875 C-38.01167609 346.38356154 -41.57509353 345.73520245 -46 346 C-45.67 345.01 -45.34 344.02 -45 343 C-46.1446875 342.690625 -46.1446875 342.690625 -47.3125 342.375 C-53.28730529 340.1471065 -59.6443445 337.40705162 -64.1484375 332.8046875 C-65.9271281 330.65100803 -65.9271281 330.65100803 -69 331 C-70.37868281 329.37064759 -71.71274093 327.70250393 -73 326 C-73.66 325.67 -74.32 325.34 -75 325 C-75.02578125 325.99515625 -75.0515625 326.9903125 -75.078125 328.015625 C-75.38195811 336.37306108 -76.21665152 344.52457223 -77.75 352.75 C-77.89469727 353.5946582 -78.03939453 354.43931641 -78.18847656 355.30957031 C-79.27270508 360.74823579 -80.68004618 363.48109722 -85 367 C-87.375 366.375 -87.375 366.375 -90 365 C-92.72578337 360.25950718 -91.70489909 356.57841924 -90.515625 351.546875 C-89.79000548 347.96275433 -89.86497335 344.64571961 -90 341 C-89.67 341 -89.34 341 -89 341 C-88.35504555 336.03615411 -87.76242019 331.07156344 -87.23583984 326.09375 C-87.04523291 324.40157085 -86.80555374 322.71496383 -86.55078125 321.03125 C-85.97555552 315.22241317 -87.76420225 312.44210855 -91.375 307.875 C-93.71052461 305.10948365 -93.71052461 305.10948365 -96 303 C-96.66 303 -97.32 303 -98 303 C-101.01704885 299.8000997 -102.49890042 297.38462134 -103 293 C-103.99 292.67 -104.98 292.34 -106 292 C-105.67 291.34 -105.34 290.68 -105 290 C-105.70835035 288.18586868 -105.70835035 288.18586868 -106.87890625 286.2109375 C-107.30236328 285.44168945 -107.72582031 284.67244141 -108.16210938 283.87988281 C-108.85530273 282.63996582 -108.85530273 282.63996582 -109.5625 281.375 C-113.00724556 275.11204282 -115.81972002 269.05182512 -118 262.25 C-120.50749842 254.75481955 -124.25992972 251.79527617 -131 248 C-132.38298418 246.8891192 -133.74073401 245.74556215 -135.0625 244.5625 C-137.47590875 241.89043854 -137.47590875 241.89043854 -139 242 C-139.226875 241.195625 -139.45375 240.39125 -139.6875 239.5625 C-141.33631588 235.08714261 -143.60544412 231.11278682 -146 227 C-146.66 227 -147.32 227 -148 227 C-148.33 226.01 -148.66 225.02 -149 224 C-148.34 224 -147.68 224 -147 224 C-147.45439453 223.03126953 -147.45439453 223.03126953 -147.91796875 222.04296875 C-156.34285634 203.09345236 -159.74317165 182.6849442 -159 162 C-158.01 161.67 -157.02 161.34 -156 161 C-155.34 160.01 -154.68 159.02 -154 158 C-153.34 158 -152.68 158 -152 158 C-152 157.34 -152 156.68 -152 156 C-149.09399739 154.74335022 -147.20395416 154 -144 154 C-144.01740234 152.06060547 -144.01740234 152.06060547 -144.03515625 150.08203125 C-144.20076813 123.62489668 -144.20076813 123.62489668 -140.37109375 111.90234375 C-140.05849609 110.93619141 -139.74589844 109.97003906 -139.42382812 108.97460938 C-138.76475535 106.94518726 -138.10328512 104.91654222 -137.43945312 102.88867188 C-137.12814453 101.92380859 -136.81683594 100.95894531 -136.49609375 99.96484375 C-136.20919678 99.0843335 -135.9222998 98.20382324 -135.62670898 97.29663086 C-134.86837188 94.91440443 -134.86837188 94.91440443 -135 92 C-134.34 92 -133.68 92 -133 92 C-132.690625 90.845 -132.38125 89.69 -132.0625 88.5 C-130.17483106 82.71670056 -127.11429101 77.63198591 -124.04907227 72.41015625 C-121.79757828 68.93872288 -121.79757828 68.93872288 -121 65 C-120.34 64.34 -119.68 63.68 -119 63 C-118.67 62.01 -118.34 61.02 -118 60 C-117.34 60 -116.68 60 -116 60 C-114.49457477 58.31993856 -114.49457477 58.31993856 -112.9375 56.125 C-109.55615573 51.64012078 -105.9144156 47.49133631 -102.11328125 43.359375 C-100.64781772 41.72325675 -99.24310969 40.03146073 -97.890625 38.30078125 C-95.81921119 35.77999048 -93.78760354 34.64397132 -91 33 C-90.525625 32.34 -90.05125 31.68 -89.5625 31 C-87.45287303 28.29967748 -85.11874883 27.32712716 -82 26 C-81.34 26 -80.68 26 -80 26 C-80 25.34 -80 24.68 -80 24 C-77.75243216 22.84917315 -75.50218252 21.70423142 -73.25 20.5625 C-72.29867187 20.07426758 -72.29867187 20.07426758 -71.328125 19.57617188 C-68.2317865 18.01187586 -65.35145085 16.83786271 -62 16 C-61.67 15.34 -61.34 14.68 -61 14 C-59.2578125 13.1484375 -59.2578125 13.1484375 -57.125 12.375 C-56.42632812 12.11460938 -55.72765625 11.85421875 -55.0078125 11.5859375 C-53 11 -53 11 -50 11 C-49.34 9.68 -48.68 8.36 -48 7 C-47.443125 7.185625 -46.88625 7.37125 -46.3125 7.5625 C-43.600867 8.07551165 -41.65628961 7.6640724 -39 7 C-39 6.34 -39 5.68 -39 5 C-35 5 -31 5 -27 5 C-26.67 4.34 -26.34 3.68 -26 3 C-23.453125 2.48046875 -23.453125 2.48046875 -20.25 2.1875 C-18.67992187 2.02314453 -18.67992187 2.02314453 -17.078125 1.85546875 C-13.50733133 2.02313292 -11.77067902 2.76806413 -9 5 C-9 5.99 -9 6.98 -9 8 C-5.83884224 6.63016497 -5.0072908 6.0109362 -3 3 C-2.01 3 -1.02 3 0 3 C0 2.01 0 1.02 0 0 Z M-10.50439453 12.45605469 C-10.99794434 12.96555664 -11.49149414 13.47505859 -12 14 C-14.9800473 14.53320926 -17.87233386 14.92623625 -20.875 15.25 C-53.65513408 19.54580177 -82.89484537 37.47019406 -103.63818359 63.01757812 C-127.46530265 94.13809238 -132.78480389 129.9131956 -134 168 C-137.63 167.67 -141.26 167.34 -145 167 C-149.69190015 174.03785022 -146.85773256 183.94653753 -145.3125 191.8125 C-142.03578621 207.51085805 -136.39145616 231.36216457 -122 241 C-114.42033383 241.97657637 -108.50232353 238.55634472 -102.5234375 234.29199219 C-98.40274231 230.79732569 -96.75497437 225.9559077 -95 221 C-94.51569828 219.70521389 -94.02997205 218.41095989 -93.54296875 217.1171875 C-92.28993738 213.76384998 -91.15423008 210.39479437 -90 207 C-85.38 207 -80.76 207 -76 207 C-75.01 204.03 -75.01 204.03 -74 201 C-71.72265625 199.4609375 -71.72265625 199.4609375 -69.0625 198.375 C-65.23365656 196.7848176 -63.0706798 195.65594802 -61 192 C-60.19586265 189.46835378 -59.4954881 187.01128465 -58.875 184.4375 C-57.02723735 177.08171206 -57.02723735 177.08171206 -56 174 C-55.58333333 170.5 -55.58333333 170.5 -56 167 C-58.25359695 164.66869281 -59.91215725 164.02928092 -63 163 C-57.06 162.67 -51.12 162.34 -45 162 C-46.42082202 167.04391816 -47.7855019 171.71632041 -50.1875 176.375 C-52.86355261 182.16968314 -53.30641204 188.99118132 -51.31640625 195.09765625 C-50.47074446 196.89848134 -50.47074446 196.89848134 -49 199 C-49.79664063 199.17015625 -50.59328125 199.3403125 -51.4140625 199.515625 C-59.96140081 201.26810822 -59.96140081 201.26810822 -67 206 C-67.86181585 209.66271738 -67.59281244 211.86075161 -65.8515625 215.20703125 C-62.66027788 220.16280922 -58.92193269 224.61117056 -55 229 C-58.9782105 228.47781693 -60.94308775 227.52879923 -63.8125 224.75 C-71.05159206 218.09168612 -71.05159206 218.09168612 -80.25 215.3125 C-84.13447136 215.60799781 -84.13447136 215.60799781 -86.0859375 218.53515625 C-88.53321451 222.96522709 -89.7056805 227.36152177 -90.890625 232.25390625 C-91.93245004 236.02873809 -92.79082549 237.83020623 -95.86328125 240.32421875 C-96.89839844 240.87722656 -97.93351562 241.43023437 -99 242 C-99.83144531 242.47824219 -100.66289063 242.95648438 -101.51953125 243.44921875 C-102.27621094 243.85785156 -103.03289062 244.26648438 -103.8125 244.6875 C-106.58789037 246.09710136 -106.58789037 246.09710136 -109 248 C-109 272.7587218 -86.31365594 297.63476331 -69.83203125 314.17578125 C-54.84081294 328.21071171 -35.09589873 338.97371681 -14.6015625 341.27734375 C-11.45907044 342.15025821 -10.63552953 343.24630232 -9 346 C-6.52733235 345.65555119 -6.52733235 345.65555119 -4 345 C-3.67 344.34 -3.34 343.68 -3 343 C-0.93725586 342.34912109 -0.93725586 342.34912109 1.78515625 341.7734375 C2.78329346 341.55059082 3.78143066 341.32774414 4.80981445 341.09814453 C6.4198938 340.74018799 6.4198938 340.74018799 8.0625 340.375 C28.08727386 335.63349842 43.08520312 326.14825079 58 312 C58.50289551 311.5349707 59.00579102 311.06994141 59.52392578 310.59082031 C68.48621817 302.27472911 75.55412901 293.37877563 82 283 C82.40202637 282.35691895 82.80405273 281.71383789 83.21826172 281.05126953 C87.56348043 273.99678456 91.07257136 267.02240206 93.86035156 259.2121582 C97.172777 249.99427276 99.62998447 245.41144871 108.0390625 240.10546875 C123.84415651 228.86675415 129.99981462 203.42070773 133.3125 185.5 C134.9383086 175.83909185 134.9383086 175.83909185 132 167 C131.21753906 167.08378906 130.43507813 167.16757813 129.62890625 167.25390625 C128.11103516 167.40666016 128.11103516 167.40666016 126.5625 167.5625 C125.55316406 167.66691406 124.54382813 167.77132812 123.50390625 167.87890625 C122.67761719 167.91886719 121.85132813 167.95882812 121 168 C119.16623244 166.16623244 119.82574772 163.21635941 119.7890625 160.75390625 C119.76303955 159.45042236 119.7370166 158.14693848 119.71020508 156.80395508 C119.69696198 156.11137604 119.68371887 155.418797 119.67007446 154.70523071 C119.4089016 142.28970589 118.9720667 130.11026992 116 118 C115.80809082 117.21689453 115.61618164 116.43378906 115.41845703 115.62695312 C106.00418265 78.66667161 83.3830715 49.03518899 51 29.1875 C35.38754357 20.47454034 18.67439173 16.2762536 0.9765625 14.58984375 C-2.25260665 13.94994278 -2.85943713 13.30955467 -5 11 C-8.86990078 10.53635464 -8.86990078 10.53635464 -10.50439453 12.45605469 Z M-158 164 C-157 166 -157 166 -157 166 Z " fill="#443F3C" transform="translate(189,2)"/>
<path d="M0 0 C2.40102342 0.29020666 3.6419208 0.60435005 5.28442383 2.41918945 C8.86012794 8.47987816 11.79955235 14.77468287 14.6875 21.1875 C15.73969318 23.49924093 16.79309742 25.810431 17.84765625 28.12109375 C18.37246582 29.27206543 18.89727539 30.42303711 19.43798828 31.60888672 C22.17483699 37.55056047 25.01595683 43.4425398 27.87768555 49.32495117 C32.54619844 59.01037345 34.88314078 67.89512999 32.0625 78.625 C29.2210875 85.94864068 23.36724909 92.2776158 16.25 95.5625 C5.98919795 99.53381042 -3.30506537 98.83714127 -13.2734375 94.484375 C-18.27567196 91.76109549 -21.41817982 88.878281 -24.25 83.9375 C-25.00023437 82.65166016 -25.00023437 82.65166016 -25.765625 81.33984375 C-28.15298197 76.81444241 -28.28335216 72.6323048 -28.375 67.625 C-28.41238281 66.88894531 -28.44976562 66.15289062 -28.48828125 65.39453125 C-28.67623335 53.13587773 -21.61076101 41.80373024 -16.1875 31.1875 C-15.56557253 29.95952694 -14.94423995 28.73125242 -14.32348633 27.50268555 C-13.10765586 25.09773762 -11.8887282 22.69445207 -10.66796875 20.29199219 C-8.15328993 15.3288878 -5.68297468 10.34388803 -3.22143555 5.35424805 C-1.11064148 1.11064148 -1.11064148 1.11064148 0 0 Z " fill="#423D3A" transform="translate(258,119)"/>
<path d="M0 0 C1.33333333 0.66666667 2.66666667 1.33333333 4 2 C6.85418219 1.651929 9.26879341 0.9104022 12 0 C18.39928025 -0.50520634 22.1023304 0.56858727 27.625 3.6875 C34.05914097 7.14442308 40.30259119 9.65956086 47.3046875 11.796875 C50 13 50 13 51.3828125 15.140625 C51.68832031 16.06101562 51.68832031 16.06101562 52 17 C50 19 50 19 46.9375 19.34375 C42.91304022 18.99240827 40.17397476 18.03278135 36.49414062 16.50830078 C16.57889371 8.45720742 -6.20915172 9.34125925 -25.91015625 17.46875 C-29.40010776 18.88741649 -32.18906305 19.51044513 -36 19 C-36.66 18.34 -37.32 17.68 -38 17 C-38 16.01 -38 15.02 -38 14 C-36.85144531 13.49210937 -35.70289063 12.98421875 -34.51953125 12.4609375 C-33.77356689 12.13029297 -33.02760254 11.79964844 -32.2590332 11.45898438 C-30.61888283 10.73228368 -28.97808677 10.00703866 -27.33666992 9.28320312 C-23.58135203 7.62087457 -19.84151631 5.94591628 -16.15625 4.1328125 C-15.0528125 3.59398437 -13.949375 3.05515625 -12.8125 2.5 C-11.36810547 1.77296875 -11.36810547 1.77296875 -9.89453125 1.03125 C-6.42781991 -0.20385364 -3.65536707 -0.24893181 0 0 Z " fill="#423D3B" transform="translate(176,258)"/>
<path d="M0 0 C0.33 0 0.66 0 1 0 C1.73099092 8.95463873 -1.08642765 17.69879604 -4.10546875 26.0625 C-5.89374844 31.93492937 -6.18398117 38.6436248 -4.125 44.48046875 C-1.34813104 49.34912387 1.98633274 51.64062717 7 54 C6.67 55.32 6.34 56.64 6 58 C0.03628149 58.49697654 -4.00920652 57.34894203 -9 54 C-14.28146122 48.57955296 -15.84472659 42.64411644 -15.78515625 35.21484375 C-14.68017669 26.51123764 -9.36382235 18.2702125 -5.36132812 10.60693359 C-3.52701429 7.09423575 -1.76377169 3.54854065 0 0 Z " fill="#F2EFEB" transform="translate(254,149)"/>
<path d="M0 0 C4.455 0.99 4.455 0.99 9 2 C8.67 2.66 8.34 3.32 8 4 C5.65056882 4.78012001 3.32128733 5.4676904 0.9375 6.125 C-32.22743489 15.89590869 -58.7710289 40.60491103 -75.52734375 70.27734375 C-79.9934751 78.54262149 -83.49511397 87.29419128 -87 96 C-87.33 96 -87.66 96 -88 96 C-87.67 92.37 -87.34 88.74 -87 85 C-86.34 85 -85.68 85 -85 85 C-84.690625 83.845 -84.38125 82.69 -84.0625 81.5 C-82.17483106 75.71670056 -79.11429101 70.63198591 -76.04907227 65.41015625 C-73.79757828 61.93872288 -73.79757828 61.93872288 -73 58 C-72.34 57.34 -71.68 56.68 -71 56 C-70.67 55.01 -70.34 54.02 -70 53 C-69.34 53 -68.68 53 -68 53 C-66.49457477 51.31993856 -66.49457477 51.31993856 -64.9375 49.125 C-61.55615573 44.64012078 -57.9144156 40.49133631 -54.11328125 36.359375 C-52.64781772 34.72325675 -51.24310969 33.03146073 -49.890625 31.30078125 C-47.81921119 28.77999048 -45.78760354 27.64397132 -43 26 C-42.525625 25.34 -42.05125 24.68 -41.5625 24 C-39.45287303 21.29967748 -37.11874883 20.32712716 -34 19 C-33.34 19 -32.68 19 -32 19 C-32 18.34 -32 17.68 -32 17 C-29.75243216 15.84917315 -27.50218252 14.70423142 -25.25 13.5625 C-24.61578125 13.23701172 -23.9815625 12.91152344 -23.328125 12.57617188 C-20.2317865 11.01187586 -17.35145085 9.83786271 -14 9 C-13.67 8.34 -13.34 7.68 -13 7 C-11.2578125 6.1484375 -11.2578125 6.1484375 -9.125 5.375 C-8.07699219 4.98441406 -8.07699219 4.98441406 -7.0078125 4.5859375 C-5 4 -5 4 -2 4 C-1.34 2.68 -0.68 1.36 0 0 Z " fill="#211F1D" transform="translate(141,9)"/>
<path d="M0 0 C0.82951172 -0.020625 1.65902344 -0.04125 2.51367188 -0.0625 C8.01903189 -0.09726155 11.78112005 0.73390772 16.6875 3.25 C16.36089377 6.2983248 15.68227806 7.25507689 13.4375 9.4375 C7.90397578 13.08459551 1.12272019 12.78863076 -5.3125 12.25 C-8.82854982 10.93148132 -12.20709509 9.47003104 -14.3125 6.25 C-14 3.5625 -14 3.5625 -13.3125 1.25 C-8.86216419 -0.00269642 -4.59596177 0.02817448 0 0 Z " fill="#403B39" transform="translate(181.3125,287.75)"/>
<path d="M0 0 C6.27 0 12.54 0 19 0 C17.9019337 8.78453039 17.9019337 8.78453039 15.4375 13.25 C11.99971425 20.39383801 11.97450036 27.15437634 14 34.75 C14.33 35.4925 14.66 36.235 15 37 C11.17679443 38.42258812 8.08718695 39.24042276 4 39 C7.18762365 36.87491756 9.26512223 36.4979837 13 36 C12.505 35.030625 12.01 34.06125 11.5 33.0625 C9.60142633 28.71271619 9.71410012 24.66969796 10 20 C9.01 19.67 8.02 19.34 7 19 C6.85304687 19.88042969 6.70609375 20.76085937 6.5546875 21.66796875 C4.49327807 32.34227849 4.49327807 32.34227849 1 35.375 C0.01 35.91125 -0.98 36.4475 -2 37 C-2.99 36.67 -3.98 36.34 -5 36 C-3.61941406 35.31357422 -3.61941406 35.31357422 -2.2109375 34.61328125 C2.26937529 31.61718731 3.05210957 27.17183308 4.375 22.1875 C4.76365234 20.87168945 4.76365234 20.87168945 5.16015625 19.52929688 C6.57238552 14.53418964 7.29711325 10.18533355 7 5 C3.535 3.02 3.535 3.02 0 1 C0 0.67 0 0.34 0 0 Z " fill="#35302F" transform="translate(125,164)"/>
<path d="M0 0 C0.49628906 0.38671875 0.99257813 0.7734375 1.50390625 1.171875 C2.18324219 1.69265625 2.86257812 2.2134375 3.5625 2.75 C4.55443359 3.51570312 4.55443359 3.51570312 5.56640625 4.296875 C8.10071993 6.16524037 8.10071993 6.16524037 11.59375 7.75 C15.57289211 9.9933034 16.68650409 13.00644573 17.9375 17.25 C18.42242809 18.6938647 18.91485971 20.13522706 19.4140625 21.57421875 C19.66833008 22.30946777 19.92259766 23.0447168 20.18457031 23.80224609 C26.10148656 39.74957546 35.55931301 54.83529274 46.8125 67.48828125 C51.16636961 72.48745654 49.96356074 77.14682134 49.6875 83.5 C49.65205078 84.551875 49.61660156 85.60375 49.58007812 86.6875 C49.30589626 93.30060284 48.52334836 99.55748717 47 106 C46.67 106 46.34 106 46 106 C46 104.35 46 102.7 46 101 C45.34 101 44.68 101 44 101 C44.309375 99.72125 44.61875 98.4425 44.9375 97.125 C45.86195173 92.93546345 46.49553156 88.81032393 46.8125 84.53125 C47 82 47 82 47.375 79.53125 C47.98489817 73.50850555 46.4045485 70.60549259 42.625 65.875 C40.28947539 63.10948365 40.28947539 63.10948365 38 61 C37.34 61 36.68 61 36 61 C32.98295115 57.8000997 31.50109958 55.38462134 31 51 C29.515 50.505 29.515 50.505 28 50 C28.33 49.34 28.66 48.68 29 48 C28.29164965 46.18586868 28.29164965 46.18586868 27.12109375 44.2109375 C26.69763672 43.44168945 26.27417969 42.67244141 25.83789062 41.87988281 C25.37576172 41.05327148 24.91363281 40.22666016 24.4375 39.375 C20.99299288 33.11247634 18.17798856 27.05236262 16 20.25 C13.52952698 12.79222548 9.72345331 9.73782344 3 6 C1.19921875 4.51953125 1.19921875 4.51953125 0 3 C0 2.01 0 1.02 0 0 Z " fill="#262422" transform="translate(55,244)"/>
<path d="M0 0 C3.78125025 1.26041675 4.01322327 2.68870545 6 6 C6.99 6.33 7.98 6.66 9 7 C9 7.66 9 8.32 9 9 C11.21122408 10.14656064 13.329931 11.11509221 15.6875 11.9375 C16.450625 12.288125 17.21375 12.63875 18 13 C18.33 13.99 18.66 14.98 19 16 C19.721875 16.4125 20.44375 16.825 21.1875 17.25 C24.41214315 19.25644463 26.31715753 21.5364978 28.66796875 24.4765625 C29.94364001 26.12972374 29.94364001 26.12972374 32 27 C32.474375 27.825 32.94875 28.65 33.4375 29.5 C34.81319541 32.29155483 34.81319541 32.29155483 38 33 C38.71293 34.64740797 39.37287506 36.31805573 40 38 C41.06024795 39.61307246 42.16735047 41.19604986 43.3125 42.75 C46.59398422 47.32210982 49.38926558 52.01915184 52 57 C52.66 57 53.32 57 54 57 C53.67 58.98 53.34 60.96 53 63 C50.21419007 59.67267194 48.00367924 56.37251339 45.9375 52.5625 C43.07324001 47.55934456 39.88439197 43.02304733 36.3125 38.5 C35.84900146 37.9129126 35.38550293 37.3258252 34.90795898 36.72094727 C32.92918428 34.25735674 30.92801554 31.92958304 28.66796875 29.71875 C27 28 27 28 27 26 C26.43925781 25.7628125 25.87851562 25.525625 25.30078125 25.28125 C22.47768676 23.70913626 20.50656888 21.75138484 18.1875 19.5 C13.09374943 14.74445238 7.71021424 10.95505448 1.77612305 7.3125 C0.13613786 6.28088612 -1.43922554 5.14793803 -3 4 C-3 3.01 -3 2.02 -3 1 C-2.01 1.33 -1.02 1.66 0 2 C0 1.34 0 0.68 0 0 Z " fill="#28201E" transform="translate(250,21)"/>
<path d="M0 0 C3.53217343 0.87415962 4.98154065 2.50905961 6.94140625 5.48046875 C7.06640625 9.10546875 7.06640625 9.10546875 5.94140625 12.48046875 C3.27175084 14.84502068 1.45470716 15.40561237 -2.05859375 15.91796875 C-5.88863925 15.35942045 -7.44403876 14.31912845 -10.05859375 11.48046875 C-11.18359375 8.54296875 -11.18359375 8.54296875 -11.05859375 5.48046875 C-8.0358726 0.99514059 -5.24076903 -0.36794773 0 0 Z " fill="#3C3736" transform="translate(282.05859375,223.51953125)"/>
<path d="M0 0 C2.125 1.625 2.125 1.625 3 4 C2.93480059 7.71636626 2.79890124 10.04746391 0.375 12.9375 C-2.99002791 14.44290722 -5.35037432 14.44819965 -9 14 C-11.9375 12.4375 -11.9375 12.4375 -14 10 C-14.625 6.5 -14.625 6.5 -14 3 C-10.15170479 -1.96554221 -5.60927376 -1.661208 0 0 Z " fill="#3E3937" transform="translate(266,244)"/>
<path d="M0 0 C1 2 1 2 0.50610352 3.82495117 C0.07189087 4.92286987 0.07189087 4.92286987 -0.37109375 6.04296875 C-0.69400391 6.86216797 -1.01691406 7.68136719 -1.34960938 8.52539062 C-1.70861328 9.40388672 -2.06761719 10.28238281 -2.4375 11.1875 C-2.98567383 12.53811523 -2.98567383 12.53811523 -3.54492188 13.91601562 C-9.86360972 29.18708109 -18.38035152 42.59079303 -28 56 C-28.33 56.66 -28.66 57.32 -29 58 C-30.2684375 58.928125 -30.2684375 58.928125 -31.5625 59.875 C-32.366875 60.57625 -33.17125 61.2775 -34 62 C-34 63.32 -34 64.64 -34 66 C-34.66 66 -35.32 66 -36 66 C-35.6695166 66.57073242 -35.3390332 67.14146484 -34.99853516 67.72949219 C-33.89943529 70.22866791 -33.83078644 71.63101017 -34.0234375 74.328125 C-34.075 75.12734375 -34.1265625 75.9265625 -34.1796875 76.75 C-34.24414062 77.575 -34.30859375 78.4 -34.375 79.25 C-34.43171875 80.09046875 -34.4884375 80.9309375 -34.546875 81.796875 C-34.68790332 83.86529042 -34.84261788 85.9327646 -35 88 C-35.33 88 -35.66 88 -36 88 C-36.33970765 85.50072231 -36.67188032 83.00080405 -37 80.5 C-37.14308594 79.45585937 -37.14308594 79.45585937 -37.2890625 78.390625 C-38.90621903 65.91541749 -38.90621903 65.91541749 -36.96875 61.8203125 C-36.4840625 61.26085937 -35.999375 60.70140625 -35.5 60.125 C-34.94957031 59.45984375 -34.39914062 58.7946875 -33.83203125 58.109375 C-33.22746094 57.41328125 -32.62289063 56.7171875 -32 56 C-27.35598852 50.43108057 -23.02826478 44.75577988 -19.0625 38.6875 C-18.67280029 38.10081543 -18.28310059 37.51413086 -17.8815918 36.90966797 C-15.74417395 33.57527709 -14.73507128 30.84753526 -14 27 C-13.54125488 26.56204102 -13.08250977 26.12408203 -12.60986328 25.67285156 C-10.61046564 23.59522453 -9.85542703 21.64712723 -8.80859375 18.96484375 C-8.42123047 17.99095703 -8.03386719 17.01707031 -7.63476562 16.01367188 C-7.23966797 14.99853516 -6.84457031 13.98339844 -6.4375 12.9375 C-5.64915235 10.92396586 -4.85639066 8.91215266 -4.05859375 6.90234375 C-3.71111084 6.01023193 -3.36362793 5.11812012 -3.00561523 4.19897461 C-2 2 -2 2 0 0 Z " fill="#282523" transform="translate(297,253)"/>
<path d="M0 0 C0.33 0.99 0.66 1.98 1 3 C1.66 3 2.32 3 3 3 C3.33 2.34 3.66 1.68 4 1 C3.96519531 2.06927734 3.96519531 2.06927734 3.9296875 3.16015625 C3.82184326 8.88360394 4.07942689 13.59838814 6 19 C4.9275 19.45375 3.855 19.9075 2.75 20.375 C0.11937683 21.50088537 -2.46000396 22.67920206 -5 24 C-5 23.34 -5 22.68 -5 22 C-8.465 24.475 -8.465 24.475 -12 27 C-11.690625 26.4225 -11.38125 25.845 -11.0625 25.25 C-9.91995902 23.104664 -9.91995902 23.104664 -9.6875 21 C-9 19 -9 19 -6.6015625 17.359375 C-3.31103755 14.3751752 -2.60148675 11.43613844 -1.6875 7.25 C-1.51927734 6.55261719 -1.35105469 5.85523438 -1.17773438 5.13671875 C-0.76821815 3.42845108 -0.38175218 1.71468576 0 0 Z " fill="#4D4745" transform="translate(132,181)"/>
<path d="M0 0 C1.65 0.33 3.3 0.66 5 1 C5.02888146 4.31248187 5.04675799 7.62493167 5.0625 10.9375 C5.07087891 11.88302734 5.07925781 12.82855469 5.08789062 13.80273438 C5.09111328 14.70185547 5.09433594 15.60097656 5.09765625 16.52734375 C5.10289307 17.35999756 5.10812988 18.19265137 5.11352539 19.05053711 C5 21 5 21 4 22 C2.33382885 22.04063832 0.66611905 22.042721 -1 22 C-2.23315333 18.30054001 -2.18407267 14.85232442 -2.1875 11 C-2.20586914 9.91332031 -2.20586914 9.91332031 -2.22460938 8.8046875 C-2.23515833 4.99299702 -2.1642464 3.2463696 0 0 Z " fill="#1A1817" transform="translate(180,25)"/>
<path d="M0 0 C1.9375 0.8125 1.9375 0.8125 4 2 C5.01173798 5.03521394 5.16573514 7.19733079 5.1875 10.375 C5.20167969 11.31085938 5.21585938 12.24671875 5.23046875 13.2109375 C4.98180835 16.22014979 4.41692936 18.33560792 3 21 C2.01 21.33 1.02 21.66 0 22 C-3.32088139 18.4858398 -3.40512247 15.73926798 -3.375 11 C-3.38273438 9.783125 -3.39046875 8.56625 -3.3984375 7.3125 C-2.98329093 3.86108538 -2.35052078 2.48732358 0 0 Z " fill="#393633" transform="translate(181,310)"/>
<path d="M0 0 C1.65 0.33 3.3 0.66 5 1 C5 7.6 5 14.2 5 21 C3.35 21.33 1.7 21.66 0 22 C-2.49111925 18.26332113 -2.29613477 15.32129024 -2.25 11 C-2.25773438 10.27554688 -2.26546875 9.55109375 -2.2734375 8.8046875 C-2.25942063 5.00611507 -2.15441944 3.23162916 0 0 Z " fill="#46413F" transform="translate(180,92)"/>
<path d="M0 0 C1.32 0 2.64 0 4 0 C5.1353654 2.27073079 5.12892412 3.54283279 5.1328125 6.0625 C5.13410156 6.85914063 5.13539063 7.65578125 5.13671875 8.4765625 C5.13091797 9.72566406 5.13091797 9.72566406 5.125 11 C5.12886719 11.83273438 5.13273438 12.66546875 5.13671875 13.5234375 C5.13542969 14.32007813 5.13414062 15.11671875 5.1328125 15.9375 C5.13168457 16.66839844 5.13055664 17.39929688 5.12939453 18.15234375 C5 20 5 20 4 22 C2.35 22 0.7 22 -1 22 C-2.23315333 18.30054001 -2.18407267 14.85232442 -2.1875 11 C-2.20586914 9.91332031 -2.20586914 9.91332031 -2.22460938 8.8046875 C-2.23515833 4.99299702 -2.1642464 3.2463696 0 0 Z " fill="#2E2A29" transform="translate(180,223)"/>
<path d="M0 0 C1.66611905 -0.042721 3.33382885 -0.04063832 5 0 C7.2397148 2.2397148 6.18531833 7.42897488 6.1875 10.4375 C6.19974609 11.32244141 6.21199219 12.20738281 6.22460938 13.11914062 C6.22654297 13.96541016 6.22847656 14.81167969 6.23046875 15.68359375 C6.23457764 16.46275146 6.23868652 17.24190918 6.24291992 18.04467773 C6 20 6 20 4 22 C1.9375 21.8125 1.9375 21.8125 0 21 C-1.24078003 17.2776599 -1.14555459 13.81203967 -1.125 9.9375 C-1.12886719 9.20466797 -1.13273438 8.47183594 -1.13671875 7.71679688 C-1.12668491 2.25336982 -1.12668491 2.25336982 0 0 Z " fill="#2E2B29" transform="translate(179,59)"/>
<path d="M0 0 C2.625 0.375 2.625 0.375 5 1 C5.05791844 4.12492251 5.09356746 7.24970766 5.125 10.375 C5.14175781 11.26445312 5.15851563 12.15390625 5.17578125 13.0703125 C5.18222656 13.92109375 5.18867188 14.771875 5.1953125 15.6484375 C5.20578613 16.43395996 5.21625977 17.21948242 5.22705078 18.02880859 C5 20 5 20 3 22 C0.9375 21.8125 0.9375 21.8125 -1 21 C-2.23915102 17.28254693 -2.18407713 13.80876619 -2.1875 9.9375 C-2.19974609 9.20466797 -2.21199219 8.47183594 -2.22460938 7.71679688 C-2.22986299 5.80973493 -2.12218272 3.90315114 -2 2 C-1.34 1.34 -0.68 0.68 0 0 Z " fill="#2E2A29" transform="translate(180,158)"/>
<path d="M0 0 C3.875 0.875 3.875 0.875 5 2 C5.08651611 3.41570123 5.10704904 4.835595 5.09765625 6.25390625 C5.09443359 7.10791016 5.09121094 7.96191406 5.08789062 8.84179688 C5.07951172 9.73962891 5.07113281 10.63746094 5.0625 11.5625 C5.05798828 12.46419922 5.05347656 13.36589844 5.04882812 14.29492188 C5.03700225 16.53001314 5.0205222 18.76497437 5 21 C3.35 21.33 1.7 21.66 0 22 C-2.4223898 18.24145075 -2.2671569 14.82537626 -2.25 10.4375 C-2.26160156 9.42913086 -2.26160156 9.42913086 -2.2734375 8.40039062 C-2.25880148 4.71577164 -2.09589902 3.14384852 0 0 Z " fill="#2C2827" transform="translate(180,125)"/>
<path d="M0 0 C3.875 0.875 3.875 0.875 5 2 C5.10011296 4.98866642 5.13873975 7.94910453 5.125 10.9375 C5.12886719 11.77474609 5.13273438 12.61199219 5.13671875 13.47460938 C5.13542969 14.27576172 5.13414062 15.07691406 5.1328125 15.90234375 C5.13168457 16.63960693 5.13055664 17.37687012 5.12939453 18.13647461 C5 20 5 20 4 22 C2.35 21.67 0.7 21.34 -1 21 C-2.18430188 17.44709436 -2.18397858 14.19749544 -2.1875 10.5 C-2.19974609 9.82324219 -2.21199219 9.14648438 -2.22460938 8.44921875 C-2.23559396 4.73642956 -2.11344616 3.17016924 0 0 Z " fill="#2A2726" transform="translate(180,190)"/>
<path d="M0 0 C5.72210596 1.86763181 11.37661751 3.85289032 17 6 C17 7.32 17 8.64 17 10 C16 11 16 11 13 11.25 C8.44138297 11.19325373 4.11873477 9.92679008 0 8 C-0.33 7.34 -0.66 6.68 -1 6 C-0.01 5.67 0.98 5.34 2 5 C2.33 4.01 2.66 3.02 3 2 C2.01 1.67 1.02 1.34 0 1 C0 0.67 0 0.34 0 0 Z " fill="#312C2B" transform="translate(210,266)"/>
<path d="M0 0 C0.66 0.33 1.32 0.66 2 1 C-1.63 2.98 -5.26 4.96 -9 7 C-8.67 7.66 -8.34 8.32 -8 9 C-11 11 -11 11 -14 11 C-14 11.99 -14 12.98 -14 14 C-15.98 14.99 -15.98 14.99 -18 16 C-18 16.33 -18 16.66 -18 17 C-20.875 17.125 -20.875 17.125 -24 17 C-24.66 16.34 -25.32 15.68 -26 15 C-26 14.01 -26 13.02 -26 12 C-24.7934375 11.46890625 -23.586875 10.9378125 -22.34375 10.390625 C-20.72912189 9.67718467 -19.11454108 8.96363728 -17.5 8.25 C-16.31277344 7.72792969 -16.31277344 7.72792969 -15.1015625 7.1953125 C-11.1786462 5.45893971 -7.32976229 3.66729601 -3.53125 1.671875 C-2.3659375 1.12015625 -1.200625 0.5684375 0 0 Z " fill="#3E3937" transform="translate(164,260)"/>
<path d="M0 0 C0.54269531 0.42152344 1.08539063 0.84304687 1.64453125 1.27734375 C2.35996094 1.82519531 3.07539063 2.37304688 3.8125 2.9375 C4.87404297 3.75541016 4.87404297 3.75541016 5.95703125 4.58984375 C8.04125052 6.16856248 8.04125052 6.16856248 11 7 C11.71293 8.64740797 12.37287506 10.31805573 13 12 C14.06024795 13.61307246 15.16735047 15.19604986 16.3125 16.75 C19.59398422 21.32210982 22.38926558 26.01915184 25 31 C25.66 31 26.32 31 27 31 C26.67 32.98 26.34 34.96 26 37 C23.21419007 33.67267194 21.00367924 30.37251339 18.9375 26.5625 C16.07324001 21.55934456 12.88439197 17.02304733 9.3125 12.5 C8.84900146 11.9129126 8.38550293 11.3258252 7.90795898 10.72094727 C5.92918428 8.25735674 3.92801554 5.92958304 1.66796875 3.71875 C0 2 0 2 0 0 Z " fill="#201D1C" transform="translate(277,47)"/>
<path d="M0 0 C1.65 0 3.3 0 5 0 C5.474375 1.11375 5.94875 2.2275 6.4375 3.375 C7.25306463 5.26710994 8.07856355 7.15712709 9 9 C9.24149545 12.13944084 9.19033962 15.28978162 9.1875 18.4375 C9.18669434 19.34024658 9.18588867 20.24299316 9.18505859 21.1730957 C9.0664218 34.11962686 9.0664218 34.11962686 7 40 C6.01 40.495 6.01 40.495 5 41 C5.0721875 40.35417969 5.144375 39.70835937 5.21875 39.04296875 C5.87188712 32.41181269 6.18904275 25.7846187 6.3125 19.125 C6.34214844 18.31699951 6.37179687 17.50899902 6.40234375 16.67651367 C6.45636693 11.2454956 5.49204233 8.37333574 2 4 C1.30570621 2.6808418 0.62469505 1.35350594 0 0 Z " fill="#25231F" transform="translate(325,158)"/>
<path d="M0 0 C0.33 0.66 0.66 1.32 1 2 C1.66 2 2.32 2 3 2 C2.99214478 2.99628418 2.99214478 2.99628418 2.98413086 4.01269531 C2.75990416 21.03772345 2.75990416 21.03772345 4 38 C3.34 37.67 2.68 37.34 2 37 C1.49755859 35.19677734 1.49755859 35.19677734 1.1484375 32.8359375 C1.01920898 31.96743164 0.88998047 31.09892578 0.75683594 30.20410156 C0.63083008 29.27049805 0.50482422 28.33689453 0.375 27.375 C0.24383789 26.43108398 0.11267578 25.48716797 -0.02246094 24.51464844 C-1.04460374 16.67999026 -1.60736249 8.89571241 -1 1 C-0.67 0.67 -0.34 0.34 0 0 Z M0 3 C1 5 1 5 1 5 Z " fill="#23201F" transform="translate(31,163)"/>
<path d="M0 0 C0.66 0.33 1.32 0.66 2 1 C2 1.33 2 1.66 2 2 C2.85464844 2.04898437 3.70929688 2.09796875 4.58984375 2.1484375 C6.24693359 2.26058594 6.24693359 2.26058594 7.9375 2.375 C9.59072266 2.47941406 9.59072266 2.47941406 11.27734375 2.5859375 C12.62505859 2.79089844 12.62505859 2.79089844 14 3 C14.33 3.66 14.66 4.32 15 5 C11.53777385 6.06723961 8.35960734 6.10173486 4.75 6.0625 C3.67234375 6.05347656 2.5946875 6.04445313 1.484375 6.03515625 C0.66453125 6.02355469 -0.1553125 6.01195312 -1 6 C-2.10636395 8.39068734 -2.10636395 8.39068734 -3 11 C-2.67 11.66 -2.34 12.32 -2 13 C-4.31 12.34 -6.62 11.68 -9 11 C-7.55873214 7.63704165 -5.79407345 5.37072898 -3 3 C-2.01 3 -1.02 3 0 3 C0 2.01 0 1.02 0 0 Z " fill="#382E28" transform="translate(189,2)"/>
<path d="M0 0 C0.33 0 0.66 0 1 0 C0.835 1.0725 0.67 2.145 0.5 3.25 C-0.08810915 7.03028752 -0.08810915 7.03028752 0 11 C-0.33 11.99 -0.66 12.98 -1 14 C-1.66 14 -2.32 14 -3 14 C-3.43570312 14.845625 -3.87140625 15.69125 -4.3203125 16.5625 C-7.75622266 23.10709077 -11.27901048 29.27601637 -16 35 C-16.99 34.67 -17.98 34.34 -19 34 C-18.5875 33.52433594 -18.175 33.04867187 -17.75 32.55859375 C-9.83133595 22.96074871 -4.17975583 11.68681729 0 0 Z " fill="#2D2221" transform="translate(326,211)"/>
<path d="M0 0 C0.8125 1.75 0.8125 1.75 1 4 C-0.14786941 6.24356294 -1.2095767 8.2095767 -3 10 C-5.01964199 10.07244053 -7.04167124 10.08377188 -9.0625 10.0625 C-10.16722656 10.05347656 -11.27195313 10.04445313 -12.41015625 10.03515625 C-13.69212891 10.01775391 -13.69212891 10.01775391 -15 10 C-15 9.67 -15 9.34 -15 9 C-13.58461283 8.66127487 -12.16762037 8.32925376 -10.75 8 C-9.56664062 7.7215625 -9.56664062 7.7215625 -8.359375 7.4375 C-6 7 -6 7 -2 7 C-2.66 5.35 -3.32 3.7 -4 2 C-6.97 1.67 -9.94 1.34 -13 1 C-12.67 0.01 -12.34 -0.98 -12 -2 C-7.0648497 -3.41004294 -4.43403746 -2.21701873 0 0 Z " fill="#2A2822" transform="translate(180,7)"/>
<path d="M0 0 C1.65 0.33 3.3 0.66 5 1 C5 7.6 5 14.2 5 21 C3.35 21.33 1.7 21.66 0 22 C-2.49111925 18.26332113 -2.29613477 15.32129024 -2.25 11 C-2.25773438 10.27554688 -2.26546875 9.55109375 -2.2734375 8.8046875 C-2.25942063 5.00611507 -2.15441944 3.23162916 0 0 Z M0 2 C0 7.94 0 13.88 0 20 C1.32 20 2.64 20 4 20 C4.02690844 17.37493198 4.04679404 14.75013827 4.0625 12.125 C4.07087891 11.37863281 4.07925781 10.63226563 4.08789062 9.86328125 C4.20688084 5.80154422 4.20688084 5.80154422 3 2 C2.01 2 1.02 2 0 2 Z " fill="#141211" transform="translate(180,92)"/>
<path d="M0 0 C1.68202428 2.52303643 3.18162788 5.05944372 4.6875 7.6875 C7.62834102 12.63246971 11.05843473 16.82520602 15 21 C13.17578125 21.59375 13.17578125 21.59375 11 22 C5.82822382 19.24171937 2.00961751 15.22314743 -2 11 C2.38968456 11 3.76905739 13.12805101 7 16 C6.4946875 15.18015625 5.989375 14.3603125 5.46875 13.515625 C4.8190625 12.43796875 4.169375 11.3603125 3.5 10.25 C2.8503125 9.18265625 2.200625 8.1153125 1.53125 7.015625 C0 4 0 4 0 0 Z " fill="#242120" transform="translate(120,210)"/>
<path d="M0 0 C1.32 0.33 2.64 0.66 4 1 C4 1.99 4 2.98 4 4 C3.34 4 2.68 4 2 4 C2 4.66 2 5.32 2 6 C-3.83475015 6.85330338 -8.44860651 7.48351814 -14 5 C-13.34 4.67 -12.68 4.34 -12 4 C-12 3.34 -12 2.68 -12 2 C-8 2 -4 2 0 2 C0 1.34 0 0.68 0 0 Z M-11 7 C-8 8 -8 8 -8 8 Z " fill="#453831" transform="translate(162,5)"/>
<path d="M0 0 C0.66 0 1.32 0 2 0 C2 4.62 2 9.24 2 14 C3.65 13.67 5.3 13.34 7 13 C7.66 10.69 8.32 8.38 9 6 C9.33 6 9.66 6 10 6 C10.3125 9.1875 10.3125 9.1875 10 13 C7.5 15.9375 7.5 15.9375 5 18 C2.625 17.375 2.625 17.375 0 16 C-3.08141941 10.64100973 -1.45215454 5.6522323 0 0 Z " fill="#29211F" transform="translate(99,351)"/>
<path d="M0 0 C0.99 0.33 1.98 0.66 3 1 C2.34 1 1.68 1 1 1 C1.33 3.31 1.66 5.62 2 8 C2.33 6.02 2.66 4.04 3 2 C3.33 2 3.66 2 4 2 C4.19384179 4.81219705 4.38036603 7.62454196 4.5625 10.4375 C4.61857422 11.23994141 4.67464844 12.04238281 4.73242188 12.86914062 C4.8616295 14.91062111 4.9351273 16.95546369 5 19 C4 20 4 20 1.4375 20.0625 C0.633125 20.041875 -0.17125 20.02125 -1 20 C-0.67 19.34 -0.34 18.68 0 18 C0.08308638 16.62451844 0.10736016 15.24514204 0.09765625 13.8671875 C0.09443359 13.06152344 0.09121094 12.25585938 0.08789062 11.42578125 C0.07951172 10.58402344 0.07113281 9.74226563 0.0625 8.875 C0.05798828 8.02550781 0.05347656 7.17601562 0.04882812 6.30078125 C0.03702874 4.20049091 0.01909306 2.1002367 0 0 Z " fill="#45413F" transform="translate(180,27)"/>
<path d="M0 0 C0.66 0.33 1.32 0.66 2 1 C-3.39483395 6.64575646 -3.39483395 6.64575646 -6.40234375 8.40625 C-14.10830975 13.13412087 -20.20776783 21.13371154 -26 28 C-26 22.49087737 -20.64563628 18.81821078 -17 15 C-15.72382812 13.66195312 -15.72382812 13.66195312 -14.421875 12.296875 C-9.88869505 7.65245137 -5.43939874 3.54743396 0 0 Z " fill="#504B47" transform="translate(106,32)"/>
<path d="M0 0 C0.33 0 0.66 0 1 0 C2.43639419 6.95884175 3.30698658 13.8059869 3.78125 20.89453125 C4.06673621 24.94741587 4.52137177 28.96584773 5 33 C0.33399557 27.72538629 0.88513338 21.66226374 1 15 C0.34 14.67 -0.32 14.34 -1 14 C-0.67 9.38 -0.34 4.76 0 0 Z " fill="#292623" transform="translate(251,325)"/>
<path d="M0 0 C0.66 0 1.32 0 2 0 C0.63016497 3.16115776 0.0109362 3.9927092 -3 6 C-3.99 7.485 -3.99 7.485 -5 9 C-7.42578125 10.5 -7.42578125 10.5 -10.3125 12 C-13.17176159 13.4978942 -15.92435155 14.94918965 -18.60546875 16.75 C-21 18 -21 18 -23.3125 17.6875 C-23.869375 17.460625 -24.42625 17.23375 -25 17 C-24.09378906 16.50371094 -23.18757812 16.00742187 -22.25390625 15.49609375 C-14.24961637 11.05391088 -6.52564052 6.52564052 0 0 Z " fill="#2B2724" transform="translate(248,325)"/>
<path d="M0 0 C2.82463199 2.82463199 2.96242264 6.01620217 3.625 9.8125 C3.7590625 10.52470703 3.893125 11.23691406 4.03125 11.97070312 C4.70208065 15.6705395 5.30759534 19.23894791 5 23 C3.625 24.8125 3.625 24.8125 2 26 C1.34 26 0.68 26 0 26 C0.495 24.515 0.495 24.515 1 23 C1.09329934 21.35628509 1.12995144 19.70885323 1.125 18.0625 C1.12886719 16.78052734 1.12886719 16.78052734 1.1328125 15.47265625 C1.00846571 13.15761164 0.56037773 11.23709851 0 9 C-0.06548492 7.41788427 -0.08578381 5.83329919 -0.0625 4.25 C-0.05347656 3.45078125 -0.04445313 2.6515625 -0.03515625 1.828125 C-0.02355469 1.22484375 -0.01195312 0.6215625 0 0 Z " fill="#2C2A27" transform="translate(262,342)"/>
<path d="M0 0 C0.66 0.33 1.32 0.66 2 1 C1.67 3.31 1.34 5.62 1 8 C-3.07369424 10.03684712 -5.58937864 10.0257259 -10 9 C-10.33 9.66 -10.66 10.32 -11 11 C-11.33 10.34 -11.66 9.68 -12 9 C-14.30965848 7.94647157 -16.6429774 6.94280904 -19 6 C-16.82971664 5.30240892 -15.42357862 4.89045381 -13.1875 5.46875 C-10.64101921 6.08718105 -8.36719808 6.09693682 -5.75 6.0625 C-4.41195312 6.04896484 -4.41195312 6.04896484 -3.046875 6.03515625 C-2.37140625 6.02355469 -1.6959375 6.01195312 -1 6 C-0.67 4.02 -0.34 2.04 0 0 Z " fill="#2A201D" transform="translate(177,344)"/>
<path d="M0 0 C0.96679688 0.45890625 1.93359375 0.9178125 2.9296875 1.390625 C10.20381162 4.82513428 17.47217566 8.14828301 25 11 C25 11.33 25 11.66 25 12 C18.07 11.505 18.07 11.505 11 11 C11.33 10.01 11.66 9.02 12 8 C11.13375 7.7525 10.2675 7.505 9.375 7.25 C5.78939936 5.92199976 3.03672013 4.31369152 0 2 C0 1.34 0 0.68 0 0 Z " fill="#282422" transform="translate(132,337)"/>
<path d="M0 0 C1.32 0 2.64 0 4 0 C4.33 0.99 4.66 1.98 5 3 C6.0828125 3.61875 6.0828125 3.61875 7.1875 4.25 C10.41214315 6.25644463 12.31715753 8.5364978 14.66796875 11.4765625 C15.94364001 13.12972374 15.94364001 13.12972374 18 14 C17.67 14.99 17.34 15.98 17 17 C16.608125 16.566875 16.21625 16.13375 15.8125 15.6875 C14.03805424 13.90003501 14.03805424 13.90003501 11.6875 12.71484375 C8.63400609 10.76646609 6.5752592 8.59142257 4.1875 5.875 C3.39730469 4.98554687 2.60710937 4.09609375 1.79296875 3.1796875 C0 1 0 1 0 0 Z " fill="#353129" transform="translate(264,34)"/>
<path d="M0 0 C1.98 0 3.96 0 6 0 C4.02 0.99 4.02 0.99 2 2 C2.11306697 3.95894361 2.11306697 3.95894361 3 6 C6.74038662 7.89729756 10.15873851 8.35112562 14.3125 8.625 C15.91544922 8.73714844 15.91544922 8.73714844 17.55078125 8.8515625 C18.35902344 8.90054687 19.16726562 8.94953125 20 9 C19.67 9.66 19.34 10.32 19 11 C11.4043437 11.36491587 6.41650247 11.13429207 0.0625 6.625 C-1 5 -1 5 -0.6875 2.3125 C-0.460625 1.549375 -0.23375 0.78625 0 0 Z " fill="#2B2827" transform="translate(168,289)"/>
<path d="M0 0 C0.33 0 0.66 0 1 0 C2.09021774 7.03948538 1.70837424 13.05560093 0.5625 20.0625 C0.41490234 21.02349609 0.26730469 21.98449219 0.11523438 22.97460938 C-0.24621837 25.31822235 -0.61810408 27.65964705 -1 30 C-1.66 30 -2.32 30 -3 30 C-3.24840732 24.53503904 -2.46908427 19.5337925 -1.51171875 14.15625 C-0.75007932 9.45850452 -0.35482778 4.74348719 0 0 Z " fill="#292220" transform="translate(112,326)"/>
<path d="M0 0 C0.66 0 1.32 0 2 0 C2.13479833 4.29428957 1.71778952 8.01879009 0.6875 12.1875 C0.44386719 13.21230469 0.20023438 14.23710938 -0.05078125 15.29296875 C-0.99900875 17.9971731 -1.80919087 19.21421441 -4 21 C-4.9765625 14.9453125 -4.9765625 14.9453125 -5 13 C-4.34 12.34 -3.68 11.68 -3 11 C-2.39286197 9.14516546 -1.85868948 7.26578615 -1.375 5.375 C-1.11460938 4.37210937 -0.85421875 3.36921875 -0.5859375 2.3359375 C-0.39257812 1.56507812 -0.19921875 0.79421875 0 0 Z " fill="#3F3B37" transform="translate(51,106)"/>
<path d="M0 0 C3.95366149 2.27701616 7.59658958 4.83144073 11.25 7.5625 C12.30703125 8.34753906 13.3640625 9.13257813 14.453125 9.94140625 C17 12 17 12 18 14 C15.6875 14.25 15.6875 14.25 13 14 C11.375 12 11.375 12 10 10 C9.01 10 8.02 10 7 10 C5.68359375 8.50390625 5.68359375 8.50390625 4.4375 6.5625 C2.69463071 3.76740279 2.69463071 3.76740279 0 2 C0 1.34 0 0.68 0 0 Z " fill="#272320" transform="translate(113,323)"/>
<path d="M0 0 C1.32 0.66 2.64 1.32 4 2 C-0.20679072 7.11826204 -3.90492993 11.17014604 -10 14 C-8.56975239 10.79452042 -6.79566927 8.4645554 -4.4375 5.875 C-1.92320784 3.13961955 -1.92320784 3.13961955 0 0 Z " fill="#2D2421" transform="translate(92,38)"/>
<path d="M0 0 C0.33 0 0.66 0 1 0 C1.937402 8.08192533 2.15408416 15.11355966 0 23 C-0.33 23 -0.66 23 -1 23 C-1 21.35 -1 19.7 -1 18 C-1.66 18 -2.32 18 -3 18 C-2.86722656 17.45472656 -2.73445313 16.90945313 -2.59765625 16.34765625 C-1.32210753 10.90097013 -0.53036157 5.56879648 0 0 Z " fill="#2B2724" transform="translate(102,327)"/>
<path d="M0 0 C0.33 0.66 0.66 1.32 1 2 C1.66 2 2.32 2 3 2 C3.72423911 4.60067681 4.42972035 7.20407991 5.125 9.8125 C5.33253906 10.55048828 5.54007812 11.28847656 5.75390625 12.04882812 C6.26838885 14.00918425 6.64250871 16.00503422 7 18 C6.34 18.99 5.68 19.98 5 21 C4.16193384 18.06377536 3.32937556 15.12617933 2.5 12.1875 C2.26152344 11.35412109 2.02304687 10.52074219 1.77734375 9.66210938 C1.43896484 8.45844727 1.43896484 8.45844727 1.09375 7.23046875 C0.88427734 6.49207764 0.67480469 5.75368652 0.45898438 4.99291992 C0 3 0 3 0 0 Z " fill="#201C1B" transform="translate(310,101)"/>
<path d="M0 0 C3.0625 1 3.0625 1 5 2 C3 4 3 4 -0.125 4.25 C-4.35990544 3.97678029 -7.92359399 3.14425432 -12 2 C-7.95398061 -0.69734626 -4.74576236 -0.43218852 0 0 Z " fill="#1D1B1B" transform="translate(213,7)"/>
<path d="M0 0 C4.455 0.99 4.455 0.99 9 2 C8.67 2.66 8.34 3.32 8 4 C3.55499776 5.33350067 -0.3318831 6.29175731 -5 6 C-5 5.34 -5 4.68 -5 4 C-4.01 4 -3.02 4 -2 4 C-1.34 2.68 -0.68 1.36 0 0 Z " fill="#342822" transform="translate(141,9)"/>
<path d="M0 0 C0.66 0 1.32 0 2 0 C5.11412011 3.51190917 6.28613323 5.8014206 6.171875 10.5234375 C6.05341437 12.14239948 5.91228854 13.75984266 5.75 15.375 C5.68425781 16.20644531 5.61851563 17.03789062 5.55078125 17.89453125 C5.38689772 19.93136944 5.19614945 21.96601548 5 24 C4.67 24 4.34 24 4 24 C3.2087827 18.65928325 2.96573476 13.69172268 3.2578125 8.296875 C2.93688326 5.43768719 1.7918521 4.19525335 0 2 C0 1.34 0 0.68 0 0 Z " fill="#181716" transform="translate(99,310)"/>
<path d="M0 0 C1.32 0.33 2.64 0.66 4 1 C3.01 1.33 2.02 1.66 1 2 C1 6.62 1 11.24 1 16 C0.01 15.67 -0.98 15.34 -2 15 C-2.05406122 13.06280622 -2.09282025 11.12518079 -2.125 9.1875 C-2.14820313 8.10855469 -2.17140625 7.02960938 -2.1953125 5.91796875 C-2 3 -2 3 0 0 Z " fill="#ECEAE6" transform="translate(44,169)"/>
<path d="M0 0 C0.66 0.33 1.32 0.66 2 1 C-1.63 2.98 -5.26 4.96 -9 7 C-8.67 7.66 -8.34 8.32 -8 9 C-10.375 10.0625 -10.375 10.0625 -13 11 C-13.66 10.67 -14.32 10.34 -15 10 C-15.99 9.67 -16.98 9.34 -18 9 C-15.04817547 7.46627858 -12.08760757 5.95027306 -9.125 4.4375 C-8.28324219 3.99986328 -7.44148437 3.56222656 -6.57421875 3.11132812 C-5.76855469 2.70205078 -4.96289062 2.29277344 -4.1328125 1.87109375 C-3.38918457 1.48880615 -2.64555664 1.10651855 -1.87939453 0.71264648 C-1.25919434 0.47747314 -0.63899414 0.2422998 0 0 Z " fill="#262221" transform="translate(164,260)"/>
<path d="M0 0 C4.60183872 8.64018699 2.74156337 18.59925824 2 28 C1.67 28 1.34 28 1 28 C0.27507668 18.64072209 -0.14256667 9.39355936 0 0 Z " fill="#0E0E0D" transform="translate(317,130)"/>
<path d="M0 0 C2.28506263 6.09350035 -0.1435334 13.05930689 -2 19 C-3.74345027 16.38797162 -4.03701147 15.2529683 -3.57421875 12.08984375 C-3.28160156 11.04957031 -2.98898438 10.00929688 -2.6875 8.9375 C-2.40261719 7.89464844 -2.11773437 6.85179688 -1.82421875 5.77734375 C-1.2496676 3.84129699 -0.63862243 1.91586729 0 0 Z " fill="#EEEBE8" transform="translate(65,102)"/>
<path d="M0 0 C5.28 0 10.56 0 16 0 C15.67 0.66 15.34 1.32 15 2 C12.36 2 9.72 2 7 2 C7.66 2.33 8.32 2.66 9 3 C9.40729228 5.32156597 9.74438677 7.6568787 10 10 C9.34 9.01 8.68 8.02 8 7 C5.53351554 4.28686709 3.37858005 2.44796288 0 1 C0 0.67 0 0.34 0 0 Z " fill="#1D1A18" transform="translate(125,164)"/>
<path d="M0 0 C-2.31429821 1.54286547 -4.54571028 2.89992755 -7 4.1875 C-7.680625 4.55230469 -8.36125 4.91710937 -9.0625 5.29296875 C-11 6 -11 6 -14 5 C-14 4.34 -14 3.68 -14 3 C-13.01 3 -12.02 3 -11 3 C-10.67 2.34 -10.34 1.68 -10 1 C-6.28098293 -0.96281457 -4.02784093 -1.15081169 0 0 Z " fill="#1B1918" transform="translate(138,15)"/>
<path d="M0 0 C2.50719458 2.32649587 4.32183601 4.82681521 6.1875 7.6875 C6.71730469 8.49574219 7.24710938 9.30398437 7.79296875 10.13671875 C8.39044922 11.05904297 8.39044922 11.05904297 9 12 C8.67 12.66 8.34 13.32 8 14 C7.34 13.67 6.68 13.34 6 13 C5.67 13.66 5.34 14.32 5 15 C4.731875 14.113125 4.46375 13.22625 4.1875 12.3125 C3.135061 9.01430763 3.135061 9.01430763 1.375 6.375 C0 4 0 4 0 0 Z " fill="#2A2523" transform="translate(45,229)"/>
<path d="M0 0 C0.66 0.99 1.32 1.98 2 3 C-0.75134539 5.95514876 -3.39733775 8.1524809 -7 10 C-7.99 10 -8.98 10 -10 10 C-6.7 6.7 -3.4 3.4 0 0 Z " fill="#36322F" transform="translate(249,311)"/>
<path d="M0 0 C1.32 0 2.64 0 4 0 C4.12375 0.86625 4.2475 1.7325 4.375 2.625 C4.98058121 5.89513853 5.88306035 8.87256899 7 12 C6.34 12.66 5.68 13.32 5 14 C4.16235732 12.04350603 3.33000941 10.08474444 2.5 8.125 C2.0359375 7.03445312 1.571875 5.94390625 1.09375 4.8203125 C0 2 0 2 0 0 Z " fill="#2D1C1B" transform="translate(304,86)"/>
<path d="M0 0 C0.33 0 0.66 0 1 0 C1.33 2.97 1.66 5.94 2 9 C2.33 9 2.66 9 3 9 C3.25 11.3125 3.25 11.3125 3 14 C1.68 14.99 0.36 15.98 -1 17 C-0.67 11.39 -0.34 5.78 0 0 Z M-3 17 C-2.34 17.33 -1.68 17.66 -1 18 C-1.99 18 -2.98 18 -4 18 C-3.67 17.67 -3.34 17.34 -3 17 Z " fill="#C6C2BE" transform="translate(185,195)"/>
<path d="M0 0 C2.59121224 2.59121224 2.64674398 4.41493567 3.25 8 C3.44078125 9.0725 3.6315625 10.145 3.828125 11.25 C3.91320312 12.61125 3.91320312 12.61125 4 14 C3.34 14.66 2.68 15.32 2 16 C0.13216954 10.51324804 -0.2358396 5.77807024 0 0 Z " fill="#1F1C1A" transform="translate(262,342)"/>
<path d="M0 0 C1.53508028 2.43338652 2.03088304 3.67124507 1.7578125 6.578125 C1.44457031 7.90070313 1.44457031 7.90070313 1.125 9.25 C0.92132813 10.14203125 0.71765625 11.0340625 0.5078125 11.953125 C0.34023438 12.62859375 0.17265625 13.3040625 0 14 C-0.33 14 -0.66 14 -1 14 C-1.98329211 9.94392005 -2.23600253 6.16937798 -2 2 C-1.34 1.34 -0.68 0.68 0 0 Z " fill="#3A3634" transform="translate(316,119)"/>
<path d="M0 0 C0.99 0.495 0.99 0.495 2 1 C2.8515625 3.72265625 2.8515625 3.72265625 3.625 7.0625 C3.88539062 8.16722656 4.14578125 9.27195313 4.4140625 10.41015625 C4.60742188 11.26480469 4.80078125 12.11945313 5 13 C4.01 13.495 4.01 13.495 3 14 C0.96006486 9.07015675 -0.40652968 5.42039575 0 0 Z " fill="#24221F" transform="translate(35,202)"/>
<path d="M0 0 C2.31 0.66 4.62 1.32 7 2 C7 3.32 7 4.64 7 6 C4.625 5.8125 4.625 5.8125 2 5 C0.6875 2.4375 0.6875 2.4375 0 0 Z " fill="#EEEBE6" transform="translate(177,342)"/>
<path d="M0 0 C1.32 0.33 2.64 0.66 4 1 C4 1.99 4 2.98 4 4 C0.32589215 5.17571451 -3.16929183 5.07366746 -7 5 C-6.34 4.01 -5.68 3.02 -5 2 C-2.375 1.8125 -2.375 1.8125 0 2 C0 1.34 0 0.68 0 0 Z " fill="#232117" transform="translate(162,5)"/>
<path d="M0 0 C3 1 3 1 4.75 3.25 C6.18671298 6.41076857 6.02214896 7.74770785 5 11 C4.34 10.01 3.68 9.02 3 8 C2.34 7.34 1.68 6.68 1 6 C1 5.01 1 4.02 1 3 C0.67 2.01 0.34 1.02 0 0 Z " fill="#372724" transform="translate(82,287)"/>
<path d="M0 0 C0.54269531 0.42152344 1.08539063 0.84304687 1.64453125 1.27734375 C2.35996094 1.82519531 3.07539063 2.37304688 3.8125 2.9375 C4.87404297 3.75541016 4.87404297 3.75541016 5.95703125 4.58984375 C8.04125052 6.16856248 8.04125052 6.16856248 11 7 C10.67 8.32 10.34 9.64 10 11 C8.32742645 9.5484451 6.66208242 8.08855591 5 6.625 C3.6078125 5.40683594 3.6078125 5.40683594 2.1875 4.1640625 C1.465625 3.44992188 0.74375 2.73578125 0 2 C0 1.34 0 0.68 0 0 Z " fill="#241E1D" transform="translate(277,47)"/>
<path d="M0 0 C-2.88035092 2.24027294 -5.84866512 4.16172132 -9 6 C-9 4.68 -9 3.36 -9 2 C-8.34 2 -7.68 2 -7 2 C-7 1.34 -7 0.68 -7 0 C-4.3333581 -1.33332095 -2.83319697 -0.67102033 0 0 Z " fill="#201E1C" transform="translate(44,158)"/>
<path d="M0 0 C-0.639375 0.28875 -1.27875 0.5775 -1.9375 0.875 C-4.15206079 1.82823451 -4.15206079 1.82823451 -5 4 C-7.31 3.34 -9.62 2.68 -12 2 C-11.67 1.34 -11.34 0.68 -11 0 C-7.08234111 -0.81309902 -3.82092412 -1.37553268 0 0 Z " fill="#2A2725" transform="translate(204,351)"/>
<path d="M0 0 C3.0916909 2.52956528 3.90931332 5.22454612 5 9 C2.53199953 7.84826645 0.95216435 6.95216435 -1 5 C-0.625 2.375 -0.625 2.375 0 0 Z " fill="#4C4440" transform="translate(71,270)"/>
<path d="M0 0 C1.98 0.66 3.96 1.32 6 2 C5.34 3.32 4.68 4.64 4 6 C2.02 6 0.04 6 -2 6 C-1.34 4.02 -0.68 2.04 0 0 Z " fill="#4D4744" transform="translate(214,269)"/>
<path d="M0 0 C3 2 3 2 3.6875 4.125 C3.790625 4.74375 3.89375 5.3625 4 6 C0.98968256 6.93423645 0.13349732 7.04449911 -3 6 C-2 4 -1 2 0 0 Z " fill="#2D2522" transform="translate(243,16)"/>
<path d="M0 0 C7.50769231 0.61538462 7.50769231 0.61538462 10 2.5625 C10.33 3.036875 10.66 3.51125 11 4 C10.34 4 9.68 4 9 4 C8.67 4.66 8.34 5.32 8 6 C7.67 5.34 7.34 4.68 7 4 C4.69034152 2.94647157 2.3570226 1.94280904 0 1 C0 0.67 0 0.34 0 0 Z " fill="#362F2A" transform="translate(158,349)"/>
<path d="M0 0 C1.98 0 3.96 0 6 0 C6.33 1.65 6.66 3.3 7 5 C6.4225 4.814375 5.845 4.62875 5.25 4.4375 C2.79307475 3.95976454 1.35602466 4.24270636 -1 5 C-0.67 3.35 -0.34 1.7 0 0 Z " fill="#7A7667" transform="translate(179,347)"/>
<path d="M0 0 C0 0.99 0 1.98 0 3 C-5.078125 6.22265625 -5.078125 6.22265625 -7 7 C-8.32 6.67 -9.64 6.34 -11 6 C-7.37 4.02 -3.74 2.04 0 0 Z " fill="#201D1C" transform="translate(234,336)"/>
<path d="M0 0 C7.90255906 4.6988189 7.90255906 4.6988189 8.6875 7.125 C8.790625 7.74375 8.89375 8.3625 9 9 C8.01 9.495 8.01 9.495 7 10 C6.66226563 9.50628906 6.32453125 9.01257813 5.9765625 8.50390625 C5.53054687 7.86324219 5.08453125 7.22257812 4.625 6.5625 C4.18414062 5.92441406 3.74328125 5.28632813 3.2890625 4.62890625 C2.07839147 2.86259072 2.07839147 2.86259072 0 2 C0 1.34 0 0.68 0 0 Z " fill="#332E2C" transform="translate(113,323)"/>
<path d="M0 0 C1.1875 2.0625 1.1875 2.0625 2 4 C0.125 4.625 0.125 4.625 -2 5 C-2.66 4.34 -3.32 3.68 -4 3 C-4.99 2.67 -5.98 2.34 -7 2 C-7 1.34 -7 0.68 -7 0 C-3.98968256 -0.93423645 -3.13349732 -1.04449911 0 0 Z " fill="#261716" transform="translate(239,15)"/>
<path d="M0 0 C0.33 0.66 0.66 1.32 1 2 C3.52733235 2.65555119 3.52733235 2.65555119 6 3 C5.34 3.66 4.68 4.32 4 5 C-1.45454545 4.54545455 -1.45454545 4.54545455 -4 2 C-2.68 1.34 -1.36 0.68 0 0 Z " fill="#22201D" transform="translate(224,10)"/>
<path d="M0 0 C0.66 0.33 1.32 0.66 2 1 C1.34 2.65 0.68 4.3 0 6 C-0.66 6 -1.32 6 -2 6 C-2 6.66 -2 7.32 -2 8 C-3.32 8 -4.64 8 -6 8 C-4.55746343 4.63408134 -2.66735273 2.48952921 0 0 Z " fill="#8C786B" transform="translate(186,5)"/>
<path d="M0 0 C0.33 0 0.66 0 1 0 C3.29612756 9.41002278 3.29612756 9.41002278 3 14 C0.19954377 10.85408067 -0.35261589 8.932936 -0.1875 4.75 C-0.16042969 3.85796875 -0.13335937 2.9659375 -0.10546875 2.046875 C-0.07066406 1.37140625 -0.03585938 0.6959375 0 0 Z " fill="#1D1B1A" transform="translate(253,344)"/>
<path d="M0 0 C0.99 0 1.98 0 3 0 C2.34 4.29 1.68 8.58 1 13 C0.67 13 0.34 13 0 13 C0 8.71 0 4.42 0 0 Z " fill="#3C3736" transform="translate(181,193)"/>
<path d="M0 0 C2.31 0.66 4.62 1.32 7 2 C5 4 5 4 1.375 4.125 C0.26125 4.08375 -0.8525 4.0425 -2 4 C-1.34 2.68 -0.68 1.36 0 0 Z " fill="#382C20" transform="translate(211,7)"/>
<path d="M0 0 C2.31 0.33 4.62 0.66 7 1 C5.515 3.475 5.515 3.475 4 6 C2.62437146 4.71034824 1.29233607 3.37310707 0 2 C0 1.34 0 0.68 0 0 Z " fill="#57340D" transform="translate(186,350)"/>
<path d="M0 0 C0 0.66 0 1.32 0 2 C-2.97 2 -5.94 2 -9 2 C-9 1.34 -9 0.68 -9 0 C-5.62182575 -0.84454356 -3.32534757 -1.10844919 0 0 Z " fill="#4E4838" transform="translate(177,5)"/>
<path d="M0 0 C0.33 0.99 0.66 1.98 1 3 C-0.40445835 5.2636564 -2.1967913 7.0208685 -4 9 C-4.66 8.67 -5.32 8.34 -6 8 C-4.02 5.36 -2.04 2.72 0 0 Z " fill="#21201D" transform="translate(273,299)"/>
<path d="M0 0 C0.33 0 0.66 0 1 0 C1.125 6.625 1.125 6.625 0 10 C-0.66 10 -1.32 10 -2 10 C-1.125 2.25 -1.125 2.25 0 0 Z " fill="#242321" transform="translate(329,200)"/>
<path d="M0 0 C0.99 0.33 1.98 0.66 3 1 C2.67 3.97 2.34 6.94 2 10 C-0.4294516 6.3558226 -0.16179575 4.28758728 0 0 Z " fill="#ECE9E6" transform="translate(57,136)"/>
<path d="M0 0 C0.66 0 1.32 0 2 0 C2.125 5.75 2.125 5.75 1 8 C0.34 8 -0.32 8 -1 8 C-0.67 5.36 -0.34 2.72 0 0 Z " fill="#292523" transform="translate(51,106)"/>
<path d="M0 0 C0.99 0.99 1.98 1.98 3 3 C2.01 5.64 1.02 8.28 0 11 C-0.33 11 -0.66 11 -1 11 C-0.67 7.37 -0.34 3.74 0 0 Z " fill="#322321" transform="translate(54,94)"/>
<path d="M0 0 C-0.125 1.8125 -0.125 1.8125 -1 4 C-4.0625 5.75 -4.0625 5.75 -7 7 C-3.86206897 0 -3.86206897 0 0 0 Z " fill="#322A27" transform="translate(89,45)"/>
<path d="M0 0 C0.66 0 1.32 0 2 0 C2.25 6.625 2.25 6.625 0 10 C-0.95024979 6.30458414 -0.95024979 3.69541586 0 0 Z " fill="#1C1A19" transform="translate(99,351)"/>
<path d="M0 0 C0.66 0 1.32 0 2 0 C1 3 1 3 -2 5 C-2.72965366 7.56282742 -2.72965366 7.56282742 -3 10 C-3.66 8.68 -4.32 7.36 -5 6 C-3.38405168 3.95880212 -1.7143618 1.95927063 0 0 Z " fill="#383432" transform="translate(125,203)"/>
<path d="M0 0 C0.66 0.33 1.32 0.66 2 1 C0.515 4.96 0.515 4.96 -1 9 C-1.66 8.67 -2.32 8.34 -3 8 C-1.125 2.25 -1.125 2.25 0 0 Z " fill="#2A2823" transform="translate(67,70)"/>
<path d="M0 0 C2.64 0 5.28 0 8 0 C8 0.33 8 0.66 8 1 C5 2 2 3 -1 4 C-0.67 2.68 -0.34 1.36 0 0 Z " fill="#4D4744" transform="translate(170,290)"/>
<path d="M0 0 C2.97 0 5.94 0 9 0 C8.01 0.495 8.01 0.495 7 1 C7 1.66 7 2.32 7 3 C4.0625 2.625 4.0625 2.625 1 2 C0.67 1.34 0.34 0.68 0 0 Z " fill="#393432" transform="translate(215,274)"/>
<path d="M0 0 C2 4 2 4 1.25 6.6875 C0 9 0 9 -2 10 C-1.34 6.7 -0.68 3.4 0 0 Z " fill="#E9E6E4" transform="translate(100,227)"/>
<path d="M0 0 C1.32 0.66 2.64 1.32 4 2 C2.02 2.99 2.02 2.99 0 4 C-0.33 3.34 -0.66 2.68 -1 2 C-0.67 1.34 -0.34 0.68 0 0 Z " fill="#2E2E2E" transform="translate(71,54)"/>
<path d="M0 0 C0.66 0 1.32 0 2 0 C1.67 1.32 1.34 2.64 1 4 C0.67 2.68 0.34 1.36 0 0 Z " fill="#1E1E1E" transform="translate(46,103)"/>
<path d="M0 0 C0.66 1.32 1.32 2.64 2 4 C1.34 4 0.68 4 0 4 C0 2.68 0 1.36 0 0 Z " fill="#323226" transform="translate(254,363)"/>
<path d="M0 0 C0.99 1.485 0.99 1.485 2 3 C1.01 3.495 1.01 3.495 0 4 C0 2.68 0 1.36 0 0 Z " fill="#000000" transform="translate(94,351)"/>
<path d="M0 0 C0.99 1.485 0.99 1.485 2 3 C1.34 3 0.68 3 0 3 C0 2.01 0 1.02 0 0 Z " fill="#3F3F3F" transform="translate(78,287)"/>
<path d="M0 0 C0.99 0 1.98 0 3 0 C2.67 0.66 2.34 1.32 2 2 C1.34 1.34 0.68 0.68 0 0 Z " fill="#000000" transform="translate(46,244)"/>
<path d="M0 0 C1 4 1 4 1 4 Z " fill="#B83939" transform="translate(46,239)"/>
<path d="M0 0 C1 4 1 4 1 4 Z " fill="#783939" transform="translate(38,226)"/>
<path d="M0 0 C0 3 0 3 0 3 Z " fill="#832E2E" transform="translate(39,222)"/>
<path d="M0 0 C1 4 1 4 1 4 Z " fill="#704E4E" transform="translate(30,190)"/>
<path d="M0 0 C0.33 0.66 0.66 1.32 1 2 C0.34 1.67 -0.32 1.34 -1 1 C-0.67 0.67 -0.34 0.34 0 0 Z " fill="#1C1C1C" transform="translate(363,363)"/>
<path d="" fill="#000000" transform="translate(0,0)"/>
<path d="" fill="#000000" transform="translate(0,0)"/>
<path d="M0 0 C0.99 0.495 0.99 0.495 2 1 C1.01 1.495 1.01 1.495 0 2 C0 1.34 0 0.68 0 0 Z " fill="#000000" transform="translate(362,308)"/>
<path d="M0 0 C0.33 0.66 0.66 1.32 1 2 C0.34 1.67 -0.32 1.34 -1 1 C-0.67 0.67 -0.34 0.34 0 0 Z " fill="#7C1C1C" transform="translate(54,247)"/>
<path d="" fill="#AA0000" transform="translate(0,0)"/>
<path d="" fill="#634646" transform="translate(0,0)"/>
<path d="M0 0 C0.99 0.495 0.99 0.495 2 1 C1.01 1.495 1.01 1.495 0 2 C0 1.34 0 0.68 0 0 Z " fill="#212121" transform="translate(267,31)"/>
<path d="" fill="#7C1C1C" transform="translate(0,0)"/>
<path d="" fill="#2A2A2A" transform="translate(0,0)"/>
<path d="" fill="#3F3F1F" transform="translate(0,0)"/>
<path d="M0 0 C2 1 2 1 2 1 Z " fill="#323232" transform="translate(166,356)"/>
<path d="" fill="#E50000" transform="translate(0,0)"/>
<path d="M0 0 C2 1 2 1 2 1 Z " fill="#CBCB00" transform="translate(183,352)"/>
<path d="" fill="#000000" transform="translate(0,0)"/>
<path d="" fill="#323232" transform="translate(0,0)"/>
<path d="" fill="#2A2A2A" transform="translate(0,0)"/>
<path d="" fill="#323232" transform="translate(0,0)"/>
<path d="" fill="#2A2A2A" transform="translate(0,0)"/>
<path d="" fill="#3F3F3F" transform="translate(0,0)"/>
<path d="" fill="#A53F3F" transform="translate(0,0)"/>
<path d="" fill="#2A2A2A" transform="translate(0,0)"/>
<path d="" fill="#323232" transform="translate(0,0)"/>
<path d="" fill="#2A2A2A" transform="translate(0,0)"/>
<path d="" fill="#2A2A2A" transform="translate(0,0)"/>
<path d="" fill="#727272" transform="translate(0,0)"/>
<path d="" fill="#2A2A2A" transform="translate(0,0)"/>
<path d="" fill="#2A2A2A" transform="translate(0,0)"/>
<path d="" fill="#2A2A2A" transform="translate(0,0)"/>
<path d="" fill="#7F6565" transform="translate(0,0)"/>
<path d="" fill="#552A2A" transform="translate(0,0)"/>
<path d="" fill="#727272" transform="translate(0,0)"/>
<path d="" fill="#B23232" transform="translate(0,0)"/>
<path d="" fill="#B23232" transform="translate(0,0)"/>
<path d="M0 0 C2 1 2 1 2 1 Z " fill="#983232" transform="translate(324,151)"/>
<path d="" fill="#650000" transform="translate(0,0)"/>
<path d="" fill="#A53F3F" transform="translate(0,0)"/>
<path d="" fill="#3F3F3F" transform="translate(0,0)"/>
<path d="M0 0 C2 1 2 1 2 1 Z " fill="#983232" transform="translate(362,108)"/>
<path d="" fill="#727272" transform="translate(0,0)"/>
<path d="" fill="#2A2A2A" transform="translate(0,0)"/>
<path d="" fill="#2A2A2A" transform="translate(0,0)"/>
<path d="" fill="#000000" transform="translate(0,0)"/>
<path d="" fill="#2A2A2A" transform="translate(0,0)"/>
<path d="" fill="#000000" transform="translate(0,0)"/>
<path d="M0 0 C2 1 2 1 2 1 Z " fill="#000000" transform="translate(86,41)"/>
<path d="" fill="#3F3F3F" transform="translate(0,0)"/>
<path d="M0 0 C2 1 2 1 2 1 Z " fill="#323232" transform="translate(94,33)"/>
<path d="M0 0 C2 1 2 1 2 1 Z " fill="#323232" transform="translate(121,16)"/>
<path d="M0 0 C2 1 2 1 2 1 Z " fill="#323232" transform="translate(118,15)"/>
<path d="M0 0 C2 1 2 1 2 1 Z " fill="#983232" transform="translate(227,11)"/>
<path d="" fill="#552A2A" transform="translate(0,0)"/>
<path d="" fill="#2A2A2A" transform="translate(0,0)"/>
<path d="M0 0 C2 1 2 1 2 1 Z " fill="#CB6500" transform="translate(196,2)"/>
<path d="" fill="#000000" transform="translate(0,0)"/>
<path d="" fill="#656565" transform="translate(0,0)"/>
<path d="" fill="#000000" transform="translate(0,0)"/>
<path d="" fill="#000000" transform="translate(0,0)"/>
<path d="" fill="#000000" transform="translate(0,0)"/>
<path d="" fill="#656565" transform="translate(0,0)"/>
<path d="" fill="#656565" transform="translate(0,0)"/>
<path d="" fill="#000000" transform="translate(0,0)"/>
<path d="" fill="#000000" transform="translate(0,0)"/>
<path d="" fill="#000000" transform="translate(0,0)"/>
<path d="" fill="#656565" transform="translate(0,0)"/>
<path d="" fill="#656565" transform="translate(0,0)"/>
<path d="" fill="#000000" transform="translate(0,0)"/>
<path d="" fill="#656565" transform="translate(0,0)"/>
<path d="" fill="#000000" transform="translate(0,0)"/>
<path d="" fill="#656565" transform="translate(0,0)"/>
<path d="" fill="#656565" transform="translate(0,0)"/>
<path d="" fill="#000000" transform="translate(0,0)"/>
<path d="" fill="#000000" transform="translate(0,0)"/>
<path d="" fill="#000000" transform="translate(0,0)"/>
<path d="" fill="#000000" transform="translate(0,0)"/>
<path d="" fill="#656565" transform="translate(0,0)"/>
<path d="" fill="#000000" transform="translate(0,0)"/>
<path d="" fill="#000000" transform="translate(0,0)"/>
<path d="" fill="#CB0000" transform="translate(0,0)"/>
<path d="" fill="#000000" transform="translate(0,0)"/>
<path d="" fill="#000000" transform="translate(0,0)"/>
<path d="" fill="#CB0000" transform="translate(0,0)"/>
<path d="" fill="#000000" transform="translate(0,0)"/>
<path d="" fill="#656565" transform="translate(0,0)"/>
<path d="" fill="#656565" transform="translate(0,0)"/>
<path d="" fill="#000000" transform="translate(0,0)"/>
<path d="" fill="#000000" transform="translate(0,0)"/>
<path d="" fill="#000000" transform="translate(0,0)"/>
<path d="" fill="#656565" transform="translate(0,0)"/>
<path d="" fill="#656565" transform="translate(0,0)"/>
<path d="" fill="#000000" transform="translate(0,0)"/>
<path d="" fill="#CBCB00" transform="translate(0,0)"/>
<path d="" fill="#656565" transform="translate(0,0)"/>
<path d="" fill="#656565" transform="translate(0,0)"/>
<path d="" fill="#656565" transform="translate(0,0)"/>
<path d="" fill="#000000" transform="translate(0,0)"/>
<path d="" fill="#000000" transform="translate(0,0)"/>
<path d="" fill="#000000" transform="translate(0,0)"/>
<path d="" fill="#656565" transform="translate(0,0)"/>
<path d="" fill="#000000" transform="translate(0,0)"/>
<path d="" fill="#000000" transform="translate(0,0)"/>
<path d="" fill="#000000" transform="translate(0,0)"/>
<path d="" fill="#656565" transform="translate(0,0)"/>
<path d="" fill="#000000" transform="translate(0,0)"/>
<path d="" fill="#000000" transform="translate(0,0)"/>
<path d="" fill="#000000" transform="translate(0,0)"/>
<path d="" fill="#000000" transform="translate(0,0)"/>
<path d="" fill="#656565" transform="translate(0,0)"/>
<path d="" fill="#000000" transform="translate(0,0)"/>
<path d="" fill="#000000" transform="translate(0,0)"/>
<path d="" fill="#656565" transform="translate(0,0)"/>
<path d="" fill="#000000" transform="translate(0,0)"/>
<path d="" fill="#000000" transform="translate(0,0)"/>
<path d="" fill="#000000" transform="translate(0,0)"/>
<path d="" fill="#656565" transform="translate(0,0)"/>
<path d="" fill="#000000" transform="translate(0,0)"/>
<path d="" fill="#000000" transform="translate(0,0)"/>
<path d="" fill="#000000" transform="translate(0,0)"/>
<path d="" fill="#000000" transform="translate(0,0)"/>
<path d="" fill="#000000" transform="translate(0,0)"/>
<path d="" fill="#000000" transform="translate(0,0)"/>
<path d="" fill="#000000" transform="translate(0,0)"/>
<path d="" fill="#000000" transform="translate(0,0)"/>
<path d="" fill="#000000" transform="translate(0,0)"/>
<path d="" fill="#656565" transform="translate(0,0)"/>
<path d="" fill="#000000" transform="translate(0,0)"/>
<path d="" fill="#656565" transform="translate(0,0)"/>
<path d="" fill="#000000" transform="translate(0,0)"/>
<path d="" fill="#656565" transform="translate(0,0)"/>
<path d="" fill="#000000" transform="translate(0,0)"/>
<path d="" fill="#000000" transform="translate(0,0)"/>
<path d="" fill="#000000" transform="translate(0,0)"/>
<path d="" fill="#CB0000" transform="translate(0,0)"/>
<path d="" fill="#000000" transform="translate(0,0)"/>
<path d="" fill="#000000" transform="translate(0,0)"/>
<path d="" fill="#000000" transform="translate(0,0)"/>
<path d="" fill="#000000" transform="translate(0,0)"/>
<path d="" fill="#656565" transform="translate(0,0)"/>
<path d="" fill="#000000" transform="translate(0,0)"/>
<path d="" fill="#656565" transform="translate(0,0)"/>
<path d="" fill="#656565" transform="translate(0,0)"/>
<path d="" fill="#000000" transform="translate(0,0)"/>
<path d="" fill="#656565" transform="translate(0,0)"/>
<path d="" fill="#656565" transform="translate(0,0)"/>
<path d="" fill="#CB0000" transform="translate(0,0)"/>
<path d="" fill="#656565" transform="translate(0,0)"/>
<path d="" fill="#656565" transform="translate(0,0)"/>
<path d="" fill="#000000" transform="translate(0,0)"/>
<path d="" fill="#000000" transform="translate(0,0)"/>
<path d="" fill="#000000" transform="translate(0,0)"/>
<path d="" fill="#656565" transform="translate(0,0)"/>
<path d="" fill="#CB0000" transform="translate(0,0)"/>
<path d="" fill="#CB0000" transform="translate(0,0)"/>
<path d="" fill="#000000" transform="translate(0,0)"/>
<path d="" fill="#000000" transform="translate(0,0)"/>
<path d="" fill="#000000" transform="translate(0,0)"/>
<path d="" fill="#CB0000" transform="translate(0,0)"/>
<path d="" fill="#000000" transform="translate(0,0)"/>
<path d="" fill="#000000" transform="translate(0,0)"/>
<path d="" fill="#CB0000" transform="translate(0,0)"/>
<path d="" fill="#000000" transform="translate(0,0)"/>
<path d="" fill="#CB0000" transform="translate(0,0)"/>
<path d="" fill="#000000" transform="translate(0,0)"/>
<path d="" fill="#656565" transform="translate(0,0)"/>
<path d="" fill="#000000" transform="translate(0,0)"/>
<path d="" fill="#656565" transform="translate(0,0)"/>
<path d="" fill="#000000" transform="translate(0,0)"/>
<path d="" fill="#000000" transform="translate(0,0)"/>
<path d="" fill="#000000" transform="translate(0,0)"/>
<path d="" fill="#656565" transform="translate(0,0)"/>
<path d="" fill="#000000" transform="translate(0,0)"/>
<path d="" fill="#656565" transform="translate(0,0)"/>
<path d="" fill="#CB0000" transform="translate(0,0)"/>
<path d="" fill="#656565" transform="translate(0,0)"/>
<path d="" fill="#CB0000" transform="translate(0,0)"/>
<path d="" fill="#656565" transform="translate(0,0)"/>
<path d="" fill="#CB0000" transform="translate(0,0)"/>
<path d="" fill="#CB0000" transform="translate(0,0)"/>
<path d="" fill="#CB0000" transform="translate(0,0)"/>
<path d="" fill="#CB0000" transform="translate(0,0)"/>
<path d="" fill="#CB0000" transform="translate(0,0)"/>
<path d="" fill="#656565" transform="translate(0,0)"/>
<path d="" fill="#CB0000" transform="translate(0,0)"/>
<path d="" fill="#CB0000" transform="translate(0,0)"/>
<path d="" fill="#CB0000" transform="translate(0,0)"/>
<path d="" fill="#656565" transform="translate(0,0)"/>
<path d="" fill="#656565" transform="translate(0,0)"/>
<path d="" fill="#656565" transform="translate(0,0)"/>
<path d="" fill="#CB0000" transform="translate(0,0)"/>
<path d="" fill="#CB0000" transform="translate(0,0)"/>
<path d="" fill="#CB0000" transform="translate(0,0)"/>
<path d="" fill="#656565" transform="translate(0,0)"/>
<path d="" fill="#CB0000" transform="translate(0,0)"/>
<path d="" fill="#CB0000" transform="translate(0,0)"/>
<path d="" fill="#656565" transform="translate(0,0)"/>
<path d="" fill="#CB0000" transform="translate(0,0)"/>
<path d="" fill="#CB0000" transform="translate(0,0)"/>
<path d="" fill="#656565" transform="translate(0,0)"/>
<path d="" fill="#CB0000" transform="translate(0,0)"/>
<path d="" fill="#CB0000" transform="translate(0,0)"/>
<path d="" fill="#CB0000" transform="translate(0,0)"/>
<path d="" fill="#000000" transform="translate(0,0)"/>
<path d="" fill="#CB0000" transform="translate(0,0)"/>
<path d="" fill="#656565" transform="translate(0,0)"/>
<path d="" fill="#CB0000" transform="translate(0,0)"/>
<path d="" fill="#656565" transform="translate(0,0)"/>
<path d="" fill="#CB0000" transform="translate(0,0)"/>
<path d="" fill="#CB0000" transform="translate(0,0)"/>
<path d="" fill="#CB0000" transform="translate(0,0)"/>
<path d="" fill="#000000" transform="translate(0,0)"/>
<path d="" fill="#CB0000" transform="translate(0,0)"/>
<path d="" fill="#CB0000" transform="translate(0,0)"/>
<path d="" fill="#CB0000" transform="translate(0,0)"/>
<path d="" fill="#656565" transform="translate(0,0)"/>
<path d="" fill="#CB0000" transform="translate(0,0)"/>
<path d="" fill="#000000" transform="translate(0,0)"/>
<path d="" fill="#CB0000" transform="translate(0,0)"/>
<path d="" fill="#000000" transform="translate(0,0)"/>
<path d="" fill="#656565" transform="translate(0,0)"/>
<path d="" fill="#656565" transform="translate(0,0)"/>
<path d="" fill="#CB0000" transform="translate(0,0)"/>
<path d="" fill="#CB0000" transform="translate(0,0)"/>
<path d="" fill="#CB0000" transform="translate(0,0)"/>
<path d="" fill="#656565" transform="translate(0,0)"/>
<path d="" fill="#656565" transform="translate(0,0)"/>
<path d="" fill="#000000" transform="translate(0,0)"/>
<path d="" fill="#CB0000" transform="translate(0,0)"/>
<path d="" fill="#656565" transform="translate(0,0)"/>
<path d="" fill="#CB0000" transform="translate(0,0)"/>
<path d="" fill="#CB0000" transform="translate(0,0)"/>
<path d="" fill="#656565" transform="translate(0,0)"/>
<path d="" fill="#656565" transform="translate(0,0)"/>
<path d="" fill="#CB0000" transform="translate(0,0)"/>
<path d="" fill="#000000" transform="translate(0,0)"/>
<path d="" fill="#000000" transform="translate(0,0)"/>
<path d="" fill="#000000" transform="translate(0,0)"/>
<path d="" fill="#CB0000" transform="translate(0,0)"/>
<path d="" fill="#656565" transform="translate(0,0)"/>
<path d="" fill="#CB0000" transform="translate(0,0)"/>
<path d="" fill="#CB0000" transform="translate(0,0)"/>
<path d="" fill="#CB0000" transform="translate(0,0)"/>
<path d="" fill="#000000" transform="translate(0,0)"/>
<path d="" fill="#000000" transform="translate(0,0)"/>
<path d="" fill="#000000" transform="translate(0,0)"/>
<path d="" fill="#000000" transform="translate(0,0)"/>
<path d="" fill="#CB0000" transform="translate(0,0)"/>
<path d="" fill="#656565" transform="translate(0,0)"/>
<path d="" fill="#CB0000" transform="translate(0,0)"/>
<path d="" fill="#000000" transform="translate(0,0)"/>
<path d="" fill="#000000" transform="translate(0,0)"/>
<path d="" fill="#000000" transform="translate(0,0)"/>
<path d="" fill="#000000" transform="translate(0,0)"/>
<path d="" fill="#CB0000" transform="translate(0,0)"/>
<path d="" fill="#656565" transform="translate(0,0)"/>
<path d="" fill="#000000" transform="translate(0,0)"/>
<path d="" fill="#000000" transform="translate(0,0)"/>
<path d="" fill="#656565" transform="translate(0,0)"/>
<path d="" fill="#000000" transform="translate(0,0)"/>
<path d="" fill="#000000" transform="translate(0,0)"/>
<path d="" fill="#000000" transform="translate(0,0)"/>
<path d="" fill="#000000" transform="translate(0,0)"/>
<path d="" fill="#656565" transform="translate(0,0)"/>
<path d="" fill="#000000" transform="translate(0,0)"/>
<path d="" fill="#000000" transform="translate(0,0)"/>
<path d="" fill="#656565" transform="translate(0,0)"/>
<path d="" fill="#656565" transform="translate(0,0)"/>
<path d="" fill="#000000" transform="translate(0,0)"/>
<path d="" fill="#656565" transform="translate(0,0)"/>
<path d="" fill="#656565" transform="translate(0,0)"/>
<path d="" fill="#CB0000" transform="translate(0,0)"/>
<path d="" fill="#000000" transform="translate(0,0)"/>
<path d="" fill="#000000" transform="translate(0,0)"/>
<path d="" fill="#000000" transform="translate(0,0)"/>
<path d="" fill="#000000" transform="translate(0,0)"/>
<path d="" fill="#656565" transform="translate(0,0)"/>
<path d="" fill="#656565" transform="translate(0,0)"/>
<path d="" fill="#656565" transform="translate(0,0)"/>
<path d="" fill="#656565" transform="translate(0,0)"/>
<path d="" fill="#000000" transform="translate(0,0)"/>
<path d="" fill="#000000" transform="translate(0,0)"/>
<path d="" fill="#000000" transform="translate(0,0)"/>
<path d="" fill="#000000" transform="translate(0,0)"/>
<path d="" fill="#CB0000" transform="translate(0,0)"/>
<path d="" fill="#656565" transform="translate(0,0)"/>
<path d="" fill="#000000" transform="translate(0,0)"/>
<path d="" fill="#000000" transform="translate(0,0)"/>
<path d="" fill="#656565" transform="translate(0,0)"/>
<path d="" fill="#000000" transform="translate(0,0)"/>
<path d="" fill="#000000" transform="translate(0,0)"/>
<path d="" fill="#000000" transform="translate(0,0)"/>
<path d="" fill="#000000" transform="translate(0,0)"/>
<path d="" fill="#656565" transform="translate(0,0)"/>
<path d="" fill="#656565" transform="translate(0,0)"/>
<path d="" fill="#CB0000" transform="translate(0,0)"/>
<path d="" fill="#656565" transform="translate(0,0)"/>
<path d="" fill="#656565" transform="translate(0,0)"/>
<path d="" fill="#CB0000" transform="translate(0,0)"/>
<path d="" fill="#656565" transform="translate(0,0)"/>
<path d="" fill="#CBCB00" transform="translate(0,0)"/>
<path d="" fill="#000000" transform="translate(0,0)"/>
<path d="" fill="#000000" transform="translate(0,0)"/>
<path d="" fill="#000000" transform="translate(0,0)"/>
<path d="" fill="#656565" transform="translate(0,0)"/>
<path d="" fill="#CBCB00" transform="translate(0,0)"/>
<path d="" fill="#CB0000" transform="translate(0,0)"/>
<path d="" fill="#CBCB00" transform="translate(0,0)"/>
<path d="" fill="#CBCB00" transform="translate(0,0)"/>
<path d="" fill="#CB0000" transform="translate(0,0)"/>
<path d="" fill="#CB0000" transform="translate(0,0)"/>
<path d="" fill="#656565" transform="translate(0,0)"/>
<path d="" fill="#656565" transform="translate(0,0)"/>
<path d="" fill="#CB0000" transform="translate(0,0)"/>
</svg>
