<?xml version="1.0" encoding="UTF-8"?>
<svg version="1.1" xmlns="http://www.w3.org/2000/svg" width="370" height="370">
<path d="M0 0 C1.23937317 -0.00860046 2.47874634 -0.01720093 3.75567627 -0.02606201 C5.13677937 -0.03049739 6.51788291 -0.03479573 7.89898682 -0.03897095 C9.34765826 -0.04687112 10.79632773 -0.05514001 12.24499512 -0.06375122 C17.01017372 -0.08998304 21.77536116 -0.10528082 26.54058838 -0.11953735 C28.18048356 -0.12489671 29.82037868 -0.13027422 31.46027374 -0.13566971 C38.28184624 -0.15730087 45.10341637 -0.1760375 51.9250145 -0.1872921 C61.7032781 -0.20353034 71.48114427 -0.23670203 81.25925803 -0.29369295 C88.13322067 -0.33239182 95.007077 -0.35192476 101.88114572 -0.35721266 C105.98726669 -0.36086648 110.09296389 -0.37289008 114.19896698 -0.4053154 C118.06342082 -0.43539521 121.92719448 -0.44170863 125.79174042 -0.42993164 C127.20829809 -0.42971089 128.62488731 -0.43801769 130.04133606 -0.45558548 C142.07304298 -0.59665967 142.07304298 -0.59665967 146.01443481 2.5375061 C149.01286315 6.15812067 149.25559188 8.31147585 149.07037354 12.89950562 C148.95484131 13.92962769 148.83930908 14.95974976 148.72027588 16.02108765 C148.58307129 17.26317993 148.4458667 18.50527222 148.30450439 19.78500366 C148.13892704 21.19969674 147.97280564 22.61432622 147.80621338 24.02890015 C147.63156236 25.55485008 147.45700608 27.08081086 147.28253174 28.60678101 C145.32160973 45.55192486 143.1700878 62.47551004 141.03575897 79.39954376 C140.74929083 81.67215308 140.46353722 83.9448514 140.17785645 86.21755981 C138.18087997 102.08263503 136.12526461 117.9402946 133.91551018 133.77728081 C133.70874194 135.26437466 133.50418627 136.75177827 133.30212593 138.23951912 C132.05437468 147.39734359 130.32421976 156.28474267 127.93121338 165.21640015 C124.33235094 179.47499853 124.27276614 193.68517188 124.2913208 208.31015015 C124.20786206 211.22361894 124.00727891 213.99605847 123.68780518 216.88412476 C123.08105814 222.58244985 123.01064463 228.24387378 122.97027588 233.9703064 C122.9422252 236.22096493 122.91356088 238.47161589 122.88433838 240.72225952 C122.84305237 244.22640917 122.80610835 247.7304143 122.77984619 251.23471069 C122.75213814 254.64686196 122.70629589 258.05839585 122.65777588 261.4703064 C122.65452301 262.50804703 122.65127014 263.54578766 122.6479187 264.61497498 C122.51903355 272.30228844 121.67655915 280.23828447 116.18121338 286.09140015 C115.68621338 286.63667358 115.19121338 287.18194702 114.68121338 287.7437439 C109.53482967 292.58188066 103.7238961 292.27815573 97.00177002 292.31503296 C95.96393623 292.32248032 95.96393623 292.32248032 94.90513611 292.33007812 C92.63387023 292.34459131 90.3626741 292.3514822 88.09136963 292.35702515 C87.31126463 292.35985252 86.53115963 292.3626799 85.72741508 292.36559296 C81.60206645 292.38053884 77.4767524 292.38979832 73.35137939 292.39413452 C69.10350052 292.39962366 64.85594142 292.423674 60.60816288 292.45210648 C57.3283751 292.4707769 54.04866386 292.47594071 50.76882744 292.4774704 C49.20321332 292.48048566 47.63760019 292.48847596 46.07203865 292.50165558 C43.87779794 292.51881509 41.68433284 292.51681267 39.49005127 292.51034546 C38.24462051 292.51399109 36.99918976 292.51763672 35.71601868 292.52139282 C29.61901234 291.88752335 24.60970893 289.45938193 20.18121338 285.15390015 C14.1434873 275.88167795 16.1049644 263.09892806 16.27716064 252.46298218 C16.30814206 250.40942653 16.32537068 248.35605815 16.34136963 246.30233765 C16.35820801 245.09754761 16.37504639 243.89275757 16.39239502 242.65145874 C16.25306035 236.8320756 15.29019327 231.09190481 14.48161888 225.33598709 C13.94958007 221.47136099 13.46622755 217.60062805 12.97955322 213.73007202 C12.87380698 212.89247251 12.76806074 212.05487299 12.65911007 211.19189167 C12.31963854 208.50220545 11.98090284 205.81242708 11.64215088 203.12265015 C11.39784018 201.18618605 11.15347439 199.24972891 10.90905762 197.3132782 C10.25863654 192.15921858 9.60881026 187.00508418 8.95917511 181.85092545 C7.73690614 172.1536651 6.51397743 162.456488 5.29058838 152.7593689 C5.15586246 151.69131201 5.02113655 150.62325512 4.88232803 149.52283287 C3.20759845 136.24855215 1.52399607 122.97547287 -0.17816162 109.7046814 C-3.34347509 85.01368739 -6.44632397 60.31843283 -9.31878662 35.59140015 C-9.51441193 33.91879623 -9.51441193 33.91879623 -9.71398926 32.21240234 C-10.07587143 29.10871444 -10.43272975 26.00449766 -10.78753662 22.8999939 C-10.94622726 21.54087387 -10.94622726 21.54087387 -11.10812378 20.15429688 C-12.57175985 7.16501335 -12.57175985 7.16501335 -7.81878662 1.15390015 C-5.12214406 -0.19442113 -3.02060952 0.0155595 0 0 Z M0.18121338 10.15390015 C0.18121338 13.12390015 0.18121338 16.09390015 0.18121338 19.15390015 C17.89613805 19.17722847 35.61105875 19.19487899 53.32599545 19.20571232 C61.55077057 19.21087542 69.77553617 19.21791838 78.00030518 19.2293396 C85.16641784 19.23928601 92.33252361 19.24575347 99.49864298 19.24798864 C103.29538327 19.24929582 107.09210383 19.25238213 110.88883781 19.2596302 C114.4584024 19.26638975 118.02793901 19.26851724 121.59750938 19.26700783 C123.54036184 19.2674165 125.48321122 19.27281204 127.42605591 19.27832031 C128.57175552 19.27694565 129.71745514 19.27557098 130.89787292 19.27415466 C132.40085639 19.27553735 132.40085639 19.27553735 133.93420315 19.27694798 C136.15135358 19.40622169 136.15135358 19.40622169 137.18121338 18.15390015 C137.18121338 15.51390015 137.18121338 12.87390015 137.18121338 10.15390015 C91.97121338 10.15390015 46.76121338 10.15390015 0.18121338 10.15390015 Z M1.18121338 28.15390015 C3.11397937 59.61600298 3.11397937 59.61600298 9.18121338 90.15390015 C9.3383107 91.85382071 9.45428142 93.5576095 9.55059814 95.26205444 C10.34289496 106.36233452 11.87705373 117.38599008 13.27105713 128.4234314 C13.57885264 130.87431706 13.88651333 133.32521965 14.19404602 135.77613831 C14.8366281 140.89085738 15.48163756 146.00526336 16.12823486 151.11947632 C16.95524704 157.66316298 17.77492159 164.20774544 18.59264278 170.75259876 C19.22494681 175.80512711 19.86175305 180.85708044 20.49984932 185.90888023 C20.80397795 188.32194513 21.10657073 190.73520412 21.40757561 193.14866066 C21.82867595 196.52056304 22.25599701 199.89162204 22.68487549 203.26254272 C22.80702423 204.25128891 22.92917297 205.2400351 23.05502319 206.25874329 C23.17412552 207.18492462 23.29322784 208.11110596 23.41593933 209.06535339 C23.51603774 209.85964658 23.61613615 210.65393976 23.71926785 211.47230244 C24.33956754 215.0731474 25.29501674 218.6091136 26.18121338 222.15390015 C54.23121338 222.15390015 82.28121338 222.15390015 111.18121338 222.15390015 C112.78371817 216.06532112 112.78371817 216.06532112 113.75616455 210.01596069 C113.8338356 209.29798309 113.91150665 208.58000549 113.99153137 207.840271 C114.06830612 207.0813858 114.14508087 206.32250061 114.22418213 205.5406189 C114.40836628 203.83071526 114.59278544 202.12083693 114.77740479 200.41098022 C114.87289612 199.50892853 114.96838745 198.60687683 115.06677246 197.67749023 C116.85339816 180.89595739 118.94412914 164.17579956 121.30621338 147.46640015 C124.71760715 123.23331283 127.7770853 98.95806938 130.79701996 74.67358017 C131.18118411 71.59163498 131.56783533 68.5100112 131.9552002 65.4284668 C132.56861665 60.54607591 133.17570692 55.66293967 133.77780533 50.77914047 C134.00410429 48.95090407 134.23244727 47.12291946 134.46288681 45.29520035 C134.77972807 42.77798974 135.08890771 40.25995548 135.39605713 37.74154663 C135.49152895 36.9965305 135.58700077 36.25151438 135.68536568 35.483922 C136.24885382 31.70986979 136.24885382 31.70986979 135.18121338 28.15390015 C90.96121338 28.15390015 46.74121338 28.15390015 1.18121338 28.15390015 Z M27.18121338 231.15390015 C27.18121338 241.71390015 27.18121338 252.27390015 27.18121338 263.15390015 C34.11121338 263.15390015 41.04121338 263.15390015 48.18121338 263.15390015 C49.17121338 261.17390015 50.16121338 259.19390015 51.18121338 257.15390015 C55.20402785 251.91205099 59.82422658 250.17426877 66.18121338 249.15390015 C72.84498419 248.92251922 79.92710894 249.71179366 85.18121338 254.15390015 C85.98171178 255.72244431 86.75066069 257.30734098 87.49371338 258.90390015 C88.75415203 261.43270638 88.75415203 261.43270638 91.18121338 263.15390015 C97.40303939 264.35687274 103.91135997 263.65672997 110.18121338 263.15390015 C114.9538204 253.6086861 111.18121338 241.82577388 111.18121338 231.15390015 C83.46121338 231.15390015 55.74121338 231.15390015 27.18121338 231.15390015 Z M27.18121338 271.15390015 C27.50480265 274.71338216 27.79131277 276.68853491 30.11871338 279.46640015 C35.07665101 283.52289458 41.37864665 282.53058012 47.50958252 282.71151733 C49.71102667 282.77791429 51.9118361 282.85600353 54.112854 282.93515015 C60.41798386 283.14249755 66.56323114 283.26808836 72.82696533 282.38534546 C79.80973423 281.69887186 86.95351177 282.16700248 93.96051025 282.28085327 C95.2154126 282.2918103 96.47031494 282.30276733 97.76324463 282.3140564 C98.89995605 282.33089478 100.03666748 282.34773315 101.20782471 282.36508179 C104.15536669 282.15573588 105.74506396 281.77741948 108.18121338 280.15390015 C110.68216611 276.75975002 111.18121338 275.47980068 111.18121338 271.15390015 C108.16616526 269.64637609 105.05628074 270.01529675 101.74981689 270.02450562 C100.98381165 270.0227533 100.2178064 270.02100098 99.42858887 270.01919556 C96.88907627 270.0147839 94.34963297 270.01771292 91.81011963 270.02108765 C90.04896532 270.02041434 88.2878111 270.01944409 86.5266571 270.01818848 C82.83199175 270.01671238 79.13735054 270.01886299 75.44268799 270.02352905 C70.70342108 270.02922211 65.96421085 270.02594946 61.22494602 270.01995659 C57.58674186 270.01634505 53.94855116 270.01749237 50.3103466 270.02008438 C48.56281464 270.02075222 46.81528147 270.01993019 45.06775093 270.01760483 C42.62580245 270.01506908 40.18394601 270.01893216 37.74200439 270.02450562 C36.65483376 270.02146927 36.65483376 270.02146927 35.54570007 270.01837158 C32.47824891 270.03136002 30.11591394 270.17566663 27.18121338 271.15390015 Z " fill="#696967" transform="translate(108.81878662109375,42.846099853515625)"/>
<path d="M0 0 C2.35247704 0.37152508 3.64642575 0.58776665 5.22583008 2.42919922 C5.57025146 3.04811035 5.91467285 3.66702148 6.26953125 4.3046875 C6.67574707 5.01963379 7.08196289 5.73458008 7.50048828 6.47119141 C7.93345215 7.26444824 8.36641602 8.05770508 8.8125 8.875 C9.27897949 9.70563965 9.74545898 10.5362793 10.22607422 11.39208984 C11.26132717 13.24049181 12.29027304 15.09243582 13.31396484 16.94726562 C15.10853393 20.19651148 16.9221111 23.43465746 18.73828125 26.671875 C22.52280297 33.43117576 26.27107423 40.2098888 30 47 C30.49935059 47.90782227 30.99870117 48.81564453 31.51318359 49.75097656 C32.78882646 52.07914951 34.05357559 54.41275413 35.3125 56.75 C35.66715332 57.39791504 36.02180664 58.04583008 36.38720703 58.71337891 C40.87685939 67.14691798 42.26445146 74.86768202 39.8125 84.0625 C36.89239657 92.84972368 32.06283094 97.55666436 24 102 C16.11081655 105.7477267 8.17672603 106.15273766 -0.4375 106.0625 C-1.26443359 106.05798828 -2.09136719 106.05347656 -2.94335938 106.04882812 C-4.96227146 106.03715811 -6.98114574 106.01922718 -9 106 C-9 105.34 -9 104.68 -9 104 C-9.825 103.938125 -10.65 103.87625 -11.5 103.8125 C-19.58705763 101.93514734 -25.2415522 96.62648566 -30 90 C-34.94882361 81.20813388 -35.04900851 71.5228972 -32.875 61.875 C-30.4083936 53.82378826 -26.11951156 46.9453813 -21.78759766 39.76831055 C-16.25673225 30.58856068 -11.30963151 21.1872397 -6.44384766 11.64575195 C-5.89003418 10.5599585 -5.3362207 9.47416504 -4.765625 8.35546875 C-4.27868164 7.39278076 -3.79173828 6.43009277 -3.29003906 5.43823242 C-2 3 -2 3 0 0 Z M-7 40 C-7.33 41.65 -7.66 43.3 -8 45 C-7.34 44.01 -6.68 43.02 -6 42 C-6.33 41.34 -6.66 40.68 -7 40 Z M-10 44 C-14.1879156 49.33690782 -17.59309598 54.66604204 -20 61 C-20.33902344 61.63679688 -20.67804688 62.27359375 -21.02734375 62.9296875 C-23.58224334 68.36782719 -23.41692894 74.48398161 -21.7265625 80.15234375 C-19.72312805 85.24709911 -16.65146119 89.14569427 -12 92 C-9.29815944 92.59873189 -6.7764597 92.81176544 -4 93 C-4.66 92.67 -5.32 92.34 -6 92 C-6 91.34 -6 90.68 -6 90 C-6.66 90 -7.32 90 -8 90 C-8.48108275 88.58398286 -8.95978141 87.16715563 -9.4375 85.75 C-9.70433594 84.96109375 -9.97117187 84.1721875 -10.24609375 83.359375 C-13.73894417 72.42838198 -12.78829614 61.31372849 -8.77734375 50.671875 C-7.97144909 47.9018652 -7.99431886 46.65651621 -9 44 C-9.33 44 -9.66 44 -10 44 Z " fill="#6D6D6C" transform="translate(274,153)"/>
<path d="M0 0 C19.35806042 -0.09339797 38.71607519 -0.16395691 58.07431412 -0.20724869 C67.06247739 -0.22788316 76.05050075 -0.2560206 85.03857422 -0.30175781 C92.87162898 -0.34159857 100.70458243 -0.36742637 108.5377357 -0.37635398 C112.68624711 -0.38157345 116.83446866 -0.3938592 120.98288727 -0.42292023 C124.88661768 -0.45004589 128.78993849 -0.45845089 132.6937542 -0.45243073 C134.12727267 -0.45353225 135.56080467 -0.46150347 136.99424171 -0.4768219 C138.95018253 -0.49670089 140.90634254 -0.48955955 142.86236572 -0.48101807 C144.50500082 -0.48654882 144.50500082 -0.48654882 146.18082047 -0.49219131 C149.6763682 0.11808491 150.83510984 1.24506445 153 4 C154.22245418 7.7409397 153.97396112 10.98949311 153.5390625 14.8671875 C153.40185791 16.10927979 153.26465332 17.35137207 153.12329102 18.63110352 C152.95771366 20.04579659 152.79159226 21.46042608 152.625 22.875 C152.45034898 24.40094993 152.2757927 25.92691071 152.10131836 27.45288086 C150.14039636 44.39802472 147.98887442 61.3216099 145.85454559 78.24564362 C145.56807745 80.51825293 145.28232384 82.79095126 144.99664307 85.06365967 C142.99966659 100.92873489 140.94405123 116.78639445 138.7342968 132.62338066 C138.52752856 134.11047451 138.3229729 135.59787812 138.12091255 137.08561897 C136.8731613 146.24344344 135.14300638 155.13084252 132.75 164.0625 C129.12409131 178.42825493 129.17713449 192.68252962 129.07958984 207.40625 C128.97841835 211.97448443 128.59130487 216.4709721 128 221 C127.01 221 126.02 221 125 221 C125 206.48 125 191.96 125 177 C124.34 177 123.68 177 123 177 C123.4723508 162.04430344 124.87516886 147.37924186 126.8359375 132.55078125 C127.11956699 130.35631741 127.4023961 128.16175 127.68447876 125.96708679 C128.42242556 120.24050425 129.16999902 114.51522311 129.92010498 108.79022217 C131.11353519 99.66631769 132.29096893 90.5403231 133.47116852 81.41469955 C133.89397065 78.14779564 134.31790863 74.88104038 134.74188232 71.61428833 C136.62327722 57.08972084 138.41282796 42.56006093 140 28 C139.05259193 28.00333092 139.05259193 28.00333092 138.08604431 28.00672913 C106.2088514 28.11296574 74.33409548 28.06997304 42.45877075 27.68161011 C39.27445406 27.64287978 36.09013903 27.60870261 32.9057312 27.57839966 C29.14176441 27.54213851 25.37804871 27.49601408 21.61429596 27.44199944 C20.22363522 27.42352173 18.83292628 27.40834765 17.44219208 27.39663887 C15.54298222 27.37992921 13.64390476 27.34976464 11.74487305 27.31884766 C10.6780278 27.30552399 9.61118256 27.29220032 8.51200867 27.2784729 C6 27 6 27 4 25 C4.99 24.67 5.98 24.34 7 24 C7 23.34 7 22.68 7 22 C6.01 21.67 5.02 21.34 4 21 C4 20.34 4 19.68 4 19 C49.87 18.67 95.74 18.34 143 18 C143.69969724 12.00996002 143.69969724 12.00996002 144 6 C138.39 6 132.78 6 127 6 C127 5.67 127 5.34 127 5 C128.65 4.67 130.3 4.34 132 4 C132.33 3.01 132.66 2.02 133 1 C89.11 1 45.22 1 0 1 C0 0.67 0 0.34 0 0 Z " fill="#626260" transform="translate(104,44)"/>
<path d="M0 0 C1.23262825 -0.01336143 1.23262825 -0.01336143 2.49015808 -0.0269928 C5.19933103 -0.04825732 7.90612033 -0.02598057 10.61523438 -0.0012207 C12.50183352 -0.00272339 14.38843204 -0.00615408 16.27502441 -0.01142883 C20.22614647 -0.01575912 24.17645204 0.00106867 28.12744141 0.03320312 C33.18862737 0.07298448 38.24828239 0.06368398 43.30951691 0.03896809 C47.20441202 0.02477657 51.09895032 0.03487837 54.99382019 0.0524807 C56.85970711 0.05832537 58.72563061 0.05703571 60.59150696 0.04845619 C63.20115117 0.04045273 65.80856207 0.06473387 68.41796875 0.09765625 C69.18694992 0.08910614 69.95593109 0.08055603 70.74821472 0.07174683 C74.7243729 0.15820758 76.52497496 0.61428838 79.6763916 3.11833191 C82.19253601 6.38906652 82.61870276 8.76727278 82.70898438 12.76049805 C82.73605469 13.73889648 82.763125 14.71729492 82.79101562 15.7253418 C82.83741837 19.40803273 82.78848131 23.07834445 82.70898438 26.76049805 C82.69641602 27.49316895 82.68384766 28.22583984 82.67089844 28.98071289 C82.62324324 31.26281348 82.54532746 33.54206047 82.45898438 35.82299805 C82.44496582 36.53697754 82.43094727 37.25095703 82.41650391 37.98657227 C82.18841172 42.77196901 81.22568416 45.468405 77.70898438 48.76049805 C76.71898437 48.76049805 75.72898437 48.76049805 74.70898438 48.76049805 C74.70898438 49.42049805 74.70898438 50.08049805 74.70898438 50.76049805 C65.21603555 50.80697657 55.7231263 50.84244577 46.23008823 50.86412239 C41.8214012 50.8745296 37.41279241 50.88863245 33.00415039 50.91137695 C28.74420853 50.93321508 24.48434162 50.94508968 20.22434807 50.95025253 C18.60457112 50.95392869 16.98479795 50.96110698 15.36505318 50.97195816 C-5.26637676 51.10459316 -5.26637676 51.10459316 -10.79101562 46.82299805 C-14.79149313 41.32234148 -13.59265148 33.45053413 -13.64111328 26.91015625 C-13.65766198 25.27394374 -13.68493823 23.63780321 -13.72314453 22.00195312 C-13.77812318 19.63332939 -13.79981629 17.26639399 -13.81445312 14.8972168 C-13.8371225 14.1720134 -13.85979187 13.44681 -13.88314819 12.69963074 C-13.86443509 8.16527306 -12.9078469 5.4113902 -9.89289284 2.01170635 C-6.94439768 -0.29133011 -3.56519973 -0.06359299 0 0 Z M-2.29101562 9.76049805 C-3.08240622 13.71745102 -3.40899045 16.75540815 -3.38867188 20.7175293 C-3.38544922 21.8293457 -3.38222656 22.94116211 -3.37890625 24.08666992 C-3.37052734 25.2371582 -3.36214844 26.38764648 -3.35351562 27.57299805 C-3.34900391 28.74282227 -3.34449219 29.91264648 -3.33984375 31.11791992 C-3.32808493 33.99883163 -3.31164988 36.87963848 -3.29101562 39.76049805 C5.44533207 40.51201183 14.12793571 40.86726032 22.89648438 40.88549805 C23.80487061 40.89000977 24.71325684 40.89452148 25.64916992 40.89916992 C26.93754761 40.89626953 26.93754761 40.89626953 28.25195312 40.89331055 C29.01531982 40.89218262 29.77868652 40.89105469 30.56518555 40.88989258 C32.71500078 40.83629297 32.71500078 40.83629297 34.73754883 40.18969727 C37.09554577 39.67634016 38.39792103 40.12846318 40.70898438 40.76049805 C42.5053881 40.85179098 44.30479495 40.89115214 46.10351562 40.89331055 C47.66102539 40.89524414 47.66102539 40.89524414 49.25 40.8972168 C50.32958984 40.89334961 51.40917969 40.88948242 52.52148438 40.88549805 C53.58947266 40.88936523 54.65746094 40.89323242 55.7578125 40.8972168 C61.18164083 40.89050829 66.36740929 40.72060997 71.70898438 39.76049805 C71.87846636 36.40646751 72.04405744 33.05225541 72.20898438 29.69799805 C72.25667969 28.75504883 72.304375 27.81209961 72.35351562 26.84057617 C73.34235437 18.07644464 73.34235437 18.07644464 71.70898438 9.76049805 C47.28898437 9.76049805 22.86898437 9.76049805 -2.29101562 9.76049805 Z " fill="#6A6A68" transform="translate(142.291015625,132.239501953125)"/>
<path d="M0 0 C1.04131577 -0.00570007 2.08263153 -0.01140015 3.15550232 -0.01727295 C5.33095305 -0.02663223 7.50641738 -0.03322027 9.68188477 -0.03710938 C13.01928469 -0.04694333 16.35610003 -0.07810117 19.69335938 -0.109375 C21.81640263 -0.11589455 23.93945023 -0.12114911 26.0625 -0.125 C27.0593129 -0.1373468 28.05612579 -0.1496936 29.08314514 -0.16241455 C30.46620094 -0.1579129 30.46620094 -0.1579129 31.87719727 -0.15332031 C32.68705582 -0.15696594 33.49691437 -0.16061157 34.33131409 -0.16436768 C36.99858781 0.30188977 37.86577085 1.01437012 39.43359375 3.203125 C39.83232117 5.1204071 39.83232117 5.1204071 39.8659668 7.30737305 C39.88576096 8.12799728 39.90555511 8.94862152 39.9259491 9.79411316 C39.93233902 10.67545425 39.93872894 11.55679535 39.9453125 12.46484375 C39.9632637 13.37063675 39.9812149 14.27642975 39.99971008 15.20967102 C40.05390034 18.10327496 40.08773661 20.99671315 40.12109375 23.890625 C40.15425914 25.85223665 40.18874807 27.81382641 40.22460938 29.77539062 C40.30963181 34.58451597 40.37640135 39.39359141 40.43359375 44.203125 C38.49609375 44.765625 38.49609375 44.765625 36.43359375 45.203125 C36.10359375 44.873125 35.77359375 44.543125 35.43359375 44.203125 C33.09105593 44.10819778 30.77813271 44.07752709 28.43530273 44.08959961 C27.70363892 44.08945358 26.9719751 44.08930756 26.21813965 44.0891571 C23.78862591 44.08985633 21.35918792 44.09764915 18.9296875 44.10546875 C17.24959861 44.1073329 15.56950918 44.10875681 13.88941956 44.10975647 C9.45885732 44.11358193 5.02832765 44.12341244 0.59777832 44.13446045 C-3.91983601 44.14467397 -8.43745559 44.14925396 -12.95507812 44.15429688 C-21.82553518 44.16503469 -30.69596801 44.18211144 -39.56640625 44.203125 C-38.90640625 42.883125 -38.24640625 41.563125 -37.56640625 40.203125 C-34.59640625 40.203125 -31.62640625 40.203125 -28.56640625 40.203125 C-28.56640625 39.543125 -28.56640625 38.883125 -28.56640625 38.203125 C-29.22640625 37.873125 -29.88640625 37.543125 -30.56640625 37.203125 C-29.5151355 37.21098022 -29.5151355 37.21098022 -28.44262695 37.21899414 C-25.25472924 37.23983352 -22.06684589 37.25280732 -18.87890625 37.265625 C-17.2247168 37.27819336 -17.2247168 37.27819336 -15.53710938 37.29101562 C-14.47041016 37.29423828 -13.40371094 37.29746094 -12.3046875 37.30078125 C-11.32540283 37.30601807 -10.34611816 37.31125488 -9.3371582 37.31665039 C-6.64171053 37.20621043 -4.19094986 36.80846666 -1.56640625 36.203125 C-1.56640625 36.863125 -1.56640625 37.523125 -1.56640625 38.203125 C-0.52484375 38.03941406 0.51671875 37.87570313 1.58984375 37.70703125 C7.6882371 36.94473208 13.7984802 37.09714358 19.93359375 37.140625 C24.05859375 37.16125 28.18359375 37.181875 32.43359375 37.203125 C32.43359375 26.973125 32.43359375 16.743125 32.43359375 6.203125 C-5.18640625 6.698125 -5.18640625 6.698125 -43.56640625 7.203125 C-43.56640625 6.543125 -43.56640625 5.883125 -43.56640625 5.203125 C-42.4578125 5.16574219 -41.34921875 5.12835938 -40.20703125 5.08984375 C-38.74345651 5.02417052 -37.27991634 4.95772365 -35.81640625 4.890625 C-35.08679688 4.86806641 -34.3571875 4.84550781 -33.60546875 4.82226562 C-29.3335395 4.6774698 -29.3335395 4.6774698 -25.66868591 2.71331787 C-23.02368727 0.81325759 -21.27125237 0.71685513 -18.03930664 0.52832031 C-16.97527618 0.4640686 -15.91124573 0.39981689 -14.81497192 0.33361816 C-9.87503192 0.13518339 -4.94387011 0.02147042 0 0 Z " fill="#6F6F6D" transform="translate(181.56640625,134.796875)"/>
<path d="M0 0 C0.33 0 0.66 0 1 0 C1.02465392 4.53897705 1.04283789 9.07791543 1.05493164 13.61694336 C1.0599714 15.16219766 1.0668032 16.70744716 1.07543945 18.25268555 C1.08752076 20.46925029 1.09323173 22.68575218 1.09765625 24.90234375 C1.10281754 25.5971434 1.10797882 26.29194305 1.11329651 27.00779724 C1.11349277 28.6722933 1.06189129 30.33665499 1 32 C-0.65394117 33.65394117 -2.60315413 33.12999683 -4.875 33.1328125 C-5.85984375 33.13410156 -6.8446875 33.13539063 -7.859375 33.13671875 C-8.89578125 33.13285156 -9.9321875 33.12898438 -11 33.125 C-12.55460937 33.13080078 -12.55460937 33.13080078 -14.140625 33.13671875 C-15.12546875 33.13542969 -16.1103125 33.13414062 -17.125 33.1328125 C-18.03507812 33.13168457 -18.94515625 33.13055664 -19.8828125 33.12939453 C-22 33 -22 33 -23 32 C-23.495 32.99 -23.495 32.99 -24 34 C-18.72 34 -13.44 34 -8 34 C-8 34.66 -8 35.32 -8 36 C-11.23503254 38.15668836 -12.18821736 38.26229044 -15.93041992 38.31884766 C-16.93123093 38.33871735 -17.93204193 38.35858704 -18.96318054 38.37905884 C-20.04138565 38.39061005 -21.11959076 38.40216125 -22.23046875 38.4140625 C-23.33602615 38.43342865 -24.44158356 38.4527948 -25.5806427 38.4727478 C-29.11618301 38.53258836 -32.65175579 38.5789473 -36.1875 38.625 C-38.58269659 38.66317562 -40.9778794 38.7022271 -43.37304688 38.7421875 C-49.24857564 38.83829358 -55.12418725 38.92332804 -61 39 C-61 38.01 -61 37.02 -61 36 C-63.64 36 -66.28 36 -69 36 C-68.25 34.0625 -68.25 34.0625 -67 32 C-66.34 31.855625 -65.68 31.71125 -65 31.5625 C-64.34 31.376875 -63.68 31.19125 -63 31 C-62.30959426 29.34302621 -61.6469365 27.6744239 -61 26 C-56.32966574 20.5512767 -51.82062505 18.06111092 -44.75 17.125 C-37.82431227 16.66265845 -32.04183697 18.14844706 -26.125 21.75 C-24 24 -24 24 -22.4765625 27.58203125 C-21.14467409 29.96381216 -20.531467 30.83255149 -17.89697266 31.66259766 C-15.31849521 31.91555119 -12.84214277 31.96875434 -10.25 31.9375 C-5.67125 31.9684375 -5.67125 31.9684375 -1 32 C-0.67 21.44 -0.34 10.88 0 0 Z " fill="#6D6C6B" transform="translate(220,274)"/>
<path d="M0 0 C1.07976105 -0.00137466 2.15952209 -0.00274933 3.27200317 -0.00416565 C4.46170715 -0.00057037 5.65141113 0.0030249 6.87716675 0.00672913 C8.12591583 0.0065831 9.37466492 0.00643707 10.66125488 0.00628662 C14.0908026 0.006865 17.52029054 0.01188933 20.94982767 0.01886058 C24.53195934 0.02510074 28.11409176 0.02569844 31.69622803 0.02688599 C38.48186847 0.02999734 45.26749285 0.03820811 52.05312622 0.04823548 C59.77732813 0.05940267 67.50153079 0.06490859 75.22573876 0.06993091 C91.11720714 0.08039087 107.00865949 0.09798654 122.90011597 0.12025452 C122.90011597 1.44025452 122.90011597 2.76025452 122.90011597 4.12025452 C80.66011597 4.12025452 38.42011597 4.12025452 -5.09988403 4.12025452 C-5.09988403 3.46025452 -5.09988403 2.80025452 -5.09988403 2.12025452 C-5.75988403 1.79025452 -6.41988403 1.46025452 -7.09988403 1.12025452 C-4.56996852 -0.14470324 -2.83256634 -0.00277159 0 0 Z " fill="#6F6F6E" transform="translate(114.09988403320313,44.87974548339844)"/>
<path d="M0 0 C0.33 0 0.66 0 1 0 C1.27055384 7.68550465 1.50020663 15.3714644 1.7019043 23.05908203 C1.77524065 25.67231677 1.85782314 28.28530948 1.94995117 30.89794922 C2.08101607 34.66087254 2.17843504 38.42342258 2.26953125 42.1875 C2.31721146 43.34926758 2.36489166 44.51103516 2.41401672 45.70800781 C2.56447154 53.82536259 1.08229618 58.6144919 -4.4440155 64.55126953 C-9.66328124 69.39571566 -15.38903162 69.12388097 -22.17944336 69.16113281 C-22.87133255 69.16609772 -23.56322174 69.17106262 -24.27607727 69.17617798 C-26.54734315 69.19069116 -28.81853928 69.19758205 -31.08984375 69.203125 C-32.26000125 69.20736607 -32.26000125 69.20736607 -33.45379829 69.21169281 C-37.57914693 69.22663869 -41.70446098 69.23589817 -45.82983398 69.24023438 C-50.07771286 69.24572351 -54.32527196 69.26977385 -58.5730505 69.29820633 C-61.85283828 69.31687676 -65.13254952 69.32204057 -68.41238594 69.32357025 C-69.97800006 69.32658552 -71.54361318 69.33457581 -73.10917473 69.34775543 C-75.30341543 69.36491495 -77.49688054 69.36291253 -79.69116211 69.35644531 C-80.93659286 69.36009094 -82.18202362 69.36373657 -83.4651947 69.36749268 C-89.56206412 68.73363744 -94.56741777 66.30593703 -99 62 C-100.3125 59.25 -100.3125 59.25 -101 57 C-96.73832553 57.47351939 -94.84979192 60.00021903 -92 63 C-88.99938118 64.50030941 -85.90821465 64.16474328 -82.61621094 64.17700195 C-81.47443138 64.18685875 -81.47443138 64.18685875 -80.30958557 64.19691467 C-77.78451442 64.216663 -75.25950282 64.22831456 -72.734375 64.23828125 C-71.87212563 64.24235678 -71.00987625 64.2464323 -70.12149811 64.25063133 C-65.55642434 64.27150012 -60.9913807 64.28579747 -56.42626953 64.29516602 C-51.71400852 64.30622314 -47.00222068 64.34061246 -42.2901268 64.38033772 C-38.66466402 64.40650417 -35.03931386 64.41485794 -31.41376495 64.41844749 C-29.67705342 64.42331458 -27.94034697 64.43493208 -26.20372772 64.45348549 C-23.76922846 64.47787482 -21.33595162 64.47691257 -18.90136719 64.4699707 C-18.18737259 64.48278076 -17.47337799 64.49559082 -16.73774719 64.50878906 C-11.7094385 64.45668204 -8.86191119 63.17025951 -5 60 C-0.49168875 52.84888561 -0.81774922 45.0936251 -0.68359375 36.9140625 C-0.6524221 35.32868179 -0.6524221 35.32868179 -0.62062073 33.71127319 C-0.55546009 30.34924555 -0.49639639 26.98714263 -0.4375 23.625 C-0.39428292 21.3398361 -0.35066762 19.05467969 -0.30664062 16.76953125 C-0.19981317 11.17976609 -0.09798575 5.58992676 0 0 Z " fill="#52514F" transform="translate(228,266)"/>
<path d="M0 0 C1.55829104 0.00138269 1.55829104 0.00138269 3.14806271 0.00279331 C4.92971828 0.00073132 4.92971828 0.00073132 6.74736691 -0.00137234 C8.71965519 0.00402058 8.71965519 0.00402058 10.73178768 0.00952244 C12.12108006 0.00980431 13.51037259 0.00964658 14.89966488 0.00907993 C18.6825558 0.00879195 22.46541529 0.01468882 26.24829888 0.02165389 C30.19745968 0.02788728 34.14662113 0.02849122 38.09578609 0.0296793 C45.57915367 0.03279266 53.0625067 0.04100611 60.54586786 0.05102879 C69.06326025 0.06218978 77.58065332 0.06770034 86.09805119 0.07272422 C103.62367685 0.08318872 121.14928835 0.10078825 138.67490292 0.12304783 C139.67490292 2.12304783 139.67490292 2.12304783 138.67490292 13.12304783 C92.47490292 13.12304783 46.27490292 13.12304783 -1.32509708 13.12304783 C-1.32509708 12.79304783 -1.32509708 12.46304783 -1.32509708 12.12304783 C43.88490292 11.79304783 89.09490292 11.46304783 135.67490292 11.12304783 C136.00490292 8.15304783 136.33490292 5.18304783 136.67490292 2.12304783 C90.80490292 2.12304783 44.93490292 2.12304783 -2.32509708 2.12304783 C-2.32509708 5.42304783 -2.32509708 8.72304783 -2.32509708 12.12304783 C-2.65509708 12.12304783 -2.98509708 12.12304783 -3.32509708 12.12304783 C-3.35196988 10.31062731 -3.37143424 8.49809549 -3.38759708 6.68554783 C-3.39919865 5.67621189 -3.41080021 4.66687595 -3.42275333 3.62695408 C-3.29548732 0.36385359 -3.2481069 0.17189497 0 0 Z " fill="#6F6D69" transform="translate(109.32509708404541,49.876952171325684)"/>
<path d="M0 0 C1.2125219 0.00303635 1.2125219 0.00303635 2.44953918 0.00613403 C3.29663956 0.00438171 4.14373993 0.00262939 5.01651001 0.00082397 C7.83079547 -0.00359553 10.64501865 -0.00065621 13.45930481 0.00271606 C15.40604159 0.00204305 17.35277828 0.00107305 19.29951477 -0.00018311 C23.38517556 -0.00166021 27.47081452 0.00049489 31.55647278 0.00515747 C36.80601996 0.01085476 42.05551603 0.00757583 47.30506134 0.00158501 C51.32663868 -0.00202026 55.3482038 -0.00088218 59.36978149 0.0017128 C61.3059693 0.00238216 63.2421582 0.00155332 65.17834473 -0.00076675 C67.87945005 -0.00329272 70.5804714 0.00054652 73.28157043 0.00613403 C74.08991837 0.0041098 74.8982663 0.00208557 75.73110962 0 C81.25129233 0.02126609 81.25129233 0.02126609 82.36555481 1.13552856 C82.47890697 3.69404867 82.5297311 6.22455491 82.53352356 8.78396606 C82.53851616 9.93646347 82.53851616 9.93646347 82.54360962 11.11224365 C82.54868252 12.74141845 82.55101783 14.37060369 82.55085754 15.99978638 C82.55303958 18.49312514 82.57117872 20.98601844 82.59016418 23.47927856 C82.59309891 25.06000621 82.59508318 26.64073597 82.59602356 28.22146606 C82.60320908 28.96842743 82.61039459 29.71538879 82.61779785 30.48498535 C82.6011845 34.2501522 82.50782094 35.92212937 80.36555481 39.13552856 C80.36555481 39.79552856 80.36555481 40.45552856 80.36555481 41.13552856 C81.02555481 41.13552856 81.68555481 41.13552856 82.36555481 41.13552856 C82.36555481 43.44552856 82.36555481 45.75552856 82.36555481 48.13552856 C82.03555481 48.13552856 81.70555481 48.13552856 81.36555481 48.13552856 C81.36555481 46.48552856 81.36555481 44.83552856 81.36555481 43.13552856 C80.40592834 43.14132935 79.44630188 43.14713013 78.45759583 43.15310669 C66.06678317 43.20319354 53.68958173 42.93781216 41.30305481 42.63552856 C39.26074142 42.58716866 37.21842372 42.53899049 35.17610168 42.49099731 C30.23920067 42.37459607 25.30236399 42.25575917 20.36555481 42.13552856 C20.36555481 41.80552856 20.36555481 41.47552856 20.36555481 41.13552856 C20.97276871 41.1252211 21.5799826 41.11491364 22.20559692 41.10429382 C28.51578093 40.99625624 34.82582136 40.8816559 41.13581848 40.76321411 C43.49190776 40.71985648 45.84802864 40.67818202 48.20417786 40.63821411 C51.58749419 40.58053181 54.97065138 40.51683125 58.35383606 40.45193481 C59.41016739 40.43522232 60.46649872 40.41850983 61.55484009 40.40129089 C63.02602547 40.37137306 63.02602547 40.37137306 64.52693176 40.34085083 C65.82265862 40.31753441 65.82265862 40.31753441 67.14456177 40.29374695 C69.53920906 40.21543117 69.53920906 40.21543117 72.36555481 39.13552856 C72.36555481 38.47552856 72.36555481 37.81552856 72.36555481 37.13552856 C67.08555481 37.13552856 61.80555481 37.13552856 56.36555481 37.13552856 C56.69555481 35.81552856 57.02555481 34.49552856 57.36555481 33.13552856 C57.69555481 33.79552856 58.02555481 34.45552856 58.36555481 35.13552856 C65.62555481 35.13552856 72.88555481 35.13552856 80.36555481 35.13552856 C80.69555481 24.57552856 81.02555481 14.01552856 81.36555481 3.13552856 C80.70555481 3.13552856 80.04555481 3.13552856 79.36555481 3.13552856 C79.03555481 3.79552856 78.70555481 4.45552856 78.36555481 5.13552856 C78.36555481 4.47552856 78.36555481 3.81552856 78.36555481 3.13552856 C77.74616028 3.29778931 77.12676575 3.46005005 76.48860168 3.62722778 C72.11603555 4.33889779 67.81985277 4.27775409 63.39680481 4.26834106 C62.41563187 4.26966034 61.43445892 4.27097961 60.42355347 4.27233887 C57.23752164 4.27425286 54.05157767 4.26792786 50.86555481 4.26052856 C49.78796906 4.25964233 48.7103833 4.2587561 47.60014343 4.25784302 C31.17571347 4.2419206 14.78737147 3.98755963 -1.62052917 3.22732544 C-3.12696593 3.15854378 -3.12696593 3.15854378 -4.63444519 3.13552856 C-4.96444519 13.69552856 -5.29444519 24.25552856 -5.63444519 35.13552856 C-5.96444519 35.13552856 -6.29444519 35.13552856 -6.63444519 35.13552856 C-6.65909709 30.31172055 -6.67728212 25.4879489 -6.68937683 20.66409302 C-6.69441693 19.02183392 -6.70124897 17.37957933 -6.70988464 15.73733521 C-6.72196445 13.38177378 -6.72767658 11.02627148 -6.73210144 8.67068481 C-6.73726273 7.9321376 -6.74242401 7.19359039 -6.7477417 6.43266296 C-6.74793769 4.66654769 -6.69639238 2.90055711 -6.63444519 1.13552856 C-4.83702699 -0.66188964 -2.39306557 0.0092191 0 0 Z " fill="#3A3938" transform="translate(139.6344451904297,270.8644714355469)"/>
<path d="M0 0 C0.33 0 0.66 0 1 0 C1.02505615 0.88260498 1.0501123 1.76520996 1.07592773 2.67456055 C1.1713353 5.96406615 1.27055193 9.25341182 1.37231445 12.54272461 C1.41549804 13.96357775 1.45718408 15.38447726 1.49731445 16.80541992 C1.55542095 18.8534947 1.61899638 20.90133965 1.68359375 22.94921875 C1.72025146 24.17987061 1.75690918 25.41052246 1.79467773 26.6784668 C2.02122183 30.91264741 2.02122183 30.91264741 3 35 C6.63311473 37.63612362 10.68617938 37.26810099 14.98144531 37.22705078 C15.7818222 37.22734283 16.5821991 37.22763489 17.40682983 37.22793579 C20.04737256 37.22654455 22.68763168 37.21099308 25.328125 37.1953125 C27.16086676 37.19158164 28.99361051 37.18873501 30.82635498 37.18673706 C35.64654054 37.17910637 40.46660529 37.15946269 45.28674316 37.1373291 C50.20677048 37.11685855 55.12681735 37.10773275 60.046875 37.09765625 C69.6979697 37.0762163 79.3489748 37.04208712 89 37 C89.33 37.99 89.66 38.98 90 40 C89.01 40 88.02 40 87 40 C87 40.66 87 41.32 87 42 C77.50705117 42.04647852 68.01414193 42.08194773 58.52110386 42.10362434 C54.11241682 42.11403155 49.70380803 42.12813441 45.29516602 42.15087891 C41.03522416 42.17271703 36.77535724 42.18459163 32.51536369 42.18975449 C30.89558674 42.19343064 29.27581358 42.20060893 27.6560688 42.21146011 C7.69225766 42.33980314 7.69225766 42.33980314 1.46191406 38.39160156 C-0.6571352 34.92496719 -0.49656817 31.66936285 -0.390625 27.734375 C-0.38496521 26.94097717 -0.37930542 26.14757935 -0.37347412 25.33013916 C-0.35113147 22.80280527 -0.30094176 20.27690335 -0.25 17.75 C-0.22993214 16.03387468 -0.21168187 14.31772708 -0.1953125 12.6015625 C-0.15127395 8.4004922 -0.08226326 4.20048865 0 0 Z " fill="#51504E" transform="translate(130,141)"/>
<path d="M0 0 C0.33 0 0.66 0 1 0 C1.17015625 0.86882812 1.3403125 1.73765625 1.515625 2.6328125 C2.84970602 8.97679352 3.97165223 13.89742615 8 19 C8.33 19.99 8.66 20.98 9 22 C10.71519747 23.02651373 10.71519747 23.02651373 13 24 C14.546875 24.99 14.546875 24.99 16.125 26 C25.83456251 31.42354224 38.30331779 30.93855729 49 29 C53.34095357 27.63597263 57.17688205 25.44235484 61 23 C61.66 22.67 62.32 22.34 63 22 C63.495 23.485 63.495 23.485 64 25 C55.19489138 33.21810138 44.05331616 34.18287116 32.5625 34.0625 C31.73556641 34.05798828 30.90863281 34.05347656 30.05664062 34.04882812 C28.03772854 34.03715811 26.01885426 34.01922718 24 34 C24 33.34 24 32.68 24 32 C23.175 31.938125 22.35 31.87625 21.5 31.8125 C13.37750114 29.92691991 7.81534601 24.61154651 3 18 C-0.47396013 12.06064881 -0.32626536 6.682398 0 0 Z " fill="#4E4E4B" transform="translate(241,225)"/>
<path d="M0 0 C0.33 0 0.66 0 1 0 C1 4.62 1 9.24 1 14 C1.66 14 2.32 14 3 14 C3.33 12.35 3.66 10.7 4 9 C4.66 9.66 5.32 10.32 6 11 C5.80664114 13.0060982 5.59575898 15.01128212 5.32421875 17.00830078 C4.92865329 20.65834535 4.80982086 24.29751842 4.71875 27.96484375 C4.69989746 28.68765533 4.68104492 29.41046692 4.66162109 30.15518188 C4.60478434 32.4158945 4.55177298 34.67666606 4.5 36.9375 C4.29202774 45.99789907 4.07365407 54.99025291 3 64 C2.01 64 1.02 64 0 64 C0 49.48 0 34.96 0 20 C-0.66 20 -1.32 20 -2 20 C-1.85953745 17.04132082 -1.71287776 14.08317736 -1.5625 11.125 C-1.52318359 10.28324219 -1.48386719 9.44148437 -1.44335938 8.57421875 C-1.40146484 7.76855469 -1.35957031 6.96289062 -1.31640625 6.1328125 C-1.27974854 5.38918457 -1.24309082 4.64555664 -1.20532227 3.87939453 C-1 2 -1 2 0 0 Z " fill="#595956" transform="translate(229,201)"/>
<path d="M0 0 C1.08864349 0.00539291 1.08864349 0.00539291 2.19927979 0.01089478 C2.96020432 0.01074875 3.72112885 0.01060272 4.50511169 0.01045227 C7.03202113 0.01115155 9.55885776 0.01894462 12.08575439 0.02676392 C13.83310404 0.02862804 15.58045421 0.03005197 17.32780457 0.03105164 C21.93591749 0.03487724 26.54399909 0.04470788 31.15209961 0.05575562 C35.85068335 0.06596883 40.54927214 0.07054906 45.24786377 0.07559204 C54.47378902 0.08633011 63.69969098 0.10340704 72.92559814 0.12442017 C72.92559814 0.45442017 72.92559814 0.78442017 72.92559814 1.12442017 C47.51559814 1.12442017 22.10559814 1.12442017 -4.07440186 1.12442017 C-2.41274978 2.78607224 -0.40924156 2.24401742 1.80961609 2.24884033 C2.5073262 2.24524506 3.20503632 2.24164978 3.92388916 2.23794556 C4.65555298 2.23809158 5.3872168 2.23823761 6.14105225 2.23838806 C8.57056598 2.23768883 11.00000398 2.22989601 13.42950439 2.22207642 C15.10959328 2.22021227 16.78968271 2.21878835 18.46977234 2.2177887 C22.90033458 2.21396324 27.33086424 2.20413272 31.76141357 2.19308472 C36.27902791 2.18287119 40.79664748 2.1782912 45.31427002 2.17324829 C54.18472707 2.16251048 63.0551599 2.14543373 71.92559814 2.12442017 C71.92559814 2.45442017 71.92559814 2.78442017 71.92559814 3.12442017 C47.50559814 3.45442017 23.08559814 3.78442017 -2.07440186 4.12442017 C-2.40440186 13.69442017 -2.73440186 23.26442017 -3.07440186 33.12442017 C-6.34946224 28.75767298 -6.44488322 27.83662318 -6.40252686 22.64395142 C-6.39737061 21.39807251 -6.39221436 20.1521936 -6.38690186 18.86856079 C-6.36627686 17.57111938 -6.34565186 16.27367798 -6.32440186 14.93692017 C-6.31924561 13.6278772 -6.31408936 12.31883423 -6.30877686 10.97012329 C-6.21779915 0.0129963 -6.21779915 0.0129963 0 0 Z " fill="#2D2D2C" transform="translate(142.07440185546875,138.87557983398438)"/>
<path d="M0 0 C3.95032555 9.79870542 2.1294059 21.96397313 1.625 32.375 C1.5943042 33.10638184 1.5636084 33.83776367 1.53198242 34.59130859 C1.23543824 39.76456176 1.23543824 39.76456176 -1 42 C-2.62848486 38.74303028 -2.20019543 35.14438452 -2.24609375 31.5625 C-2.27902111 29.84634885 -2.31223294 28.13020315 -2.34570312 26.4140625 C-2.39320929 23.70153414 -2.43765832 20.98902957 -2.47680664 18.27636719 C-2.51640757 15.66318027 -2.56796918 13.05044196 -2.62109375 10.4375 C-2.6295079 9.62289307 -2.63792206 8.80828613 -2.64659119 7.96899414 C-2.56587753 3.51317203 -2.56587753 3.51317203 -5 0 C-7.6482837 -0.21744746 -10.19516802 -0.31139994 -12.84619141 -0.31884766 C-13.65602982 -0.32889328 -14.46586823 -0.3389389 -15.30024719 -0.34928894 C-17.98401156 -0.38024404 -20.66767564 -0.3971901 -23.3515625 -0.4140625 C-25.20959341 -0.43276425 -27.06761574 -0.45233691 -28.92562866 -0.4727478 C-33.82135979 -0.52417996 -38.71711848 -0.56374621 -43.61297607 -0.60089111 C-48.60663739 -0.64086145 -53.60018292 -0.6919855 -58.59375 -0.7421875 C-68.39575213 -0.83907794 -78.19781947 -0.92344058 -88 -1 C-88 -1.33 -88 -1.66 -88 -2 C-77.26475861 -2.20025553 -66.52937368 -2.38396967 -55.79349232 -2.54658794 C-50.80835376 -2.62261818 -45.82344401 -2.70433719 -40.83862305 -2.79907227 C-36.02772538 -2.89029242 -31.21680157 -2.96654928 -26.40549278 -3.03244972 C-24.57020921 -3.06021469 -22.73499892 -3.09336482 -20.89991188 -3.13199425 C-18.32885049 -3.18519506 -15.75819438 -3.21921642 -13.18676758 -3.2487793 C-12.0495652 -3.27898415 -12.0495652 -3.27898415 -10.88938904 -3.30979919 C-6.41299983 -3.33702994 -3.50768586 -2.85769009 0 0 Z " fill="#646463" transform="translate(223,136)"/>
<path d="M0 0 C19.35806042 -0.09339797 38.71607519 -0.16395691 58.07431412 -0.20724869 C67.06247739 -0.22788316 76.05050075 -0.2560206 85.03857422 -0.30175781 C92.87162898 -0.34159857 100.70458243 -0.36742637 108.5377357 -0.37635398 C112.68624711 -0.38157345 116.83446866 -0.3938592 120.98288727 -0.42292023 C124.88661768 -0.45004589 128.78993849 -0.45845089 132.6937542 -0.45243073 C134.12727267 -0.45353225 135.56080467 -0.46150347 136.99424171 -0.4768219 C138.95018253 -0.49670089 140.90634254 -0.48955955 142.86236572 -0.48101807 C144.50500082 -0.48654882 144.50500082 -0.48654882 146.18082047 -0.49219131 C149.67584296 0.11799321 150.83453463 1.24644332 153 4 C154.2692989 7.84616703 153.95761457 11.31745269 153.5625 15.3125 C153.40974609 16.91544922 153.40974609 16.91544922 153.25390625 18.55078125 C153.17011719 19.35902344 153.08632813 20.16726562 153 21 C152.01 21 151.02 21 150 21 C149.94392578 19.31970703 149.94392578 19.31970703 149.88671875 17.60546875 C149.82105743 16.1327791 149.75461014 14.66012434 149.6875 13.1875 C149.66494141 12.44951172 149.64238281 11.71152344 149.61914062 10.95117188 C149.4767691 6.89929068 149.4767691 6.89929068 147.83698559 3.28785992 C145.21844314 1.45207205 143.2798601 1.61493502 140.09651184 1.60127258 C138.86392136 1.58873444 137.63133087 1.57619629 136.36138916 1.5632782 C134.99328587 1.5644523 133.6251828 1.56591147 132.25708008 1.56762695 C130.81822363 1.55861209 129.37937489 1.54828554 127.9405365 1.53674316 C124.03172774 1.50911439 120.12306447 1.49988074 116.21417069 1.49388909 C112.13016358 1.48452065 108.0462658 1.45831856 103.96232605 1.43388367 C96.22760032 1.39017274 88.49289576 1.36165405 80.758084 1.33856028 C71.9527988 1.31153317 63.14762334 1.26762018 54.34241641 1.22227156 C36.22833548 1.12935954 18.11422555 1.05770889 0 1 C0 0.67 0 0.34 0 0 Z " fill="#424242" transform="translate(104,44)"/>
<path d="M0 0 C0.33 0 0.66 0 1 0 C1.27055384 7.68550465 1.50020663 15.3714644 1.7019043 23.05908203 C1.77524065 25.67231677 1.85782314 28.28530948 1.94995117 30.89794922 C2.08101607 34.66087254 2.17843504 38.42342258 2.26953125 42.1875 C2.31721146 43.34926758 2.36489166 44.51103516 2.41401672 45.70800781 C2.56543435 53.87730842 1.05204805 58.66105348 -4.51481628 64.62207031 C-6.0625 66.0625 -6.0625 66.0625 -9 68 C-10.34499531 67.71737569 -11.67679487 67.37150648 -13 67 C-15.35263849 66.88419962 -17.70816622 66.82350146 -20.06347656 66.79467773 C-21.11773834 66.77982834 -21.11773834 66.77982834 -22.19329834 66.76467896 C-24.50904 66.73317216 -26.82480215 66.70834951 -29.140625 66.68359375 C-30.74917118 66.66301487 -32.35771206 66.64201815 -33.96624756 66.62062073 C-38.1944957 66.56549652 -42.42279186 66.51604479 -46.65112305 66.46777344 C-50.96797954 66.41748784 -55.28476652 66.36183865 -59.6015625 66.30664062 C-68.06764951 66.19917714 -76.53379478 66.09770608 -85 66 C-85 65.67 -85 65.34 -85 65 C-84.08624603 64.99635437 -83.17249207 64.99270874 -82.23104858 64.98895264 C-73.6090403 64.95104605 -64.98740924 64.89416293 -56.36566734 64.81609726 C-51.93337931 64.77663081 -47.5012897 64.74443834 -43.06884766 64.72900391 C-38.78921288 64.71383169 -34.51012363 64.67937656 -30.23073196 64.63169098 C-28.60016249 64.61688292 -26.96951513 64.60895931 -25.33887863 64.60811615 C-23.05003833 64.60574288 -20.76270127 64.57863755 -18.47412109 64.54589844 C-16.52220352 64.53257477 -16.52220352 64.53257477 -14.53085327 64.51898193 C-10.38903837 63.9101979 -8.23051968 62.61939264 -5 60 C-0.49168875 52.84888561 -0.81774922 45.0936251 -0.68359375 36.9140625 C-0.6524221 35.32868179 -0.6524221 35.32868179 -0.62062073 33.71127319 C-0.55546009 30.34924555 -0.49639639 26.98714263 -0.4375 23.625 C-0.39428292 21.3398361 -0.35066762 19.05467969 -0.30664062 16.76953125 C-0.19981317 11.17976609 -0.09798575 5.58992676 0 0 Z " fill="#676765" transform="translate(228,266)"/>
<path d="M0 0 C2.12472304 2.40186082 2.04395467 4.35791662 2.4375 7.5625 C2 11 2 11 -0.125 12.9375 C-3.44918618 14.16600359 -5.49250032 14.59702122 -9 14 C-11.4375 11.9375 -11.4375 11.9375 -13 9 C-13.0625 5.375 -13.0625 5.375 -12 2 C-8.17166033 -1.60314321 -4.91489174 -1.3910071 0 0 Z " fill="#70706E" transform="translate(268,299)"/>
<path d="M0 0 C2.5 1.5625 2.5 1.5625 4 4 C4 7.75343683 3.82004247 10.02225706 1.375 12.9375 C-1.96395831 14.43124451 -4.38824393 14.45967805 -8 14 C-10.62541413 11.79803976 -10.9445448 10.38026421 -11.4375 7 C-11 4 -11 4 -9.4375 1.625 C-6.06489221 -0.62340519 -3.97487617 -0.56783945 0 0 Z " fill="#6D6E6D" transform="translate(282,274)"/>
<path d="M0 0 C3.16914731 0.35212748 4.057656 1.06077254 6.3125 3.4375 C11.16100699 8.06049503 16.8901665 8.2495262 23.35644531 8.28710938 C24.40413589 8.29735893 24.40413589 8.29735893 25.47299194 8.30781555 C26.97613608 8.32131487 28.47932496 8.33042475 29.98252106 8.33552551 C32.3616153 8.34386743 34.74033535 8.36441632 37.11932373 8.38806152 C43.02132229 8.44425033 48.92341119 8.47973996 54.82556152 8.51568604 C59.82743083 8.54691655 64.82911416 8.58607094 69.83083344 8.63594055 C72.17462136 8.65600598 74.5182657 8.66432454 76.86212158 8.67224121 C78.2951307 8.68520975 79.72813498 8.69872949 81.16113281 8.71289062 C82.41242981 8.72018188 83.66372681 8.72747314 84.95294189 8.73498535 C88 9 88 9 91 11 C80.57725046 11.13928583 70.15472389 11.24576574 59.73123169 11.31087303 C54.89063542 11.34212847 50.05067791 11.38449475 45.21044922 11.45263672 C40.53548952 11.51803687 35.8611425 11.55374955 31.1857605 11.56926346 C29.40597901 11.5803129 27.62622943 11.6018905 25.84671021 11.63438034 C9.01550818 11.92933631 9.01550818 11.92933631 3.24609375 6.57266235 C1.60910308 4.50665922 0.60409612 2.56740853 0 0 Z " fill="#4C4B49" transform="translate(127,323)"/>
<path d="M0 0 C0.33 0 0.66 0 1 0 C0.67 4.62 0.34 9.24 0 14 C0.66 14 1.32 14 2 14 C2 21.92 2 29.84 2 38 C1.34 37.34 0.68 36.68 0 36 C-1.32 36.99 -2.64 37.98 -4 39 C-3.44812014 25.88809586 -1.81501964 12.99028168 0 0 Z " fill="#6A6A69" transform="translate(227,207)"/>
<path d="M0 0 C2.16241155 2.78030018 4.00343545 5.60622643 5.7421875 8.66796875 C6.25136719 9.56193359 6.76054687 10.45589844 7.28515625 11.37695312 C7.80980469 12.30443359 8.33445312 13.23191406 8.875 14.1875 C9.65037109 15.5497168 9.65037109 15.5497168 10.44140625 16.93945312 C11.46802216 18.74572823 12.48862854 20.55543333 13.50292969 22.36865234 C14.49398861 24.11060164 15.51537196 25.83567323 16.56738281 27.54150391 C17.04272461 28.32831543 17.51806641 29.11512695 18.0078125 29.92578125 C18.43980957 30.61712158 18.87180664 31.30846191 19.31689453 32.02075195 C20 34 20 34 19.12451172 36.25463867 C18.75342285 36.83060791 18.38233398 37.40657715 18 38 C15.93693624 34.35448541 13.87465341 30.70852961 11.8125 27.0625 C11.23435547 26.04091797 10.65621094 25.01933594 10.06054688 23.96679688 C8.9148499 21.94079037 7.77134925 19.91354017 6.63012695 17.88500977 C5.58680718 16.03853533 4.53411041 14.19730842 3.46948242 12.36303711 C3.01549072 11.57292236 2.56149902 10.78280762 2.09375 9.96875 C1.69478516 9.28361328 1.29582031 8.59847656 0.88476562 7.89257812 C-0.36817181 5.21245367 -0.37167189 2.89904075 0 0 Z " fill="#474745" transform="translate(278,155)"/>
<path d="M0 0 C0.33 0 0.66 0 1 0 C1.66 2.64 2.32 5.28 3 8 C30.72 8.33 58.44 8.66 87 9 C87 9.33 87 9.66 87 10 C75.8215383 10.0231348 64.64308225 10.04092092 53.46460152 10.05181217 C48.27440675 10.0570385 43.08422833 10.06413164 37.89404297 10.07543945 C32.88849603 10.08627718 27.88296484 10.09227873 22.87740707 10.09487724 C20.96437202 10.09672989 19.05133786 10.10034744 17.13830948 10.10573006 C14.46604781 10.11295221 11.79385184 10.11399044 9.12158203 10.11352539 C7.92612259 10.1189183 7.92612259 10.1189183 6.70651245 10.12442017 C1.22810432 10.11405216 1.22810432 10.11405216 -1 9 C-0.67 6.03 -0.34 3.06 0 0 Z " fill="#514F4E" transform="translate(133,257)"/>
<path d="M0 0 C-0.33 1.65 -0.66 3.3 -1 5 C-1.49348938 4.18860062 -1.98697876 3.37720123 -2.49542236 2.54121399 C-5.32256129 -0.32727964 -6.81314564 -0.59973221 -10.76496887 -0.68556213 C-11.90756416 -0.67262367 -11.90756416 -0.67262367 -13.07324219 -0.65942383 C-13.88337265 -0.66990753 -14.69350311 -0.68039124 -15.52818298 -0.69119263 C-18.20146932 -0.71995566 -20.87346156 -0.71364993 -23.546875 -0.70703125 C-25.4020551 -0.72014558 -27.25722091 -0.73544899 -29.11236572 -0.75285339 C-33.9917553 -0.79274746 -38.87077174 -0.80289667 -43.75030518 -0.80688477 C-48.73078767 -0.81620791 -53.71105016 -0.85361629 -58.69140625 -0.88867188 C-68.46092718 -0.95329257 -78.23028406 -0.9864959 -88 -1 C-88 -1.33 -88 -1.66 -88 -2 C-77.26475861 -2.20025553 -66.52937368 -2.38396967 -55.79349232 -2.54658794 C-50.80835376 -2.62261818 -45.82344401 -2.70433719 -40.83862305 -2.79907227 C-36.02772538 -2.89029242 -31.21680157 -2.96654928 -26.40549278 -3.03244972 C-24.57020921 -3.06021469 -22.73499892 -3.09336482 -20.89991188 -3.13199425 C-18.32885049 -3.18519506 -15.75819438 -3.21921642 -13.18676758 -3.2487793 C-12.0495652 -3.27898415 -12.0495652 -3.27898415 -10.88938904 -3.30979919 C-6.39072065 -3.33716547 -3.62113001 -2.70347436 0 0 Z " fill="#3F3F3D" transform="translate(223,136)"/>
<path d="M0 0 C1.16740723 0.01078583 1.16740723 0.01078583 2.35839844 0.02178955 C3.58778641 0.02135147 3.58778641 0.02135147 4.8420105 0.02090454 C7.55835458 0.02230089 10.27442633 0.03787632 12.99072266 0.05352783 C14.87116343 0.05725688 16.75160615 0.06010436 18.63204956 0.06210327 C23.58707013 0.06974826 28.5419739 0.08940415 33.49694824 0.11151123 C38.55084655 0.13195105 43.6047637 0.14110099 48.65869141 0.15118408 C58.57931571 0.17264924 68.49985323 0.20679559 78.42041016 0.24884033 C78.42041016 0.57884033 78.42041016 0.90884033 78.42041016 1.24884033 C51.03041016 1.24884033 23.64041016 1.24884033 -4.57958984 1.24884033 C-5.23958984 2.56884033 -5.89958984 3.88884033 -6.57958984 5.24884033 C-7.56958984 5.74384033 -7.56958984 5.74384033 -8.57958984 6.24884033 C-7.4691643 0.69671259 -5.55298795 0.02151679 0 0 Z " fill="#605F5C" transform="translate(139.57958984375,132.75115966796875)"/>
<path d="M0 0 C0.33 0 0.66 0 1 0 C1.62480309 4.42677192 2.23038443 8.85563986 2.81884766 13.28735352 C3.02135767 14.79229034 3.22896059 16.29655147 3.44189453 17.80004883 C3.74837011 19.97055779 4.03599933 22.14289663 4.3203125 24.31640625 C4.49836426 25.62037354 4.67641602 26.92434082 4.85986328 28.26782227 C5.01656082 32.44105453 4.34933784 35.09134431 3 39 C0.79695031 35.37144757 0.35038652 31.63874533 -0.125 27.5 C-0.20919189 26.79238525 -0.29338379 26.08477051 -0.38012695 25.35571289 C-1.32772902 16.84457576 -1.53633412 8.44983767 0 0 Z " fill="#434240" transform="translate(110,73)"/>
<path d="M0 0 C6.54420732 0.4847561 6.54420732 0.4847561 8.4375 2.625 C9.2270048 5.9584647 9.43420856 8.58836133 9 12 C6.31847485 14.44491999 4.45153253 14.93678545 0.875 15.4375 C-2 15 -2 15 -3.875 13 C-4.24625 12.34 -4.6175 11.68 -5 11 C-1.66666667 11 1.66666667 11 5 11 C5 9.02 5 7.04 5 5 C2.69 4.34 0.38 3.68 -2 3 C-1.34 2.01 -0.68 1.02 0 0 Z " fill="#555653" transform="translate(261,298)"/>
<path d="M0 0 C0.66 0.99 1.32 1.98 2 3 C-3.83735876 8.44820151 -9.8783565 11.17232107 -17.875 11.02734375 C-22.5969004 10.82394288 -27.29515194 10.44440043 -32 10 C-32 9.67 -32 9.34 -32 9 C-30.76765625 8.92523438 -29.5353125 8.85046875 -28.265625 8.7734375 C-12.94840375 7.74032787 -12.94840375 7.74032787 0 0 Z " fill="#4C4B49" transform="translate(303,247)"/>
<path d="M0 0 C0.33 0 0.66 0 1 0 C1.21931307 7.72251334 1.41413839 15.44536779 1.59204102 23.16894531 C1.65542455 25.79571472 1.72438972 28.42235568 1.79907227 31.04882812 C1.9055192 34.82662285 1.99180971 38.60442636 2.07421875 42.3828125 C2.11157639 43.55490265 2.14893402 44.7269928 2.18742371 45.93460083 C2.29536656 51.80260103 2.33942585 56.06146622 -1 61 C-3.0663281 57.57092052 -3.0663281 57.57092052 -2.77236938 55.04066467 C-2.56727753 54.35443527 -2.36218567 53.66820587 -2.15087891 52.96118164 C-0.76191496 47.49789094 -0.65058491 42.23721749 -0.5859375 36.62109375 C-0.56657135 35.56841812 -0.5472052 34.51574249 -0.5272522 33.4311676 C-0.46792253 30.10002506 -0.42125867 26.76884708 -0.375 23.4375 C-0.33677728 21.16600134 -0.29772311 18.89451651 -0.2578125 16.62304688 C-0.16225985 11.08215487 -0.07707879 5.54117816 0 0 Z " fill="#41403E" transform="translate(228,266)"/>
<path d="M0 0 C0.66 0 1.32 0 2 0 C2.02490464 4.41080354 2.04295604 8.82156871 2.05493164 13.23242188 C2.05992943 14.72982497 2.0667299 16.22722327 2.07543945 17.72460938 C2.08770623 19.88933505 2.09327397 22.05399565 2.09765625 24.21875 C2.10289307 25.51748047 2.10812988 26.81621094 2.11352539 28.15429688 C1.9946608 32.18086673 1.56026769 36.01415096 1 40 C0.67 40 0.34 40 0 40 C-1.40027356 11.84846857 -1.40027356 11.84846857 0 0 Z " fill="#51514F" transform="translate(126,271)"/>
<path d="M0 0 C0.33 0 0.66 0 1 0 C1.66 2.31 2.32 4.62 3 7 C3.99 6.34 4.98 5.68 6 5 C6 9.62 6 14.24 6 19 C5.34 19 4.68 19 4 19 C3.67 19.99 3.34 20.98 3 22 C2.01 22.33 1.02 22.66 0 23 C0.01160156 22.09636719 0.02320313 21.19273437 0.03515625 20.26171875 C0.04417969 19.08222656 0.05320313 17.90273437 0.0625 16.6875 C0.07410156 15.51574219 0.08570313 14.34398437 0.09765625 13.13671875 C0.14899898 9.96940805 0.14899898 9.96940805 -1 7 C-0.72230092 4.6593935 -0.39460023 2.32375692 0 0 Z " fill="#6F6F6C" transform="translate(229,193)"/>
<path d="M0 0 C0.33 0 0.66 0 1 0 C1.50723149 3.85325057 2.00448199 7.70772703 2.5 11.5625 C2.64308594 12.64853516 2.78617188 13.73457031 2.93359375 14.85351562 C4.83496094 29.74755859 4.83496094 29.74755859 2 34 C-0.17089007 31.82910993 0.19863243 27.31687817 -0.125 24.3125 C-0.21700684 23.46067139 -0.30901367 22.60884277 -0.40380859 21.73120117 C-1.11824468 14.35537405 -0.88947347 7.36820591 0 0 Z " fill="#565552" transform="translate(129,226)"/>
<path d="M0 0 C0.89912109 0.73476563 0.89912109 0.73476563 1.81640625 1.484375 C0.71941406 1.59394531 -0.37757813 1.70351563 -1.5078125 1.81640625 C-2.96230891 1.97593166 -4.41673238 2.13612313 -5.87109375 2.296875 C-6.95293945 2.40225586 -6.95293945 2.40225586 -8.05664062 2.50976562 C-12.43497522 3.00957551 -15.59181367 3.73266135 -19.18359375 6.484375 C-20.56976764 8.44812135 -21.91371406 10.44349692 -23.18359375 12.484375 C-23.51359375 12.484375 -23.84359375 12.484375 -24.18359375 12.484375 C-24.49609375 10.296875 -24.49609375 10.296875 -24.18359375 7.484375 C-19.13344193 1.24595216 -7.73556118 -5.36922672 0 0 Z " fill="#605F5D" transform="translate(183.18359375,292.515625)"/>
<path d="M0 0 C0.99 0 1.98 0 3 0 C5.92891612 8.78674837 5.64635803 16.41935015 2 25 C1.34 25.33 0.68 25.66 0 26 C-0.12527964 19.61073826 -0.12527964 19.61073826 0.5 16.5625 C1.19957921 12.97715657 1.12176663 9.65299883 1 6 C0.67 5.67 0.34 5.34 0 5 C-0.04063832 3.33382885 -0.042721 1.66611905 0 0 Z " fill="#494947" transform="translate(310,217)"/>
<path d="M0 0 C3.49500971 3.49500971 2.30394888 8.67972804 2.32226562 13.40429688 C2.32009033 14.14800537 2.31791504 14.89171387 2.31567383 15.65795898 C2.31251677 17.92545747 2.3359576 20.1916476 2.36132812 22.45898438 C2.36360141 23.89843585 2.36430448 25.33789084 2.36328125 26.77734375 C2.36626221 28.08952881 2.36924316 29.40171387 2.37231445 30.75366211 C2 34 2 34 0.47729492 35.95141602 C-0.0102124 36.29744873 -0.49771973 36.64348145 -1 37 C-1.0246826 32.05208706 -1.04285166 27.1042098 -1.05493164 22.15625 C-1.05996653 20.47232438 -1.06679481 18.78840314 -1.07543945 17.10449219 C-1.08754196 14.68683797 -1.09323668 12.26924144 -1.09765625 9.8515625 C-1.10281754 9.0963028 -1.10797882 8.34104309 -1.11329651 7.56289673 C-1.11387171 2.22774341 -1.11387171 2.22774341 0 0 Z " fill="#747371" transform="translate(130,137)"/>
<path d="M0 0 C3.55482252 -0.32316568 5.37575119 -0.45553291 8.3125 1.6875 C11.45160046 5.98923026 11.07066219 10.17441563 10.5625 15.3125 C10.46066406 16.38113281 10.35882813 17.44976562 10.25390625 18.55078125 C10.17011719 19.35902344 10.08632813 20.16726562 10 21 C9.01 21 8.02 21 7 21 C6.96261719 19.87980469 6.92523438 18.75960937 6.88671875 17.60546875 C6.82105743 16.1327791 6.75461014 14.66012434 6.6875 13.1875 C6.66494141 12.44951172 6.64238281 11.71152344 6.61914062 10.95117188 C6.45546772 6.77467566 6.45546772 6.77467566 4.64453125 3.11328125 C3.10111622 2.0684516 1.55078617 1.03385745 0 0 Z " fill="#4B4B49" transform="translate(247,44)"/>
<path d="M0 0 C0.33 0 0.66 0 1 0 C1.12117188 1.07378906 1.24234375 2.14757812 1.3671875 3.25390625 C1.53615615 4.69013975 1.70544404 6.12633572 1.875 7.5625 C1.95363281 8.26697266 2.03226562 8.97144531 2.11328125 9.69726562 C2.66633903 14.3131709 3.61195836 18.56176603 5 23 C5.66 23 6.32 23 7 23 C8.6875 24.8125 8.6875 24.8125 10 27 C9.67 27.99 9.34 28.98 9 30 C8.01 29.67 7.02 29.34 6 29 C6 28.34 6 27.68 6 27 C5.34 27 4.68 27 4 27 C4 26.34 4 25.68 4 25 C3.34 24.67 2.68 24.34 2 24 C-1.45617304 16.02187368 -1.11565355 8.45477211 0 0 Z " fill="#585654" transform="translate(262,216)"/>
<path d="M0 0 C3.35752883 3.9424377 5.91015006 8.03767619 8.375 12.5625 C8.94541016 13.5515332 8.94541016 13.5515332 9.52734375 14.56054688 C10.5859375 16.50390625 10.5859375 16.50390625 12 20 C11.08837891 22.21850586 11.08837891 22.21850586 10 24 C8.31215441 21.13694702 6.65373784 18.25786731 5 15.375 C4.52304687 14.56675781 4.04609375 13.75851563 3.5546875 12.92578125 C1.01630426 8.46547928 -0.68564662 5.29662013 0 0 Z " fill="#4B4A48" transform="translate(298,191)"/>
<path d="M0 0 C1.9453125 -0.29296875 1.9453125 -0.29296875 4.125 -0.1875 C5.40375 -0.125625 6.6825 -0.06375 8 0 C8 0.33 8 0.66 8 1 C5.69 1.33 3.38 1.66 1 2 C0.95745644 3.99954746 0.95919217 6.00041636 1 8 C2.00836062 9.23267348 2.00836062 9.23267348 4.06640625 9.09765625 C4.89011719 9.08605469 5.71382813 9.07445312 6.5625 9.0625 C7.38878906 9.05347656 8.21507812 9.04445313 9.06640625 9.03515625 C9.70449219 9.02355469 10.34257812 9.01195312 11 9 C11.33 8.34 11.66 7.68 12 7 C11.6875 8.875 11.6875 8.875 11 11 C7.29584707 13.46943529 5.37855495 13.46913089 1 13 C-1.675255 10.75623774 -1.95868973 9.40484065 -2.3125 5.9375 C-2 3 -2 3 0 0 Z " fill="#5B5B59" transform="translate(273,275)"/>
<path d="M0 0 C0.33 0 0.66 0 1 0 C1.02465392 4.53897705 1.04283789 9.07791543 1.05493164 13.61694336 C1.0599714 15.16219766 1.0668032 16.70744716 1.07543945 18.25268555 C1.08752076 20.46925029 1.09323173 22.68575218 1.09765625 24.90234375 C1.10281754 25.5971434 1.10797882 26.29194305 1.11329651 27.00779724 C1.11349277 28.6722933 1.06189129 30.33665499 1 32 C0 33 0 33 -2.13305664 33.11352539 C-3.50772095 33.10567017 -3.50772095 33.10567017 -4.91015625 33.09765625 C-5.89951172 33.09443359 -6.88886719 33.09121094 -7.90820312 33.08789062 C-8.94912109 33.07951172 -9.99003906 33.07113281 -11.0625 33.0625 C-12.10728516 33.05798828 -13.15207031 33.05347656 -14.22851562 33.04882812 C-16.8190666 33.03699913 -19.40950559 33.02051689 -22 33 C-22.66 31.35 -23.32 29.7 -24 28 C-23.31164062 28.72123047 -23.31164062 28.72123047 -22.609375 29.45703125 C-18.65649093 31.79444024 -14.76265356 31.56992749 -10.25 31.6875 C-7.1975 31.790625 -4.145 31.89375 -1 32 C-0.67 21.44 -0.34 10.88 0 0 Z " fill="#7B7A77" transform="translate(220,274)"/>
<path d="M0 0 C0.33 0 0.66 0 1 0 C2.55306256 10.60189815 3.25471345 20.30102449 2 31 C1.67 31 1.34 31 1 31 C-0.70568807 20.4308257 -1.8417711 10.59018383 0 0 Z " fill="#444442" transform="translate(118,138)"/>
<path d="M0 0 C0.33 0 0.66 0 1 0 C2.09464528 10.4287152 1.77376479 19.66525472 0 30 C-0.33 30 -0.66 30 -1 30 C-2.8204588 19.75991926 -1.987075 10.16601761 0 0 Z " fill="#494947" transform="translate(253,67)"/>
<path d="M0 0 C0.66 0 1.32 0 2 0 C1.32884399 3.37138832 0.04277148 6.00336247 -1.625 9 C-2.15609375 9.95519531 -2.6871875 10.91039062 -3.234375 11.89453125 C-6.11196251 16.95577477 -9.04199342 21.98539121 -12 27 C-13.11339545 24.24625859 -13.09308688 23.22115237 -11.92016602 20.43457031 C-11.37030029 19.49194336 -10.82043457 18.54931641 -10.25390625 17.578125 C-9.66416016 16.55332031 -9.07441406 15.52851563 -8.46679688 14.47265625 C-7.83837891 13.40917969 -7.20996094 12.34570312 -6.5625 11.25 C-5.93794922 10.17105469 -5.31339844 9.09210938 -4.66992188 7.98046875 C-3.12415361 5.31372351 -1.56724593 2.65416088 0 0 Z " fill="#5E5E5B" transform="translate(259,181)"/>
<path d="M0 0 C0.33 0 0.66 0 1 0 C1.02505615 0.88260498 1.0501123 1.76520996 1.07592773 2.67456055 C1.1713353 5.96406615 1.27055193 9.25341182 1.37231445 12.54272461 C1.41549804 13.96357775 1.45718408 15.38447726 1.49731445 16.80541992 C1.55542095 18.8534947 1.61899638 20.90133965 1.68359375 22.94921875 C1.72025146 24.17987061 1.75690918 25.41052246 1.79467773 26.6784668 C1.97403828 29.58001288 2.20509827 32.20557793 3 35 C4.96758273 36.36020151 4.96758273 36.36020151 7 37 C6.67 37.99 6.34 38.98 6 40 C1.125 38.25 1.125 38.25 0 36 C-0.08675538 33.30106819 -0.11557897 30.62830769 -0.09765625 27.9296875 C-0.0962413 27.13345978 -0.09482635 26.33723206 -0.09336853 25.51687622 C-0.08776345 22.9695462 -0.07521014 20.42230353 -0.0625 17.875 C-0.05748565 16.14974085 -0.05292263 14.42448033 -0.04882812 12.69921875 C-0.03779237 8.46611209 -0.02052436 4.23307086 0 0 Z " fill="#424240" transform="translate(130,141)"/>
<path d="M0 0 C0.33 0 0.66 0 1 0 C2.77376479 10.33474528 3.09464528 19.5712848 2 30 C1.67 30 1.34 30 1 30 C-0.48601692 19.74525512 -1.33038913 10.33748313 0 0 Z " fill="#42423F" transform="translate(121,163)"/>
<path d="M0 0 C0.33 0 0.66 0 1 0 C1.33 13.86 1.66 27.72 2 42 C1.01 42 0.02 42 -1 42 C-0.67 28.14 -0.34 14.28 0 0 Z " fill="#434441" transform="translate(230,223)"/>
<path d="M0 0 C0.2475 1.19625 0.495 2.3925 0.75 3.625 C1.96579175 8.49678963 4.1840173 12.1840173 7.75 15.75 C9 17 9 17 9 19 C4.03979144 16.97917429 0.9230684 13.52783735 -1.8125 9 C-2.98150189 6.04673207 -3.27649998 4.13366645 -3 1 C-1 0 -1 0 0 0 Z " fill="#3F3E3C" transform="translate(252,227)"/>
<path d="M0 0 C1.515625 1.07421875 1.515625 1.07421875 3 3 C3.109375 6.14453125 3.109375 6.14453125 2.75 9.8125 C2.64171875 11.01519531 2.5334375 12.21789062 2.421875 13.45703125 C2.04038299 16.66085763 1.56422252 19.82381635 1 23 C0.67 23 0.34 23 0 23 C-1.61566789 15.32557751 -1.33672837 7.68618813 0 0 Z " fill="#3A3937" transform="translate(241,158)"/>
<path d="M0 0 C0.99 0 1.98 0 3 0 C3.19617816 2.54126172 3.38217248 5.08260459 3.5625 7.625 C3.61857422 8.33785156 3.67464844 9.05070313 3.73242188 9.78515625 C4.02495798 14.03668104 3.89547939 17.79456347 3 22 C2.67 22 2.34 22 2 22 C0.39118425 14.57359158 -0.26442904 7.59498961 0 0 Z " fill="#464643" transform="translate(125,209)"/>
<path d="M0 0 C1.52519276 0.08937803 3.04681929 0.24537146 4.5625 0.4375 C5.38878906 0.53933594 6.21507812 0.64117187 7.06640625 0.74609375 C7.70449219 0.82988281 8.34257812 0.91367187 9 1 C8.67 1.66 8.34 2.32 8 3 C-3.88 3 -15.76 3 -28 3 C-28 2.67 -28 2.34 -28 2 C-26.78098999 1.96241577 -26.78098999 1.96241577 -25.53735352 1.92407227 C-21.87889248 1.80850882 -18.22071472 1.68560416 -14.5625 1.5625 C-13.28310547 1.52318359 -12.00371094 1.48386719 -10.68554688 1.44335938 C-8.86313477 1.38051758 -8.86313477 1.38051758 -7.00390625 1.31640625 C-5.87799072 1.27974854 -4.7520752 1.24309082 -3.59204102 1.20532227 C-1.07146559 1.28781955 -1.07146559 1.28781955 0 0 Z " fill="#61605E" transform="translate(171,325)"/>
<path d="M0 0 C1.16208984 0.08507812 1.16208984 0.08507812 2.34765625 0.171875 C4.23265095 0.31150424 6.11648861 0.46661381 8 0.625 C7.67 1.285 7.34 1.945 7 2.625 C-0.92 2.625 -8.84 2.625 -17 2.625 C-17 2.295 -17 1.965 -17 1.625 C-11.03819344 -0.14999241 -6.17205915 -0.53484048 0 0 Z " fill="#575755" transform="translate(208,172.375)"/>
<path d="M0 0 C0.33 0 0.66 0 1 0 C1.66 2.64 2.32 5.28 3 8 C16.86 8.495 16.86 8.495 31 9 C31 9.33 31 9.66 31 10 C26.7641643 10.02469321 22.52836658 10.04285671 18.29248047 10.05493164 C16.8510668 10.05996474 15.40965824 10.06679173 13.96826172 10.07543945 C11.89809915 10.08754983 9.82800399 10.09323847 7.7578125 10.09765625 C6.5114502 10.10289307 5.26508789 10.10812988 3.98095703 10.11352539 C1 10 1 10 -1 9 C-0.67 6.03 -0.34 3.06 0 0 Z " fill="#52504F" transform="translate(133,257)"/>
<path d="M0 0 C0 0.99 0 1.98 0 3 C-4.59234981 5.66503835 -7.86054323 6.36076227 -13.1484375 6.29296875 C-14.13452499 6.28660149 -14.13452499 6.28660149 -15.14053345 6.28010559 C-17.21912391 6.26344977 -19.29670774 6.2258262 -21.375 6.1875 C-22.79295464 6.17243605 -24.21092464 6.15875065 -25.62890625 6.14648438 C-29.0862589 6.11359038 -32.54303103 6.06190165 -36 6 C-36 5.67 -36 5.34 -36 5 C-35.15816162 4.9906543 -34.31632324 4.98130859 -33.44897461 4.97167969 C-30.29694815 4.92741636 -27.1458616 4.86569164 -23.99438477 4.79248047 C-22.63578578 4.76442157 -21.27702814 4.74313256 -19.91821289 4.72900391 C-9.24802249 4.69261975 -9.24802249 4.69261975 0 0 Z " fill="#4F4D4A" transform="translate(219,321)"/>
<path d="M0 0 C0 0.66 0 1.32 0 2 C4.29 2 8.58 2 13 2 C12.67 2.66 12.34 3.32 12 4 C6.06 4 0.12 4 -6 4 C-6.33 3.01 -6.66 2.02 -7 1 C-2.25 0 -2.25 0 0 0 Z " fill="#5A5956" transform="translate(271,255)"/>
<path d="M0 0 C0.33 0 0.66 0 1 0 C1.38064163 8.79705092 0.20731692 17.31163005 -1 26 C-1.33 26 -1.66 26 -2 26 C-2.02683987 23.02077407 -2.04676037 20.04178705 -2.0625 17.0625 C-2.07087891 16.21236328 -2.07925781 15.36222656 -2.08789062 14.48632812 C-2.09111328 13.67744141 -2.09433594 12.86855469 -2.09765625 12.03515625 C-2.10289307 11.2862915 -2.10812988 10.53742676 -2.11352539 9.76586914 C-2 8 -2 8 -1 7 C-0.63239269 4.67182036 -0.29758419 2.3381615 0 0 Z " fill="#545553" transform="translate(224,239)"/>
<path d="M0 0 C0.33 0 0.66 0 1 0 C2.18396883 8.02350304 3.28545428 15.86455314 3 24 C2.34 23.67 1.68 23.34 1 23 C-0.22017833 18.07324223 -0.11800815 13.16343228 -0.0625 8.125 C-0.05798828 7.34125 -0.05347656 6.5575 -0.04882812 5.75 C-0.03714093 3.83329986 -0.01920908 1.91663952 0 0 Z " fill="#575654" transform="translate(105,108)"/>
<path d="M0 0 C0.928125 0.4021875 0.928125 0.4021875 1.875 0.8125 C6.17994393 2.4483787 10.58031552 3.71271326 15 5 C15 5.33 15 5.66 15 6 C8.30403958 7.43484866 4.79424351 6.59058175 -1 3 C-0.67 2.01 -0.34 1.02 0 0 Z " fill="#4A4947" transform="translate(254,250)"/>
<path d="M0 0 C0.33 0 0.66 0 1 0 C2.60881575 7.42640842 3.26442904 14.40501039 3 22 C-0.58196997 16.62704504 -1.55484797 9.14106771 -0.625 2.75 C-0.41875 1.8425 -0.2125 0.935 0 0 Z " fill="#61605D" transform="translate(121,235)"/>
<path d="M0 0 C0.33 0 0.66 0 1 0 C1.88701576 7.19201969 2.26613747 13.06828537 0 20 C-0.33 20 -0.66 20 -1 20 C-2.12067256 12.88221482 -1.7958955 6.97579243 0 0 Z " fill="#434342" transform="translate(238,183)"/>
<path d="M0 0 C0.66 0 1.32 0 2 0 C2.22119939 2.62450086 2.42746669 5.24870486 2.625 7.875 C2.68945312 8.62136719 2.75390625 9.36773437 2.8203125 10.13671875 C2.96087365 12.0870047 2.98759849 14.04469467 3 16 C2.34 16.66 1.68 17.32 1 18 C-0.59412284 14.81175432 -0.10174735 11.37103338 -0.0625 7.875 C-0.05798828 7.12089844 -0.05347656 6.36679688 -0.04882812 5.58984375 C-0.03703499 3.72652873 -0.01909942 1.86325445 0 0 Z " fill="#464747" transform="translate(221,160)"/>
<path d="M0 0 C0.33 0 0.66 0 1 0 C0.8904307 3.45900478 0.75973152 6.91689109 0.625 10.375 C0.5940625 11.35984375 0.563125 12.3446875 0.53125 13.359375 C0.49257812 14.30039063 0.45390625 15.24140625 0.4140625 16.2109375 C0.36693115 17.51490479 0.36693115 17.51490479 0.31884766 18.84521484 C0 21 0 21 -2 23 C-2.05447822 20.47886908 -2.09389852 17.9589415 -2.125 15.4375 C-2.14175781 14.73302734 -2.15851563 14.02855469 -2.17578125 13.30273438 C-2.22022044 8.48108178 -1.52768004 4.57702562 0 0 Z " fill="#535352" transform="translate(239,123)"/>
<path d="M0 0 C0.99 0 1.98 0 3 0 C1.16508812 4.74018901 -0.91941459 9.36413251 -3 14 C-5 11 -5 11 -4.875 8.6875 C-3.7670598 5.28454081 -2.2156484 2.80214356 0 0 Z " fill="#4E4E4C" transform="translate(256,204)"/>
<path d="M0 0 C0.99 0.33 1.98 0.66 3 1 C-2.0022779 11.55808656 -2.0022779 11.55808656 -6 16 C-5.59683075 9.68368172 -3.28767869 5.35006016 0 0 Z " fill="#5F5F5B" transform="translate(268,164)"/>
<path d="M0 0 C0.33 0 0.66 0 1 0 C1 6.93 1 13.86 1 21 C3.97 21 6.94 21 10 21 C10 21.33 10 21.66 10 22 C3.375 23 3.375 23 0 23 C-1 22 -1 22 -1.02172852 19.86694336 C-0.97459717 18.95050049 -0.92746582 18.03405762 -0.87890625 17.08984375 C-0.83056641 16.10048828 -0.78222656 15.11113281 -0.73242188 14.09179688 C-0.67634766 13.05087891 -0.62027344 12.00996094 -0.5625 10.9375 C-0.51029297 9.89271484 -0.45808594 8.84792969 -0.40429688 7.77148438 C-0.27416704 5.18071764 -0.13918842 2.59029334 0 0 Z " fill="#747371" transform="translate(137,151)"/>
<path d="M0 0 C0.33 0 0.66 0 1 0 C3.29612756 15.74487472 3.29612756 15.74487472 3 23 C0.44729911 20.44729911 0.08636931 18.53273025 -0.11352539 14.98535156 C-0.10828857 14.2940918 -0.10305176 13.60283203 -0.09765625 12.890625 C-0.09443359 12.13652344 -0.09121094 11.38242188 -0.08789062 10.60546875 C-0.07951172 9.82816406 -0.07113281 9.05085937 -0.0625 8.25 C-0.05798828 7.45722656 -0.05347656 6.66445312 -0.04882812 5.84765625 C-0.03708565 3.89840492 -0.01915146 1.94919262 0 0 Z " fill="#5B5A57" transform="translate(113,171)"/>
<path d="M0 0 C0.66 0 1.32 0 2 0 C1.74658809 3.42106076 0.69217816 4.30782184 -1.8125 6.8125 C-5 9 -5 9 -7.375 8.8125 C-7.91125 8.544375 -8.4475 8.27625 -9 8 C-9 7.34 -9 6.68 -9 6 C-7.28515625 4.74609375 -7.28515625 4.74609375 -5.0625 3.4375 C-2.37294547 1.9249593 -2.37294547 1.9249593 0 0 Z " fill="#5B5B59" transform="translate(224,325)"/>
<path d="M0 0 C0 0.99 0 1.98 0 3 C-4.95 3 -9.9 3 -15 3 C-14.67 2.34 -14.34 1.68 -14 1 C-9.31604754 -0.14242743 -4.78644729 -0.08252495 0 0 Z " fill="#3D3D3B" transform="translate(159,310)"/>
<path d="M0 0 C0.33 0 0.66 0 1 0 C2.28297723 7.41148455 3.25515919 14.47280398 3 22 C-0.30171338 17.04742993 -0.11722879 12.54348007 -0.0625 6.6875 C-0.05347656 5.43324219 -0.04445313 4.17898437 -0.03515625 2.88671875 C-0.01775391 1.45779297 -0.01775391 1.45779297 0 0 Z " fill="#555552" transform="translate(110,148)"/>
<path d="M0 0 C1.99609375 0.05078125 1.99609375 0.05078125 4.4375 0.3125 C5.64212891 0.43044922 5.64212891 0.43044922 6.87109375 0.55078125 C9 1 9 1 11 3 C7.52957297 5.31361802 6.08165827 5.51020728 2 5 C0.125 3 0.125 3 -1 1 C-0.67 0.67 -0.34 0.34 0 0 Z " fill="#464642" transform="translate(257,308)"/>
<path d="M0 0 C4.56958375 1.97322935 7.13463296 3.92236229 10 8 C9 10 9 10 7 11 C6.401875 10.05125 5.80375 9.1025 5.1875 8.125 C3.18437474 4.86035803 3.18437474 4.86035803 0 3 C0 2.01 0 1.02 0 0 Z " fill="#4C4C4A" transform="translate(188,293)"/>
<path d="M0 0 C6.32258065 -0.48635236 6.32258065 -0.48635236 9.4375 1.75 C11 4 11 4 11 8 C10.34 8 9.68 8 9 8 C9 8.66 9 9.32 9 10 C8.34 10 7.68 10 7 10 C6.67 7.03 6.34 4.06 6 1 C4.02 1 2.04 1 0 1 C0 0.67 0 0.34 0 0 Z " fill="#676864" transform="translate(275,274)"/>
<path d="M0 0 C3.09592835 3.5087188 4.74194623 6.49197399 6 11 C5.34 11.66 4.68 12.32 4 13 C3.13083113 11.59248779 2.28014851 10.1735479 1.4375 8.75 C0.72400391 7.56664062 0.72400391 7.56664062 -0.00390625 6.359375 C-1.13022151 3.69155375 -1.0169313 2.65498232 0 0 Z " fill="#424241" transform="translate(292,180)"/>
<path d="M0 0 C0.89506817 2.96986552 1.03315169 5.25639788 0.66015625 8.328125 C0.56669922 9.12734375 0.47324219 9.9265625 0.37695312 10.75 C0.27318359 11.575 0.16941406 12.4 0.0625 13.25 C-0.03740234 14.09046875 -0.13730469 14.9309375 -0.24023438 15.796875 C-0.48704258 17.86536277 -0.74266284 19.93279572 -1 22 C-1.33 22 -1.66 22 -2 22 C-2.05807043 18.89591193 -2.09361914 15.7919636 -2.125 12.6875 C-2.14175781 11.80642578 -2.15851563 10.92535156 -2.17578125 10.01757812 C-2.18222656 9.17001953 -2.18867188 8.32246094 -2.1953125 7.44921875 C-2.20578613 6.66893311 -2.21625977 5.88864746 -2.22705078 5.0847168 C-2 3 -2 3 0 0 Z " fill="#565554" transform="translate(235,159)"/>
<path d="M0 0 C1.32 0.33 2.64 0.66 4 1 C4 2.65 4 4.3 4 6 C2.68 6 1.36 6 0 6 C-1.7511573 7.4166747 -1.7511573 7.4166747 -3 9 C-2.5020163 5.26512223 -2.12508244 3.18762365 0 0 Z " fill="#61605E" transform="translate(274,153)"/>
<path d="M0 0 C0.33 0 0.66 0 1 0 C2.87280013 7.57763744 3.12533885 13.46322145 1 21 C0.67 21 0.34 21 0 21 C-0.88826175 13.81191259 -1.01202288 7.17757765 0 0 Z " fill="#3B3B39" transform="translate(116,122)"/>
<path d="M0 0 C0.33 0 0.66 0 1 0 C1.08086376 2.93804996 1.1404283 5.87388075 1.1875 8.8125 C1.21263672 9.64587891 1.23777344 10.47925781 1.26367188 11.33789062 C1.27333984 12.14033203 1.28300781 12.94277344 1.29296875 13.76953125 C1.3086792 14.50792236 1.32438965 15.24631348 1.34057617 16.00708008 C0.91074167 18.52230522 -0.07463062 19.39441516 -2 21 C-1.85796663 18.62471849 -1.71148388 16.24984749 -1.5625 13.875 C-1.52318359 13.20984375 -1.48386719 12.5446875 -1.44335938 11.859375 C-1.187848 7.84981183 -0.73217587 3.95005804 0 0 Z " fill="#787673" transform="translate(227,207)"/>
<path d="M0 0 C0.33 0 0.66 0 1 0 C1.1963696 2.37456165 1.38231294 4.74920019 1.5625 7.125 C1.61857422 7.79015625 1.67464844 8.4553125 1.73242188 9.140625 C2.03625857 13.2728041 1.85227531 16.94695741 1 21 C-1.8202907 16.99561779 -1.00863471 12.87663461 -0.625 8.25 C-0.56828125 7.45722656 -0.5115625 6.66445312 -0.453125 5.84765625 C-0.31216305 3.89768265 -0.1574288 1.94871329 0 0 Z " fill="#333331" transform="translate(129,226)"/>
<path d="M0 0 C0.33 0 0.66 0 1 0 C1.1968999 2.35371114 1.38270974 4.7074695 1.5625 7.0625 C1.66691406 8.37347656 1.77132812 9.68445313 1.87890625 11.03515625 C1.99765619 14.92325897 1.66866216 18.19110223 1 22 C0.67 22 0.34 22 0 22 C-1.14364008 14.50280391 -0.75667376 7.53181418 0 0 Z " fill="#373735" transform="translate(124,186)"/>
<path d="M0 0 C-3.52679099 2.35119399 -5.02879485 2.21443452 -9.1875 2.125 C-10.27417969 2.10695312 -11.36085937 2.08890625 -12.48046875 2.0703125 C-13.72763672 2.03550781 -13.72763672 2.03550781 -15 2 C-14.67 1.34 -14.34 0.68 -14 0 C-9.07942161 -1.32015518 -4.94686159 -0.76761645 0 0 Z " fill="#60605E" transform="translate(175,173)"/>
<path d="M0 0 C0.33 0 0.66 0 1 0 C1.33 4.95 1.66 9.9 2 15 C1.01 15.66 0.02 16.32 -1 17 C-1.12036664 11.22240116 -0.8320582 5.72040011 0 0 Z " fill="#373634" transform="translate(114,106)"/>
<path d="M0 0 C6.44070471 -0.10655578 12.62641289 0.03794912 19 1 C19 1.33 19 1.66 19 2 C12.41816638 2.8931507 6.57849492 2.95494281 0 2 C0 1.34 0 0.68 0 0 Z " fill="#3B3B3A" transform="translate(172,69)"/>
<path d="M0 0 C0.33 0 0.66 0 1 0 C2.50382815 7.34514411 3.23649903 13.5810058 2 21 C1.67 21 1.34 21 1 21 C0.63457573 18.62625224 0.28243861 16.25173828 -0.0625 13.875 C-0.2181543 12.87726563 -0.2181543 12.87726563 -0.37695312 11.859375 C-0.97408631 7.65885188 -0.92199443 4.13930366 0 0 Z " fill="#676762" transform="translate(124,259)"/>
<path d="M0 0 C0.33 0 0.66 0 1 0 C1.13277344 1.12019531 1.26554687 2.24039063 1.40234375 3.39453125 C1.58056569 4.86720729 1.75896011 6.33986247 1.9375 7.8125 C2.02451172 8.55048828 2.11152344 9.28847656 2.20117188 10.04882812 C2.58216546 13.16733121 3.00369374 16.01108122 4 19 C2.68 18.67 1.36 18.34 0 18 C-1.04167441 13.90274731 -0.94409525 10.38504776 -0.5625 6.1875 C-0.46066406 5.02605469 -0.35882813 3.86460937 -0.25390625 2.66796875 C-0.17011719 1.78753906 -0.08632813 0.90710938 0 0 Z " fill="#504F4D" transform="translate(262,216)"/>
<path d="M0 0 C0.33 0.99 0.66 1.98 1 3 C-1.71182212 5.60334924 -2.89133813 5.99456691 -6.75 6.1875 C-7.8225 6.125625 -8.895 6.06375 -10 6 C-9.67 5.01 -9.34 4.02 -9 3 C-4.545 2.505 -4.545 2.505 0 2 C0 1.34 0 0.68 0 0 Z " fill="#333430" transform="translate(284,282)"/>
<path d="M0 0 C1.65 0 3.3 0 5 0 C5 0.99 5 1.98 5 3 C5.94875 2.938125 6.8975 2.87625 7.875 2.8125 C8.90625 2.874375 9.9375 2.93625 11 3 C11.99 4.485 11.99 4.485 13 6 C7.06 5.01 7.06 5.01 1 4 C0.67 2.68 0.34 1.36 0 0 Z " fill="#656563" transform="translate(260,244)"/>
<path d="M0 0 C0.33 0 0.66 0 1 0 C1.0825 0.78375 1.165 1.5675 1.25 2.375 C1.72806339 5.14749104 1.72806339 5.14749104 4.0625 6.3125 C4.701875 6.539375 5.34125 6.76625 6 7 C5.67 7.99 5.34 8.98 5 10 C2.5625 9.375 2.5625 9.375 0 8 C-1.47368421 2.94736842 -1.47368421 2.94736842 0 0 Z " fill="#504F4D" transform="translate(131,171)"/>
<path d="M0 0 C1.90608098 3.21182149 2.22266247 5.53882603 2.125 9.25 C2.10695312 10.14203125 2.08890625 11.0340625 2.0703125 11.953125 C2.04710937 12.62859375 2.02390625 13.3040625 2 14 C1.01 14 0.02 14 -1 14 C-1.027193 12.41676312 -1.04648306 10.83338938 -1.0625 9.25 C-1.07410156 8.36828125 -1.08570313 7.4865625 -1.09765625 6.578125 C-1.00826198 4.2181162 -0.66912821 2.25501476 0 0 Z " fill="#323231" transform="translate(230,251)"/>
<path d="M0 0 C0.99 0 1.98 0 3 0 C3.05391993 1.79133978 3.09275571 3.58313899 3.125 5.375 C3.14820313 6.37273437 3.17140625 7.37046875 3.1953125 8.3984375 C3 11 3 11 1 13 C-0.00496852 9.98509443 -0.10335303 7.95818308 -0.0625 4.8125 C-0.05347656 3.91144531 -0.04445313 3.01039063 -0.03515625 2.08203125 C-0.02355469 1.39496094 -0.01195313 0.70789063 0 0 Z " fill="#656564" transform="translate(125,303)"/>
<path d="M0 0 C0.66 0.99 1.32 1.98 2 3 C0.35 4.32 -1.3 5.64 -3 7 C-4.32 6.34 -5.64 5.68 -7 5 C-4.69 3.35 -2.38 1.7 0 0 Z " fill="#464644" transform="translate(303,247)"/>
<path d="M0 0 C0.66 0.66 1.32 1.32 2 2 C1.9765625 4.1640625 1.9765625 4.1640625 1.625 6.625 C1.51414063 7.44226563 1.40328125 8.25953125 1.2890625 9.1015625 C1.19367188 9.72804687 1.09828125 10.35453125 1 11 C0.01 11 -0.98 11 -2 11 C-1.85892253 9.54119891 -1.71197585 8.08296449 -1.5625 6.625 C-1.48128906 5.81289062 -1.40007812 5.00078125 -1.31640625 4.1640625 C-1 2 -1 2 0 0 Z " fill="#40403E" transform="translate(233,210)"/>
<path d="M0 0 C3.67230705 3.07999946 4.56802365 5.2482602 5 10 C4.34 10 3.68 10 3 10 C0.4606772 6.58168085 -0.3636198 4.24223102 0 0 Z " fill="#555551" transform="translate(287,172)"/>
<path d="M0 0 C2 0.3125 2 0.3125 4 1 C4.33 1.66 4.66 2.32 5 3 C4.01 3 3.02 3 2 3 C1.67 4.98 1.34 6.96 1 9 C0.34 8.67 -0.32 8.34 -1 8 C-1.04241723 5.66705225 -1.04092937 3.33297433 -1 1 C-0.67 0.67 -0.34 0.34 0 0 Z " fill="#4B4B49" transform="translate(134,311)"/>
<path d="M0 0 C0.33 0 0.66 0 1 0 C1.33 4.95 1.66 9.9 2 15 C1.01 14.67 0.02 14.34 -1 14 C-1.08333357 9.1666528 -0.95261487 4.76307437 0 0 Z " fill="#383837" transform="translate(253,67)"/>
<path d="M0 0 C2.25245881 2.68841859 3.88213958 4.64641875 5 8 C4.34 8.66 3.68 9.32 3 10 C0.64551835 7.44931155 0.01672076 6.28982642 -0.1875 2.75 C-0.125625 1.8425 -0.06375 0.935 0 0 Z " fill="#41403F" transform="translate(298,191)"/>
<path d="M0 0 C0.99 0.495 0.99 0.495 2 1 C3.19156496 6.30788029 2.83536335 10.70936543 2 16 C1.67 16 1.34 16 1 16 C0.67 10.72 0.34 5.44 0 0 Z " fill="#757470" transform="translate(97,50)"/>
<path d="M0 0 C3.63 0 7.26 0 11 0 C10.67 0.99 10.34 1.98 10 3 C6.7 2.67 3.4 2.34 0 2 C0 1.34 0 0.68 0 0 Z " fill="#343534" transform="translate(232,69)"/>
<path d="M0 0 C0.99 0 1.98 0 3 0 C3.25 6.625 3.25 6.625 1 10 C0 9 0 9 -0.09765625 6.93359375 C-0.08605469 6.10988281 -0.07445312 5.28617188 -0.0625 4.4375 C-0.05347656 3.61121094 -0.04445312 2.78492188 -0.03515625 1.93359375 C-0.02355469 1.29550781 -0.01195312 0.65742188 0 0 Z " fill="#3F3F3E" transform="translate(130,250)"/>
<path d="M0 0 C0.99 0 1.98 0 3 0 C3 2.31 3 4.62 3 7 C2.34 7 1.68 7 1 7 C0.67 8.32 0.34 9.64 0 11 C0 7.37 0 3.74 0 0 Z " fill="#393938" transform="translate(125,209)"/>
<path d="M0 0 C2.83022097 3.99560608 1.76210446 7.42737323 1 12 C-1.83022097 8.00439392 -0.76210446 4.57262677 0 0 Z " fill="#3B3A39" transform="translate(235,200)"/>
<path d="M0 0 C0.33 0.66 0.66 1.32 1 2 C1.66 2 2.32 2 3 2 C3 4.64 3 7.28 3 10 C2.01 10.495 2.01 10.495 1 11 C0.67 7.37 0.34 3.74 0 0 Z " fill="#4C4C46" transform="translate(246,120)"/>
<path d="M0 0 C2.97 0.495 2.97 0.495 6 1 C6 3.31 6 5.62 6 8 C5.67 8 5.34 8 5 8 C5 6.35 5 4.7 5 3 C2.03 2.505 2.03 2.505 -1 2 C-0.67 1.34 -0.34 0.68 0 0 Z " fill="#4D4C4A" transform="translate(216,311)"/>
<path d="M0 0 C0.33 0 0.66 0 1 0 C1.95261487 4.76307437 2.08333357 9.1666528 2 14 C-1.36276635 8.95585048 -1.03291962 5.96798004 0 0 Z " fill="#4A4A47" transform="translate(121,235)"/>
<path d="M0 0 C0.66 1.32 1.32 2.64 2 4 C1.01 5.32 0.02 6.64 -1 8 C-1.66 7.67 -2.32 7.34 -3 7 C-2.38722388 4.03824877 -1.74627478 2.61941217 0 0 Z " fill="#3C3C3B" transform="translate(308,241)"/>
<path d="M0 0 C0.33 0 0.66 0 1 0 C1.38885039 1.78871178 1.76069196 3.58112874 2.125 5.375 C2.33382812 6.37273437 2.54265625 7.37046875 2.7578125 8.3984375 C2.83773437 9.25695312 2.91765625 10.11546875 3 11 C2.34 11.66 1.68 12.32 1 13 C-0.32229189 10.35541621 -0.09677194 8.32238699 -0.0625 5.375 C-0.05347656 4.37210938 -0.04445312 3.36921875 -0.03515625 2.3359375 C-0.02355469 1.56507813 -0.01195312 0.79421875 0 0 Z " fill="#5C5C59" transform="translate(241,225)"/>
<path d="M0 0 C3.3 0 6.6 0 10 0 C9.67 0.99 9.34 1.98 9 3 C6.69 3 4.38 3 2 3 C2 2.34 2 1.68 2 1 C1.34 0.67 0.68 0.34 0 0 Z " fill="#676765" transform="translate(151,172)"/>
<path d="M0 0 C0.33 0 0.66 0 1 0 C1.33 4.29 1.66 8.58 2 13 C1.01 13 0.02 13 -1 13 C-0.67 8.71 -0.34 4.42 0 0 Z " fill="#757472" transform="translate(241,98)"/>
<path d="M0 0 C2.60018816 3.90028225 2.15085514 7.47434569 2 12 C-0.42115191 9.57884809 -0.60948898 8.35839475 -1 5 C-0.5625 2.1875 -0.5625 2.1875 0 0 Z " fill="#4C4B49" transform="translate(114,182)"/>
<path d="M0 0 C0.33 1.32 0.66 2.64 1 4 C-1.64 4 -4.28 4 -7 4 C-6.01 3.67 -5.02 3.34 -4 3 C-4 2.34 -4 1.68 -4 1 C-2.68 0.67 -1.36 0.34 0 0 Z " fill="#737371" transform="translate(179,171)"/>
<path d="M0 0 C0 0.99 0 1.98 0 3 C-2.8125 4.5625 -2.8125 4.5625 -6 6 C-6.99 5.67 -7.98 5.34 -9 5 C-6.03 3.35 -3.06 1.7 0 0 Z " fill="#5A5956" transform="translate(219,321)"/>
<path d="M0 0 C0.33 0 0.66 0 1 0 C1.66 2.97 2.32 5.94 3 9 C1.68 9 0.36 9 -1 9 C-0.67 6.03 -0.34 3.06 0 0 Z " fill="#3D3B39" transform="translate(133,257)"/>
<path d="M0 0 C0.33 0 0.66 0 1 0 C2.20568053 4.67201205 2.09382426 9.21496292 2 14 C1.67 14 1.34 14 1 14 C-0.512545 8.83955235 -1.33500455 5.34001821 0 0 Z " fill="#41403F" transform="translate(116,196)"/>
<path d="M0 0 C0.99 0 1.98 0 3 0 C1.7508258 3.45925163 0.32472205 6.14693203 -2 9 C-1.125 1.125 -1.125 1.125 0 0 Z " fill="#333330" transform="translate(256,204)"/>
<path d="M0 0 C0.66 0.99 1.32 1.98 2 3 C0.68 4.65 -0.64 6.3 -2 8 C-2.6875 6.25 -2.6875 6.25 -3 4 C-1.5625 1.75 -1.5625 1.75 0 0 Z " fill="#4A4644" transform="translate(261,196)"/>
<path d="M0 0 C3 3 3 3 3.1875 6.1875 C3.0946875 7.5796875 3.0946875 7.5796875 3 9 C2.01 9.495 2.01 9.495 1 10 C0.67 6.7 0.34 3.4 0 0 Z " fill="#504F4D" transform="translate(241,158)"/>
<path d="M0 0 C2 3 2 3 1.75 6.125 C1.5025 7.07375 1.255 8.0225 1 9 C0.01 9.495 0.01 9.495 -1 10 C-1.125 3.375 -1.125 3.375 0 0 Z " fill="#323231" transform="translate(311,233)"/>
<path d="M0 0 C1.32 0 2.64 0 4 0 C4.625 1.875 4.625 1.875 5 4 C4.34 4.66 3.68 5.32 3 6 C2.01 4.02 1.02 2.04 0 0 Z " fill="#484946" transform="translate(293,187)"/>
<path d="" fill="#CECECE" transform="translate(0,0)"/>
<path d="M0 0 C3 1 3 1 3 1 Z " fill="#949494" transform="translate(182,263)"/>
<path d="" fill="#E6E6E6" transform="translate(0,0)"/>
<path d="M0 0 C3 1 3 1 3 1 Z " fill="#B7B7B7" transform="translate(178,131)"/>
<path d="M0 0 C2 1 2 1 2 1 Z " fill="#A2A2A2" transform="translate(137,304)"/>
<path d="" fill="#ACACAC" transform="translate(0,0)"/>
<path d="M0 0 C2 1 2 1 2 1 Z " fill="#A6A6A6" transform="translate(191,263)"/>
<path d="" fill="#A5A5A5" transform="translate(0,0)"/>
<path d="" fill="#828282" transform="translate(0,0)"/>
<path d="" fill="#E1E1E1" transform="translate(0,0)"/>
<path d="M0 0 C2 1 2 1 2 1 Z " fill="#B7B7B7" transform="translate(163,131)"/>
<path d="" fill="#E1E1E1" transform="translate(0,0)"/>
<path d="" fill="#D4D400" transform="translate(0,0)"/>
<path d="" fill="#6A6A6A" transform="translate(0,0)"/>
<path d="" fill="#D4D400" transform="translate(0,0)"/>
<path d="" fill="#D4D400" transform="translate(0,0)"/>
<path d="" fill="#D4D400" transform="translate(0,0)"/>
<path d="" fill="#D4D400" transform="translate(0,0)"/>
<path d="" fill="#D4D400" transform="translate(0,0)"/>
<path d="" fill="#D4D400" transform="translate(0,0)"/>
<path d="" fill="#D4D400" transform="translate(0,0)"/>
<path d="" fill="#D4D4D4" transform="translate(0,0)"/>
<path d="" fill="#6A6A6A" transform="translate(0,0)"/>
<path d="" fill="#D4D400" transform="translate(0,0)"/>
<path d="" fill="#D4D4D4" transform="translate(0,0)"/>
<path d="" fill="#D4D400" transform="translate(0,0)"/>
<path d="" fill="#D4D4D4" transform="translate(0,0)"/>
<path d="" fill="#D4D400" transform="translate(0,0)"/>
<path d="" fill="#D4D4D4" transform="translate(0,0)"/>
<path d="" fill="#8D8D8D" transform="translate(0,0)"/>
<path d="" fill="#6A6A6A" transform="translate(0,0)"/>
<path d="" fill="#D4D4D4" transform="translate(0,0)"/>
<path d="" fill="#D4D4D4" transform="translate(0,0)"/>
<path d="" fill="#D4D4D4" transform="translate(0,0)"/>
<path d="" fill="#D4D4D4" transform="translate(0,0)"/>
<path d="" fill="#6A6A6A" transform="translate(0,0)"/>
<path d="" fill="#D4D4D4" transform="translate(0,0)"/>
<path d="" fill="#D4D4D4" transform="translate(0,0)"/>
<path d="" fill="#D4D4D4" transform="translate(0,0)"/>
<path d="" fill="#D4D4D4" transform="translate(0,0)"/>
<path d="" fill="#D4D4D4" transform="translate(0,0)"/>
<path d="" fill="#D4D4D4" transform="translate(0,0)"/>
<path d="" fill="#6A6A6A" transform="translate(0,0)"/>
<path d="" fill="#D4D4D4" transform="translate(0,0)"/>
<path d="" fill="#D4D4D4" transform="translate(0,0)"/>
<path d="" fill="#D4D400" transform="translate(0,0)"/>
<path d="" fill="#D4D400" transform="translate(0,0)"/>
<path d="" fill="#D4D4D4" transform="translate(0,0)"/>
<path d="" fill="#D4D4D4" transform="translate(0,0)"/>
<path d="" fill="#D4D4D4" transform="translate(0,0)"/>
<path d="" fill="#6A6A6A" transform="translate(0,0)"/>
<path d="" fill="#D4D4D4" transform="translate(0,0)"/>
<path d="" fill="#D4D4D4" transform="translate(0,0)"/>
<path d="" fill="#D4D400" transform="translate(0,0)"/>
<path d="" fill="#D4D4D4" transform="translate(0,0)"/>
<path d="" fill="#D4D4D4" transform="translate(0,0)"/>
<path d="" fill="#D4D4D4" transform="translate(0,0)"/>
<path d="" fill="#6A6A6A" transform="translate(0,0)"/>
<path d="" fill="#8D8D8D" transform="translate(0,0)"/>
<path d="" fill="#8D8D8D" transform="translate(0,0)"/>
<path d="" fill="#D4D4D4" transform="translate(0,0)"/>
<path d="" fill="#6A6A6A" transform="translate(0,0)"/>
<path d="" fill="#D4D4D4" transform="translate(0,0)"/>
<path d="" fill="#D4D4D4" transform="translate(0,0)"/>
<path d="" fill="#D4D400" transform="translate(0,0)"/>
<path d="" fill="#D4D400" transform="translate(0,0)"/>
<path d="" fill="#D4D400" transform="translate(0,0)"/>
<path d="" fill="#D4D4D4" transform="translate(0,0)"/>
<path d="" fill="#6A6A6A" transform="translate(0,0)"/>
<path d="" fill="#D4D4D4" transform="translate(0,0)"/>
<path d="" fill="#D4D400" transform="translate(0,0)"/>
<path d="" fill="#D4D400" transform="translate(0,0)"/>
<path d="" fill="#D4D4D4" transform="translate(0,0)"/>
<path d="" fill="#D4D4D4" transform="translate(0,0)"/>
<path d="" fill="#D4D4D4" transform="translate(0,0)"/>
<path d="" fill="#D4D400" transform="translate(0,0)"/>
<path d="" fill="#D4D4D4" transform="translate(0,0)"/>
<path d="" fill="#6A6A6A" transform="translate(0,0)"/>
<path d="" fill="#D4D400" transform="translate(0,0)"/>
<path d="" fill="#D4D4D4" transform="translate(0,0)"/>
<path d="" fill="#D4D4D4" transform="translate(0,0)"/>
<path d="" fill="#D4D4D4" transform="translate(0,0)"/>
<path d="" fill="#D4D4D4" transform="translate(0,0)"/>
<path d="" fill="#D4D4D4" transform="translate(0,0)"/>
<path d="" fill="#D4D4D4" transform="translate(0,0)"/>
<path d="" fill="#6A6A6A" transform="translate(0,0)"/>
<path d="" fill="#D4D4D4" transform="translate(0,0)"/>
<path d="" fill="#D4D4D4" transform="translate(0,0)"/>
<path d="" fill="#D4D4D4" transform="translate(0,0)"/>
<path d="" fill="#D4D4D4" transform="translate(0,0)"/>
<path d="" fill="#6A6A6A" transform="translate(0,0)"/>
<path d="" fill="#D4D4D4" transform="translate(0,0)"/>
<path d="" fill="#D4D4D4" transform="translate(0,0)"/>
<path d="" fill="#D4D400" transform="translate(0,0)"/>
<path d="" fill="#D4D4D4" transform="translate(0,0)"/>
<path d="" fill="#D4D400" transform="translate(0,0)"/>
<path d="" fill="#D4D4D4" transform="translate(0,0)"/>
<path d="" fill="#D4D4D4" transform="translate(0,0)"/>
<path d="" fill="#D4D4D4" transform="translate(0,0)"/>
<path d="" fill="#6A6A6A" transform="translate(0,0)"/>
<path d="" fill="#D4D4D4" transform="translate(0,0)"/>
<path d="" fill="#D4D4D4" transform="translate(0,0)"/>
<path d="" fill="#D4D4D4" transform="translate(0,0)"/>
<path d="" fill="#D4D4D4" transform="translate(0,0)"/>
<path d="" fill="#D4D400" transform="translate(0,0)"/>
<path d="" fill="#D4D4D4" transform="translate(0,0)"/>
<path d="" fill="#D4D4D4" transform="translate(0,0)"/>
<path d="" fill="#D4D4D4" transform="translate(0,0)"/>
<path d="" fill="#6A6A6A" transform="translate(0,0)"/>
<path d="" fill="#8D8D8D" transform="translate(0,0)"/>
<path d="" fill="#D4D4D4" transform="translate(0,0)"/>
<path d="" fill="#D4D4D4" transform="translate(0,0)"/>
<path d="" fill="#D4D4D4" transform="translate(0,0)"/>
<path d="" fill="#D4D4D4" transform="translate(0,0)"/>
<path d="" fill="#D4D4D4" transform="translate(0,0)"/>
<path d="" fill="#D4D4D4" transform="translate(0,0)"/>
<path d="" fill="#D4D4D4" transform="translate(0,0)"/>
<path d="" fill="#6A6A6A" transform="translate(0,0)"/>
<path d="" fill="#D4D4D4" transform="translate(0,0)"/>
<path d="" fill="#D4D4D4" transform="translate(0,0)"/>
<path d="" fill="#D4D4D4" transform="translate(0,0)"/>
<path d="" fill="#D4D400" transform="translate(0,0)"/>
<path d="" fill="#D4D4D4" transform="translate(0,0)"/>
<path d="" fill="#6A6A6A" transform="translate(0,0)"/>
<path d="" fill="#D4D400" transform="translate(0,0)"/>
<path d="" fill="#D4D4D4" transform="translate(0,0)"/>
<path d="" fill="#D4D400" transform="translate(0,0)"/>
<path d="" fill="#6A6A6A" transform="translate(0,0)"/>
<path d="" fill="#D4D400" transform="translate(0,0)"/>
<path d="" fill="#D4D4D4" transform="translate(0,0)"/>
<path d="" fill="#D4D400" transform="translate(0,0)"/>
<path d="" fill="#D4D4D4" transform="translate(0,0)"/>
<path d="" fill="#D4D4D4" transform="translate(0,0)"/>
<path d="" fill="#D4D4D4" transform="translate(0,0)"/>
<path d="" fill="#D4D400" transform="translate(0,0)"/>
<path d="" fill="#D4D400" transform="translate(0,0)"/>
<path d="" fill="#D4D4D4" transform="translate(0,0)"/>
<path d="" fill="#D4D400" transform="translate(0,0)"/>
<path d="" fill="#D4D4D4" transform="translate(0,0)"/>
<path d="" fill="#D4D400" transform="translate(0,0)"/>
<path d="" fill="#D4D400" transform="translate(0,0)"/>
<path d="" fill="#6A6A6A" transform="translate(0,0)"/>
<path d="" fill="#D4D4D4" transform="translate(0,0)"/>
<path d="" fill="#D4D4D4" transform="translate(0,0)"/>
<path d="" fill="#D4D4D4" transform="translate(0,0)"/>
<path d="" fill="#D4D4D4" transform="translate(0,0)"/>
<path d="" fill="#D4D4D4" transform="translate(0,0)"/>
<path d="" fill="#D4D4D4" transform="translate(0,0)"/>
<path d="" fill="#D4D4D4" transform="translate(0,0)"/>
<path d="" fill="#D4D4D4" transform="translate(0,0)"/>
<path d="" fill="#6A6A6A" transform="translate(0,0)"/>
<path d="" fill="#D4D4D4" transform="translate(0,0)"/>
<path d="" fill="#6A6A6A" transform="translate(0,0)"/>
<path d="" fill="#D4D400" transform="translate(0,0)"/>
<path d="" fill="#6A6A6A" transform="translate(0,0)"/>
<path d="" fill="#6A6A6A" transform="translate(0,0)"/>
<path d="" fill="#D4D4D4" transform="translate(0,0)"/>
<path d="" fill="#D4D400" transform="translate(0,0)"/>
<path d="" fill="#D4D400" transform="translate(0,0)"/>
<path d="" fill="#D4D4D4" transform="translate(0,0)"/>
<path d="" fill="#D4D4D4" transform="translate(0,0)"/>
<path d="" fill="#6A6A6A" transform="translate(0,0)"/>
<path d="" fill="#6A6A6A" transform="translate(0,0)"/>
<path d="" fill="#D4D4D4" transform="translate(0,0)"/>
<path d="" fill="#D4D4D4" transform="translate(0,0)"/>
<path d="" fill="#D4D400" transform="translate(0,0)"/>
<path d="" fill="#D4D400" transform="translate(0,0)"/>
<path d="" fill="#D4D400" transform="translate(0,0)"/>
<path d="" fill="#D4D400" transform="translate(0,0)"/>
<path d="" fill="#D4D400" transform="translate(0,0)"/>
<path d="" fill="#D4D400" transform="translate(0,0)"/>
<path d="" fill="#D4D400" transform="translate(0,0)"/>
<path d="" fill="#D4D400" transform="translate(0,0)"/>
<path d="" fill="#D4D400" transform="translate(0,0)"/>
<path d="" fill="#D4D400" transform="translate(0,0)"/>
<path d="" fill="#D4D400" transform="translate(0,0)"/>
<path d="" fill="#D4D400" transform="translate(0,0)"/>
<path d="" fill="#D4D400" transform="translate(0,0)"/>
<path d="" fill="#D4D400" transform="translate(0,0)"/>
<path d="" fill="#D4D400" transform="translate(0,0)"/>
<path d="" fill="#D4D400" transform="translate(0,0)"/>
<path d="" fill="#D4D400" transform="translate(0,0)"/>
</svg>
