<?xml version="1.0" encoding="UTF-8"?>
<svg version="1.1" xmlns="http://www.w3.org/2000/svg" width="373" height="373">
<path d="M0 0 C0.99 0.495 0.99 0.495 2 1 C3.97033418 1.07607119 5.94334105 1.08617923 7.91503906 1.06591797 C9.7777243 1.05128006 9.7777243 1.05128006 11.67803955 1.03634644 C12.34377235 1.02898342 13.00950516 1.02162041 13.69541168 1.01403427 C15.78072891 0.99202811 17.86595538 0.97793729 19.95135498 0.96633911 C25.88127075 0.93273715 31.81103733 0.89128777 37.74072266 0.82861328 C41.36752694 0.79084811 44.99417532 0.76790485 48.62114716 0.75430679 C50.00061122 0.74627687 51.38005501 0.73270243 52.75940704 0.71337509 C54.69525731 0.68673637 56.63135661 0.68062428 58.56738281 0.67529297 C59.66721497 0.66561493 60.76704712 0.65593689 61.90020752 0.64596558 C65.51552478 1.05887927 67.91362403 2.09481779 71 4 C71.8046875 6.48046875 71.8046875 6.48046875 71.875 9.1875 C71.91367187 10.08855469 71.95234375 10.98960937 71.9921875 11.91796875 C71.99476563 12.60503906 71.99734375 13.29210937 72 14 C66.40261306 15.59290105 61.54772606 16.26862606 55.74804688 16.13525391 C54.96659302 16.12579239 54.18513916 16.11633087 53.38000488 16.10658264 C50.82599923 16.07320772 48.27251025 16.0250125 45.71875 15.9765625 C43.93657741 15.95036403 42.15439087 15.92509959 40.37219238 15.90072632 C35.70318815 15.83438228 31.03448083 15.75542438 26.36572266 15.67376709 C21.59288851 15.59254596 16.8198813 15.52335373 12.046875 15.453125 C2.69770932 15.31380279 -6.65118674 15.16114356 -16 15 C-16.33 15.66 -16.66 16.32 -17 17 C-17 16.34 -17 15.68 -17 15 C-22.82086707 15.1179265 -28.6415519 15.24215042 -34.4621582 15.37231445 C-36.44389146 15.41573144 -38.42566378 15.45740137 -40.4074707 15.49731445 C-43.2496317 15.55485383 -46.09159483 15.61859445 -48.93359375 15.68359375 C-50.27108925 15.70866249 -50.27108925 15.70866249 -51.63560486 15.73423767 C-55.63948395 15.436587 -55.63948395 15.436587 -59 17 C-59.61280666 23.12806662 -58.14606327 25.98596167 -55 31 C-55 31.66 -55 32.32 -55 33 C-53.35 33.33 -51.7 33.66 -50 34 C-50 34.66 -50 35.32 -50 36 C-41.9582901 39.4116345 -33.82496042 41.89765 -25.2421875 39.1015625 C-23.52278775 38.39475386 -21.81633483 37.65506329 -20.12890625 36.875 C-18 36 -18 36 -15 36 C-14.67 35.34 -14.34 34.68 -14 34 C-3.44247434 30.10405659 5.93282974 31.83233231 16 36 C29.44218883 41.50330276 36.46671638 40.27515463 50 35 C55.85671318 32.76221108 60.68768473 31.15835796 67 32 C70.0625 34.1875 70.0625 34.1875 72 37 C72 39.89154042 71.52681055 41.29815794 69.80078125 43.59765625 C67.31019227 45.53718216 65.31511676 45.52326294 62.1875 45.8125 C55.43403143 46.69075376 50.10800695 48.82273003 43.99609375 51.66015625 C35.65219795 55.39152034 27.62983024 54.26058651 19 52 C17.93845703 51.76410156 17.93845703 51.76410156 16.85546875 51.5234375 C15 51 15 51 13.125 49.5625 C7.36992163 45.33082473 0.85825002 45.49047177 -6 46 C-9.63711924 46.89332753 -11.37334563 47.37334563 -14 50 C-16.0234375 50.81640625 -16.0234375 50.81640625 -18.375 51.5625 C-19.14585937 51.81128906 -19.91671875 52.06007812 -20.7109375 52.31640625 C-29.79332685 55.02872389 -37.79761915 53.92647973 -47 52 C-47 51.34 -47 50.68 -47 50 C-47.99 50.495 -47.99 50.495 -49 51 C-48.7326001 51.6705542 -48.4652002 52.3411084 -48.18969727 53.03198242 C-46.97624468 56.08209743 -45.76931483 59.13475294 -44.5625 62.1875 C-44.14162109 63.24259766 -43.72074219 64.29769531 -43.28710938 65.38476562 C-42.88427734 66.40634766 -42.48144531 67.42792969 -42.06640625 68.48046875 C-41.69459229 69.41785889 -41.32277832 70.35524902 -40.93969727 71.32104492 C-37.18404971 82.02790921 -37.04135973 97.30508774 -41.67578125 107.6796875 C-48.29370957 119.27570349 -56.44115947 125.01881136 -69 129 C-69.93199219 129.37898437 -70.86398438 129.75796875 -71.82421875 130.1484375 C-75.77262241 131.20717305 -79.19951809 130.91276585 -83.1875 130.375 C-83.93346436 130.28089844 -84.67942871 130.18679688 -85.44799805 130.08984375 C-91.63681948 129.22451712 -97.29992566 127.59186329 -103 125 C-103.73605469 124.67 -104.47210938 124.34 -105.23046875 124 C-107 123 -107 123 -108 121 C-109.485 120.505 -109.485 120.505 -111 120 C-112.61032326 117.98709593 -114.06503609 116.00613453 -115.5 113.875 C-115.89058594 113.318125 -116.28117187 112.76125 -116.68359375 112.1875 C-120.75191012 106.24255285 -123 101.30514907 -123 94 C-123.66 94 -124.32 94 -125 94 C-124.835 92.906875 -124.67 91.81375 -124.5 90.6875 C-123.93281816 87.12474127 -123.93281816 87.12474127 -124 84 C-122.69311389 78.17556048 -120.93359333 72.58033795 -119 66.9375 C-117.19898373 61.65481614 -115.48627683 56.38060794 -114 51 C-114.99 51.66 -115.98 52.32 -117 53 C-126.40822908 55.24005454 -135.61872447 53.62396114 -145 52 C-144.505 51.01 -144.505 51.01 -144 50 C-152.12002399 46.54204302 -159.31116753 44.02061872 -167.94140625 47.0234375 C-169.98866514 47.88626692 -172.02534192 48.77462594 -174.05078125 49.6875 C-183.96789586 54.10094438 -192.34930311 54.84338985 -203 53 C-203.94875 52.855625 -204.8975 52.71125 -205.875 52.5625 C-206.926875 52.2840625 -206.926875 52.2840625 -208 52 C-208.33 51.34 -208.66 50.68 -209 50 C-214.84399541 46.76514193 -220.14243998 45.55790267 -226.7734375 46.0546875 C-229 46 -229 46 -233 44 C-232.34 40.7 -231.68 37.4 -231 34 C-224.30548655 30.92414247 -217.59527092 31.74603965 -210.796875 34.1171875 C-207.83271526 35.35103724 -204.91672285 36.65864179 -202 38 C-198.31597729 39.68396046 -195.49216104 40.27255722 -191.4375 40.25 C-190.04337891 40.25773437 -190.04337891 40.25773437 -188.62109375 40.265625 C-185.90977582 39.99085657 -184.36299155 39.29070967 -182 38 C-180.948125 37.835 -179.89625 37.67 -178.8125 37.5 C-177.4203125 37.2525 -177.4203125 37.2525 -176 37 C-175.505 36.01 -175.505 36.01 -175 35 C-160.74936211 30.50084172 -150.46420408 32.55666309 -137 38 C-136.02933594 38.57041016 -136.02933594 38.57041016 -135.0390625 39.15234375 C-131.9438055 40.43906936 -129.07656012 40.18660297 -125.75 40.125 C-123.85507813 40.09792969 -123.85507813 40.09792969 -121.921875 40.0703125 C-120.95765625 40.04710937 -119.9934375 40.02390625 -119 40 C-118.505 39.01 -118.505 39.01 -118 38 C-116.60525966 37.36602712 -115.18334319 36.79106332 -113.75 36.25 C-108.48460623 34.01975359 -105.58781189 31.17562378 -103 26 C-102.84101146 24.08499697 -102.84101146 24.08499697 -102.875 22 C-102.87242187 21.29875 -102.86984375 20.5975 -102.8671875 19.875 C-102.88622764 17.90846225 -102.88622764 17.90846225 -104 16 C-104.5661565 16.00092179 -105.132313 16.00184359 -105.71562576 16.00279331 C-119.53948486 16.02495027 -133.36334081 16.04139694 -147.1872139 16.05181217 C-153.87253762 16.05695197 -160.55784768 16.06407683 -167.24316406 16.07543945 C-173.70114009 16.08634634 -180.15910378 16.09229332 -186.61708832 16.09487724 C-189.07449284 16.09671747 -191.53189672 16.10031087 -193.98929596 16.10573006 C-197.44502698 16.11304413 -200.90070774 16.1139866 -204.35644531 16.11352539 C-205.36058472 16.11712067 -206.36472412 16.12071594 -207.39929199 16.12442017 C-224.701152 16.099616 -224.701152 16.099616 -231 14 C-232.72375209 10.55249582 -231.47950345 6.7294713 -231 3 C-223.90761066 1.31133551 -217.2349699 0.71095502 -209.95751953 0.74121094 C-208.90244202 0.7377063 -207.8473645 0.73420166 -206.76031494 0.73059082 C-203.30107888 0.72184783 -199.84205035 0.72759722 -196.3828125 0.734375 C-193.95962485 0.73302602 -191.53643746 0.73108354 -189.11325073 0.72857666 C-184.04471245 0.72563528 -178.97624488 0.72989058 -173.90771484 0.73925781 C-167.43645647 0.75063942 -160.96536427 0.74409465 -154.49411201 0.73211288 C-149.49244962 0.72485724 -144.49082606 0.7271994 -139.48916245 0.73236847 C-137.10432795 0.73369536 -134.71948984 0.7320912 -132.33465958 0.72740936 C-128.99010237 0.72228438 -125.6458074 0.73013821 -122.30126953 0.74121094 C-121.33154205 0.73716248 -120.36181458 0.73311401 -119.36270142 0.72894287 C-99.83593099 0.84766211 -99.83593099 0.84766211 -93 7 C-89.38059562 11.30415655 -87.61500505 15.36923688 -88 21 C-90.19692735 30.66930395 -93.71806301 39.83186922 -97.4375 49 C-108.77226412 73.79385873 -108.77226412 73.79385873 -107 100 C-102.63882233 108.18059414 -97.38000153 112.73007936 -88.48828125 115.46484375 C-80.80152067 117.11804029 -73.49935242 115.96704326 -66 114 C-66 113.01 -66 112.02 -66 111 C-65.030625 110.7525 -64.06125 110.505 -63.0625 110.25 C-62.051875 109.8375 -61.04125 109.425 -60 109 C-59.3185177 107.10820797 -59.3185177 107.10820797 -59 105 C-57.66666667 103.66666667 -56.33333333 102.33333333 -55 101 C-52.00190295 95.60342531 -52.48718337 89.83514984 -54 84 C-53.67 83.01 -53.34 82.02 -53 81 C-53.33 80.34 -53.66 79.68 -54 79 C-53.67 78.01 -53.34 77.02 -53 76 C-53.99 76 -54.98 76 -56 76 C-56 74.68 -56 73.36 -56 72 C-56.99950343 67.6175619 -57.78831436 65.07204713 -61 62 C-61.37309899 60.34178227 -61.70700977 58.67422986 -62 57 C-62.66 56.01 -63.32 55.02 -64 54 C-63.34 54 -62.68 54 -62 54 C-62.44730469 53.11441406 -62.89460937 52.22882813 -63.35546875 51.31640625 C-75.88986749 25.89325493 -75.88986749 25.89325493 -73 13 C-73 12.01 -73 11.02 -73 10 C-68.56323759 5.82422362 -64.15742907 3 -58 3 C-58 2.34 -58 1.68 -58 1 C-38.63135892 0.86041006 -19.35233433 1.19320571 0 2 C0 1.34 0 0.68 0 0 Z " fill="#575653" transform="translate(270,201)"/>
<path d="M0 0 C3.67576278 4.83652998 4.66403892 8.57005852 4.37890625 14.640625 C3.53174496 19.9157324 0.49435114 22.7853359 -3.625 25.8125 C-5.39323151 27.00547715 -7.09099843 28.04549922 -9 29 C-10.485 28.505 -10.485 28.505 -12 28 C-12.33 28.66 -12.66 29.32 -13 30 C-14.98 29.34 -16.96 28.68 -19 28 C-19 27.34 -19 26.68 -19 26 C-20.65 26 -22.3 26 -24 26 C-24.66 24.68 -25.32 23.36 -26 22 C-26.66 22 -27.32 22 -28 22 C-28.185625 20.88625 -28.185625 20.88625 -28.375 19.75 C-28.85432552 17.03672043 -28.85432552 17.03672043 -30.125 15 C-31.30462698 12.30370977 -30.76936696 10.79769802 -30 8 C-29.814375 7.236875 -29.62875 6.47375 -29.4375 5.6875 C-29.293125 5.130625 -29.14875 4.57375 -29 4 C-28.34 4 -27.68 4 -27 4 C-26.79375 3.4225 -26.5875 2.845 -26.375 2.25 C-24.09082083 -1.48774774 -20.72024679 -3.41149452 -16.625 -4.8125 C-9.90641095 -5.29239922 -5.16541861 -4.46104334 0 0 Z " fill="#555552" transform="translate(190,120)"/>
<path d="M0 0 C3.54440625 2.835525 6.8571618 6.21111495 7.4609375 10.8515625 C7.68793221 16.49150809 7.11741026 20.40333168 3.81640625 25.05859375 C1.06563575 27.9149094 -2.10523133 29.44545417 -5.8125 30.75 C-6.78509766 31.09998047 -6.78509766 31.09998047 -7.77734375 31.45703125 C-12.52494122 32.14046659 -17.5797218 28.59189731 -21.375 26 C-21.849375 25.5875 -22.32375 25.175 -22.8125 24.75 C-23.4725 25.08 -24.1325 25.41 -24.8125 25.75 C-26.96702493 18.77947818 -27.592609 12.75524525 -24.5625 5.9375 C-18.08033088 -2.1652114 -9.40301778 -4.17911902 0 0 Z " fill="#565552" transform="translate(198.8125,29.25)"/>
<path d="M0 0 C5.28387249 1.8441751 8.47286804 5.04293346 11 10 C12.58411879 15.70282765 11.84616889 19.92543532 9 25 C5.31972164 28.98696823 2.26486361 29.39251574 -3 30 C-3.33 30.66 -3.66 31.32 -4 32 C-5.32 31.34 -6.64 30.68 -8 30 C-8.33 30.66 -8.66 31.32 -9 32 C-9.33 31.34 -9.66 30.68 -10 30 C-10.99 29.67 -11.98 29.34 -13 29 C-13 28.34 -13 27.68 -13 27 C-13.66 27 -14.32 27 -15 27 C-18 23.53846154 -18 23.53846154 -18 21 C-18.99 20.67 -19.98 20.34 -21 20 C-20.34 20 -19.68 20 -19 20 C-19.185625 18.948125 -19.37125 17.89625 -19.5625 16.8125 C-19.95079331 13.42880118 -19.88247485 11.23574112 -19 8 C-18.34 8 -17.68 8 -17 8 C-16.79375 7.4225 -16.5875 6.845 -16.375 6.25 C-12.56282306 0.01189227 -6.75360619 -1.15305471 0 0 Z " fill="#565652" transform="translate(207,159)"/>
<path d="M0 0 C3.41879717 1.21479726 6.66449844 2.75219992 9.9375 4.3125 C11.67557494 5.12153711 13.41385252 5.93013907 15.15234375 6.73828125 C19.80594443 8.90718672 19.80594443 8.90718672 22.01220703 9.96240234 C25.48414489 11.56071528 28.1698494 12.34819551 32 12 C32.2493357 13.60115576 32.47378648 15.20620159 32.6875 16.8125 C32.81511719 17.70582031 32.94273438 18.59914062 33.07421875 19.51953125 C33 22 33 22 31.73828125 23.8125 C28.95403075 25.71454978 26.27600822 25.17550044 23 25 C22.01 25 21.02 25 20 25 C19.01 24.34 18.02 23.68 17 23 C16.01 23 15.02 23 14 23 C14 22.34 14 21.68 14 21 C13.23816406 20.69707031 12.47632812 20.39414063 11.69140625 20.08203125 C-5.71652863 13.01888664 -5.71652863 13.01888664 -10 8 C-10.6875 5.3125 -10.6875 5.3125 -11 3 C-10.01 3 -9.02 3 -8 3 C-8 2.34 -8 1.68 -8 1 C-5.06560365 -0.46719817 -3.30170736 -0.31356997 0 0 Z " fill="#595954" transform="translate(88,149)"/>
<path d="M0 0 C1.875 1.5625 1.875 1.5625 3 4 C3.0234375 7.3984375 3.0234375 7.3984375 2 11 C-0.51169367 12.77755435 -2.47536107 13.88339757 -5.25 15.0625 C-5.96857178 15.39121094 -6.68714355 15.71992188 -7.42749023 16.05859375 C-8.90058287 16.73059357 -10.37844112 17.39224302 -11.86083984 18.04345703 C-13.83817591 18.92763903 -15.77325689 19.86478272 -17.70703125 20.83984375 C-23.46720381 23.68975451 -27.44891759 25.49442131 -34 25 C-36.9375 23.5 -36.9375 23.5 -39 22 C-38.55268969 19.3257923 -38.18460862 17.3943668 -37 15 C-34.47830957 13.26918956 -32.44341034 12.12362439 -29.6875 10.9375 C-28.97634033 10.60806396 -28.26518066 10.27862793 -27.5324707 9.93920898 C-26.07338038 9.26622086 -24.60935442 8.60383201 -23.140625 7.95214844 C-21.13254498 7.05895591 -19.14266204 6.13553368 -17.15625 5.1953125 C-4.83530246 -0.60441281 -4.83530246 -0.60441281 0 0 Z " fill="#575753" transform="translate(297,149)"/>
<path d="M0 0 C1.08360809 -0.00350464 2.16721619 -0.00700928 3.28366089 -0.01062012 C6.86747643 -0.01942435 10.45109453 -0.01358988 14.03491211 -0.00683594 C16.53250669 -0.00818365 19.03010102 -0.01012506 21.5276947 -0.01263428 C26.76734421 -0.01558434 32.00694261 -0.01148576 37.24658203 -0.00195312 C42.61120228 0.00769516 47.97571187 0.00775628 53.34033203 -0.00195312 C59.83003092 -0.0135953 66.31964897 -0.01533952 72.80935478 -0.00884247 C75.27513079 -0.00751444 77.74091028 -0.00912381 80.20668221 -0.01380157 C83.66912886 -0.01892542 87.13132203 -0.01107295 90.59375 0 C91.59938492 -0.00404846 92.60501984 -0.00809692 93.64112854 -0.01226807 C100.67239794 0.02903507 107.34998841 0.92444044 114.24975586 2.25878906 C113.58975586 3.24878906 112.92975586 4.23878906 112.24975586 5.25878906 C110.02025414 5.62793255 110.02025414 5.62793255 107.18783569 5.61955261 C106.1164888 5.62367661 105.04514191 5.6278006 103.94132996 5.63204956 C102.76097672 5.62126373 101.58062347 5.61047791 100.36450195 5.59936523 C99.12550644 5.59980331 97.88651093 5.60024139 96.60997009 5.60069275 C93.20709173 5.59895756 89.80475559 5.58388552 86.40197325 5.56297088 C82.84788317 5.54425018 79.29378631 5.54245729 75.73965454 5.53889465 C69.00707579 5.52956059 62.27464273 5.50492852 55.54212821 5.47484618 C47.87840297 5.44134441 40.21467088 5.42482682 32.55089068 5.40975988 C16.78376129 5.37838004 1.01677734 5.32559326 -14.75024414 5.25878906 C-15.08024414 4.26878906 -15.41024414 3.27878906 -15.75024414 2.25878906 C-10.71821077 -0.44927794 -5.55475216 -0.02205148 0 0 Z " fill="#666561" transform="translate(56.750244140625,201.7412109375)"/>
<path d="M0 0 C2.375 2 2.375 2 4 4 C2.82873642 10.4419497 -0.46522099 14.93744512 -4.22265625 20.23046875 C-5.76248265 22.62989055 -6.56957679 24.2254258 -7 27 C-7.99 27 -8.98 27 -10 27 C-10.268125 27.763125 -10.53625 28.52625 -10.8125 29.3125 C-11.9717361 31.93603434 -12.75255646 33.27119728 -15 35 C-18.01480825 36.13055309 -18.83170302 36.05609899 -22 35 C-22 34.34 -22 33.68 -22 33 C-22.66 33 -23.32 33 -24 33 C-25.02325977 28.59998301 -25.20892239 25.99709766 -23 22 C-21.68671343 20.64691687 -20.35500919 19.31129922 -19 18 C-18.67 17.01 -18.34 16.02 -18 15 C-17.34 15 -16.68 15 -16 15 C-15.731875 14.27296875 -15.46375 13.5459375 -15.1875 12.796875 C-14.01669894 10.0393304 -12.66687526 7.73364414 -11 5.25 C-10.2265625 4.08210938 -10.2265625 4.08210938 -9.4375 2.890625 C-6.80648046 -0.56973766 -4.15244452 -0.41524445 0 0 Z " fill="#53534F" transform="translate(260,109)"/>
<path d="M0 0 C5.06718711 4.21394942 8.25816283 9.72583513 11.75 15.25 C12.91055397 17.06828587 14.07196536 18.88602487 15.234375 20.703125 C15.74194336 21.50395508 16.24951172 22.30478516 16.77246094 23.12988281 C17.86570625 24.93341156 17.86570625 24.93341156 19 26 C19.375 28.8125 19.375 28.8125 19 32 C16.875 34.5 16.875 34.5 14 36 C10.11486617 35.44498088 8.44688346 34.47171032 5.75 31.625 C4.29077262 29.43615892 3.14264433 27.35670392 2 25 C1.29875 23.96875 0.5975 22.9375 -0.125 21.875 C-2 19 -2 19 -2 17 C-3.32 17 -4.64 17 -6 17 C-6 15.68 -6 14.36 -6 13 C-6.95865509 10.66924071 -6.95865509 10.66924071 -10 9 C-9.67 8.67 -9.34 8.34 -9 8 C-9.04125 7.21625 -9.0825 6.4325 -9.125 5.625 C-9 3 -9 3 -7.875 1.1875 C-5.04051261 -0.60767534 -3.29069071 -0.52651051 0 0 Z " fill="#555551" transform="translate(124,109)"/>
<path d="M0 0 C0.29519531 0.60070312 0.59039062 1.20140625 0.89453125 1.8203125 C1.76524781 3.53713172 2.71306514 5.21485173 3.6875 6.875 C5.24214167 10.57652779 5.13526345 12.18875842 4 16 C2.27019173 19.45961653 1.2619389 20.82537407 -2 23 C-7.69788132 24.06765035 -12.75513065 23.10716363 -17.5390625 19.8359375 C-20.07300674 16.65156907 -19.52616698 13.32057534 -19.18359375 9.42578125 C-18.79055037 6.99103314 -18.79055037 6.99103314 -20 5 C-13.28027447 0.35426383 -8.10635405 -0.68184286 0 0 Z " fill="#575653" transform="translate(214,82)"/>
<path d="M0 0 C0.99 0.495 0.99 0.495 2 1 C3.9807831 1.08119561 5.96438629 1.09662431 7.94677734 1.08178711 C9.81914566 1.07199074 9.81914566 1.07199074 11.7293396 1.06199646 C12.39831646 1.05625547 13.06729332 1.05051449 13.75654221 1.04459953 C15.84971572 1.02722941 17.94281308 1.01691623 20.03604126 1.00868225 C25.98796807 0.98421265 31.93979254 0.94869412 37.89160156 0.90405273 C41.53136135 0.87724804 45.17106155 0.86021858 48.81090164 0.84918404 C50.19757918 0.84297961 51.58424516 0.83298094 52.97086716 0.81910515 C54.9119868 0.79985799 56.85322557 0.79404642 58.79443359 0.78881836 C59.89870697 0.78136093 61.00298035 0.7739035 62.14071655 0.76622009 C64.9667419 0.99728076 66.60505251 1.53404841 69 3 C69 3.66 69 4.32 69 5 C68.33554556 5.00331015 67.67109112 5.00662029 66.98650169 5.01003075 C50.81131907 5.09128681 34.63623814 5.1833878 18.46118736 5.28752708 C10.63902106 5.33762734 2.8168651 5.38407054 -5.00537109 5.421875 C-11.82403242 5.45483855 -18.64261286 5.49469383 -25.46118486 5.54279006 C-29.07083615 5.56801173 -32.6804341 5.58980573 -36.29014969 5.60334396 C-40.32196912 5.61859453 -44.35353198 5.64923252 -48.38525391 5.68115234 C-50.17629044 5.68439262 -50.17629044 5.68439262 -52.00350952 5.68769836 C-59.68547088 5.76421638 -59.68547088 5.76421638 -67 8 C-66.67 7.34 -66.34 6.68 -66 6 C-65.34 6 -64.68 6 -64 6 C-64 5.34 -64 4.68 -64 4 C-62.02 3.67 -60.04 3.34 -58 3 C-58 2.34 -58 1.68 -58 1 C-38.63135892 0.86041006 -19.35233433 1.19320571 0 2 C0 1.34 0 0.68 0 0 Z " fill="#6D6C67" transform="translate(270,201)"/>
<path d="M0 0 C0.84150746 0.48776743 0.84150746 0.48776743 1.70001507 0.98538876 C4.27996507 2.12350329 5.9916131 2.24434454 8.79975891 2.23377991 C9.76276917 2.23508408 10.72577942 2.23638824 11.7179718 2.23773193 C12.76792831 2.22897034 13.81788483 2.22020874 14.8996582 2.21118164 C16.01065887 2.2098674 17.12165955 2.20855316 18.2663269 2.2071991 C21.94456447 2.2007003 25.62259507 2.18026028 29.30078125 2.16015625 C31.85662104 2.15388577 34.41246355 2.1486457 36.9683075 2.14439392 C43.01600904 2.13243842 49.06362372 2.11229746 55.11128157 2.08749622 C66.57105337 2.04057085 78.03084138 2.00765559 89.4906826 1.9829998 C93.25247463 1.97278739 97.01419205 1.95573239 100.7759552 1.93800354 C103.08802219 1.93117324 105.40008985 1.92456455 107.7121582 1.91821289 C109.27798393 1.90810684 109.27798393 1.90810684 110.8754425 1.89779663 C116.03173217 1.88975196 120.91978204 2.10032866 126 3 C120.21415149 8.78584851 102.87662453 6.13402392 94.96881104 6.13894653 C92.92191545 6.13715683 90.87502008 6.1351059 88.828125 6.1328125 C86.69350168 6.1334875 84.55887843 6.13445916 82.42425537 6.13571167 C77.97309632 6.13717814 73.52195747 6.13506722 69.07080078 6.13037109 C63.38295519 6.12466051 57.69515666 6.12796791 52.00731277 6.13394356 C47.60798796 6.13756576 43.20867422 6.13640319 38.80934906 6.13381577 C36.71230819 6.13315181 34.61526629 6.13395622 32.51822662 6.13629532 C29.58536634 6.13885072 26.65258128 6.13494136 23.71972656 6.12939453 C22.86548599 6.13141876 22.01124542 6.13344299 21.13111877 6.13552856 C5.05865357 6.07955933 5.05865357 6.07955933 0 2 C0 1.34 0 0.68 0 0 Z " fill="#0A0A09" transform="translate(40,211)"/>
<path d="M0 0 C2.67881036 1.97386026 3.75391303 3.31447201 4.875 6.4375 C5.06010678 10.23218908 4.01153424 12.75857162 1.625 15.6875 C-1.26699374 18.0233411 -3.25001866 19 -7 19 C-7 18.34 -7 17.68 -7 17 C-8.65 17 -10.3 17 -12 17 C-14.10718184 13.54422178 -15.00804219 11.4664468 -14.9375 7.375 C-13.91501484 3.69405342 -13.002389 2.29594453 -10 0 C-6.19426871 -1.2685771 -3.89430952 -0.88817586 0 0 Z " fill="#595955" transform="translate(185,284)"/>
<path d="M0 0 C3.51617697 0.65114388 6.17608443 1.78666077 9 4 C10.01158509 7.16963329 10.30674506 9.07976481 9.25 12.25 C8 14 8 14 5 16 C1.80079639 15.66674962 -0.94858478 15.01713841 -4 14 C-3 12 -3 12 -2 11 C-2.99 10.67 -3.98 10.34 -5 10 C-4.34 10 -3.68 10 -3 10 C-3.0928125 8.63875 -3.0928125 8.63875 -3.1875 7.25 C-2.98327924 3.71017358 -2.35448165 2.55068845 0 0 Z " fill="#55534E" transform="translate(195,263)"/>
<path d="M0 0 C7.57174173 -0.02323606 15.14347973 -0.0409723 22.71524906 -0.05181217 C26.23164701 -0.05701644 29.74802045 -0.06406918 33.2644043 -0.07543945 C37.31299059 -0.08844772 41.36155139 -0.09324852 45.41015625 -0.09765625 C46.66458023 -0.10281754 47.91900421 -0.10797882 49.21144104 -0.11329651 C54.91235805 -0.11366121 60.38848122 -0.04560215 66 1 C62.22086548 4.77913452 56.1244625 3.96083476 51 4 C42.66082056 3.83768668 34.32909875 3.42935506 26 3 C26 2.34 26 1.68 26 1 C17.42 1 8.84 1 0 1 C0 0.67 0 0.34 0 0 Z " fill="#31312F" transform="translate(100,213)"/>
<path d="M0 0 C7.7884635 -0.04629055 15.57689492 -0.08185242 23.36546135 -0.10362434 C26.98180873 -0.11407249 30.59806216 -0.12825032 34.21435547 -0.15087891 C37.70268811 -0.1725708 41.19093024 -0.18456085 44.6793251 -0.18975449 C46.66139971 -0.19526169 48.64343779 -0.21088034 50.62545776 -0.22659302 C51.82655182 -0.22674408 53.02764587 -0.22689514 54.26513672 -0.22705078 C55.32658905 -0.231492 56.38804138 -0.23593323 57.48165894 -0.24050903 C60 0 60 0 62 2 C57.81548047 3.01784251 53.78457788 3.13412453 49.50390625 3.09375 C48.76854141 3.09016479 48.03317657 3.08657959 47.27552795 3.08288574 C37.82716422 3.01638656 28.38224167 2.75542545 18.9375 2.5 C17.0878959 2.45162099 15.23828653 2.40344288 13.38867188 2.35546875 C8.92571742 2.23928466 4.46284213 2.12041827 0 2 C0 1.34 0 0.68 0 0 Z " fill="#050404" transform="translate(277,214)"/>
<path d="M0 0 C17.49 0 34.98 0 53 0 C53 0.66 53 1.32 53 2 C46.07 2 39.14 2 32 2 C31.67 2.66 31.34 3.32 31 4 C31 3.34 31 2.68 31 2 C20.44 2 9.88 2 -1 2 C-0.67 1.34 -0.34 0.68 0 0 Z " fill="#060605" transform="translate(222,214)"/>
<path d="M0 0 C1.7115477 0.0001133 1.7115477 0.0001133 3.45767212 0.00022888 C4.69415497 0.00539017 5.93063782 0.01055145 7.20458984 0.01586914 C8.46693451 0.01728409 9.72927917 0.01869904 11.02987671 0.02015686 C14.38691033 0.02481461 17.74387635 0.03380131 21.10089111 0.04486084 C24.52607641 0.05508769 27.95126868 0.05965721 31.37646484 0.06469727 C38.09783777 0.07574301 44.81917865 0.09249346 51.54052734 0.11352539 C51.54052734 0.44352539 51.54052734 0.77352539 51.54052734 1.11352539 C50.9414003 1.12383286 50.34227325 1.13414032 49.72499084 1.14476013 C43.51242647 1.25259504 37.30001394 1.36721084 31.08764648 1.48583984 C28.76638961 1.52926278 26.44509927 1.57093223 24.1237793 1.61083984 C20.79514456 1.66836479 17.46667949 1.73210964 14.13818359 1.79711914 C13.09340347 1.81383163 12.04862335 1.83054413 10.97218323 1.84776306 C10.01126266 1.86770828 9.0503421 1.8876535 8.06030273 1.90820312 C6.78456139 1.93151955 6.78456139 1.93151955 5.48304749 1.95530701 C3.53528936 1.90297368 3.53528936 1.90297368 2.54052734 3.11352539 C1.08756949 3.32191775 -0.37263575 3.48106121 -1.83447266 3.61352539 C-4.6326858 3.86873701 -6.76757776 4.21622709 -9.45947266 5.11352539 C-7.18265589 0.07200254 -5.3779001 -0.01184559 0 0 Z " fill="#4F4F4C" transform="translate(218.45947265625,212.886474609375)"/>
<path d="M0 0 C0.99 0.33 1.98 0.66 3 1 C2.34 2.65 1.68 4.3 1 6 C0.01 6 -0.98 6 -2 6 C-3.97514608 6.44600073 -5.91414676 6.9758819 -7.86328125 7.5234375 C-14.43730144 8.98967235 -20.63942465 7.85034919 -27 6 C-25 4 -25 4 -21.3671875 3.875 C-19.12661739 3.92284135 -16.8881176 3.99953973 -14.6484375 4.078125 C-9.40120064 4.18898212 -5.04664698 3.46478643 0 2 C0 1.34 0 0.68 0 0 Z " fill="#4A4945" transform="translate(157,247)"/>
<path d="M0 0 C0 0.66 0 1.32 0 2 C-1.74802146 2.81674796 -3.49850189 3.62823451 -5.25 4.4375 C-6.22453125 4.88996094 -7.1990625 5.34242188 -8.203125 5.80859375 C-16.23478589 9.22990181 -23.77627771 8.39235558 -32 6 C-30 4 -30 4 -26.4375 3.9453125 C-24.95819564 4.00170531 -23.47902948 4.06180711 -22 4.125 C-15.60385588 4.28648481 -10.70754127 3.797512 -4.8828125 0.875 C-3 0 -3 0 0 0 Z " fill="#3D3C37" transform="translate(322,247)"/>
<path d="M0 0 C2.24434537 3.36651805 2.20138902 4.21596988 1.9765625 8.10546875 C1.89921875 9.57983398 1.89921875 9.57983398 1.8203125 11.08398438 C1.75585938 12.10814453 1.69140625 13.13230469 1.625 14.1875 C1.56828125 15.22326172 1.5115625 16.25902344 1.453125 17.32617188 C1.31163334 19.88481271 1.16022134 22.44247484 1 25 C0.01 24.67 -0.98 24.34 -2 24 C-2 23.01 -2 22.02 -2 21 C-2.66 21 -3.32 21 -4 21 C-3.835 19.906875 -3.67 18.81375 -3.5 17.6875 C-2.93281816 14.12474127 -2.93281816 14.12474127 -3 11 C-2.7215555 9.65914106 -2.40644523 8.32556995 -2.0625 7 C-1.88847656 6.319375 -1.71445313 5.63875 -1.53515625 4.9375 C-1.07627778 3.27615898 -0.54503426 1.63510278 0 0 Z " fill="#50504D" transform="translate(149,274)"/>
<path d="M0 0 C0.99 0.66 1.98 1.32 3 2 C2.34 2.556875 1.68 3.11375 1 3.6875 C-1.19766188 5.82540695 -1.19766188 5.82540695 -1.4375 8.5625 C-1.16193758 10.99409241 -1.16193758 10.99409241 0.125 12.75 C2.65977861 14.43985241 5.00575483 14.66730609 8 15 C8 15.33 8 15.66 8 16 C-0.38709677 16.16129032 -0.38709677 16.16129032 -3 15 C-5.1011047 12.39863227 -4.99548575 10.87360091 -4.875 7.5 C-3.93484821 3.73939283 -2.96883153 2.39421898 0 0 Z " fill="#363532" transform="translate(175,284)"/>
<path d="M0 0 C1.22566577 3.67699732 0.61791965 4.70133887 -0.75 8.25 C-1.306875 9.70599609 -1.306875 9.70599609 -1.875 11.19140625 C-3.19561114 14.48834865 -4.55756793 17.75452785 -6 21 C-6.66 20.67 -7.32 20.34 -8 20 C-7.3792054 12.86086211 -5.56140755 4.89403864 0 0 Z " fill="#373733" transform="translate(158,254)"/>
<path d="M0 0 C0.66 0 1.32 0 2 0 C3.20060015 1.82751451 4.31072301 3.71487841 5.375 5.625 C7.77939656 9.87159602 10.21755979 13.9932861 13 18 C12.01 18.33 11.02 18.66 10 19 C7.578048 16.0936576 5.64467517 13.39214254 4 10 C3.29875 9.01 2.5975 8.02 1.875 7 C0 4 0 4 0 0 Z " fill="#3D3D3A" transform="translate(122,124)"/>
<path d="M0 0 C-1 2 -1 2 -4 3.125 C-9.91036388 4.6694778 -16.09479584 4.52392366 -22 3 C-19.16778292 0.16778292 -17.01014994 0.62897528 -13.0625 0.4375 C-0.58438061 -0.19479354 -0.58438061 -0.19479354 0 0 Z " fill="#3E3D39" transform="translate(251,251)"/>
<path d="M0 0 C0.84072052 0.02009628 1.68144104 0.04019257 2.54763794 0.06089783 C3.91020218 0.10145042 3.91020218 0.10145042 5.30029297 0.14282227 C6.22969696 0.16643326 7.15910095 0.19004425 8.1166687 0.21437073 C11.09209152 0.29108941 14.06725943 0.37507843 17.04248047 0.45922852 C19.05679081 0.51244099 21.07111368 0.56518143 23.08544922 0.61743164 C28.02962179 0.74671567 32.97357774 0.88252145 37.91748047 1.02172852 C37.91748047 1.35172852 37.91748047 1.68172852 37.91748047 2.02172852 C36.70688965 2.04154785 35.49629883 2.06136719 34.24902344 2.08178711 C29.74247007 2.15806188 25.23623038 2.24674532 20.72998047 2.33911133 C18.78245248 2.37731085 16.83485612 2.41217926 14.88720703 2.44360352 C12.08194601 2.48945048 9.27715207 2.54741217 6.47216797 2.60766602 C5.17338211 2.62499283 5.17338211 2.62499283 3.84835815 2.64266968 C-0.83613995 2.75612627 -4.67614589 3.23536082 -9.08251953 5.02172852 C-8.75251953 4.36172852 -8.42251953 3.70172852 -8.08251953 3.02172852 C-7.42251953 3.02172852 -6.76251953 3.02172852 -6.08251953 3.02172852 C-6.08251953 2.36172852 -6.08251953 1.70172852 -6.08251953 1.02172852 C-3.7703254 -0.13436855 -2.56521257 -0.06912249 0 0 Z " fill="#3C3C39" transform="translate(212.08251953125,203.978271484375)"/>
<path d="M0 0 C0 0.33 0 0.66 0 1 C-0.59167969 1.03738281 -1.18335938 1.07476562 -1.79296875 1.11328125 C-8.39384073 1.66087097 -8.39384073 1.66087097 -14 5 C-15.82629794 8.06680799 -15.82629794 8.06680799 -17 11 C-17.99 9.68 -18.98 8.36 -20 7 C-19.34 7 -18.68 7 -18 7 C-17.79375 6.4225 -17.5875 5.845 -17.375 5.25 C-15.04623416 1.43929225 -11.60241277 -0.45283466 -7.4375 -1.875 C-4.49088173 -2.02610863 -2.63104833 -1.27793776 0 0 Z " fill="#3C3C39" transform="translate(181,117)"/>
<path d="M0 0 C1.29625529 3.63815652 0.66851395 6.02562765 -0.375 9.6875 C-1.75659707 14.82905988 -2.55832631 19.69991566 -3 25 C-6.58996078 18.3778811 -4.76534215 12.3736615 -2.8515625 5.453125 C-2 3 -2 3 0 0 Z " fill="#43423D" transform="translate(163,268)"/>
<path d="M0 0 C-0.556875 0.391875 -1.11375 0.78375 -1.6875 1.1875 C-6.66791581 4.75991302 -6.66791581 4.75991302 -9.50390625 9.9609375 C-9.73882062 11.96703161 -9.87201634 13.98425733 -10 16 C-10.30750837 17.3395251 -10.63413738 18.67522325 -11 20 C-13.83292978 10.1937046 -13.83292978 10.1937046 -11 5 C-7.82623714 1.39735027 -4.96942865 -0.73079833 0 0 Z " fill="#3C3B37" transform="translate(186,29)"/>
<path d="M0 0 C1.98743817 0.25464966 3.96617131 0.57886351 5.9375 0.9375 C9.946494 1.71308591 9.946494 1.71308591 14 2 C14 2.99 14 3.98 14 5 C8.62694301 6.67357513 8.62694301 6.67357513 6 7 C4 5.625 4 5.625 3 4 C2.01 4.33 1.02 4.66 0 5 C-0.5625 3.0625 -0.5625 3.0625 -1 1 C-0.67 0.67 -0.34 0.34 0 0 Z " fill="#484743" transform="translate(103,168)"/>
<path d="M0 0 C0.66 0.66 1.32 1.32 2 2 C-7 8 -7 8 -9.4375 7.75 C-11.81952314 7.05282249 -13.83546142 6.20252143 -16 5 C-14.38722016 3.38722016 -12.47452376 3.76321006 -10.25 3.625 C-6.11252699 3.26341568 -3.3701152 2.58375499 0 0 Z " fill="#46443F" transform="translate(200,53)"/>
<path d="M0 0 C0.845625 -0.01417969 1.69125 -0.02835938 2.5625 -0.04296875 C5.15408616 0.20206904 6.77024992 0.88165099 9 2.1875 C8.34 2.8475 7.68 3.5075 7 4.1875 C4.24410223 4.17002073 1.61213324 4.04886729 -1.125 3.8125 C-1.87910156 3.75578125 -2.63320313 3.6990625 -3.41015625 3.640625 C-5.27418096 3.4990535 -7.13721137 3.34450041 -9 3.1875 C-9 2.5275 -9 1.8675 -9 1.1875 C-5.9473937 0.30422271 -3.17494823 0.0241993 0 0 Z " fill="#6C6B65" transform="translate(270,232.8125)"/>
<path d="M0 0 C4 2 4 2 5 3 C5.375 5.8125 5.375 5.8125 5 9 C2.5 11.375 2.5 11.375 0 13 C-2.475 12.01 -2.475 12.01 -5 11 C-5 10.67 -5 10.34 -5 10 C-1.535 9.505 -1.535 9.505 2 9 C1.34 6.03 0.68 3.06 0 0 Z " fill="#605E59" transform="translate(138,132)"/>
<path d="M0 0 C0.33 0.99 0.66 1.98 1 3 C-5.06838523 4.5660349 -11.44858029 5.18482809 -17 2 C-14.1981185 0.59905925 -11.61780283 0.65478051 -8.5 0.4375 C-6.75203125 0.31181641 -6.75203125 0.31181641 -4.96875 0.18359375 C-3.31452998 0.0812933 -1.65738024 0 0 0 Z " fill="#403F3B" transform="translate(87,251)"/>
<path d="M0 0 C-2.46886304 2.8358562 -5.0994988 4.19600752 -8.5 5.75 C-9.4590625 6.19859375 -10.418125 6.6471875 -11.40625 7.109375 C-14 8 -14 8 -17 7 C-15.43227753 3.86455505 -12.74722124 3.26333349 -9.625 1.8125 C-8.46226562 1.26207031 -7.29953125 0.71164063 -6.1015625 0.14453125 C-3 -1 -3 -1 0 0 Z " fill="#494943" transform="translate(299,159)"/>
<path d="M0 0 C0.99 0.33 1.98 0.66 3 1 C4.66517133 7.36607809 5.42650927 11.79892075 3 18 C2.34 17.67 1.68 17.34 1 17 C1.01740234 15.78763672 1.01740234 15.78763672 1.03515625 14.55078125 C1.04417969 13.48214844 1.05320313 12.41351563 1.0625 11.3125 C1.07410156 10.25675781 1.08570313 9.20101562 1.09765625 8.11328125 C1.00865425 5.27589738 0.64939838 2.7561081 0 0 Z " fill="#4E4D4A" transform="translate(177,211)"/>
<path d="M0 0 C4.29 0 8.58 0 13 0 C9 4 9 4 5.984375 4.171875 C4.38335937 3.96304687 4.38335937 3.96304687 2.75 3.75 C1.67234375 3.62109375 0.5946875 3.4921875 -0.515625 3.359375 C-1.74539062 3.18148438 -1.74539062 3.18148438 -3 3 C-2.01 2.67 -1.02 2.34 0 2 C0 1.34 0 0.68 0 0 Z " fill="#272622" transform="translate(186,328)"/>
<path d="M0 0 C1.32 0.33 2.64 0.66 4 1 C3.67 1.33 3.34 1.66 3 2 C2.95936168 3.66617115 2.957279 5.33388095 3 7 C4.32 7.66 5.64 8.32 7 9 C4.36 9.66 1.72 10.32 -1 11 C-2.13757948 6.44968209 -1.4283779 4.36915594 0 0 Z " fill="#353531" transform="translate(39,235)"/>
<path d="M0 0 C0.80824219 0.10183594 1.61648437 0.20367188 2.44921875 0.30859375 C3.06410156 0.39238281 3.67898437 0.47617187 4.3125 0.5625 C4.3125 1.5525 4.3125 2.5425 4.3125 3.5625 C0.6825 3.5625 -2.9475 3.5625 -6.6875 3.5625 C-7.0175 2.5725 -7.3475 1.5825 -7.6875 0.5625 C-4.59271121 -0.46909626 -3.16118607 -0.41232862 0 0 Z " fill="#5E5E55" transform="translate(191.6875,27.4375)"/>
<path d="M0 0 C0.66 0 1.32 0 2 0 C1.625 1.9375 1.625 1.9375 1 4 C-3.27999354 6.13999677 -8.49048355 5.09321611 -13 4 C-9.68629 1.79086 -8.6553979 1.77518447 -4.8125 1.875 C-3.91144531 1.89304688 -3.01039063 1.91109375 -2.08203125 1.9296875 C-1.39496094 1.95289063 -0.70789063 1.97609375 0 2 C0 1.34 0 0.68 0 0 Z " fill="#45443F" transform="translate(339,241)"/>
<path d="M0 0 C3.19624262 1.53837846 6.21605574 3.28866532 9.25 5.125 C10.14203125 5.66382813 11.0340625 6.20265625 11.953125 6.7578125 C12.96632812 7.37269531 12.96632812 7.37269531 14 8 C12.1875 9.05859375 12.1875 9.05859375 10 10 C5.81161329 8.69112915 3.76027435 7.03787227 1.625 3.3125 C1.08875 2.219375 0.5525 1.12625 0 0 Z " fill="#373632" transform="translate(159,317)"/>
<path d="M0 0 C0.66 1.32 1.32 2.64 2 4 C-3 10.57142857 -3 10.57142857 -8 12 C-6.13912398 7.90607276 -4.28091459 5.06218695 -1 2 C-0.67 1.34 -0.34 0.68 0 0 Z " fill="#444340" transform="translate(167,227)"/>
<path d="M0 0 C2.24434537 3.36651805 2.20138902 4.21596988 1.9765625 8.10546875 C1.89921875 9.57983398 1.89921875 9.57983398 1.8203125 11.08398438 C1.75585938 12.10814453 1.69140625 13.13230469 1.625 14.1875 C1.56828125 15.22326172 1.5115625 16.25902344 1.453125 17.32617188 C1.31163334 19.88481271 1.16022134 22.44247484 1 25 C0.67 25 0.34 25 0 25 C-0.06058594 23.72382813 -0.12117187 22.44765625 -0.18359375 21.1328125 C-0.26799568 19.46352984 -0.35264386 17.79425963 -0.4375 16.125 C-0.47681641 15.28324219 -0.51613281 14.44148438 -0.55664062 13.57421875 C-0.59853516 12.76855469 -0.64042969 11.96289062 -0.68359375 11.1328125 C-0.73858032 10.01737061 -0.73858032 10.01737061 -0.79467773 8.87939453 C-0.89955865 6.91135688 -0.89955865 6.91135688 -2 5 C-1.0625 2.375 -1.0625 2.375 0 0 Z " fill="#2F2F2C" transform="translate(149,274)"/>
<path d="M0 0 C0.99 0 1.98 0 3 0 C3 3.3 3 6.6 3 10 C2.34 10 1.68 10 1 10 C0.67 10.99 0.34 11.98 0 13 C-1.28571429 4.57142857 -1.28571429 4.57142857 0 0 Z " fill="#4D4D48" transform="translate(197,214)"/>
<path d="M0 0 C2.1640625 0.0234375 2.1640625 0.0234375 4.625 0.375 C5.85089844 0.54128906 5.85089844 0.54128906 7.1015625 0.7109375 C7.72804687 0.80632812 8.35453125 0.90171875 9 1 C9 1.99 9 2.98 9 4 C7.741875 4.04125 6.48375 4.0825 5.1875 4.125 C4.47980469 4.14820313 3.77210938 4.17140625 3.04296875 4.1953125 C1 4 1 4 -2 2 C-1.34 1.34 -0.68 0.68 0 0 Z " fill="#4A4944" transform="translate(177,326)"/>
<path d="M0 0 C3.57321129 0.40604674 5.1399565 1.92617451 7.75 4.3125 C7.09 4.3125 6.43 4.3125 5.75 4.3125 C5.42 5.3025 5.09 6.2925 4.75 7.3125 C-1.25 3.3125 -1.25 3.3125 -3.25 1.3125 C-2.25 0.3125 -2.25 0.3125 0 0 Z " fill="#4E4D49" transform="translate(60.25,246.6875)"/>
<path d="M0 0 C-0.61875 0.185625 -1.2375 0.37125 -1.875 0.5625 C-5.05602866 2.71437233 -5.19451947 5.37533763 -6 9 C-9 7 -9 7 -9.6875 4.375 C-9.790625 3.59125 -9.89375 2.8075 -10 2 C-9.01 2 -8.02 2 -7 2 C-7 1.34 -7 0.68 -7 0 C-4.3333581 -1.33332095 -2.83319697 -0.67102033 0 0 Z " fill="#40403B" transform="translate(87,150)"/>
<path d="M0 0 C2.77332272 1.63136631 5.46301167 3.31484793 8.125 5.125 C10.89875221 7.10700596 10.89875221 7.10700596 14 8 C14 8.66 14 9.32 14 10 C8.70459011 9.66903688 4.75586243 6.52770257 1 3 C0.67 2.01 0.34 1.02 0 0 Z " fill="#4B4A45" transform="translate(164,307)"/>
<path d="M0 0 C2 1 2 1 5 3 C5.29296875 5.1640625 5.29296875 5.1640625 5.1875 7.625 C5.16042969 8.44226563 5.13335937 9.25953125 5.10546875 10.1015625 C5.07066406 10.72804687 5.03585938 11.35453125 5 12 C4.34 12 3.68 12 3 12 C3 10.35 3 8.7 3 7 C2.34 6.67 1.68 6.34 1 6 C0.67 5.01 0.34 4.02 0 3 C-0.66 2.34 -1.32 1.68 -2 1 C-1.34 0.67 -0.68 0.34 0 0 Z " fill="#656562" transform="translate(166,214)"/>
<path d="M0 0 C0.56203125 0.36867187 1.1240625 0.73734375 1.703125 1.1171875 C-0.08640685 1.95509539 -1.87857195 2.78738146 -3.671875 3.6171875 C-5.16847656 4.31328125 -5.16847656 4.31328125 -6.6953125 5.0234375 C-9.296875 6.1171875 -9.296875 6.1171875 -11.296875 6.1171875 C-11.296875 5.1271875 -11.296875 4.1371875 -11.296875 3.1171875 C-9.88995893 2.38967962 -8.47081478 1.68578397 -7.046875 0.9921875 C-6.25796875 0.59773437 -5.4690625 0.20328125 -4.65625 -0.203125 C-2.296875 -0.8828125 -2.296875 -0.8828125 0 0 Z " fill="#3B3A36" transform="translate(281.296875,166.8828125)"/>
<path d="M0 0 C5.68046944 0.94055703 9.72424312 1.86217076 14 6 C13.67 6.99 13.34 7.98 13 9 C12.34 8.4225 11.68 7.845 11 7.25 C7.52344894 4.64258671 3.92430901 2.83069502 0 1 C0 0.67 0 0.34 0 0 Z " fill="#5E5D56" transform="translate(177,115)"/>
<path d="M0 0 C4.95 0.99 4.95 0.99 10 2 C10 1.34 10 0.68 10 0 C11.32 0.33 12.64 0.66 14 1 C8.375 5 8.375 5 5 5 C5 4.34 5 3.68 5 3 C3.35 3 1.7 3 0 3 C0 2.01 0 1.02 0 0 Z " fill="#605F59" transform="translate(173,298)"/>
<path d="M0 0 C-1.87243981 1.87243981 -4.93659518 1.17380392 -7.4375 1.1875 C-8.61183594 1.20167969 -9.78617188 1.21585938 -10.99609375 1.23046875 C-14 1 -14 1 -16 -1 C-13.89722877 -1.22197585 -11.79267698 -1.42713637 -9.6875 -1.625 C-8.51574219 -1.74101562 -7.34398437 -1.85703125 -6.13671875 -1.9765625 C-3 -2 -3 -2 0 0 Z " fill="#4D4B46" transform="translate(151,243)"/>
<path d="M0 0 C0.99 0.33 1.98 0.66 3 1 C2.34 1.66 1.68 2.32 1 3 C0.505 3.86625 0.01 4.7325 -0.5 5.625 C-0.995 6.40875 -1.49 7.1925 -2 8 C-2.66 8 -3.32 8 -4 8 C-4.33 8.99 -4.66 9.98 -5 11 C-4.979375 10.21625 -4.95875 9.4325 -4.9375 8.625 C-4.81315937 6.01885039 -4.81315937 6.01885039 -6 4 C-3.1875 1.9375 -3.1875 1.9375 0 0 Z " fill="#5C5B58" transform="translate(203,206)"/>
<path d="M0 0 C0.55171875 0.29648438 1.1034375 0.59296875 1.671875 0.8984375 C4.16123288 2.07628804 6.6060884 2.85965717 9.25 3.625 C10.14203125 3.88539062 11.0340625 4.14578125 11.953125 4.4140625 C12.62859375 4.60742188 13.3040625 4.80078125 14 5 C14 5.33 14 5.66 14 6 C5.9870188 6.78558639 5.9870188 6.78558639 1.9375 3.5625 C0 1 0 1 0 0 Z " fill="#40403B" transform="translate(198,99)"/>
<path d="M0 0 C1.07310858 3.27185553 0.89263102 5.42947592 0.0625 8.75 C-0.22947266 9.94882813 -0.22947266 9.94882813 -0.52734375 11.171875 C-0.68332031 11.77515625 -0.83929688 12.3784375 -1 13 C-1.66 12.67 -2.32 12.34 -3 12 C-3 8.7 -3 5.4 -3 2 C-2.34 2 -1.68 2 -1 2 C-0.67 1.34 -0.34 0.68 0 0 Z " fill="#2F2F2C" transform="translate(198,87)"/>
<path d="M0 0 C0.33 0 0.66 0 1 0 C1.04898438 0.63808594 1.09796875 1.27617188 1.1484375 1.93359375 C1.22320312 2.75988281 1.29796875 3.58617187 1.375 4.4375 C1.44460937 5.26121094 1.51421875 6.08492187 1.5859375 6.93359375 C1.72257813 7.61550781 1.85921875 8.29742187 2 9 C2.66 9.33 3.32 9.66 4 10 C3.34 11.65 2.68 13.3 2 15 C-0.1694867 11.74576996 -0.38021471 10.19339748 -0.6875 6.375 C-0.77386719 5.39273438 -0.86023438 4.41046875 -0.94921875 3.3984375 C-0.96597656 2.60695312 -0.98273438 1.81546875 -1 1 C-0.67 0.67 -0.34 0.34 0 0 Z " fill="#6A6A67" transform="translate(173,40)"/>
<path d="M0 0 C1.34660543 0.98205479 2.68161373 1.98037486 4 3 C2.20841511 3.02696365 0.41671527 3.04637917 -1.375 3.0625 C-2.37273438 3.07410156 -3.37046875 3.08570313 -4.3984375 3.09765625 C-7 3 -7 3 -9 2 C-9 1.34 -9 0.68 -9 0 C-5.63398648 -0.84150338 -3.27243381 -1.26674857 0 0 Z " fill="#5D5C58" transform="translate(49,234)"/>
<path d="M0 0 C0.90492188 0.02320313 1.80984375 0.04640625 2.7421875 0.0703125 C4.10730469 0.09738281 4.10730469 0.09738281 5.5 0.125 C6.19867188 0.14820313 6.89734375 0.17140625 7.6171875 0.1953125 C7.6171875 1.1853125 7.6171875 2.1753125 7.6171875 3.1953125 C5.9671875 2.8653125 4.3171875 2.5353125 2.6171875 2.1953125 C2.2871875 2.8553125 1.9571875 3.5153125 1.6171875 4.1953125 C-0.3628125 3.5353125 -2.3428125 2.8753125 -4.3828125 2.1953125 C-2.3828125 0.1953125 -2.3828125 0.1953125 0 0 Z " fill="#6D6C6A" transform="translate(175.3828125,145.8046875)"/>
<path d="M0 0 C-2.58753156 1.29376578 -4.54958985 1.16832397 -7.4375 1.1875 C-8.40558594 1.20167969 -9.37367188 1.21585938 -10.37109375 1.23046875 C-13 1 -13 1 -16 -1 C-13.89722877 -1.22197585 -11.79267698 -1.42713637 -9.6875 -1.625 C-8.51574219 -1.74101562 -7.34398437 -1.85703125 -6.13671875 -1.9765625 C-3 -2 -3 -2 0 0 Z " fill="#4F4E49" transform="translate(245,243)"/>
<path d="M0 0 C4.62 0 9.24 0 14 0 C11.12863377 2.87136623 7.88990718 2.8308736 4 3 C1.5 2.5625 1.5 2.5625 0 2 C0 1.34 0 0.68 0 0 Z " fill="#100F0E" transform="translate(152,214)"/>
<path d="M0 0 C3.01103265 4.51654898 3.12682381 8.47362381 3.0625 13.8125 C3.05347656 14.78832031 3.04445312 15.76414062 3.03515625 16.76953125 C3.02355469 17.50558594 3.01195312 18.24164063 3 19 C2.67 19 2.34 19 2 19 C2 15.7 2 12.4 2 9 C1.34 8.67 0.68 8.34 0 8 C-1.09658936 4.71023192 -0.79953138 3.28696233 0 0 Z " fill="#74736F" transform="translate(217,275)"/>
<path d="M0 0 C2.375 -0.1875 2.375 -0.1875 5 0 C7 3 7 3 6.625 5.6875 C6.41875 6.450625 6.2125 7.21375 6 8 C5.34 8 4.68 8 4 8 C3.67 5.69 3.34 3.38 3 1 C2.01 1.33 1.02 1.66 0 2 C0 1.34 0 0.68 0 0 Z " fill="#51514B" transform="translate(198,266)"/>
<path d="M0 0 C0 0.66 0 1.32 0 2 C-1.43534841 2.2226746 -2.87345525 2.42761906 -4.3125 2.625 C-5.11300781 2.74101562 -5.91351563 2.85703125 -6.73828125 2.9765625 C-9 3 -9 3 -12 1 C-7.53763531 -0.80619523 -4.68965706 -1.11658501 0 0 Z " fill="#42413E" transform="translate(271,244)"/>
<path d="M0 0 C1.9453125 -0.29296875 1.9453125 -0.29296875 4.125 -0.1875 C5.40375 -0.125625 6.6825 -0.06375 8 0 C8 0.66 8 1.32 8 2 C8.66 2.33 9.32 2.66 10 3 C6.04 3 2.08 3 -2 3 C-1.34 2.01 -0.68 1.02 0 0 Z " fill="#807B75" transform="translate(106,243)"/>
<path d="M0 0 C3.12270126 2.51830747 3.94523098 3.7261549 4.75 7.75 C4.8325 8.8225 4.915 9.895 5 11 C2 9 2 9 1.26953125 6.8359375 C1.11871094 6.02382813 0.96789062 5.21171875 0.8125 4.375 C0.65394531 3.55773437 0.49539062 2.74046875 0.33203125 1.8984375 C0.22246094 1.27195313 0.11289063 0.64546875 0 0 Z " fill="#484742" transform="translate(219,253)"/>
<path d="M0 0 C0.66 0 1.32 0 2 0 C1.62671065 5.35048061 0.0042343 7.50912907 -4 11 C-4.66 10.34 -5.32 9.68 -6 9 C-5.195625 8.443125 -4.39125 7.88625 -3.5625 7.3125 C-0.75771784 4.78135513 -0.30618405 3.67420866 0 0 Z " fill="#373733" transform="translate(216,176)"/>
<path d="M0 0 C-1.625 5.75 -1.625 5.75 -5 8 C-5.66 6.68 -6.32 5.36 -7 4 C-2.25 0 -2.25 0 0 0 Z " fill="#464643" transform="translate(244,126)"/>
<path d="M0 0 C0.804375 0.309375 1.60875 0.61875 2.4375 0.9375 C6.62249087 2.18565517 10.66306101 2.6337696 15 3 C15 3.33 15 3.66 15 4 C4.86982581 5.60685522 4.86982581 5.60685522 1.3125 3.125 C0 1 0 1 0 0 Z " fill="#363531" transform="translate(167,142)"/>
<path d="M0 0 C0.66 0.66 1.32 1.32 2 2 C1.01 2.33 0.02 2.66 -1 3 C-2.14226716 5.28453433 -3.06253473 7.62508799 -4 10 C-4.33 10 -4.66 10 -5 10 C-5 8.35 -5 6.7 -5 5 C-5.66 4.67 -6.32 4.34 -7 4 C-4.69 2.68 -2.38 1.36 0 0 Z " fill="#464641" transform="translate(201,83)"/>
<path d="M0 0 C0.33 4.95 0.66 9.9 1 15 C-1.54185598 12.45814402 -1.42804872 10.44550366 -1.78125 6.9765625 C-2.00881193 4.92037789 -2.4208402 2.98569073 -3 1 C-1 0 -1 0 0 0 Z " fill="#343332" transform="translate(219,284)"/>
<path d="M0 0 C0.99 0.33 1.98 0.66 3 1 C2.34 2.65 1.68 4.3 1 6 C0.01 6 -0.98 6 -2 6 C-2.99 6.495 -2.99 6.495 -4 7 C-4 5.68 -4 4.36 -4 3 C-2.68 2.67 -1.36 2.34 0 2 C0 1.34 0 0.68 0 0 Z " fill="#373633" transform="translate(157,247)"/>
<path d="M0 0 C4.3177458 0.50797009 8.03302114 1.19682779 12 3 C10.25 4.125 10.25 4.125 8 5 C5.75 4.125 5.75 4.125 4 3 C4 2.34 4 1.68 4 1 C2.68 0.67 1.36 0.34 0 0 Z " fill="#717067" transform="translate(83,149)"/>
<path d="M0 0 C0.66 0 1.32 0 2 0 C5.07692308 5.41538462 5.07692308 5.41538462 4.6875 8.375 C4.460625 8.91125 4.23375 9.4475 4 10 C0 4.5 0 4.5 0 0 Z " fill="#363633" transform="translate(122,124)"/>
<path d="M0 0 C2 2 2 2 2.1953125 4.8203125 C2.16050781 6.45613281 2.16050781 6.45613281 2.125 8.125 C2.10695312 9.22070312 2.08890625 10.31640625 2.0703125 11.4453125 C2.04710937 12.28835937 2.02390625 13.13140625 2 14 C-0.35348271 11.64651729 -0.36468749 10.78533309 -0.6875 7.5625 C-0.77386719 6.78003906 -0.86023438 5.99757813 -0.94921875 5.19140625 C-1 3 -1 3 0 0 Z " fill="#2D2C2A" transform="translate(174,35)"/>
<path d="M0 0 C0.66 0.33 1.32 0.66 2 1 C2 1.99 2 2.98 2 4 C0.02 4.33 -1.96 4.66 -4 5 C-4.33 4.01 -4.66 3.02 -5 2 C-2.625 0.9375 -2.625 0.9375 0 0 Z " fill="#605F59" transform="translate(208,323)"/>
<path d="M0 0 C0.66 0 1.32 0 2 0 C3.0326802 2.78823655 3.04509293 3.8677274 2.0625 6.75 C1.711875 7.4925 1.36125 8.235 1 9 C0.01 8.67 -0.98 8.34 -2 8 C-1.67 7.67 -1.34 7.34 -1 7 C-0.63239269 4.67182036 -0.29758419 2.3381615 0 0 Z " fill="#4A4541" transform="translate(187,289)"/>
<path d="M0 0 C6.0546875 -0.1953125 6.0546875 -0.1953125 8 0 C8.66 0.66 9.32 1.32 10 2 C6.7 2.33 3.4 2.66 0 3 C0 2.01 0 1.02 0 0 Z " fill="#949188" transform="translate(41,244)"/>
<path d="M0 0 C5.41538462 -0.36923077 5.41538462 -0.36923077 8.375 1.5 C8.91125 1.995 9.4475 2.49 10 3 C8.02 3.33 6.04 3.66 4 4 C4 3.34 4 2.68 4 2 C2.68 1.34 1.36 0.68 0 0 Z " fill="#646460" transform="translate(127,239)"/>
<path d="M0 0 C1.32 0.33 2.64 0.66 4 1 C4 1.66 4 2.32 4 3 C4.99 3.33 5.98 3.66 7 4 C4.21176345 5.0326802 3.1322726 5.04509293 0.25 4.0625 C-0.4925 3.711875 -1.235 3.36125 -2 3 C-1.34 2.67 -0.68 2.34 0 2 C0 1.34 0 0.68 0 0 Z " fill="#73736E" transform="translate(216,234)"/>
<path d="M0 0 C2.31 0 4.62 0 7 0 C7.33 0.66 7.66 1.32 8 2 C6.3603125 2.2165625 6.3603125 2.2165625 4.6875 2.4375 C1.06877013 2.88288104 1.06877013 2.88288104 -2 4 C-1.34 2.68 -0.68 1.36 0 0 Z " fill="#1F1F1C" transform="translate(211,214)"/>
<path d="M0 0 C2.97 0.99 5.94 1.98 9 3 C8.01 3.495 8.01 3.495 7 4 C6.67 4.66 6.34 5.32 6 6 C1.125 3.375 1.125 3.375 0 0 Z " fill="#3E3E3A" transform="translate(83,159)"/>
<path d="M0 0 C3.16115776 1.36983503 3.9927092 1.9890638 6 5 C5.625 7.1875 5.625 7.1875 5 9 C4.16094435 7.87926138 3.32892169 6.75325453 2.5 5.625 C2.0359375 4.99851562 1.571875 4.37203125 1.09375 3.7265625 C0 2 0 2 0 0 Z " fill="#4F4E4A" transform="translate(127,115)"/>
<path d="M0 0 C-0.99 1.485 -0.99 1.485 -2 3 C-5.625 3.6875 -5.625 3.6875 -9 4 C-8.34 3.67 -7.68 3.34 -7 3 C-7 2.34 -7 1.68 -7 1 C-3.375 -1.125 -3.375 -1.125 0 0 Z " fill="#444440" transform="translate(258,248)"/>
<path d="M0 0 C0 0.66 0 1.32 0 2 C-2.8125 3.5625 -2.8125 3.5625 -6 5 C-6.99 4.67 -7.98 4.34 -9 4 C-8.34 4 -7.68 4 -7 4 C-7 3.34 -7 2.68 -7 2 C-4.35261084 0.5393715 -3.10551666 0 0 0 Z " fill="#45443E" transform="translate(322,247)"/>
<path d="M0 0 C0.66 0.66 1.32 1.32 2 2 C0.68 3.65 -0.64 5.3 -2 7 C-2.99 6.67 -3.98 6.34 -5 6 C-3.35 4.02 -1.7 2.04 0 0 Z " fill="#2D2C29" transform="translate(223,312)"/>
<path d="M0 0 C0.66 0.99 1.32 1.98 2 3 C1.125 6.1875 1.125 6.1875 0 9 C-0.33 8.34 -0.66 7.68 -1 7 C-1.66 6.67 -2.32 6.34 -3 6 C-2.01 4.02 -1.02 2.04 0 0 Z " fill="#3B3B38" transform="translate(217,297)"/>
<path d="M0 0 C2.96175123 0.61277612 4.38058783 1.25372522 7 3 C5.88625 3.12375 4.7725 3.2475 3.625 3.375 C-0.03103677 3.6465813 -0.03103677 3.6465813 -2 6 C-1.49396008 3.83125748 -1.00016187 2.00032373 0 0 Z " fill="#6D6D68" transform="translate(195,263)"/>
<path d="M0 0 C-3.18762365 2.12508244 -5.26512223 2.5020163 -9 3 C-9.33 2.34 -9.66 1.68 -10 1 C-6.78548731 -0.60725635 -3.56387464 -0.05748185 0 0 Z " fill="#696864" transform="translate(331,245)"/>
<path d="M0 0 C3.63 0 7.26 0 11 0 C9.515 1.485 9.515 1.485 8 3 C5.15124622 2.79846293 2.74900747 1.85624823 0 1 C0 0.67 0 0.34 0 0 Z " fill="#464743" transform="translate(213,213)"/>
<path d="M0 0 C2.52588702 2.36292656 3.88820837 3.66462511 5 7 C4.01 7.495 4.01 7.495 3 8 C3 7.34 3 6.68 3 6 C2.34 6 1.68 6 1 6 C0.67 4.02 0.34 2.04 0 0 Z " fill="#4D4D49" transform="translate(191,180)"/>
<path d="M0 0 C1.5 1.25 1.5 1.25 3 3 C3 4.32 3 5.64 3 7 C2.01 7 1.02 7 0 7 C0 4.69 0 2.38 0 0 Z " fill="#515149" transform="translate(297,150)"/>
<path d="M0 0 C0.66 0 1.32 0 2 0 C2 2.31 2 4.62 2 7 C1.01 6.34 0.02 5.68 -1 5 C-0.67 3.35 -0.34 1.7 0 0 Z " fill="#71716E" transform="translate(160,128)"/>
<path d="M0 0 C1.65 0 3.3 0 5 0 C5 0.33 5 0.66 5 1 C3.35 1 1.7 1 0 1 C0 0.67 0 0.34 0 0 Z " fill="#969696" transform="translate(188,316)"/>
<path d="M0 0 C0.66 0.33 1.32 0.66 2 1 C1.01 1 0.02 1 -1 1 C-0.67 0.67 -0.34 0.34 0 0 Z " fill="#5F5F5F" transform="translate(150,311)"/>
<path d="M0 0 C0 3 0 3 0 3 Z " fill="#777777" transform="translate(254,104)"/>
<path d="M0 0 C3 1 3 1 3 1 Z " fill="#8C8C8C" transform="translate(331,231)"/>
<path d="M0 0 C0.66 0.66 1.32 1.32 2 2 C1.34 2 0.68 2 0 2 C0 1.34 0 0.68 0 0 Z " fill="#7C7C7C" transform="translate(168,146)"/>
<path d="M0 0 C0.99 0.495 0.99 0.495 2 1 C1.01 1.495 1.01 1.495 0 2 C0 1.34 0 0.68 0 0 Z " fill="#838383" transform="translate(158,135)"/>
<path d="M0 0 C3 1 3 1 3 1 Z " fill="#707070" transform="translate(171,114)"/>
<path d="M0 0 C0.66 0 1.32 0 2 0 C1.67 0.66 1.34 1.32 1 2 C0.67 1.34 0.34 0.68 0 0 Z " fill="#5A5A5A" transform="translate(124,107)"/>
<path d="M0 0 C0.99 0.495 0.99 0.495 2 1 C1.01 1.495 1.01 1.495 0 2 C0 1.34 0 0.68 0 0 Z " fill="#2A2A2A" transform="translate(370,12)"/>
<path d="M0 0 C2 1 2 1 2 1 Z " fill="#3F3F3F" transform="translate(370,372)"/>
<path d="M0 0 C2 1 2 1 2 1 Z " fill="#2A2A2A" transform="translate(370,332)"/>
<path d="M0 0 C2 1 2 1 2 1 Z " fill="#E4E4E4" transform="translate(176,330)"/>
<path d="M0 0 C2 1 2 1 2 1 Z " fill="#E40000" transform="translate(370,316)"/>
<path d="" fill="#CBCBCB" transform="translate(0,0)"/>
<path d="" fill="#989898" transform="translate(0,0)"/>
<path d="M0 0 C2 1 2 1 2 1 Z " fill="#5F5F5F" transform="translate(209,308)"/>
<path d="M0 0 C2 1 2 1 2 1 Z " fill="#B1B1B1" transform="translate(206,303)"/>
<path d="M0 0 C2 1 2 1 2 1 Z " fill="#545454" transform="translate(175,302)"/>
<path d="" fill="#CBCBCB" transform="translate(0,0)"/>
<path d="M0 0 C2 1 2 1 2 1 Z " fill="#A4A4A4" transform="translate(179,281)"/>
<path d="" fill="#CBCBCB" transform="translate(0,0)"/>
<path d="M0 0 C2 1 2 1 2 1 Z " fill="#54542A" transform="translate(370,268)"/>
<path d="M0 0 C2 1 2 1 2 1 Z " fill="#E4E4E4" transform="translate(206,260)"/>
<path d="M0 0 C2 1 2 1 2 1 Z " fill="#E4E4E4" transform="translate(287,236)"/>
<path d="M0 0 C2 1 2 1 2 1 Z " fill="#E4E4E4" transform="translate(94,233)"/>
<path d="M0 0 C2 1 2 1 2 1 Z " fill="#E4E4E4" transform="translate(270,231)"/>
<path d="M0 0 C2 1 2 1 2 1 Z " fill="#E4E4E4" transform="translate(333,218)"/>
<path d="M0 0 C2 1 2 1 2 1 Z " fill="#E4E4E4" transform="translate(339,203)"/>
<path d="M0 0 C2 1 2 1 2 1 Z " fill="#E4E4E4" transform="translate(335,201)"/>
<path d="M0 0 C2 1 2 1 2 1 Z " fill="#E4E4B1" transform="translate(275,201)"/>
<path d="M0 0 C2 1 2 1 2 1 Z " fill="#E4E4B1" transform="translate(267,201)"/>
<path d="M0 0 C2 1 2 1 2 1 Z " fill="#545454" transform="translate(130,201)"/>
<path d="M0 0 C2 1 2 1 2 1 Z " fill="#E4E4E4" transform="translate(99,201)"/>
<path d="M0 0 C2 1 2 1 2 1 Z " fill="#E47171" transform="translate(75,201)"/>
<path d="" fill="#CBCBCB" transform="translate(0,0)"/>
<path d="M0 0 C2 1 2 1 2 1 Z " fill="#545454" transform="translate(189,184)"/>
<path d="M0 0 C2 1 2 1 2 1 Z " fill="#E4E465" transform="translate(370,180)"/>
<path d="M0 0 C2 1 2 1 2 1 Z " fill="#B1B1B1" transform="translate(118,174)"/>
<path d="M0 0 C2 1 2 1 2 1 Z " fill="#545454" transform="translate(261,161)"/>
<path d="M0 0 C2 1 2 1 2 1 Z " fill="#E4E4E4" transform="translate(190,161)"/>
<path d="M0 0 C2 1 2 1 2 1 Z " fill="#545454" transform="translate(166,148)"/>
<path d="" fill="#656565" transform="translate(0,0)"/>
<path d="M0 0 C2 1 2 1 2 1 Z " fill="#E4E4E4" transform="translate(128,140)"/>
<path d="M0 0 C2 1 2 1 2 1 Z " fill="#545454" transform="translate(125,137)"/>
<path d="" fill="#CBCBCB" transform="translate(0,0)"/>
<path d="M0 0 C2 1 2 1 2 1 Z " fill="#E4E400" transform="translate(370,116)"/>
<path d="M0 0 C2 1 2 1 2 1 Z " fill="#717171" transform="translate(167,116)"/>
<path d="" fill="#CBCBCB" transform="translate(0,0)"/>
<path d="M0 0 C2 1 2 1 2 1 Z " fill="#545454" transform="translate(252,108)"/>
<path d="M0 0 C2 1 2 1 2 1 Z " fill="#B9B9B9" transform="translate(257,107)"/>
<path d="" fill="#CBCBCB" transform="translate(0,0)"/>
<path d="" fill="#CBCBCB" transform="translate(0,0)"/>
<path d="M0 0 C2 1 2 1 2 1 Z " fill="#B1B1B1" transform="translate(196,26)"/>
<path d="" fill="#CBCB00" transform="translate(0,0)"/>
<path d="" fill="#656565" transform="translate(0,0)"/>
<path d="" fill="#000000" transform="translate(0,0)"/>
<path d="" fill="#656565" transform="translate(0,0)"/>
<path d="" fill="#000000" transform="translate(0,0)"/>
<path d="" fill="#CBCB00" transform="translate(0,0)"/>
<path d="" fill="#000000" transform="translate(0,0)"/>
<path d="" fill="#CB0000" transform="translate(0,0)"/>
<path d="" fill="#000000" transform="translate(0,0)"/>
<path d="" fill="#000000" transform="translate(0,0)"/>
<path d="" fill="#656565" transform="translate(0,0)"/>
<path d="" fill="#CBCB00" transform="translate(0,0)"/>
<path d="" fill="#000000" transform="translate(0,0)"/>
<path d="" fill="#CBCBCB" transform="translate(0,0)"/>
<path d="" fill="#656565" transform="translate(0,0)"/>
<path d="" fill="#000000" transform="translate(0,0)"/>
<path d="" fill="#000000" transform="translate(0,0)"/>
<path d="" fill="#CBCBCB" transform="translate(0,0)"/>
<path d="" fill="#CBCBCB" transform="translate(0,0)"/>
<path d="" fill="#656565" transform="translate(0,0)"/>
<path d="" fill="#CB0000" transform="translate(0,0)"/>
<path d="" fill="#CBCBCB" transform="translate(0,0)"/>
<path d="" fill="#CBCBCB" transform="translate(0,0)"/>
<path d="" fill="#CBCBCB" transform="translate(0,0)"/>
<path d="" fill="#656565" transform="translate(0,0)"/>
<path d="" fill="#656565" transform="translate(0,0)"/>
<path d="" fill="#000000" transform="translate(0,0)"/>
<path d="" fill="#CBCBCB" transform="translate(0,0)"/>
<path d="" fill="#000000" transform="translate(0,0)"/>
<path d="" fill="#CBCBCB" transform="translate(0,0)"/>
<path d="" fill="#656565" transform="translate(0,0)"/>
<path d="" fill="#000000" transform="translate(0,0)"/>
<path d="" fill="#CBCBCB" transform="translate(0,0)"/>
<path d="" fill="#CBCBCB" transform="translate(0,0)"/>
<path d="" fill="#656565" transform="translate(0,0)"/>
<path d="" fill="#CBCBCB" transform="translate(0,0)"/>
<path d="" fill="#CBCBCB" transform="translate(0,0)"/>
<path d="" fill="#CBCBCB" transform="translate(0,0)"/>
<path d="" fill="#CBCBCB" transform="translate(0,0)"/>
<path d="" fill="#CBCBCB" transform="translate(0,0)"/>
<path d="" fill="#CB0000" transform="translate(0,0)"/>
<path d="" fill="#CBCBCB" transform="translate(0,0)"/>
<path d="" fill="#CBCBCB" transform="translate(0,0)"/>
<path d="" fill="#CBCB00" transform="translate(0,0)"/>
<path d="" fill="#CBCBCB" transform="translate(0,0)"/>
<path d="" fill="#CBCB00" transform="translate(0,0)"/>
<path d="" fill="#656565" transform="translate(0,0)"/>
<path d="" fill="#656565" transform="translate(0,0)"/>
<path d="" fill="#CBCBCB" transform="translate(0,0)"/>
<path d="" fill="#656565" transform="translate(0,0)"/>
<path d="" fill="#CBCBCB" transform="translate(0,0)"/>
<path d="" fill="#CBCBCB" transform="translate(0,0)"/>
<path d="" fill="#CBCBCB" transform="translate(0,0)"/>
<path d="" fill="#CBCB00" transform="translate(0,0)"/>
<path d="" fill="#CBCB00" transform="translate(0,0)"/>
<path d="" fill="#CBCBCB" transform="translate(0,0)"/>
<path d="" fill="#CBCBCB" transform="translate(0,0)"/>
<path d="" fill="#CBCBCB" transform="translate(0,0)"/>
<path d="" fill="#CBCBCB" transform="translate(0,0)"/>
<path d="" fill="#CBCB00" transform="translate(0,0)"/>
<path d="" fill="#CBCBCB" transform="translate(0,0)"/>
<path d="" fill="#CBCBCB" transform="translate(0,0)"/>
<path d="" fill="#656565" transform="translate(0,0)"/>
<path d="" fill="#CBCBCB" transform="translate(0,0)"/>
<path d="" fill="#CBCBCB" transform="translate(0,0)"/>
<path d="" fill="#CBCBCB" transform="translate(0,0)"/>
<path d="" fill="#CBCB00" transform="translate(0,0)"/>
<path d="" fill="#CBCBCB" transform="translate(0,0)"/>
<path d="" fill="#CBCBCB" transform="translate(0,0)"/>
<path d="" fill="#656565" transform="translate(0,0)"/>
<path d="" fill="#656565" transform="translate(0,0)"/>
<path d="" fill="#CBCBCB" transform="translate(0,0)"/>
<path d="" fill="#CBCB00" transform="translate(0,0)"/>
<path d="" fill="#CBCB00" transform="translate(0,0)"/>
<path d="" fill="#CBCBCB" transform="translate(0,0)"/>
<path d="" fill="#656565" transform="translate(0,0)"/>
<path d="" fill="#656565" transform="translate(0,0)"/>
<path d="" fill="#CBCB00" transform="translate(0,0)"/>
<path d="" fill="#656565" transform="translate(0,0)"/>
<path d="" fill="#CBCBCB" transform="translate(0,0)"/>
<path d="" fill="#656565" transform="translate(0,0)"/>
<path d="" fill="#656565" transform="translate(0,0)"/>
<path d="" fill="#656565" transform="translate(0,0)"/>
<path d="" fill="#CBCBCB" transform="translate(0,0)"/>
<path d="" fill="#656565" transform="translate(0,0)"/>
<path d="" fill="#CBCBCB" transform="translate(0,0)"/>
<path d="" fill="#CBCB00" transform="translate(0,0)"/>
<path d="" fill="#656565" transform="translate(0,0)"/>
<path d="" fill="#656565" transform="translate(0,0)"/>
<path d="" fill="#CBCBCB" transform="translate(0,0)"/>
<path d="" fill="#CBCBCB" transform="translate(0,0)"/>
<path d="" fill="#CBCB00" transform="translate(0,0)"/>
<path d="" fill="#CBCBCB" transform="translate(0,0)"/>
<path d="" fill="#656565" transform="translate(0,0)"/>
<path d="" fill="#CBCBCB" transform="translate(0,0)"/>
<path d="" fill="#CBCBCB" transform="translate(0,0)"/>
<path d="" fill="#CBCBCB" transform="translate(0,0)"/>
<path d="" fill="#CBCBCB" transform="translate(0,0)"/>
<path d="" fill="#CBCBCB" transform="translate(0,0)"/>
<path d="" fill="#CBCBCB" transform="translate(0,0)"/>
<path d="" fill="#656565" transform="translate(0,0)"/>
<path d="" fill="#CBCBCB" transform="translate(0,0)"/>
<path d="" fill="#656565" transform="translate(0,0)"/>
<path d="" fill="#656565" transform="translate(0,0)"/>
<path d="" fill="#CBCBCB" transform="translate(0,0)"/>
<path d="" fill="#656565" transform="translate(0,0)"/>
<path d="" fill="#CBCBCB" transform="translate(0,0)"/>
<path d="" fill="#CBCBCB" transform="translate(0,0)"/>
<path d="" fill="#CBCBCB" transform="translate(0,0)"/>
<path d="" fill="#CBCBCB" transform="translate(0,0)"/>
<path d="" fill="#CBCBCB" transform="translate(0,0)"/>
<path d="" fill="#CBCBCB" transform="translate(0,0)"/>
<path d="" fill="#CBCBCB" transform="translate(0,0)"/>
<path d="" fill="#CBCBCB" transform="translate(0,0)"/>
<path d="" fill="#CBCBCB" transform="translate(0,0)"/>
<path d="" fill="#CBCBCB" transform="translate(0,0)"/>
<path d="" fill="#656565" transform="translate(0,0)"/>
<path d="" fill="#CBCBCB" transform="translate(0,0)"/>
<path d="" fill="#CBCBCB" transform="translate(0,0)"/>
<path d="" fill="#CBCBCB" transform="translate(0,0)"/>
<path d="" fill="#CBCBCB" transform="translate(0,0)"/>
<path d="" fill="#CBCBCB" transform="translate(0,0)"/>
<path d="" fill="#CBCBCB" transform="translate(0,0)"/>
<path d="" fill="#CBCBCB" transform="translate(0,0)"/>
<path d="" fill="#CBCBCB" transform="translate(0,0)"/>
<path d="" fill="#CBCBCB" transform="translate(0,0)"/>
<path d="" fill="#656565" transform="translate(0,0)"/>
<path d="" fill="#CBCBCB" transform="translate(0,0)"/>
<path d="" fill="#CBCBCB" transform="translate(0,0)"/>
<path d="" fill="#CBCBCB" transform="translate(0,0)"/>
<path d="" fill="#CBCBCB" transform="translate(0,0)"/>
<path d="" fill="#656565" transform="translate(0,0)"/>
<path d="" fill="#CBCBCB" transform="translate(0,0)"/>
<path d="" fill="#CBCBCB" transform="translate(0,0)"/>
<path d="" fill="#CBCBCB" transform="translate(0,0)"/>
<path d="" fill="#CBCBCB" transform="translate(0,0)"/>
<path d="" fill="#CBCBCB" transform="translate(0,0)"/>
<path d="" fill="#656565" transform="translate(0,0)"/>
<path d="" fill="#CBCBCB" transform="translate(0,0)"/>
<path d="" fill="#CBCBCB" transform="translate(0,0)"/>
<path d="" fill="#CBCBCB" transform="translate(0,0)"/>
<path d="" fill="#CBCBCB" transform="translate(0,0)"/>
<path d="" fill="#CBCB65" transform="translate(0,0)"/>
<path d="" fill="#CBCBCB" transform="translate(0,0)"/>
<path d="" fill="#CBCBCB" transform="translate(0,0)"/>
<path d="" fill="#CBCBCB" transform="translate(0,0)"/>
<path d="" fill="#CBCBCB" transform="translate(0,0)"/>
<path d="" fill="#CBCB65" transform="translate(0,0)"/>
<path d="" fill="#CBCBCB" transform="translate(0,0)"/>
<path d="" fill="#CBCBCB" transform="translate(0,0)"/>
<path d="" fill="#CBCBCB" transform="translate(0,0)"/>
<path d="" fill="#CBCBCB" transform="translate(0,0)"/>
<path d="" fill="#CBCBCB" transform="translate(0,0)"/>
<path d="" fill="#CBCBCB" transform="translate(0,0)"/>
<path d="" fill="#CBCBCB" transform="translate(0,0)"/>
<path d="" fill="#656565" transform="translate(0,0)"/>
<path d="" fill="#CBCBCB" transform="translate(0,0)"/>
<path d="" fill="#CBCBCB" transform="translate(0,0)"/>
<path d="" fill="#CBCBCB" transform="translate(0,0)"/>
<path d="" fill="#CBCBCB" transform="translate(0,0)"/>
<path d="" fill="#656565" transform="translate(0,0)"/>
<path d="" fill="#CBCBCB" transform="translate(0,0)"/>
<path d="" fill="#CBCBCB" transform="translate(0,0)"/>
<path d="" fill="#CBCBCB" transform="translate(0,0)"/>
<path d="" fill="#CBCBCB" transform="translate(0,0)"/>
<path d="" fill="#CBCBCB" transform="translate(0,0)"/>
<path d="" fill="#656565" transform="translate(0,0)"/>
<path d="" fill="#CBCB00" transform="translate(0,0)"/>
<path d="" fill="#CBCBCB" transform="translate(0,0)"/>
<path d="" fill="#CBCBCB" transform="translate(0,0)"/>
<path d="" fill="#CBCBCB" transform="translate(0,0)"/>
<path d="" fill="#CBCBCB" transform="translate(0,0)"/>
<path d="" fill="#656565" transform="translate(0,0)"/>
<path d="" fill="#CBCBCB" transform="translate(0,0)"/>
<path d="" fill="#CBCBCB" transform="translate(0,0)"/>
<path d="" fill="#CBCB00" transform="translate(0,0)"/>
<path d="" fill="#CBCBCB" transform="translate(0,0)"/>
<path d="" fill="#CBCBCB" transform="translate(0,0)"/>
<path d="" fill="#CBCB00" transform="translate(0,0)"/>
<path d="" fill="#CBCBCB" transform="translate(0,0)"/>
<path d="" fill="#CBCBCB" transform="translate(0,0)"/>
<path d="" fill="#CBCBCB" transform="translate(0,0)"/>
<path d="" fill="#656565" transform="translate(0,0)"/>
<path d="" fill="#656565" transform="translate(0,0)"/>
<path d="" fill="#CBCBCB" transform="translate(0,0)"/>
<path d="" fill="#CBCBCB" transform="translate(0,0)"/>
<path d="" fill="#CBCBCB" transform="translate(0,0)"/>
<path d="" fill="#CBCBCB" transform="translate(0,0)"/>
<path d="" fill="#CBCBCB" transform="translate(0,0)"/>
<path d="" fill="#656565" transform="translate(0,0)"/>
<path d="" fill="#CBCBCB" transform="translate(0,0)"/>
<path d="" fill="#656565" transform="translate(0,0)"/>
<path d="" fill="#CBCBCB" transform="translate(0,0)"/>
<path d="" fill="#CBCBCB" transform="translate(0,0)"/>
<path d="" fill="#CBCBCB" transform="translate(0,0)"/>
<path d="" fill="#CBCBCB" transform="translate(0,0)"/>
<path d="" fill="#CBCB00" transform="translate(0,0)"/>
<path d="" fill="#CBCBCB" transform="translate(0,0)"/>
<path d="" fill="#CBCBCB" transform="translate(0,0)"/>
<path d="" fill="#CBCBCB" transform="translate(0,0)"/>
<path d="" fill="#656565" transform="translate(0,0)"/>
<path d="" fill="#CBCBCB" transform="translate(0,0)"/>
<path d="" fill="#656565" transform="translate(0,0)"/>
<path d="" fill="#CBCB00" transform="translate(0,0)"/>
<path d="" fill="#CBCBCB" transform="translate(0,0)"/>
<path d="" fill="#CBCBCB" transform="translate(0,0)"/>
<path d="" fill="#CBCB00" transform="translate(0,0)"/>
<path d="" fill="#CBCB00" transform="translate(0,0)"/>
<path d="" fill="#CBCBCB" transform="translate(0,0)"/>
<path d="" fill="#CBCB00" transform="translate(0,0)"/>
<path d="" fill="#CBCBCB" transform="translate(0,0)"/>
<path d="" fill="#CBCBCB" transform="translate(0,0)"/>
<path d="" fill="#656565" transform="translate(0,0)"/>
<path d="" fill="#CBCB00" transform="translate(0,0)"/>
<path d="" fill="#CBCBCB" transform="translate(0,0)"/>
<path d="" fill="#656565" transform="translate(0,0)"/>
<path d="" fill="#CBCBCB" transform="translate(0,0)"/>
<path d="" fill="#CBCBCB" transform="translate(0,0)"/>
<path d="" fill="#CBCBCB" transform="translate(0,0)"/>
<path d="" fill="#CBCBCB" transform="translate(0,0)"/>
<path d="" fill="#CBCBCB" transform="translate(0,0)"/>
<path d="" fill="#CBCBCB" transform="translate(0,0)"/>
<path d="" fill="#CBCB00" transform="translate(0,0)"/>
<path d="" fill="#CBCBCB" transform="translate(0,0)"/>
<path d="" fill="#656565" transform="translate(0,0)"/>
<path d="" fill="#CBCBCB" transform="translate(0,0)"/>
<path d="" fill="#CBCBCB" transform="translate(0,0)"/>
<path d="" fill="#CBCBCB" transform="translate(0,0)"/>
<path d="" fill="#CBCBCB" transform="translate(0,0)"/>
<path d="" fill="#CBCBCB" transform="translate(0,0)"/>
<path d="" fill="#CBCBCB" transform="translate(0,0)"/>
<path d="" fill="#CBCBCB" transform="translate(0,0)"/>
<path d="" fill="#CBCBCB" transform="translate(0,0)"/>
<path d="" fill="#CBCBCB" transform="translate(0,0)"/>
<path d="" fill="#CBCB00" transform="translate(0,0)"/>
<path d="" fill="#CBCB00" transform="translate(0,0)"/>
<path d="" fill="#CBCB00" transform="translate(0,0)"/>
<path d="" fill="#656565" transform="translate(0,0)"/>
<path d="" fill="#CBCBCB" transform="translate(0,0)"/>
<path d="" fill="#CBCB00" transform="translate(0,0)"/>
<path d="" fill="#CBCBCB" transform="translate(0,0)"/>
<path d="" fill="#CBCB00" transform="translate(0,0)"/>
<path d="" fill="#656565" transform="translate(0,0)"/>
<path d="" fill="#CBCBCB" transform="translate(0,0)"/>
<path d="" fill="#656565" transform="translate(0,0)"/>
<path d="" fill="#656565" transform="translate(0,0)"/>
<path d="" fill="#CBCBCB" transform="translate(0,0)"/>
<path d="" fill="#CB0000" transform="translate(0,0)"/>
<path d="" fill="#CB0000" transform="translate(0,0)"/>
<path d="" fill="#000000" transform="translate(0,0)"/>
<path d="" fill="#CBCBCB" transform="translate(0,0)"/>
<path d="" fill="#CBCB00" transform="translate(0,0)"/>
<path d="" fill="#CBCB00" transform="translate(0,0)"/>
<path d="" fill="#656565" transform="translate(0,0)"/>
<path d="" fill="#CBCBCB" transform="translate(0,0)"/>
<path d="" fill="#CBCBCB" transform="translate(0,0)"/>
<path d="" fill="#CBCBCB" transform="translate(0,0)"/>
<path d="" fill="#CBCB00" transform="translate(0,0)"/>
<path d="" fill="#CBCBCB" transform="translate(0,0)"/>
<path d="" fill="#656565" transform="translate(0,0)"/>
<path d="" fill="#656565" transform="translate(0,0)"/>
<path d="" fill="#000000" transform="translate(0,0)"/>
<path d="" fill="#000000" transform="translate(0,0)"/>
<path d="" fill="#000000" transform="translate(0,0)"/>
<path d="" fill="#CBCBCB" transform="translate(0,0)"/>
<path d="" fill="#000000" transform="translate(0,0)"/>
<path d="" fill="#656565" transform="translate(0,0)"/>
<path d="" fill="#CBCBCB" transform="translate(0,0)"/>
<path d="" fill="#CBCBCB" transform="translate(0,0)"/>
<path d="" fill="#000000" transform="translate(0,0)"/>
<path d="" fill="#CBCBCB" transform="translate(0,0)"/>
<path d="" fill="#000000" transform="translate(0,0)"/>
<path d="" fill="#656565" transform="translate(0,0)"/>
<path d="" fill="#656565" transform="translate(0,0)"/>
<path d="" fill="#CBCB00" transform="translate(0,0)"/>
<path d="" fill="#656565" transform="translate(0,0)"/>
<path d="" fill="#CBCB00" transform="translate(0,0)"/>
<path d="" fill="#CBCB00" transform="translate(0,0)"/>
<path d="" fill="#CBCB00" transform="translate(0,0)"/>
<path d="" fill="#656565" transform="translate(0,0)"/>
<path d="" fill="#000000" transform="translate(0,0)"/>
<path d="" fill="#000000" transform="translate(0,0)"/>
<path d="" fill="#000000" transform="translate(0,0)"/>
</svg>
